ISO-10303-21;
HEADER;
/* Generated by software containing ST-Developer
 * from STEP Tools, Inc. (www.steptools.com) 
 */
/* OPTION: using custom renumber hook */

FILE_DESCRIPTION(
/* description */ ('STEP AP242 Edition 2',
'CAx-IF Rec.Pracs.---Representation and Presentation of Product Manufa
cturing Information (PMI)---4.0---2014-10-13',
'CAx-IF Rec.Pracs.---3D Tessellated Geometry---0.4---2014-09-14','2;1',
'CAx-IF Rec.Pracs.---User Defined Attributes---1.5---2016-08-15'),
/* implementation_level */ '2;1');

FILE_NAME(
/* name */ 'gantry shoulder',
/* time_stamp */ '2026-08-14T04:17:15Z',
/* author */ (''),
/* organization */ (''),
/* preprocessor_version */ 'ST-DEVELOPER v20',
/* originating_system */ 'ONSHAPE BY PTC INC, 1.219',
/* authorisation */ '  ');

FILE_SCHEMA (('AP242_MANAGED_MODEL_BASED_3D_ENGINEERING_MIM_LF { 1 0 10303 442 3 1 4 }'));
ENDSEC;

DATA;
#10=SHAPE_REPRESENTATION_RELATIONSHIP('','',#1015,#11);
#11=ADVANCED_BREP_SHAPE_REPRESENTATION('',(#1013),#1701);
#12=ELLIPSE('',#1064,0.00898025612106915,0.00635);
#13=ELLIPSE('',#1066,0.00898025612106915,0.00635);
#14=ELLIPSE('',#1069,0.00898025612106915,0.00635);
#15=ELLIPSE('',#1071,0.00898025612106916,0.00635);
#16=B_SPLINE_CURVE_WITH_KNOTS('',3,(#1463,#1464,#1465,#1466,#1467),
 .UNSPECIFIED.,.F.,.F.,(4,1,4),(0.,0.00483751953954888,0.00967503907909777),
 .UNSPECIFIED.);
#17=B_SPLINE_CURVE_WITH_KNOTS('',3,(#1500,#1501,#1502,#1503,#1504),
 .UNSPECIFIED.,.F.,.F.,(4,1,4),(0.,0.00483751953954888,0.00967503907909777),
 .UNSPECIFIED.);
#18=B_SPLINE_CURVE_WITH_KNOTS('',3,(#1609,#1610,#1611,#1612,#1613,#1614),
 .UNSPECIFIED.,.F.,.F.,(4,1,1,4),(0.,0.00211765180909177,0.00423530361818353,
0.00847060723636707),.UNSPECIFIED.);
#19=B_SPLINE_CURVE_WITH_KNOTS('',3,(#1616,#1617,#1618,#1619,#1620,#1621),
 .UNSPECIFIED.,.F.,.F.,(4,1,1,4),(0.,0.00211765180909178,0.00423530361818356,
0.00847060723636712),.UNSPECIFIED.);
#20=CYLINDRICAL_SURFACE('',#1028,0.011557);
#21=CYLINDRICAL_SURFACE('',#1034,0.011557);
#22=CYLINDRICAL_SURFACE('',#1037,0.00750199001739831);
#23=CYLINDRICAL_SURFACE('',#1040,0.00750199001739831);
#24=CYLINDRICAL_SURFACE('',#1063,0.00635);
#25=CYLINDRICAL_SURFACE('',#1065,0.00635);
#26=CYLINDRICAL_SURFACE('',#1067,0.00635);
#27=CYLINDRICAL_SURFACE('',#1068,0.00635);
#28=CYLINDRICAL_SURFACE('',#1070,0.00635);
#29=CYLINDRICAL_SURFACE('',#1072,0.00635);
#30=CYLINDRICAL_SURFACE('',#1073,0.0122642048968553);
#31=CYLINDRICAL_SURFACE('',#1074,0.0122642048968553);
#32=CYLINDRICAL_SURFACE('',#1075,0.004191);
#33=CYLINDRICAL_SURFACE('',#1087,0.0122642122);
#34=CYLINDRICAL_SURFACE('',#1088,0.0122642122);
#35=CYLINDRICAL_SURFACE('',#1089,0.006985);
#36=CYLINDRICAL_SURFACE('',#1090,0.003937);
#37=CYLINDRICAL_SURFACE('',#1093,0.003937);
#38=CYLINDRICAL_SURFACE('',#1098,0.00440107794032382);
#39=CYLINDRICAL_SURFACE('',#1099,0.004408371445829);
#40=CYLINDRICAL_SURFACE('',#1100,0.00440107794032382);
#41=CYLINDRICAL_SURFACE('',#1108,0.00254);
#42=CYLINDRICAL_SURFACE('',#1109,0.00254);
#43=CYLINDRICAL_SURFACE('',#1110,0.00254);
#44=CIRCLE('',#1020,0.00440107794032382);
#45=CIRCLE('',#1021,0.004408371445829);
#46=CIRCLE('',#1022,0.00440107794032382);
#47=CIRCLE('',#1024,0.00440107794032382);
#48=CIRCLE('',#1025,0.004408371445829);
#49=CIRCLE('',#1026,0.00440107794032382);
#50=CIRCLE('',#1029,0.011557);
#51=CIRCLE('',#1030,0.011557);
#52=CIRCLE('',#1035,0.011557);
#53=CIRCLE('',#1036,0.011557);
#54=CIRCLE('',#1038,0.00750199001739831);
#55=CIRCLE('',#1039,0.00750199001739831);
#56=CIRCLE('',#1041,0.00750199001739831);
#57=CIRCLE('',#1042,0.00750199001739831);
#58=CIRCLE('',#1045,0.0122642048968553);
#59=CIRCLE('',#1046,0.0122642048968553);
#60=CIRCLE('',#1048,0.0122642048968553);
#61=CIRCLE('',#1049,0.0122642048968553);
#62=CIRCLE('',#1050,0.00254);
#63=CIRCLE('',#1051,0.00254);
#64=CIRCLE('',#1053,0.006985);
#65=CIRCLE('',#1054,0.0122642122);
#66=CIRCLE('',#1055,0.00635);
#67=CIRCLE('',#1056,0.00635);
#68=CIRCLE('',#1057,0.00635);
#69=CIRCLE('',#1058,0.00635);
#70=CIRCLE('',#1059,0.0122642122);
#71=CIRCLE('',#1076,0.004191);
#72=CIRCLE('',#1077,0.004191);
#73=CIRCLE('',#1081,0.003937);
#74=CIRCLE('',#1082,0.003937);
#75=CIRCLE('',#1083,0.006985);
#76=CIRCLE('',#1084,0.0122642122);
#77=CIRCLE('',#1085,0.0122642122);
#78=CIRCLE('',#1091,0.003937);
#79=CIRCLE('',#1094,0.003937);
#80=CIRCLE('',#1104,0.00254);
#81=CIRCLE('',#1105,0.00254);
#82=ORIENTED_EDGE('',*,*,#350,.F.);
#83=ORIENTED_EDGE('',*,*,#351,.T.);
#84=ORIENTED_EDGE('',*,*,#352,.T.);
#85=ORIENTED_EDGE('',*,*,#353,.T.);
#86=ORIENTED_EDGE('',*,*,#354,.F.);
#87=ORIENTED_EDGE('',*,*,#355,.T.);
#88=ORIENTED_EDGE('',*,*,#356,.T.);
#89=ORIENTED_EDGE('',*,*,#357,.T.);
#90=ORIENTED_EDGE('',*,*,#358,.T.);
#91=ORIENTED_EDGE('',*,*,#359,.T.);
#92=ORIENTED_EDGE('',*,*,#360,.T.);
#93=ORIENTED_EDGE('',*,*,#361,.F.);
#94=ORIENTED_EDGE('',*,*,#362,.F.);
#95=ORIENTED_EDGE('',*,*,#363,.T.);
#96=ORIENTED_EDGE('',*,*,#364,.T.);
#97=ORIENTED_EDGE('',*,*,#365,.F.);
#98=ORIENTED_EDGE('',*,*,#366,.F.);
#99=ORIENTED_EDGE('',*,*,#367,.T.);
#100=ORIENTED_EDGE('',*,*,#368,.F.);
#101=ORIENTED_EDGE('',*,*,#369,.F.);
#102=ORIENTED_EDGE('',*,*,#370,.T.);
#103=ORIENTED_EDGE('',*,*,#371,.T.);
#104=ORIENTED_EDGE('',*,*,#372,.F.);
#105=ORIENTED_EDGE('',*,*,#373,.F.);
#106=ORIENTED_EDGE('',*,*,#374,.F.);
#107=ORIENTED_EDGE('',*,*,#361,.T.);
#108=ORIENTED_EDGE('',*,*,#375,.T.);
#109=ORIENTED_EDGE('',*,*,#368,.T.);
#110=ORIENTED_EDGE('',*,*,#376,.F.);
#111=ORIENTED_EDGE('',*,*,#377,.T.);
#112=ORIENTED_EDGE('',*,*,#355,.F.);
#113=ORIENTED_EDGE('',*,*,#378,.F.);
#114=ORIENTED_EDGE('',*,*,#379,.F.);
#115=ORIENTED_EDGE('',*,*,#380,.T.);
#116=ORIENTED_EDGE('',*,*,#381,.F.);
#117=ORIENTED_EDGE('',*,*,#382,.T.);
#118=ORIENTED_EDGE('',*,*,#383,.T.);
#119=ORIENTED_EDGE('',*,*,#384,.F.);
#120=ORIENTED_EDGE('',*,*,#385,.F.);
#121=ORIENTED_EDGE('',*,*,#386,.T.);
#122=ORIENTED_EDGE('',*,*,#387,.T.);
#123=ORIENTED_EDGE('',*,*,#388,.F.);
#124=ORIENTED_EDGE('',*,*,#385,.T.);
#125=ORIENTED_EDGE('',*,*,#389,.T.);
#126=ORIENTED_EDGE('',*,*,#390,.T.);
#127=ORIENTED_EDGE('',*,*,#391,.F.);
#128=ORIENTED_EDGE('',*,*,#392,.T.);
#129=ORIENTED_EDGE('',*,*,#393,.F.);
#130=ORIENTED_EDGE('',*,*,#394,.T.);
#131=ORIENTED_EDGE('',*,*,#395,.T.);
#132=ORIENTED_EDGE('',*,*,#396,.F.);
#133=ORIENTED_EDGE('',*,*,#397,.T.);
#134=ORIENTED_EDGE('',*,*,#398,.T.);
#135=ORIENTED_EDGE('',*,*,#399,.F.);
#136=ORIENTED_EDGE('',*,*,#400,.T.);
#137=ORIENTED_EDGE('',*,*,#401,.T.);
#138=ORIENTED_EDGE('',*,*,#402,.T.);
#139=ORIENTED_EDGE('',*,*,#403,.T.);
#140=ORIENTED_EDGE('',*,*,#398,.F.);
#141=ORIENTED_EDGE('',*,*,#396,.T.);
#142=ORIENTED_EDGE('',*,*,#404,.T.);
#143=ORIENTED_EDGE('',*,*,#405,.T.);
#144=ORIENTED_EDGE('',*,*,#406,.T.);
#145=ORIENTED_EDGE('',*,*,#389,.F.);
#146=ORIENTED_EDGE('',*,*,#407,.T.);
#147=ORIENTED_EDGE('',*,*,#379,.T.);
#148=ORIENTED_EDGE('',*,*,#408,.T.);
#149=ORIENTED_EDGE('',*,*,#409,.T.);
#150=ORIENTED_EDGE('',*,*,#382,.F.);
#151=ORIENTED_EDGE('',*,*,#388,.T.);
#152=ORIENTED_EDGE('',*,*,#399,.T.);
#153=ORIENTED_EDGE('',*,*,#397,.F.);
#154=ORIENTED_EDGE('',*,*,#356,.F.);
#155=ORIENTED_EDGE('',*,*,#410,.T.);
#156=ORIENTED_EDGE('',*,*,#386,.F.);
#157=ORIENTED_EDGE('',*,*,#384,.T.);
#158=ORIENTED_EDGE('',*,*,#411,.T.);
#159=ORIENTED_EDGE('',*,*,#412,.T.);
#160=ORIENTED_EDGE('',*,*,#394,.F.);
#161=ORIENTED_EDGE('',*,*,#413,.T.);
#162=ORIENTED_EDGE('',*,*,#391,.T.);
#163=ORIENTED_EDGE('',*,*,#414,.T.);
#164=ORIENTED_EDGE('',*,*,#402,.F.);
#165=ORIENTED_EDGE('',*,*,#415,.T.);
#166=ORIENTED_EDGE('',*,*,#416,.F.);
#167=ORIENTED_EDGE('',*,*,#417,.F.);
#168=ORIENTED_EDGE('',*,*,#418,.T.);
#169=ORIENTED_EDGE('',*,*,#419,.T.);
#170=ORIENTED_EDGE('',*,*,#420,.F.);
#171=ORIENTED_EDGE('',*,*,#421,.T.);
#172=ORIENTED_EDGE('',*,*,#422,.T.);
#173=ORIENTED_EDGE('',*,*,#423,.T.);
#174=ORIENTED_EDGE('',*,*,#424,.T.);
#175=ORIENTED_EDGE('',*,*,#425,.F.);
#176=ORIENTED_EDGE('',*,*,#426,.T.);
#177=ORIENTED_EDGE('',*,*,#411,.F.);
#178=ORIENTED_EDGE('',*,*,#383,.F.);
#179=ORIENTED_EDGE('',*,*,#409,.F.);
#180=ORIENTED_EDGE('',*,*,#427,.T.);
#181=ORIENTED_EDGE('',*,*,#428,.F.);
#182=ORIENTED_EDGE('',*,*,#429,.T.);
#183=ORIENTED_EDGE('',*,*,#352,.F.);
#184=ORIENTED_EDGE('',*,*,#430,.F.);
#185=ORIENTED_EDGE('',*,*,#431,.F.);
#186=ORIENTED_EDGE('',*,*,#432,.T.);
#187=ORIENTED_EDGE('',*,*,#433,.T.);
#188=ORIENTED_EDGE('',*,*,#354,.T.);
#189=ORIENTED_EDGE('',*,*,#434,.T.);
#190=ORIENTED_EDGE('',*,*,#435,.F.);
#191=ORIENTED_EDGE('',*,*,#378,.T.);
#192=ORIENTED_EDGE('',*,*,#423,.F.);
#193=ORIENTED_EDGE('',*,*,#436,.T.);
#194=ORIENTED_EDGE('',*,*,#437,.T.);
#195=ORIENTED_EDGE('',*,*,#376,.T.);
#196=ORIENTED_EDGE('',*,*,#371,.F.);
#197=ORIENTED_EDGE('',*,*,#438,.T.);
#198=ORIENTED_EDGE('',*,*,#362,.T.);
#199=ORIENTED_EDGE('',*,*,#374,.T.);
#200=ORIENTED_EDGE('',*,*,#435,.T.);
#201=ORIENTED_EDGE('',*,*,#439,.T.);
#202=ORIENTED_EDGE('',*,*,#440,.T.);
#203=ORIENTED_EDGE('',*,*,#441,.T.);
#204=ORIENTED_EDGE('',*,*,#428,.T.);
#205=ORIENTED_EDGE('',*,*,#442,.T.);
#206=ORIENTED_EDGE('',*,*,#443,.T.);
#207=ORIENTED_EDGE('',*,*,#444,.T.);
#208=ORIENTED_EDGE('',*,*,#425,.T.);
#209=ORIENTED_EDGE('',*,*,#445,.T.);
#210=ORIENTED_EDGE('',*,*,#426,.F.);
#211=ORIENTED_EDGE('',*,*,#444,.F.);
#212=ORIENTED_EDGE('',*,*,#446,.F.);
#213=ORIENTED_EDGE('',*,*,#413,.F.);
#214=ORIENTED_EDGE('',*,*,#395,.F.);
#215=ORIENTED_EDGE('',*,*,#412,.F.);
#216=ORIENTED_EDGE('',*,*,#443,.F.);
#217=ORIENTED_EDGE('',*,*,#447,.T.);
#218=ORIENTED_EDGE('',*,*,#392,.F.);
#219=ORIENTED_EDGE('',*,*,#446,.T.);
#220=ORIENTED_EDGE('',*,*,#380,.F.);
#221=ORIENTED_EDGE('',*,*,#407,.F.);
#222=ORIENTED_EDGE('',*,*,#447,.F.);
#223=ORIENTED_EDGE('',*,*,#442,.F.);
#224=ORIENTED_EDGE('',*,*,#427,.F.);
#225=ORIENTED_EDGE('',*,*,#408,.F.);
#226=ORIENTED_EDGE('',*,*,#424,.F.);
#227=ORIENTED_EDGE('',*,*,#439,.F.);
#228=ORIENTED_EDGE('',*,*,#448,.F.);
#229=ORIENTED_EDGE('',*,*,#445,.F.);
#230=ORIENTED_EDGE('',*,*,#448,.T.);
#231=ORIENTED_EDGE('',*,*,#434,.F.);
#232=ORIENTED_EDGE('',*,*,#449,.F.);
#233=ORIENTED_EDGE('',*,*,#440,.F.);
#234=ORIENTED_EDGE('',*,*,#449,.T.);
#235=ORIENTED_EDGE('',*,*,#353,.F.);
#236=ORIENTED_EDGE('',*,*,#429,.F.);
#237=ORIENTED_EDGE('',*,*,#441,.F.);
#238=ORIENTED_EDGE('',*,*,#404,.F.);
#239=ORIENTED_EDGE('',*,*,#387,.F.);
#240=ORIENTED_EDGE('',*,*,#410,.F.);
#241=ORIENTED_EDGE('',*,*,#359,.F.);
#242=ORIENTED_EDGE('',*,*,#450,.T.);
#243=ORIENTED_EDGE('',*,*,#406,.F.);
#244=ORIENTED_EDGE('',*,*,#451,.T.);
#245=ORIENTED_EDGE('',*,*,#403,.F.);
#246=ORIENTED_EDGE('',*,*,#414,.F.);
#247=ORIENTED_EDGE('',*,*,#390,.F.);
#248=ORIENTED_EDGE('',*,*,#452,.T.);
#249=ORIENTED_EDGE('',*,*,#453,.F.);
#250=ORIENTED_EDGE('',*,*,#452,.F.);
#251=ORIENTED_EDGE('',*,*,#393,.T.);
#252=ORIENTED_EDGE('',*,*,#453,.T.);
#253=ORIENTED_EDGE('',*,*,#381,.T.);
#254=ORIENTED_EDGE('',*,*,#454,.F.);
#255=ORIENTED_EDGE('',*,*,#455,.F.);
#256=ORIENTED_EDGE('',*,*,#456,.F.);
#257=ORIENTED_EDGE('',*,*,#437,.F.);
#258=ORIENTED_EDGE('',*,*,#457,.T.);
#259=ORIENTED_EDGE('',*,*,#458,.T.);
#260=ORIENTED_EDGE('',*,*,#459,.T.);
#261=ORIENTED_EDGE('',*,*,#460,.F.);
#262=ORIENTED_EDGE('',*,*,#461,.T.);
#263=ORIENTED_EDGE('',*,*,#462,.T.);
#264=ORIENTED_EDGE('',*,*,#350,.T.);
#265=ORIENTED_EDGE('',*,*,#377,.F.);
#266=ORIENTED_EDGE('',*,*,#458,.F.);
#267=ORIENTED_EDGE('',*,*,#463,.T.);
#268=ORIENTED_EDGE('',*,*,#421,.F.);
#269=ORIENTED_EDGE('',*,*,#464,.T.);
#270=ORIENTED_EDGE('',*,*,#422,.F.);
#271=ORIENTED_EDGE('',*,*,#463,.F.);
#272=ORIENTED_EDGE('',*,*,#457,.F.);
#273=ORIENTED_EDGE('',*,*,#436,.F.);
#274=ORIENTED_EDGE('',*,*,#459,.F.);
#275=ORIENTED_EDGE('',*,*,#464,.F.);
#276=ORIENTED_EDGE('',*,*,#433,.F.);
#277=ORIENTED_EDGE('',*,*,#465,.F.);
#278=ORIENTED_EDGE('',*,*,#420,.T.);
#279=ORIENTED_EDGE('',*,*,#456,.T.);
#280=ORIENTED_EDGE('',*,*,#466,.F.);
#281=ORIENTED_EDGE('',*,*,#455,.T.);
#282=ORIENTED_EDGE('',*,*,#466,.T.);
#283=ORIENTED_EDGE('',*,*,#467,.F.);
#284=ORIENTED_EDGE('',*,*,#454,.T.);
#285=ORIENTED_EDGE('',*,*,#467,.T.);
#286=ORIENTED_EDGE('',*,*,#375,.F.);
#287=ORIENTED_EDGE('',*,*,#364,.F.);
#288=ORIENTED_EDGE('',*,*,#468,.T.);
#289=ORIENTED_EDGE('',*,*,#369,.T.);
#290=ORIENTED_EDGE('',*,*,#363,.F.);
#291=ORIENTED_EDGE('',*,*,#438,.F.);
#292=ORIENTED_EDGE('',*,*,#370,.F.);
#293=ORIENTED_EDGE('',*,*,#468,.F.);
#294=ORIENTED_EDGE('',*,*,#367,.F.);
#295=ORIENTED_EDGE('',*,*,#360,.F.);
#296=ORIENTED_EDGE('',*,*,#372,.T.);
#297=ORIENTED_EDGE('',*,*,#365,.T.);
#298=ORIENTED_EDGE('',*,*,#373,.T.);
#299=ORIENTED_EDGE('',*,*,#366,.T.);
#300=ORIENTED_EDGE('',*,*,#469,.T.);
#301=ORIENTED_EDGE('',*,*,#470,.T.);
#302=ORIENTED_EDGE('',*,*,#418,.F.);
#303=ORIENTED_EDGE('',*,*,#471,.T.);
#304=ORIENTED_EDGE('',*,*,#416,.T.);
#305=ORIENTED_EDGE('',*,*,#472,.T.);
#306=ORIENTED_EDGE('',*,*,#473,.F.);
#307=ORIENTED_EDGE('',*,*,#474,.T.);
#308=ORIENTED_EDGE('',*,*,#475,.F.);
#309=ORIENTED_EDGE('',*,*,#476,.T.);
#310=ORIENTED_EDGE('',*,*,#469,.F.);
#311=ORIENTED_EDGE('',*,*,#477,.T.);
#312=ORIENTED_EDGE('',*,*,#473,.T.);
#313=ORIENTED_EDGE('',*,*,#478,.T.);
#314=ORIENTED_EDGE('',*,*,#471,.F.);
#315=ORIENTED_EDGE('',*,*,#417,.T.);
#316=ORIENTED_EDGE('',*,*,#474,.F.);
#317=ORIENTED_EDGE('',*,*,#477,.F.);
#318=ORIENTED_EDGE('',*,*,#475,.T.);
#319=ORIENTED_EDGE('',*,*,#479,.T.);
#320=ORIENTED_EDGE('',*,*,#480,.T.);
#321=ORIENTED_EDGE('',*,*,#481,.T.);
#322=ORIENTED_EDGE('',*,*,#476,.F.);
#323=ORIENTED_EDGE('',*,*,#481,.F.);
#324=ORIENTED_EDGE('',*,*,#357,.F.);
#325=ORIENTED_EDGE('',*,*,#419,.F.);
#326=ORIENTED_EDGE('',*,*,#470,.F.);
#327=ORIENTED_EDGE('',*,*,#401,.F.);
#328=ORIENTED_EDGE('',*,*,#479,.F.);
#329=ORIENTED_EDGE('',*,*,#478,.F.);
#330=ORIENTED_EDGE('',*,*,#472,.F.);
#331=ORIENTED_EDGE('',*,*,#415,.F.);
#332=ORIENTED_EDGE('',*,*,#358,.F.);
#333=ORIENTED_EDGE('',*,*,#480,.F.);
#334=ORIENTED_EDGE('',*,*,#400,.F.);
#335=ORIENTED_EDGE('',*,*,#451,.F.);
#336=ORIENTED_EDGE('',*,*,#405,.F.);
#337=ORIENTED_EDGE('',*,*,#450,.F.);
#338=ORIENTED_EDGE('',*,*,#351,.F.);
#339=ORIENTED_EDGE('',*,*,#462,.F.);
#340=ORIENTED_EDGE('',*,*,#482,.T.);
#341=ORIENTED_EDGE('',*,*,#430,.T.);
#342=ORIENTED_EDGE('',*,*,#465,.T.);
#343=ORIENTED_EDGE('',*,*,#432,.F.);
#344=ORIENTED_EDGE('',*,*,#483,.F.);
#345=ORIENTED_EDGE('',*,*,#460,.T.);
#346=ORIENTED_EDGE('',*,*,#482,.F.);
#347=ORIENTED_EDGE('',*,*,#461,.F.);
#348=ORIENTED_EDGE('',*,*,#483,.T.);
#349=ORIENTED_EDGE('',*,*,#431,.T.);
#350=EDGE_CURVE('',#484,#485,#578,.T.);
#351=EDGE_CURVE('',#484,#486,#579,.T.);
#352=EDGE_CURVE('',#486,#487,#580,.T.);
#353=EDGE_CURVE('',#487,#488,#581,.F.);
#354=EDGE_CURVE('',#489,#488,#582,.T.);
#355=EDGE_CURVE('',#489,#485,#583,.T.);
#356=EDGE_CURVE('',#490,#491,#584,.T.);
#357=EDGE_CURVE('',#491,#492,#585,.T.);
#358=EDGE_CURVE('',#492,#493,#586,.T.);
#359=EDGE_CURVE('',#493,#490,#587,.T.);
#360=EDGE_CURVE('',#494,#494,#44,.T.);
#361=EDGE_CURVE('',#495,#496,#588,.T.);
#362=EDGE_CURVE('',#497,#495,#589,.T.);
#363=EDGE_CURVE('',#497,#498,#590,.T.);
#364=EDGE_CURVE('',#498,#496,#591,.T.);
#365=EDGE_CURVE('',#499,#499,#45,.T.);
#366=EDGE_CURVE('',#500,#500,#46,.T.);
#367=EDGE_CURVE('',#501,#501,#47,.F.);
#368=EDGE_CURVE('',#502,#503,#592,.T.);
#369=EDGE_CURVE('',#504,#502,#593,.T.);
#370=EDGE_CURVE('',#504,#505,#594,.T.);
#371=EDGE_CURVE('',#505,#503,#595,.T.);
#372=EDGE_CURVE('',#506,#506,#48,.T.);
#373=EDGE_CURVE('',#507,#507,#49,.T.);
#374=EDGE_CURVE('',#495,#508,#596,.T.);
#375=EDGE_CURVE('',#496,#502,#597,.T.);
#376=EDGE_CURVE('',#509,#503,#598,.T.);
#377=EDGE_CURVE('',#509,#485,#599,.T.);
#378=EDGE_CURVE('',#508,#489,#600,.T.);
#379=EDGE_CURVE('',#510,#511,#50,.T.);
#380=EDGE_CURVE('',#510,#511,#16,.T.);
#381=EDGE_CURVE('',#512,#512,#51,.F.);
#382=EDGE_CURVE('',#513,#514,#601,.T.);
#383=EDGE_CURVE('',#514,#515,#602,.T.);
#384=EDGE_CURVE('',#516,#515,#603,.T.);
#385=EDGE_CURVE('',#513,#516,#604,.T.);
#386=EDGE_CURVE('',#516,#517,#605,.T.);
#387=EDGE_CURVE('',#517,#518,#606,.F.);
#388=EDGE_CURVE('',#513,#518,#607,.T.);
#389=EDGE_CURVE('',#519,#520,#608,.T.);
#390=EDGE_CURVE('',#520,#521,#609,.T.);
#391=EDGE_CURVE('',#522,#521,#610,.T.);
#392=EDGE_CURVE('',#522,#519,#611,.F.);
#393=EDGE_CURVE('',#523,#523,#52,.T.);
#394=EDGE_CURVE('',#524,#525,#53,.T.);
#395=EDGE_CURVE('',#525,#524,#17,.T.);
#396=EDGE_CURVE('',#526,#526,#54,.T.);
#397=EDGE_CURVE('',#527,#527,#55,.T.);
#398=EDGE_CURVE('',#528,#528,#56,.T.);
#399=EDGE_CURVE('',#529,#529,#57,.T.);
#400=EDGE_CURVE('',#530,#531,#612,.T.);
#401=EDGE_CURVE('',#531,#532,#613,.T.);
#402=EDGE_CURVE('',#532,#533,#614,.T.);
#403=EDGE_CURVE('',#533,#530,#615,.F.);
#404=EDGE_CURVE('',#518,#534,#58,.F.);
#405=EDGE_CURVE('',#534,#535,#616,.T.);
#406=EDGE_CURVE('',#535,#520,#59,.F.);
#407=EDGE_CURVE('',#519,#510,#617,.F.);
#408=EDGE_CURVE('',#511,#536,#618,.F.);
#409=EDGE_CURVE('',#536,#514,#619,.T.);
#410=EDGE_CURVE('',#490,#517,#60,.T.);
#411=EDGE_CURVE('',#515,#537,#620,.T.);
#412=EDGE_CURVE('',#537,#525,#621,.T.);
#413=EDGE_CURVE('',#524,#522,#622,.T.);
#414=EDGE_CURVE('',#521,#533,#61,.T.);
#415=EDGE_CURVE('',#532,#538,#62,.F.);
#416=EDGE_CURVE('',#539,#538,#623,.T.);
#417=EDGE_CURVE('',#540,#539,#624,.T.);
#418=EDGE_CURVE('',#540,#541,#625,.T.);
#419=EDGE_CURVE('',#541,#491,#63,.F.);
#420=EDGE_CURVE('',#542,#542,#64,.T.);
#421=EDGE_CURVE('',#543,#544,#626,.T.);
#422=EDGE_CURVE('',#544,#545,#65,.T.);
#423=EDGE_CURVE('',#545,#546,#627,.T.);
#424=EDGE_CURVE('',#546,#547,#66,.T.);
#425=EDGE_CURVE('',#548,#547,#628,.T.);
#426=EDGE_CURVE('',#548,#537,#67,.F.);
#427=EDGE_CURVE('',#536,#549,#68,.F.);
#428=EDGE_CURVE('',#550,#549,#629,.T.);
#429=EDGE_CURVE('',#550,#487,#69,.T.);
#430=EDGE_CURVE('',#551,#486,#630,.T.);
#431=EDGE_CURVE('',#552,#551,#631,.T.);
#432=EDGE_CURVE('',#552,#553,#632,.T.);
#433=EDGE_CURVE('',#553,#543,#70,.T.);
#434=EDGE_CURVE('',#488,#554,#633,.F.);
#435=EDGE_CURVE('',#508,#554,#634,.T.);
#436=EDGE_CURVE('',#545,#555,#635,.T.);
#437=EDGE_CURVE('',#555,#509,#636,.T.);
#438=EDGE_CURVE('',#505,#497,#637,.T.);
#439=EDGE_CURVE('',#554,#546,#638,.F.);
#440=EDGE_CURVE('',#556,#557,#639,.T.);
#441=EDGE_CURVE('',#557,#550,#640,.T.);
#442=EDGE_CURVE('',#549,#558,#641,.T.);
#443=EDGE_CURVE('',#558,#559,#642,.T.);
#444=EDGE_CURVE('',#559,#548,#643,.F.);
#445=EDGE_CURVE('',#547,#556,#644,.T.);
#446=EDGE_CURVE('',#522,#559,#12,.F.);
#447=EDGE_CURVE('',#558,#519,#13,.F.);
#448=EDGE_CURVE('',#556,#554,#14,.F.);
#449=EDGE_CURVE('',#557,#488,#15,.F.);
#450=EDGE_CURVE('',#493,#534,#18,.F.);
#451=EDGE_CURVE('',#535,#530,#19,.T.);
#452=EDGE_CURVE('',#560,#560,#71,.T.);
#453=EDGE_CURVE('',#561,#561,#72,.T.);
#454=EDGE_CURVE('',#562,#562,#73,.T.);
#455=EDGE_CURVE('',#563,#563,#74,.T.);
#456=EDGE_CURVE('',#564,#564,#75,.T.);
#457=EDGE_CURVE('',#555,#565,#76,.T.);
#458=EDGE_CURVE('',#565,#566,#645,.T.);
#459=EDGE_CURVE('',#566,#567,#77,.T.);
#460=EDGE_CURVE('',#568,#567,#646,.T.);
#461=EDGE_CURVE('',#568,#569,#647,.T.);
#462=EDGE_CURVE('',#569,#484,#648,.T.);
#463=EDGE_CURVE('',#565,#544,#649,.F.);
#464=EDGE_CURVE('',#543,#566,#650,.F.);
#465=EDGE_CURVE('',#567,#553,#651,.T.);
#466=EDGE_CURVE('',#570,#570,#78,.T.);
#467=EDGE_CURVE('',#571,#571,#79,.T.);
#468=EDGE_CURVE('',#498,#504,#652,.T.);
#469=EDGE_CURVE('',#572,#573,#653,.T.);
#470=EDGE_CURVE('',#573,#541,#654,.F.);
#471=EDGE_CURVE('',#540,#572,#655,.T.);
#472=EDGE_CURVE('',#538,#574,#656,.F.);
#473=EDGE_CURVE('',#575,#574,#657,.T.);
#474=EDGE_CURVE('',#575,#539,#658,.T.);
#475=EDGE_CURVE('',#576,#577,#659,.T.);
#476=EDGE_CURVE('',#576,#573,#80,.F.);
#477=EDGE_CURVE('',#572,#575,#660,.T.);
#478=EDGE_CURVE('',#574,#577,#81,.F.);
#479=EDGE_CURVE('',#577,#531,#661,.T.);
#480=EDGE_CURVE('',#531,#492,#662,.F.);
#481=EDGE_CURVE('',#492,#576,#663,.T.);
#482=EDGE_CURVE('',#569,#551,#664,.T.);
#483=EDGE_CURVE('',#568,#552,#665,.T.);
#484=VERTEX_POINT('',#1401);
#485=VERTEX_POINT('',#1402);
#486=VERTEX_POINT('',#1404);
#487=VERTEX_POINT('',#1406);
#488=VERTEX_POINT('',#1408);
#489=VERTEX_POINT('',#1410);
#490=VERTEX_POINT('',#1414);
#491=VERTEX_POINT('',#1415);
#492=VERTEX_POINT('',#1417);
#493=VERTEX_POINT('',#1419);
#494=VERTEX_POINT('',#1423);
#495=VERTEX_POINT('',#1425);
#496=VERTEX_POINT('',#1426);
#497=VERTEX_POINT('',#1428);
#498=VERTEX_POINT('',#1430);
#499=VERTEX_POINT('',#1433);
#500=VERTEX_POINT('',#1435);
#501=VERTEX_POINT('',#1438);
#502=VERTEX_POINT('',#1440);
#503=VERTEX_POINT('',#1441);
#504=VERTEX_POINT('',#1443);
#505=VERTEX_POINT('',#1445);
#506=VERTEX_POINT('',#1448);
#507=VERTEX_POINT('',#1450);
#508=VERTEX_POINT('',#1453);
#509=VERTEX_POINT('',#1456);
#510=VERTEX_POINT('',#1461);
#511=VERTEX_POINT('',#1462);
#512=VERTEX_POINT('',#1469);
#513=VERTEX_POINT('',#1472);
#514=VERTEX_POINT('',#1473);
#515=VERTEX_POINT('',#1475);
#516=VERTEX_POINT('',#1477);
#517=VERTEX_POINT('',#1481);
#518=VERTEX_POINT('',#1483);
#519=VERTEX_POINT('',#1487);
#520=VERTEX_POINT('',#1488);
#521=VERTEX_POINT('',#1490);
#522=VERTEX_POINT('',#1492);
#523=VERTEX_POINT('',#1496);
#524=VERTEX_POINT('',#1498);
#525=VERTEX_POINT('',#1499);
#526=VERTEX_POINT('',#1507);
#527=VERTEX_POINT('',#1509);
#528=VERTEX_POINT('',#1512);
#529=VERTEX_POINT('',#1514);
#530=VERTEX_POINT('',#1517);
#531=VERTEX_POINT('',#1518);
#532=VERTEX_POINT('',#1520);
#533=VERTEX_POINT('',#1522);
#534=VERTEX_POINT('',#1526);
#535=VERTEX_POINT('',#1528);
#536=VERTEX_POINT('',#1532);
#537=VERTEX_POINT('',#1537);
#538=VERTEX_POINT('',#1542);
#539=VERTEX_POINT('',#1544);
#540=VERTEX_POINT('',#1546);
#541=VERTEX_POINT('',#1548);
#542=VERTEX_POINT('',#1552);
#543=VERTEX_POINT('',#1554);
#544=VERTEX_POINT('',#1555);
#545=VERTEX_POINT('',#1557);
#546=VERTEX_POINT('',#1559);
#547=VERTEX_POINT('',#1561);
#548=VERTEX_POINT('',#1563);
#549=VERTEX_POINT('',#1566);
#550=VERTEX_POINT('',#1568);
#551=VERTEX_POINT('',#1571);
#552=VERTEX_POINT('',#1573);
#553=VERTEX_POINT('',#1575);
#554=VERTEX_POINT('',#1579);
#555=VERTEX_POINT('',#1583);
#556=VERTEX_POINT('',#1589);
#557=VERTEX_POINT('',#1590);
#558=VERTEX_POINT('',#1593);
#559=VERTEX_POINT('',#1595);
#560=VERTEX_POINT('',#1624);
#561=VERTEX_POINT('',#1626);
#562=VERTEX_POINT('',#1631);
#563=VERTEX_POINT('',#1633);
#564=VERTEX_POINT('',#1635);
#565=VERTEX_POINT('',#1637);
#566=VERTEX_POINT('',#1639);
#567=VERTEX_POINT('',#1641);
#568=VERTEX_POINT('',#1643);
#569=VERTEX_POINT('',#1645);
#570=VERTEX_POINT('',#1656);
#571=VERTEX_POINT('',#1660);
#572=VERTEX_POINT('',#1670);
#573=VERTEX_POINT('',#1671);
#574=VERTEX_POINT('',#1676);
#575=VERTEX_POINT('',#1678);
#576=VERTEX_POINT('',#1682);
#577=VERTEX_POINT('',#1683);
#578=LINE('',#1400,#666);
#579=LINE('',#1403,#667);
#580=LINE('',#1405,#668);
#581=LINE('',#1407,#669);
#582=LINE('',#1409,#670);
#583=LINE('',#1411,#671);
#584=LINE('',#1413,#672);
#585=LINE('',#1416,#673);
#586=LINE('',#1418,#674);
#587=LINE('',#1420,#675);
#588=LINE('',#1424,#676);
#589=LINE('',#1427,#677);
#590=LINE('',#1429,#678);
#591=LINE('',#1431,#679);
#592=LINE('',#1439,#680);
#593=LINE('',#1442,#681);
#594=LINE('',#1444,#682);
#595=LINE('',#1446,#683);
#596=LINE('',#1452,#684);
#597=LINE('',#1454,#685);
#598=LINE('',#1455,#686);
#599=LINE('',#1457,#687);
#600=LINE('',#1458,#688);
#601=LINE('',#1471,#689);
#602=LINE('',#1474,#690);
#603=LINE('',#1476,#691);
#604=LINE('',#1478,#692);
#605=LINE('',#1480,#693);
#606=LINE('',#1482,#694);
#607=LINE('',#1484,#695);
#608=LINE('',#1486,#696);
#609=LINE('',#1489,#697);
#610=LINE('',#1491,#698);
#611=LINE('',#1493,#699);
#612=LINE('',#1516,#700);
#613=LINE('',#1519,#701);
#614=LINE('',#1521,#702);
#615=LINE('',#1523,#703);
#616=LINE('',#1527,#704);
#617=LINE('',#1530,#705);
#618=LINE('',#1531,#706);
#619=LINE('',#1533,#707);
#620=LINE('',#1536,#708);
#621=LINE('',#1538,#709);
#622=LINE('',#1539,#710);
#623=LINE('',#1543,#711);
#624=LINE('',#1545,#712);
#625=LINE('',#1547,#713);
#626=LINE('',#1553,#714);
#627=LINE('',#1558,#715);
#628=LINE('',#1562,#716);
#629=LINE('',#1567,#717);
#630=LINE('',#1570,#718);
#631=LINE('',#1572,#719);
#632=LINE('',#1574,#720);
#633=LINE('',#1578,#721);
#634=LINE('',#1580,#722);
#635=LINE('',#1582,#723);
#636=LINE('',#1584,#724);
#637=LINE('',#1585,#725);
#638=LINE('',#1586,#726);
#639=LINE('',#1588,#727);
#640=LINE('',#1591,#728);
#641=LINE('',#1592,#729);
#642=LINE('',#1594,#730);
#643=LINE('',#1596,#731);
#644=LINE('',#1597,#732);
#645=LINE('',#1638,#733);
#646=LINE('',#1642,#734);
#647=LINE('',#1644,#735);
#648=LINE('',#1646,#736);
#649=LINE('',#1648,#737);
#650=LINE('',#1649,#738);
#651=LINE('',#1652,#739);
#652=LINE('',#1663,#740);
#653=LINE('',#1669,#741);
#654=LINE('',#1672,#742);
#655=LINE('',#1673,#743);
#656=LINE('',#1675,#744);
#657=LINE('',#1677,#745);
#658=LINE('',#1679,#746);
#659=LINE('',#1681,#747);
#660=LINE('',#1685,#748);
#661=LINE('',#1689,#749);
#662=LINE('',#1690,#750);
#663=LINE('',#1691,#751);
#664=LINE('',#1696,#752);
#665=LINE('',#1698,#753);
#666=VECTOR('',#1118,1.);
#667=VECTOR('',#1119,1.);
#668=VECTOR('',#1120,1.);
#669=VECTOR('',#1121,1.);
#670=VECTOR('',#1122,1.);
#671=VECTOR('',#1123,1.);
#672=VECTOR('',#1126,1.);
#673=VECTOR('',#1127,1.);
#674=VECTOR('',#1128,1.);
#675=VECTOR('',#1129,1.);
#676=VECTOR('',#1134,1.);
#677=VECTOR('',#1135,1.);
#678=VECTOR('',#1136,1.);
#679=VECTOR('',#1137,1.);
#680=VECTOR('',#1146,1.);
#681=VECTOR('',#1147,1.);
#682=VECTOR('',#1148,1.);
#683=VECTOR('',#1149,1.);
#684=VECTOR('',#1156,1.);
#685=VECTOR('',#1157,1.);
#686=VECTOR('',#1158,1.);
#687=VECTOR('',#1159,1.);
#688=VECTOR('',#1160,1.);
#689=VECTOR('',#1169,1.);
#690=VECTOR('',#1170,1.);
#691=VECTOR('',#1171,1.);
#692=VECTOR('',#1172,1.);
#693=VECTOR('',#1175,1.);
#694=VECTOR('',#1176,1.);
#695=VECTOR('',#1177,1.);
#696=VECTOR('',#1180,1.);
#697=VECTOR('',#1181,1.);
#698=VECTOR('',#1182,1.);
#699=VECTOR('',#1183,1.);
#700=VECTOR('',#1204,1.);
#701=VECTOR('',#1205,1.);
#702=VECTOR('',#1206,1.);
#703=VECTOR('',#1207,1.);
#704=VECTOR('',#1212,1.);
#705=VECTOR('',#1215,1.);
#706=VECTOR('',#1216,1.);
#707=VECTOR('',#1217,1.);
#708=VECTOR('',#1222,1.);
#709=VECTOR('',#1223,1.);
#710=VECTOR('',#1224,1.);
#711=VECTOR('',#1229,1.);
#712=VECTOR('',#1230,1.);
#713=VECTOR('',#1231,1.);
#714=VECTOR('',#1238,1.);
#715=VECTOR('',#1241,1.);
#716=VECTOR('',#1244,1.);
#717=VECTOR('',#1249,1.);
#718=VECTOR('',#1252,1.);
#719=VECTOR('',#1253,1.);
#720=VECTOR('',#1254,1.);
#721=VECTOR('',#1259,1.);
#722=VECTOR('',#1260,1.);
#723=VECTOR('',#1263,1.);
#724=VECTOR('',#1264,1.);
#725=VECTOR('',#1265,1.);
#726=VECTOR('',#1266,1.);
#727=VECTOR('',#1269,1.);
#728=VECTOR('',#1270,1.);
#729=VECTOR('',#1271,1.);
#730=VECTOR('',#1272,1.);
#731=VECTOR('',#1273,1.);
#732=VECTOR('',#1274,1.);
#733=VECTOR('',#1319,1.);
#734=VECTOR('',#1322,1.);
#735=VECTOR('',#1323,1.);
#736=VECTOR('',#1324,1.);
#737=VECTOR('',#1327,1.);
#738=VECTOR('',#1328,1.);
#739=VECTOR('',#1333,1.);
#740=VECTOR('',#1350,1.);
#741=VECTOR('',#1361,1.);
#742=VECTOR('',#1362,1.);
#743=VECTOR('',#1363,1.);
#744=VECTOR('',#1366,1.);
#745=VECTOR('',#1367,1.);
#746=VECTOR('',#1368,1.);
#747=VECTOR('',#1371,1.);
#748=VECTOR('',#1374,1.);
#749=VECTOR('',#1381,1.);
#750=VECTOR('',#1382,1.);
#751=VECTOR('',#1383,1.);
#752=VECTOR('',#1392,1.);
#753=VECTOR('',#1395,1.);
#754=EDGE_LOOP('',(#82,#83,#84,#85,#86,#87));
#755=EDGE_LOOP('',(#88,#89,#90,#91));
#756=EDGE_LOOP('',(#92));
#757=EDGE_LOOP('',(#93,#94,#95,#96));
#758=EDGE_LOOP('',(#97));
#759=EDGE_LOOP('',(#98));
#760=EDGE_LOOP('',(#99));
#761=EDGE_LOOP('',(#100,#101,#102,#103));
#762=EDGE_LOOP('',(#104));
#763=EDGE_LOOP('',(#105));
#764=EDGE_LOOP('',(#106,#107,#108,#109,#110,#111,#112,#113));
#765=EDGE_LOOP('',(#114,#115));
#766=EDGE_LOOP('',(#116));
#767=EDGE_LOOP('',(#117,#118,#119,#120));
#768=EDGE_LOOP('',(#121,#122,#123,#124));
#769=EDGE_LOOP('',(#125,#126,#127,#128));
#770=EDGE_LOOP('',(#129));
#771=EDGE_LOOP('',(#130,#131));
#772=EDGE_LOOP('',(#132));
#773=EDGE_LOOP('',(#133));
#774=EDGE_LOOP('',(#134));
#775=EDGE_LOOP('',(#135));
#776=EDGE_LOOP('',(#136,#137,#138,#139));
#777=EDGE_LOOP('',(#140));
#778=EDGE_LOOP('',(#141));
#779=EDGE_LOOP('',(#142,#143,#144,#145,#146,#147,#148,#149,#150,#151));
#780=EDGE_LOOP('',(#152));
#781=EDGE_LOOP('',(#153));
#782=EDGE_LOOP('',(#154,#155,#156,#157,#158,#159,#160,#161,#162,#163,#164,
#165,#166,#167,#168,#169));
#783=EDGE_LOOP('',(#170));
#784=EDGE_LOOP('',(#171,#172,#173,#174,#175,#176,#177,#178,#179,#180,#181,
#182,#183,#184,#185,#186,#187));
#785=EDGE_LOOP('',(#188,#189,#190,#191));
#786=EDGE_LOOP('',(#192,#193,#194,#195,#196,#197,#198,#199,#200,#201));
#787=EDGE_LOOP('',(#202,#203,#204,#205,#206,#207,#208,#209));
#788=EDGE_LOOP('',(#210,#211,#212,#213,#214,#215));
#789=EDGE_LOOP('',(#216,#217,#218,#219));
#790=EDGE_LOOP('',(#220,#221,#222,#223,#224,#225));
#791=EDGE_LOOP('',(#226,#227,#228,#229));
#792=EDGE_LOOP('',(#230,#231,#232,#233));
#793=EDGE_LOOP('',(#234,#235,#236,#237));
#794=EDGE_LOOP('',(#238,#239,#240,#241,#242));
#795=EDGE_LOOP('',(#243,#244,#245,#246,#247));
#796=EDGE_LOOP('',(#248));
#797=EDGE_LOOP('',(#249));
#798=EDGE_LOOP('',(#250));
#799=EDGE_LOOP('',(#251));
#800=EDGE_LOOP('',(#252));
#801=EDGE_LOOP('',(#253));
#802=EDGE_LOOP('',(#254));
#803=EDGE_LOOP('',(#255));
#804=EDGE_LOOP('',(#256));
#805=EDGE_LOOP('',(#257,#258,#259,#260,#261,#262,#263,#264,#265));
#806=EDGE_LOOP('',(#266,#267,#268,#269));
#807=EDGE_LOOP('',(#270,#271,#272,#273));
#808=EDGE_LOOP('',(#274,#275,#276,#277));
#809=EDGE_LOOP('',(#278));
#810=EDGE_LOOP('',(#279));
#811=EDGE_LOOP('',(#280));
#812=EDGE_LOOP('',(#281));
#813=EDGE_LOOP('',(#282));
#814=EDGE_LOOP('',(#283));
#815=EDGE_LOOP('',(#284));
#816=EDGE_LOOP('',(#285));
#817=EDGE_LOOP('',(#286,#287,#288,#289));
#818=EDGE_LOOP('',(#290,#291,#292,#293));
#819=EDGE_LOOP('',(#294));
#820=EDGE_LOOP('',(#295));
#821=EDGE_LOOP('',(#296));
#822=EDGE_LOOP('',(#297));
#823=EDGE_LOOP('',(#298));
#824=EDGE_LOOP('',(#299));
#825=EDGE_LOOP('',(#300,#301,#302,#303));
#826=EDGE_LOOP('',(#304,#305,#306,#307));
#827=EDGE_LOOP('',(#308,#309,#310,#311,#312,#313));
#828=EDGE_LOOP('',(#314,#315,#316,#317));
#829=EDGE_LOOP('',(#318,#319,#320,#321));
#830=EDGE_LOOP('',(#322,#323,#324,#325,#326));
#831=EDGE_LOOP('',(#327,#328,#329,#330,#331));
#832=EDGE_LOOP('',(#332,#333,#334,#335,#336,#337));
#833=EDGE_LOOP('',(#338,#339,#340,#341));
#834=EDGE_LOOP('',(#342,#343,#344,#345));
#835=EDGE_LOOP('',(#346,#347,#348,#349));
#836=FACE_BOUND('',#754,.T.);
#837=FACE_BOUND('',#755,.T.);
#838=FACE_BOUND('',#756,.T.);
#839=FACE_BOUND('',#757,.T.);
#840=FACE_BOUND('',#758,.T.);
#841=FACE_BOUND('',#759,.T.);
#842=FACE_BOUND('',#760,.T.);
#843=FACE_BOUND('',#761,.T.);
#844=FACE_BOUND('',#762,.T.);
#845=FACE_BOUND('',#763,.T.);
#846=FACE_BOUND('',#764,.T.);
#847=FACE_BOUND('',#765,.T.);
#848=FACE_BOUND('',#766,.T.);
#849=FACE_BOUND('',#767,.T.);
#850=FACE_BOUND('',#768,.T.);
#851=FACE_BOUND('',#769,.T.);
#852=FACE_BOUND('',#770,.T.);
#853=FACE_BOUND('',#771,.T.);
#854=FACE_BOUND('',#772,.T.);
#855=FACE_BOUND('',#773,.T.);
#856=FACE_BOUND('',#774,.T.);
#857=FACE_BOUND('',#775,.T.);
#858=FACE_BOUND('',#776,.T.);
#859=FACE_BOUND('',#777,.T.);
#860=FACE_BOUND('',#778,.T.);
#861=FACE_BOUND('',#779,.T.);
#862=FACE_BOUND('',#780,.T.);
#863=FACE_BOUND('',#781,.T.);
#864=FACE_BOUND('',#782,.T.);
#865=FACE_BOUND('',#783,.T.);
#866=FACE_BOUND('',#784,.T.);
#867=FACE_BOUND('',#785,.T.);
#868=FACE_BOUND('',#786,.T.);
#869=FACE_BOUND('',#787,.T.);
#870=FACE_BOUND('',#788,.T.);
#871=FACE_BOUND('',#789,.T.);
#872=FACE_BOUND('',#790,.T.);
#873=FACE_BOUND('',#791,.T.);
#874=FACE_BOUND('',#792,.T.);
#875=FACE_BOUND('',#793,.T.);
#876=FACE_BOUND('',#794,.T.);
#877=FACE_BOUND('',#795,.T.);
#878=FACE_BOUND('',#796,.T.);
#879=FACE_BOUND('',#797,.T.);
#880=FACE_BOUND('',#798,.T.);
#881=FACE_BOUND('',#799,.T.);
#882=FACE_BOUND('',#800,.T.);
#883=FACE_BOUND('',#801,.T.);
#884=FACE_BOUND('',#802,.T.);
#885=FACE_BOUND('',#803,.T.);
#886=FACE_BOUND('',#804,.T.);
#887=FACE_BOUND('',#805,.T.);
#888=FACE_BOUND('',#806,.T.);
#889=FACE_BOUND('',#807,.T.);
#890=FACE_BOUND('',#808,.T.);
#891=FACE_BOUND('',#809,.T.);
#892=FACE_BOUND('',#810,.T.);
#893=FACE_BOUND('',#811,.T.);
#894=FACE_BOUND('',#812,.T.);
#895=FACE_BOUND('',#813,.T.);
#896=FACE_BOUND('',#814,.T.);
#897=FACE_BOUND('',#815,.T.);
#898=FACE_BOUND('',#816,.T.);
#899=FACE_BOUND('',#817,.T.);
#900=FACE_BOUND('',#818,.T.);
#901=FACE_BOUND('',#819,.T.);
#902=FACE_BOUND('',#820,.T.);
#903=FACE_BOUND('',#821,.T.);
#904=FACE_BOUND('',#822,.T.);
#905=FACE_BOUND('',#823,.T.);
#906=FACE_BOUND('',#824,.T.);
#907=FACE_BOUND('',#825,.T.);
#908=FACE_BOUND('',#826,.T.);
#909=FACE_BOUND('',#827,.T.);
#910=FACE_BOUND('',#828,.T.);
#911=FACE_BOUND('',#829,.T.);
#912=FACE_BOUND('',#830,.T.);
#913=FACE_BOUND('',#831,.T.);
#914=FACE_BOUND('',#832,.T.);
#915=FACE_BOUND('',#833,.T.);
#916=FACE_BOUND('',#834,.T.);
#917=FACE_BOUND('',#835,.T.);
#918=PLANE('',#1017);
#919=PLANE('',#1018);
#920=PLANE('',#1019);
#921=PLANE('',#1023);
#922=PLANE('',#1027);
#923=PLANE('',#1031);
#924=PLANE('',#1032);
#925=PLANE('',#1033);
#926=PLANE('',#1043);
#927=PLANE('',#1044);
#928=PLANE('',#1047);
#929=PLANE('',#1052);
#930=PLANE('',#1060);
#931=PLANE('',#1061);
#932=PLANE('',#1062);
#933=PLANE('',#1078);
#934=PLANE('',#1079);
#935=PLANE('',#1080);
#936=PLANE('',#1086);
#937=PLANE('',#1092);
#938=PLANE('',#1095);
#939=PLANE('',#1096);
#940=PLANE('',#1097);
#941=PLANE('',#1101);
#942=PLANE('',#1102);
#943=PLANE('',#1103);
#944=PLANE('',#1106);
#945=PLANE('',#1107);
#946=PLANE('',#1111);
#947=PLANE('',#1112);
#948=PLANE('',#1113);
#949=ADVANCED_FACE('',(#836),#918,.T.);
#950=ADVANCED_FACE('',(#837),#919,.F.);
#951=ADVANCED_FACE('',(#838,#839,#840,#841),#920,.T.);
#952=ADVANCED_FACE('',(#842,#843,#844,#845),#921,.T.);
#953=ADVANCED_FACE('',(#846),#922,.T.);
#954=ADVANCED_FACE('',(#847,#848),#20,.F.);
#955=ADVANCED_FACE('',(#849),#923,.T.);
#956=ADVANCED_FACE('',(#850),#924,.F.);
#957=ADVANCED_FACE('',(#851),#925,.T.);
#958=ADVANCED_FACE('',(#852,#853),#21,.F.);
#959=ADVANCED_FACE('',(#854,#855),#22,.F.);
#960=ADVANCED_FACE('',(#856,#857),#23,.F.);
#961=ADVANCED_FACE('',(#858),#926,.F.);
#962=ADVANCED_FACE('',(#859,#860,#861),#927,.F.);
#963=ADVANCED_FACE('',(#862,#863,#864),#928,.T.);
#964=ADVANCED_FACE('',(#865,#866),#929,.T.);
#965=ADVANCED_FACE('',(#867),#930,.T.);
#966=ADVANCED_FACE('',(#868),#931,.T.);
#967=ADVANCED_FACE('',(#869),#932,.F.);
#968=ADVANCED_FACE('',(#870),#24,.F.);
#969=ADVANCED_FACE('',(#871),#25,.F.);
#970=ADVANCED_FACE('',(#872),#26,.F.);
#971=ADVANCED_FACE('',(#873),#27,.T.);
#972=ADVANCED_FACE('',(#874),#28,.T.);
#973=ADVANCED_FACE('',(#875),#29,.T.);
#974=ADVANCED_FACE('',(#876),#30,.T.);
#975=ADVANCED_FACE('',(#877),#31,.T.);
#976=ADVANCED_FACE('',(#878,#879),#32,.F.);
#977=ADVANCED_FACE('',(#880,#881),#933,.T.);
#978=ADVANCED_FACE('',(#882,#883),#934,.F.);
#979=ADVANCED_FACE('',(#884,#885,#886,#887),#935,.T.);
#980=ADVANCED_FACE('',(#888),#936,.T.);
#981=ADVANCED_FACE('',(#889),#33,.T.);
#982=ADVANCED_FACE('',(#890),#34,.T.);
#983=ADVANCED_FACE('',(#891,#892),#35,.F.);
#984=ADVANCED_FACE('',(#893,#894),#36,.F.);
#985=ADVANCED_FACE('',(#895),#937,.T.);
#986=ADVANCED_FACE('',(#896,#897),#37,.F.);
#987=ADVANCED_FACE('',(#898),#938,.T.);
#988=ADVANCED_FACE('',(#899),#939,.T.);
#989=ADVANCED_FACE('',(#900),#940,.T.);
#990=ADVANCED_FACE('',(#901,#902),#38,.F.);
#991=ADVANCED_FACE('',(#903,#904),#39,.F.);
#992=ADVANCED_FACE('',(#905,#906),#40,.F.);
#993=ADVANCED_FACE('',(#907),#941,.T.);
#994=ADVANCED_FACE('',(#908),#942,.T.);
#995=ADVANCED_FACE('',(#909),#943,.T.);
#996=ADVANCED_FACE('',(#910),#944,.T.);
#997=ADVANCED_FACE('',(#911),#945,.F.);
#998=ADVANCED_FACE('',(#912),#41,.F.);
#999=ADVANCED_FACE('',(#913),#42,.F.);
#1000=ADVANCED_FACE('',(#914),#43,.F.);
#1001=ADVANCED_FACE('',(#915),#946,.T.);
#1002=ADVANCED_FACE('',(#916),#947,.F.);
#1003=ADVANCED_FACE('',(#917),#948,.T.);
#1004=CLOSED_SHELL('',(#949,#950,#951,#952,#953,#954,#955,#956,#957,#958,
#959,#960,#961,#962,#963,#964,#965,#966,#967,#968,#969,#970,#971,#972,#973,
#974,#975,#976,#977,#978,#979,#980,#981,#982,#983,#984,#985,#986,#987,#988,
#989,#990,#991,#992,#993,#994,#995,#996,#997,#998,#999,#1000,#1001,#1002,
#1003));
#1005=STYLED_ITEM('',(#1006),#1013);
#1006=PRESENTATION_STYLE_ASSIGNMENT((#1007));
#1007=SURFACE_STYLE_USAGE(.BOTH.,#1008);
#1008=SURFACE_SIDE_STYLE('',(#1009));
#1009=SURFACE_STYLE_FILL_AREA(#1010);
#1010=FILL_AREA_STYLE('',(#1011));
#1011=FILL_AREA_STYLE_COLOUR('',#1012);
#1012=COLOUR_RGB('',0.615686274509804,0.811764705882353,0.929411764705882);
#1013=MANIFOLD_SOLID_BREP('gantry shoulder',#1004);
#1014=SHAPE_DEFINITION_REPRESENTATION(#1706,#1015);
#1015=SHAPE_REPRESENTATION('gantry shoulder',(#1016),#1701);
#1016=AXIS2_PLACEMENT_3D('',#1398,#1114,#1115);
#1017=AXIS2_PLACEMENT_3D('',#1399,#1116,#1117);
#1018=AXIS2_PLACEMENT_3D('',#1412,#1124,#1125);
#1019=AXIS2_PLACEMENT_3D('',#1421,#1130,#1131);
#1020=AXIS2_PLACEMENT_3D('',#1422,#1132,#1133);
#1021=AXIS2_PLACEMENT_3D('',#1432,#1138,#1139);
#1022=AXIS2_PLACEMENT_3D('',#1434,#1140,#1141);
#1023=AXIS2_PLACEMENT_3D('',#1436,#1142,#1143);
#1024=AXIS2_PLACEMENT_3D('',#1437,#1144,#1145);
#1025=AXIS2_PLACEMENT_3D('',#1447,#1150,#1151);
#1026=AXIS2_PLACEMENT_3D('',#1449,#1152,#1153);
#1027=AXIS2_PLACEMENT_3D('',#1451,#1154,#1155);
#1028=AXIS2_PLACEMENT_3D('',#1459,#1161,#1162);
#1029=AXIS2_PLACEMENT_3D('',#1460,#1163,#1164);
#1030=AXIS2_PLACEMENT_3D('',#1468,#1165,#1166);
#1031=AXIS2_PLACEMENT_3D('',#1470,#1167,#1168);
#1032=AXIS2_PLACEMENT_3D('',#1479,#1173,#1174);
#1033=AXIS2_PLACEMENT_3D('',#1485,#1178,#1179);
#1034=AXIS2_PLACEMENT_3D('',#1494,#1184,#1185);
#1035=AXIS2_PLACEMENT_3D('',#1495,#1186,#1187);
#1036=AXIS2_PLACEMENT_3D('',#1497,#1188,#1189);
#1037=AXIS2_PLACEMENT_3D('',#1505,#1190,#1191);
#1038=AXIS2_PLACEMENT_3D('',#1506,#1192,#1193);
#1039=AXIS2_PLACEMENT_3D('',#1508,#1194,#1195);
#1040=AXIS2_PLACEMENT_3D('',#1510,#1196,#1197);
#1041=AXIS2_PLACEMENT_3D('',#1511,#1198,#1199);
#1042=AXIS2_PLACEMENT_3D('',#1513,#1200,#1201);
#1043=AXIS2_PLACEMENT_3D('',#1515,#1202,#1203);
#1044=AXIS2_PLACEMENT_3D('',#1524,#1208,#1209);
#1045=AXIS2_PLACEMENT_3D('',#1525,#1210,#1211);
#1046=AXIS2_PLACEMENT_3D('',#1529,#1213,#1214);
#1047=AXIS2_PLACEMENT_3D('',#1534,#1218,#1219);
#1048=AXIS2_PLACEMENT_3D('',#1535,#1220,#1221);
#1049=AXIS2_PLACEMENT_3D('',#1540,#1225,#1226);
#1050=AXIS2_PLACEMENT_3D('',#1541,#1227,#1228);
#1051=AXIS2_PLACEMENT_3D('',#1549,#1232,#1233);
#1052=AXIS2_PLACEMENT_3D('',#1550,#1234,#1235);
#1053=AXIS2_PLACEMENT_3D('',#1551,#1236,#1237);
#1054=AXIS2_PLACEMENT_3D('',#1556,#1239,#1240);
#1055=AXIS2_PLACEMENT_3D('',#1560,#1242,#1243);
#1056=AXIS2_PLACEMENT_3D('',#1564,#1245,#1246);
#1057=AXIS2_PLACEMENT_3D('',#1565,#1247,#1248);
#1058=AXIS2_PLACEMENT_3D('',#1569,#1250,#1251);
#1059=AXIS2_PLACEMENT_3D('',#1576,#1255,#1256);
#1060=AXIS2_PLACEMENT_3D('',#1577,#1257,#1258);
#1061=AXIS2_PLACEMENT_3D('',#1581,#1261,#1262);
#1062=AXIS2_PLACEMENT_3D('',#1587,#1267,#1268);
#1063=AXIS2_PLACEMENT_3D('',#1598,#1275,#1276);
#1064=AXIS2_PLACEMENT_3D('',#1599,#1277,#1278);
#1065=AXIS2_PLACEMENT_3D('',#1600,#1279,#1280);
#1066=AXIS2_PLACEMENT_3D('',#1601,#1281,#1282);
#1067=AXIS2_PLACEMENT_3D('',#1602,#1283,#1284);
#1068=AXIS2_PLACEMENT_3D('',#1603,#1285,#1286);
#1069=AXIS2_PLACEMENT_3D('',#1604,#1287,#1288);
#1070=AXIS2_PLACEMENT_3D('',#1605,#1289,#1290);
#1071=AXIS2_PLACEMENT_3D('',#1606,#1291,#1292);
#1072=AXIS2_PLACEMENT_3D('',#1607,#1293,#1294);
#1073=AXIS2_PLACEMENT_3D('',#1608,#1295,#1296);
#1074=AXIS2_PLACEMENT_3D('',#1615,#1297,#1298);
#1075=AXIS2_PLACEMENT_3D('',#1622,#1299,#1300);
#1076=AXIS2_PLACEMENT_3D('',#1623,#1301,#1302);
#1077=AXIS2_PLACEMENT_3D('',#1625,#1303,#1304);
#1078=AXIS2_PLACEMENT_3D('',#1627,#1305,#1306);
#1079=AXIS2_PLACEMENT_3D('',#1628,#1307,#1308);
#1080=AXIS2_PLACEMENT_3D('',#1629,#1309,#1310);
#1081=AXIS2_PLACEMENT_3D('',#1630,#1311,#1312);
#1082=AXIS2_PLACEMENT_3D('',#1632,#1313,#1314);
#1083=AXIS2_PLACEMENT_3D('',#1634,#1315,#1316);
#1084=AXIS2_PLACEMENT_3D('',#1636,#1317,#1318);
#1085=AXIS2_PLACEMENT_3D('',#1640,#1320,#1321);
#1086=AXIS2_PLACEMENT_3D('',#1647,#1325,#1326);
#1087=AXIS2_PLACEMENT_3D('',#1650,#1329,#1330);
#1088=AXIS2_PLACEMENT_3D('',#1651,#1331,#1332);
#1089=AXIS2_PLACEMENT_3D('',#1653,#1334,#1335);
#1090=AXIS2_PLACEMENT_3D('',#1654,#1336,#1337);
#1091=AXIS2_PLACEMENT_3D('',#1655,#1338,#1339);
#1092=AXIS2_PLACEMENT_3D('',#1657,#1340,#1341);
#1093=AXIS2_PLACEMENT_3D('',#1658,#1342,#1343);
#1094=AXIS2_PLACEMENT_3D('',#1659,#1344,#1345);
#1095=AXIS2_PLACEMENT_3D('',#1661,#1346,#1347);
#1096=AXIS2_PLACEMENT_3D('',#1662,#1348,#1349);
#1097=AXIS2_PLACEMENT_3D('',#1664,#1351,#1352);
#1098=AXIS2_PLACEMENT_3D('',#1665,#1353,#1354);
#1099=AXIS2_PLACEMENT_3D('',#1666,#1355,#1356);
#1100=AXIS2_PLACEMENT_3D('',#1667,#1357,#1358);
#1101=AXIS2_PLACEMENT_3D('',#1668,#1359,#1360);
#1102=AXIS2_PLACEMENT_3D('',#1674,#1364,#1365);
#1103=AXIS2_PLACEMENT_3D('',#1680,#1369,#1370);
#1104=AXIS2_PLACEMENT_3D('',#1684,#1372,#1373);
#1105=AXIS2_PLACEMENT_3D('',#1686,#1375,#1376);
#1106=AXIS2_PLACEMENT_3D('',#1687,#1377,#1378);
#1107=AXIS2_PLACEMENT_3D('',#1688,#1379,#1380);
#1108=AXIS2_PLACEMENT_3D('',#1692,#1384,#1385);
#1109=AXIS2_PLACEMENT_3D('',#1693,#1386,#1387);
#1110=AXIS2_PLACEMENT_3D('',#1694,#1388,#1389);
#1111=AXIS2_PLACEMENT_3D('',#1695,#1390,#1391);
#1112=AXIS2_PLACEMENT_3D('',#1697,#1393,#1394);
#1113=AXIS2_PLACEMENT_3D('',#1699,#1396,#1397);
#1114=DIRECTION('',(0.,0.,1.));
#1115=DIRECTION('',(1.,0.,0.));
#1116=DIRECTION('',(0.,3.74544129571029E-16,-1.));
#1117=DIRECTION('',(0.,1.,3.74544129571029E-16));
#1118=DIRECTION('',(-1.,0.,0.));
#1119=DIRECTION('',(0.,-1.,-3.74544129571029E-16));
#1120=DIRECTION('',(-1.,0.,0.));
#1121=DIRECTION('',(0.,-1.,-3.74544129571029E-16));
#1122=DIRECTION('',(-1.,0.,0.));
#1123=DIRECTION('',(0.,-1.,-3.74544129571029E-16));
#1124=DIRECTION('',(1.,0.,0.));
#1125=DIRECTION('',(0.,0.,-1.));
#1126=DIRECTION('',(0.,1.,0.));
#1127=DIRECTION('',(0.,0.,-1.));
#1128=DIRECTION('',(0.,-1.,0.));
#1129=DIRECTION('',(0.,0.,1.));
#1130=DIRECTION('',(0.,1.,5.48860834302005E-16));
#1131=DIRECTION('',(0.,-5.48860834302005E-16,1.));
#1132=DIRECTION('',(0.,-1.,-5.48860834302005E-16));
#1133=DIRECTION('',(0.,-5.48860834302005E-16,1.));
#1134=DIRECTION('',(0.,5.48860834302005E-16,-1.));
#1135=DIRECTION('',(-1.,0.,0.));
#1136=DIRECTION('',(0.,5.48860834302005E-16,-1.));
#1137=DIRECTION('',(-1.,0.,0.));
#1138=DIRECTION('',(0.,1.,5.48860834302005E-16));
#1139=DIRECTION('',(0.,-5.48860834302005E-16,1.));
#1140=DIRECTION('',(0.,1.,5.48860834302005E-16));
#1141=DIRECTION('',(0.,-5.48860834302005E-16,1.));
#1142=DIRECTION('',(0.,-1.,-5.48860834302005E-16));
#1143=DIRECTION('',(0.,5.48860834302005E-16,-1.));
#1144=DIRECTION('',(0.,-1.,-5.48860834302005E-16));
#1145=DIRECTION('',(0.,5.48860834302005E-16,-1.));
#1146=DIRECTION('',(0.,-5.48860834302005E-16,1.));
#1147=DIRECTION('',(-1.,0.,0.));
#1148=DIRECTION('',(0.,-5.48860834302005E-16,1.));
#1149=DIRECTION('',(-1.,0.,0.));
#1150=DIRECTION('',(0.,-1.,-5.48860834302005E-16));
#1151=DIRECTION('',(0.,5.48860834302005E-16,-1.));
#1152=DIRECTION('',(0.,-1.,-5.48860834302005E-16));
#1153=DIRECTION('',(0.,5.48860834302005E-16,-1.));
#1154=DIRECTION('',(1.,0.,0.));
#1155=DIRECTION('',(0.,1.,0.));
#1156=DIRECTION('',(0.,1.,2.56267036022282E-16));
#1157=DIRECTION('',(0.,-1.,0.));
#1158=DIRECTION('',(0.,1.,2.56267036022282E-16));
#1159=DIRECTION('',(0.,-2.73184799366426E-16,-1.));
#1160=DIRECTION('',(0.,5.46369598732853E-16,-1.));
#1161=DIRECTION('',(0.,0.,1.));
#1162=DIRECTION('',(1.,0.,0.));
#1163=DIRECTION('',(0.,0.,1.));
#1164=DIRECTION('',(1.,0.,0.));
#1165=DIRECTION('',(0.,0.,1.));
#1166=DIRECTION('',(1.,0.,0.));
#1167=DIRECTION('',(1.,0.,0.));
#1168=DIRECTION('',(0.,0.,-1.));
#1169=DIRECTION('',(0.,1.,0.));
#1170=DIRECTION('',(0.,-1.36592399683213E-16,1.));
#1171=DIRECTION('',(0.,1.,0.));
#1172=DIRECTION('',(0.,0.,1.));
#1173=DIRECTION('',(0.,1.,0.));
#1174=DIRECTION('',(0.,0.,1.));
#1175=DIRECTION('',(-1.,0.,0.));
#1176=DIRECTION('',(0.,0.,1.));
#1177=DIRECTION('',(-1.,0.,0.));
#1178=DIRECTION('',(0.,1.,0.));
#1179=DIRECTION('',(0.,0.,1.));
#1180=DIRECTION('',(-1.,0.,0.));
#1181=DIRECTION('',(0.,0.,1.));
#1182=DIRECTION('',(-1.,0.,0.));
#1183=DIRECTION('',(0.,0.,1.));
#1184=DIRECTION('',(0.,0.,1.));
#1185=DIRECTION('',(1.,0.,0.));
#1186=DIRECTION('',(0.,0.,1.));
#1187=DIRECTION('',(1.,0.,0.));
#1188=DIRECTION('',(0.,0.,1.));
#1189=DIRECTION('',(1.,0.,0.));
#1190=DIRECTION('',(0.,0.,1.));
#1191=DIRECTION('',(1.,0.,0.));
#1192=DIRECTION('',(0.,0.,1.));
#1193=DIRECTION('',(1.,0.,0.));
#1194=DIRECTION('',(0.,0.,1.));
#1195=DIRECTION('',(1.,0.,0.));
#1196=DIRECTION('',(0.,0.,1.));
#1197=DIRECTION('',(1.,0.,0.));
#1198=DIRECTION('',(0.,0.,-1.));
#1199=DIRECTION('',(1.,0.,0.));
#1200=DIRECTION('',(0.,0.,-1.));
#1201=DIRECTION('',(1.,0.,0.));
#1202=DIRECTION('',(1.,0.,0.));
#1203=DIRECTION('',(0.,0.,-1.));
#1204=DIRECTION('',(0.,-1.,0.));
#1205=DIRECTION('',(0.,0.,1.));
#1206=DIRECTION('',(0.,1.,0.));
#1207=DIRECTION('',(0.,0.,1.));
#1208=DIRECTION('',(0.,0.,1.));
#1209=DIRECTION('',(1.,0.,0.));
#1210=DIRECTION('',(0.,0.,1.));
#1211=DIRECTION('',(1.,0.,0.));
#1212=DIRECTION('',(0.,1.,0.));
#1213=DIRECTION('',(0.,0.,1.));
#1214=DIRECTION('',(1.,0.,0.));
#1215=DIRECTION('',(0.,1.,0.));
#1216=DIRECTION('',(0.,1.,0.));
#1217=DIRECTION('',(1.,0.,0.));
#1218=DIRECTION('',(0.,0.,1.));
#1219=DIRECTION('',(1.,0.,0.));
#1220=DIRECTION('',(0.,0.,1.));
#1221=DIRECTION('',(1.,0.,0.));
#1222=DIRECTION('',(-1.,0.,0.));
#1223=DIRECTION('',(0.,1.,0.));
#1224=DIRECTION('',(0.,1.,0.));
#1225=DIRECTION('',(0.,0.,1.));
#1226=DIRECTION('',(1.,0.,0.));
#1227=DIRECTION('',(0.,0.,1.));
#1228=DIRECTION('',(1.,0.,0.));
#1229=DIRECTION('',(1.,0.,0.));
#1230=DIRECTION('',(0.,1.,0.));
#1231=DIRECTION('',(1.,0.,0.));
#1232=DIRECTION('',(0.,0.,1.));
#1233=DIRECTION('',(1.,0.,0.));
#1234=DIRECTION('',(0.,-1.,-1.36592399683213E-16));
#1235=DIRECTION('',(0.,1.36592399683213E-16,-1.));
#1236=DIRECTION('',(0.,-1.,-1.36592399683213E-16));
#1237=DIRECTION('',(0.,1.36592399683213E-16,-1.));
#1238=DIRECTION('',(0.,-1.36592399683213E-16,1.));
#1239=DIRECTION('',(0.,-1.,-1.36592399683213E-16));
#1240=DIRECTION('',(0.,1.36592399683213E-16,-1.));
#1241=DIRECTION('',(-1.,0.,0.));
#1242=DIRECTION('',(0.,-1.,-1.36592399683213E-16));
#1243=DIRECTION('',(0.,1.36592399683213E-16,-1.));
#1244=DIRECTION('',(0.,-1.36592399683213E-16,1.));
#1245=DIRECTION('',(0.,-1.,-1.36592399683213E-16));
#1246=DIRECTION('',(0.,1.36592399683213E-16,-1.));
#1247=DIRECTION('',(0.,-1.,-1.36592399683213E-16));
#1248=DIRECTION('',(0.,1.36592399683213E-16,-1.));
#1249=DIRECTION('',(0.,-1.36592399683213E-16,1.));
#1250=DIRECTION('',(0.,-1.,-1.36592399683213E-16));
#1251=DIRECTION('',(0.,1.36592399683213E-16,-1.));
#1252=DIRECTION('',(0.,-3.74544129571029E-16,1.));
#1253=DIRECTION('',(-1.,0.,0.));
#1254=DIRECTION('',(0.,-3.74544129571029E-16,1.));
#1255=DIRECTION('',(0.,-1.,-1.36592399683213E-16));
#1256=DIRECTION('',(0.,1.36592399683213E-16,-1.));
#1257=DIRECTION('',(0.,1.,5.46369598732853E-16));
#1258=DIRECTION('',(0.,-5.46369598732853E-16,1.));
#1259=DIRECTION('',(0.,5.46369598732853E-16,-1.));
#1260=DIRECTION('',(-1.,0.,0.));
#1261=DIRECTION('',(0.,-2.56267036022282E-16,1.));
#1262=DIRECTION('',(0.,-1.,-2.56267036022282E-16));
#1263=DIRECTION('',(0.,1.,2.56267036022282E-16));
#1264=DIRECTION('',(-1.,0.,0.));
#1265=DIRECTION('',(0.,1.,2.56267036022282E-16));
#1266=DIRECTION('',(0.,1.,2.56267036022282E-16));
#1267=DIRECTION('',(1.,0.,0.));
#1268=DIRECTION('',(0.,1.,0.));
#1269=DIRECTION('',(0.,5.46369598732853E-16,-1.));
#1270=DIRECTION('',(0.,-1.,-3.74544129571029E-16));
#1271=DIRECTION('',(0.,1.,0.));
#1272=DIRECTION('',(0.,0.,1.));
#1273=DIRECTION('',(0.,1.,0.));
#1274=DIRECTION('',(0.,1.,2.56267036022282E-16));
#1275=DIRECTION('',(0.,1.,0.));
#1276=DIRECTION('',(0.,0.,1.));
#1277=DIRECTION('',(0.,0.707106781186548,-0.707106781186548));
#1278=DIRECTION('',(0.,0.707106781186548,0.707106781186548));
#1279=DIRECTION('',(0.,0.,1.));
#1280=DIRECTION('',(1.,0.,0.));
#1281=DIRECTION('',(0.,0.707106781186548,0.707106781186548));
#1282=DIRECTION('',(0.,-0.707106781186548,0.707106781186548));
#1283=DIRECTION('',(0.,-1.,0.));
#1284=DIRECTION('',(0.,0.,-1.));
#1285=DIRECTION('',(0.,-1.,-2.56267036022282E-16));
#1286=DIRECTION('',(0.,2.56267036022282E-16,-1.));
#1287=DIRECTION('',(0.,-0.707106781186548,0.707106781186547));
#1288=DIRECTION('',(0.,-0.707106781186547,-0.707106781186548));
#1289=DIRECTION('',(0.,-5.46369598732853E-16,1.));
#1290=DIRECTION('',(0.,-1.,-5.46369598732853E-16));
#1291=DIRECTION('',(0.,0.707106781186547,0.707106781186548));
#1292=DIRECTION('',(0.,-0.707106781186548,0.707106781186547));
#1293=DIRECTION('',(0.,1.,3.74544129571029E-16));
#1294=DIRECTION('',(0.,-3.74544129571029E-16,1.));
#1295=DIRECTION('',(0.,0.,1.));
#1296=DIRECTION('',(1.,0.,0.));
#1297=DIRECTION('',(0.,0.,-1.));
#1298=DIRECTION('',(-1.,0.,0.));
#1299=DIRECTION('',(0.,0.,-1.));
#1300=DIRECTION('',(-1.,0.,0.));
#1301=DIRECTION('',(0.,0.,1.));
#1302=DIRECTION('',(1.,0.,0.));
#1303=DIRECTION('',(0.,0.,1.));
#1304=DIRECTION('',(1.,0.,0.));
#1305=DIRECTION('',(0.,0.,1.));
#1306=DIRECTION('',(1.,0.,0.));
#1307=DIRECTION('',(0.,0.,1.));
#1308=DIRECTION('',(1.,0.,0.));
#1309=DIRECTION('',(0.,1.,-2.73184799366426E-16));
#1310=DIRECTION('',(0.,2.73184799366426E-16,1.));
#1311=DIRECTION('',(0.,1.,-2.73184799366426E-16));
#1312=DIRECTION('',(0.,2.73184799366426E-16,1.));
#1313=DIRECTION('',(0.,1.,-2.73184799366426E-16));
#1314=DIRECTION('',(0.,2.73184799366426E-16,1.));
#1315=DIRECTION('',(0.,1.,-2.73184799366426E-16));
#1316=DIRECTION('',(0.,2.73184799366426E-16,1.));
#1317=DIRECTION('',(0.,1.,-2.73184799366426E-16));
#1318=DIRECTION('',(0.,2.73184799366426E-16,1.));
#1319=DIRECTION('',(0.,-2.73184799366426E-16,-1.));
#1320=DIRECTION('',(0.,1.,-2.73184799366426E-16));
#1321=DIRECTION('',(0.,2.73184799366426E-16,1.));
#1322=DIRECTION('',(0.,-3.74544129571029E-16,1.));
#1323=DIRECTION('',(-1.,0.,0.));
#1324=DIRECTION('',(0.,-3.74544129571029E-16,1.));
#1325=DIRECTION('',(1.,0.,0.));
#1326=DIRECTION('',(0.,1.,0.));
#1327=DIRECTION('',(0.,1.,2.56267036022282E-16));
#1328=DIRECTION('',(0.,-1.,-3.74544129571029E-16));
#1329=DIRECTION('',(0.,1.,2.56267036022282E-16));
#1330=DIRECTION('',(0.,-2.56267036022282E-16,1.));
#1331=DIRECTION('',(0.,-1.,-3.74544129571029E-16));
#1332=DIRECTION('',(0.,3.74544129571029E-16,-1.));
#1333=DIRECTION('',(0.,-1.,-3.74544129571029E-16));
#1334=DIRECTION('',(0.,1.,-2.73184799366426E-16));
#1335=DIRECTION('',(0.,2.73184799366426E-16,1.));
#1336=DIRECTION('',(0.,1.,-2.73184799366426E-16));
#1337=DIRECTION('',(0.,2.73184799366426E-16,1.));
#1338=DIRECTION('',(0.,1.,-2.73184799366426E-16));
#1339=DIRECTION('',(0.,2.73184799366426E-16,1.));
#1340=DIRECTION('',(0.,1.,-2.73184799366426E-16));
#1341=DIRECTION('',(-1.,0.,0.));
#1342=DIRECTION('',(0.,1.,-2.73184799366426E-16));
#1343=DIRECTION('',(0.,2.73184799366426E-16,1.));
#1344=DIRECTION('',(0.,1.,-2.73184799366426E-16));
#1345=DIRECTION('',(0.,2.73184799366426E-16,1.));
#1346=DIRECTION('',(0.,1.,-2.73184799366426E-16));
#1347=DIRECTION('',(-1.,0.,0.));
#1348=DIRECTION('',(0.,0.,-1.));
#1349=DIRECTION('',(-1.,0.,0.));
#1350=DIRECTION('',(0.,-1.,0.));
#1351=DIRECTION('',(1.,0.,0.));
#1352=DIRECTION('',(0.,1.,0.));
#1353=DIRECTION('',(0.,1.,5.48860834302005E-16));
#1354=DIRECTION('',(0.,-5.48860834302005E-16,1.));
#1355=DIRECTION('',(0.,1.,5.48860834302005E-16));
#1356=DIRECTION('',(0.,-5.48860834302005E-16,1.));
#1357=DIRECTION('',(0.,1.,5.48860834302005E-16));
#1358=DIRECTION('',(0.,-5.48860834302005E-16,1.));
#1359=DIRECTION('',(0.,-1.,0.));
#1360=DIRECTION('',(0.,0.,-1.));
#1361=DIRECTION('',(1.,0.,0.));
#1362=DIRECTION('',(0.,0.,-1.));
#1363=DIRECTION('',(0.,0.,-1.));
#1364=DIRECTION('',(0.,1.,0.));
#1365=DIRECTION('',(0.,0.,1.));
#1366=DIRECTION('',(0.,0.,1.));
#1367=DIRECTION('',(1.,0.,0.));
#1368=DIRECTION('',(0.,0.,1.));
#1369=DIRECTION('',(0.,0.,-1.));
#1370=DIRECTION('',(-1.,0.,0.));
#1371=DIRECTION('',(0.,1.,0.));
#1372=DIRECTION('',(0.,0.,-1.));
#1373=DIRECTION('',(-1.,0.,0.));
#1374=DIRECTION('',(0.,1.,0.));
#1375=DIRECTION('',(0.,0.,-1.));
#1376=DIRECTION('',(-1.,0.,0.));
#1377=DIRECTION('',(-1.,0.,0.));
#1378=DIRECTION('',(0.,-1.,0.));
#1379=DIRECTION('',(-1.,0.,0.));
#1380=DIRECTION('',(0.,-1.,0.));
#1381=DIRECTION('',(0.,0.,1.));
#1382=DIRECTION('',(0.,1.,0.));
#1383=DIRECTION('',(0.,0.,-1.));
#1384=DIRECTION('',(0.,0.,-1.));
#1385=DIRECTION('',(-1.,0.,0.));
#1386=DIRECTION('',(0.,0.,1.));
#1387=DIRECTION('',(1.,0.,0.));
#1388=DIRECTION('',(0.,-1.,0.));
#1389=DIRECTION('',(0.,0.,-1.));
#1390=DIRECTION('',(-1.,0.,0.));
#1391=DIRECTION('',(0.,0.,1.));
#1392=DIRECTION('',(0.,-1.,-3.74544129571029E-16));
#1393=DIRECTION('',(-1.,0.,0.));
#1394=DIRECTION('',(0.,0.,1.));
#1395=DIRECTION('',(0.,-1.,-3.74544129571029E-16));
#1396=DIRECTION('',(0.,3.74544129571029E-16,-1.));
#1397=DIRECTION('',(1.,0.,0.));
#1398=CARTESIAN_POINT('',(0.,0.,0.));
#1399=CARTESIAN_POINT('',(0.0270645366346836,0.0549796332643329,-0.0254));
#1400=CARTESIAN_POINT('',(0.0623705366346836,-0.021688211709261,-0.0254));
#1401=CARTESIAN_POINT('',(0.0454165533244939,-0.021688211709261,-0.0254));
#1402=CARTESIAN_POINT('',(0.0270645366346836,-0.021688211709261,-0.0254));
#1403=CARTESIAN_POINT('',(0.0454165533244939,-0.027381040136781,-0.0254));
#1404=CARTESIAN_POINT('',(0.0454165533244939,-0.03302,-0.0254));
#1405=CARTESIAN_POINT('',(0.0270645366346836,-0.03302,-0.0254));
#1406=CARTESIAN_POINT('',(0.0232545366346836,-0.03302,-0.0254));
#1407=CARTESIAN_POINT('',(0.0232545366346836,0.142979266528666,-0.0254));
#1408=CARTESIAN_POINT('',(0.0232545366346836,0.142979266528666,-0.0254));
#1409=CARTESIAN_POINT('',(0.0270645366346836,0.142979266528666,-0.0254));
#1410=CARTESIAN_POINT('',(0.0270645366346836,0.142979266528666,-0.0254));
#1411=CARTESIAN_POINT('',(0.0270645366346836,0.0549796332643329,-0.0254));
#1412=CARTESIAN_POINT('',(-0.0163463726639748,0.00126039050519466,-0.008382));
#1413=CARTESIAN_POINT('',(-0.0163463726639748,0.00126039050519466,0.008382));
#1414=CARTESIAN_POINT('',(-0.0163463726639748,-0.0216560533867598,0.008382));
#1415=CARTESIAN_POINT('',(-0.0163463726639748,-0.00652827344179154,0.008382));
#1416=CARTESIAN_POINT('',(-0.0163463726639748,-0.00652827344179154,-0.008382));
#1417=CARTESIAN_POINT('',(-0.0163463726639748,-0.00652827344179154,-0.0109219961949359));
#1418=CARTESIAN_POINT('',(-0.0163463726639748,-0.0140921634142757,-0.010922));
#1419=CARTESIAN_POINT('',(-0.0163463726639748,-0.0216560533867598,-0.0109219964497816));
#1420=CARTESIAN_POINT('',(-0.0163463726639748,-0.0216560533867598,-0.008382));
#1421=CARTESIAN_POINT('',(0.0583065366346836,0.0507659427821636,0.000115288574993617));
#1422=CARTESIAN_POINT('',(0.048777163028717,0.0507659427821636,-0.0177760906517506));
#1423=CARTESIAN_POINT('',(0.048777163028717,0.0507659427821636,-0.0133750127114267));
#1424=CARTESIAN_POINT('',(0.0270645366346836,0.0507659427821636,0.000115288574993617));
#1425=CARTESIAN_POINT('',(0.0270645366346836,0.0507659427821636,0.0254));
#1426=CARTESIAN_POINT('',(0.0270645366346836,0.0507659427821636,-0.0251694228500128));
#1427=CARTESIAN_POINT('',(0.0583065366346836,0.0507659427821636,0.0254));
#1428=CARTESIAN_POINT('',(0.0583065366346836,0.0507659427821636,0.0254));
#1429=CARTESIAN_POINT('',(0.0583065366346836,0.0507659427821636,0.000115288574993617));
#1430=CARTESIAN_POINT('',(0.0583065366346836,0.0507659427821636,-0.0251694228500128));
#1431=CARTESIAN_POINT('',(0.0583065366346836,0.0507659427821636,-0.0251694228500128));
#1432=CARTESIAN_POINT('',(0.0487163662910461,0.0507659427821636,2.81333726085756E-17));
#1433=CARTESIAN_POINT('',(0.0487163662910461,0.0507659427821636,0.00440837144582903));
#1434=CARTESIAN_POINT('',(0.048777163028717,0.0507659427821636,0.0177760906517506));
#1435=CARTESIAN_POINT('',(0.048777163028717,0.0507659427821636,0.0221771685920744));
#1436=CARTESIAN_POINT('',(0.0583065366346836,0.0416022576391697,0.000115288574993613));
#1437=CARTESIAN_POINT('',(0.048777163028717,0.0416022576391697,-0.0177760906517506));
#1438=CARTESIAN_POINT('',(0.048777163028717,0.0416022576391697,-0.0221771685920744));
#1439=CARTESIAN_POINT('',(0.0270645366346836,0.0416022576391697,0.000115288574993613));
#1440=CARTESIAN_POINT('',(0.0270645366346836,0.0416022576391697,-0.0251694228500128));
#1441=CARTESIAN_POINT('',(0.0270645366346836,0.0416022576391697,0.0254));
#1442=CARTESIAN_POINT('',(0.0583065366346836,0.0416022576391697,-0.0251694228500128));
#1443=CARTESIAN_POINT('',(0.0583065366346836,0.0416022576391697,-0.0251694228500128));
#1444=CARTESIAN_POINT('',(0.0583065366346836,0.0416022576391697,0.000115288574993613));
#1445=CARTESIAN_POINT('',(0.0583065366346836,0.0416022576391697,0.0254));
#1446=CARTESIAN_POINT('',(0.0583065366346836,0.0416022576391697,0.0254));
#1447=CARTESIAN_POINT('',(0.0487163662910461,0.0416022576391697,2.3103784735711E-17));
#1448=CARTESIAN_POINT('',(0.0487163662910461,0.0416022576391697,-0.00440837144582898));
#1449=CARTESIAN_POINT('',(0.048777163028717,0.0416022576391697,0.0177760906517506));
#1450=CARTESIAN_POINT('',(0.048777163028717,0.0416022576391697,0.0133750127114267));
#1451=CARTESIAN_POINT('',(0.0270645366346836,0.0545295041225255,1.04083408558608E-17));
#1452=CARTESIAN_POINT('',(0.0270645366346836,0.054979633264333,0.0254));
#1453=CARTESIAN_POINT('',(0.0270645366346836,0.142979266528666,0.0254));
#1454=CARTESIAN_POINT('',(0.0270645366346836,0.0461841002106667,-0.0251694228500128));
#1455=CARTESIAN_POINT('',(0.0270645366346836,0.054979633264333,0.0254));
#1456=CARTESIAN_POINT('',(0.0270645366346836,-0.021688211709261,0.0254));
#1457=CARTESIAN_POINT('',(0.0270645366346836,-0.021688211709261,-1.38777878078145E-17));
#1458=CARTESIAN_POINT('',(0.0270645366346836,0.142979266528666,4.33680868994202E-17));
#1459=CARTESIAN_POINT('',(0.,7.07662152887298E-19,-0.008382));
#1460=CARTESIAN_POINT('',(0.,7.07662152887298E-19,-0.008382));
#1461=CARTESIAN_POINT('',(0.0105545366346836,0.00470807874053968,-0.008382));
#1462=CARTESIAN_POINT('',(0.0105545366346836,-0.00470807874053968,-0.008382));
#1463=CARTESIAN_POINT('',(0.0105545366346836,0.00470807874053968,-0.008382));
#1464=CARTESIAN_POINT('',(0.0112179747029598,0.00322078811046357,-0.008382));
#1465=CARTESIAN_POINT('',(0.0118960563660533,8.38069571453166E-7,-0.00854125564984247));
#1466=CARTESIAN_POINT('',(0.0112179125393896,-0.00322092746830265,-0.008382));
#1467=CARTESIAN_POINT('',(0.0105545366346836,-0.00470807874053968,-0.008382));
#1468=CARTESIAN_POINT('',(0.,7.07662152887298E-19,0.));
#1469=CARTESIAN_POINT('',(0.011557,7.07662152887298E-19,0.));
#1470=CARTESIAN_POINT('',(0.0169045366346836,0.00126039050519466,-0.008382));
#1471=CARTESIAN_POINT('',(0.0169045366346836,0.00126039050519466,-0.008382));
#1472=CARTESIAN_POINT('',(0.0169045366346836,-0.0339202582836151,-0.008382));
#1473=CARTESIAN_POINT('',(0.0169045366346836,-0.03302,-0.008382));
#1474=CARTESIAN_POINT('',(0.0169045366346836,-0.03302,-1.04083408558608E-17));
#1475=CARTESIAN_POINT('',(0.0169045366346836,-0.03302,0.008382));
#1476=CARTESIAN_POINT('',(0.0169045366346836,0.00126039050519466,0.008382));
#1477=CARTESIAN_POINT('',(0.0169045366346836,-0.0339202582836151,0.008382));
#1478=CARTESIAN_POINT('',(0.0169045366346836,-0.0339202582836151,-0.008382));
#1479=CARTESIAN_POINT('',(0.000279081985354424,-0.0339202582836151,-0.008382));
#1480=CARTESIAN_POINT('',(0.000279081985354424,-0.0339202582836151,0.008382));
#1481=CARTESIAN_POINT('',(-0.00408216776711944,-0.0339202582836151,0.008382));
#1482=CARTESIAN_POINT('',(-0.00408216776711944,-0.0339202582836151,-0.008382));
#1483=CARTESIAN_POINT('',(-0.00408216776711944,-0.0339202582836151,-0.008382));
#1484=CARTESIAN_POINT('',(0.000279081985354424,-0.0339202582836151,-0.008382));
#1485=CARTESIAN_POINT('',(0.000279081985354424,0.0364410392940044,-0.008382));
#1486=CARTESIAN_POINT('',(0.000279081985354424,0.0364410392940044,-0.008382));
#1487=CARTESIAN_POINT('',(0.0105545366346836,0.0364410392940044,-0.008382));
#1488=CARTESIAN_POINT('',(-0.00408216776711944,0.0364410392940044,-0.008382));
#1489=CARTESIAN_POINT('',(-0.00408216776711944,0.0364410392940044,0.008382));
#1490=CARTESIAN_POINT('',(-0.00408216776711944,0.0364410392940044,0.008382));
#1491=CARTESIAN_POINT('',(0.000279081985354424,0.0364410392940044,0.008382));
#1492=CARTESIAN_POINT('',(0.0105545366346836,0.0364410392940044,0.008382));
#1493=CARTESIAN_POINT('',(0.0105545366346836,0.0364410392940044,-0.008382));
#1494=CARTESIAN_POINT('',(0.,7.07662152887298E-19,-0.008382));
#1495=CARTESIAN_POINT('',(0.,7.07662152887298E-19,0.00254));
#1496=CARTESIAN_POINT('',(0.011557,7.07662152887298E-19,0.00254));
#1497=CARTESIAN_POINT('',(0.,7.07662152887298E-19,0.008382));
#1498=CARTESIAN_POINT('',(0.0105545366346836,0.00470807874053968,0.008382));
#1499=CARTESIAN_POINT('',(0.0105545366346836,-0.00470807874053968,0.008382));
#1500=CARTESIAN_POINT('',(0.0105545366346836,-0.00470807874053968,0.008382));
#1501=CARTESIAN_POINT('',(0.0112179747029598,-0.00322078811046357,0.008382));
#1502=CARTESIAN_POINT('',(0.0118960563660533,-8.38069571452733E-7,0.00854125564984247));
#1503=CARTESIAN_POINT('',(0.0112179125393896,0.00322092746830265,0.008382));
#1504=CARTESIAN_POINT('',(0.0105545366346836,0.00470807874053968,0.008382));
#1505=CARTESIAN_POINT('',(0.,0.0254,-0.008382));
#1506=CARTESIAN_POINT('',(0.,0.0254,-0.008382));
#1507=CARTESIAN_POINT('',(0.00750199001739831,0.0254,-0.008382));
#1508=CARTESIAN_POINT('',(0.,0.0254,0.008382));
#1509=CARTESIAN_POINT('',(0.00750199001739831,0.0254,0.008382));
#1510=CARTESIAN_POINT('',(0.,-0.0254,-0.008382));
#1511=CARTESIAN_POINT('',(0.,-0.0254,-0.008382));
#1512=CARTESIAN_POINT('',(0.00750199001739831,-0.0254,-0.008382));
#1513=CARTESIAN_POINT('',(0.,-0.0254,0.008382));
#1514=CARTESIAN_POINT('',(0.00750199001739831,-0.0254,0.008382));
#1515=CARTESIAN_POINT('',(-0.0163463726639748,0.00126039050519466,-0.008382));
#1516=CARTESIAN_POINT('',(-0.0163463726639748,0.0163452611291319,-0.010922));
#1517=CARTESIAN_POINT('',(-0.0163463726639748,0.0241768343971491,-0.0109219964497816));
#1518=CARTESIAN_POINT('',(-0.0163463726639748,0.00851368405605068,-0.010922));
#1519=CARTESIAN_POINT('',(-0.0163463726639748,0.00851368786111474,-0.008382));
#1520=CARTESIAN_POINT('',(-0.0163463726639748,0.00851368786111474,0.008382));
#1521=CARTESIAN_POINT('',(-0.0163463726639748,0.00126039050519466,0.008382));
#1522=CARTESIAN_POINT('',(-0.0163463726639748,0.0241768343971491,0.008382));
#1523=CARTESIAN_POINT('',(-0.0163463726639748,0.0241768343971491,-0.008382));
#1524=CARTESIAN_POINT('',(0.000279081985354424,0.00126039050519466,-0.008382));
#1525=CARTESIAN_POINT('',(-0.00408216776711944,-0.0216560533867598,-0.008382));
#1526=CARTESIAN_POINT('',(-0.0138063726639748,-0.0291293766686756,-0.008382));
#1527=CARTESIAN_POINT('',(-0.0138063726639748,0.00597368786111474,-0.008382));
#1528=CARTESIAN_POINT('',(-0.0138063726639748,0.0316501576790649,-0.008382));
#1529=CARTESIAN_POINT('',(-0.00408216776711944,0.0241768343971491,-0.008382));
#1530=CARTESIAN_POINT('',(0.0105545366346836,-0.03302,-0.008382));
#1531=CARTESIAN_POINT('',(0.0105545366346836,-0.03302,-0.008382));
#1532=CARTESIAN_POINT('',(0.0105545366346836,-0.03302,-0.008382));
#1533=CARTESIAN_POINT('',(0.000279081985354424,-0.03302,-0.008382));
#1534=CARTESIAN_POINT('',(0.000279081985354424,0.00126039050519466,0.008382));
#1535=CARTESIAN_POINT('',(-0.00408216776711944,-0.0216560533867598,0.008382));
#1536=CARTESIAN_POINT('',(0.0270645366346836,-0.03302,0.008382));
#1537=CARTESIAN_POINT('',(0.0105545366346836,-0.03302,0.008382));
#1538=CARTESIAN_POINT('',(0.0105545366346836,0.00126039050519466,0.008382));
#1539=CARTESIAN_POINT('',(0.0105545366346836,0.00126039050519466,0.008382));
#1540=CARTESIAN_POINT('',(-0.00408216776711944,0.0241768343971491,0.008382));
#1541=CARTESIAN_POINT('',(-0.0188863726639748,0.00851368786111474,0.008382));
#1542=CARTESIAN_POINT('',(-0.0188863726639748,0.00597368786111474,0.008382));
#1543=CARTESIAN_POINT('',(-0.0214263726639748,0.00597368786111474,0.008382));
#1544=CARTESIAN_POINT('',(-0.0214263726639748,0.00597368786111474,0.008382));
#1545=CARTESIAN_POINT('',(-0.0214263726639748,0.00126039050519466,0.008382));
#1546=CARTESIAN_POINT('',(-0.0214263726639748,-0.00398827344179153,0.008382));
#1547=CARTESIAN_POINT('',(-0.0214263726639748,-0.00398827344179153,0.008382));
#1548=CARTESIAN_POINT('',(-0.0188863726639748,-0.00398827344179153,0.008382));
#1549=CARTESIAN_POINT('',(-0.0188863726639748,-0.00652827344179154,0.008382));
#1550=CARTESIAN_POINT('',(0.0270645366346836,-0.03302,-1.04083408558608E-17));
#1551=CARTESIAN_POINT('',(0.0487739878163835,-0.03302,9.80712234231028E-18));
#1552=CARTESIAN_POINT('',(0.0487739878163835,-0.03302,-0.00698499999999999));
#1553=CARTESIAN_POINT('',(0.0623705366346836,-0.03302,-1.04083408558608E-17));
#1554=CARTESIAN_POINT('',(0.0623705366346836,-0.03302,-0.0131357878));
#1555=CARTESIAN_POINT('',(0.0623705366346836,-0.03302,0.0131357878));
#1556=CARTESIAN_POINT('',(0.0501063244346836,-0.03302,0.0131357878));
#1557=CARTESIAN_POINT('',(0.0501063244346836,-0.03302,0.0254));
#1558=CARTESIAN_POINT('',(0.0270645366346836,-0.03302,0.0254));
#1559=CARTESIAN_POINT('',(0.0232545366346836,-0.03302,0.0254));
#1560=CARTESIAN_POINT('',(0.0232545366346836,-0.03302,0.01905));
#1561=CARTESIAN_POINT('',(0.0169045366346836,-0.03302,0.01905));
#1562=CARTESIAN_POINT('',(0.0169045366346836,-0.03302,-1.04083408558608E-17));
#1563=CARTESIAN_POINT('',(0.0169045366346836,-0.03302,0.014732));
#1564=CARTESIAN_POINT('',(0.0105545366346836,-0.03302,0.014732));
#1565=CARTESIAN_POINT('',(0.0105545366346836,-0.03302,-0.014732));
#1566=CARTESIAN_POINT('',(0.0169045366346836,-0.03302,-0.014732));
#1567=CARTESIAN_POINT('',(0.0169045366346836,-0.03302,-1.04083408558608E-17));
#1568=CARTESIAN_POINT('',(0.0169045366346836,-0.03302,-0.01905));
#1569=CARTESIAN_POINT('',(0.0232545366346836,-0.03302,-0.01905));
#1570=CARTESIAN_POINT('',(0.0454165533244939,-0.03302,-0.036322));
#1571=CARTESIAN_POINT('',(0.0454165533244939,-0.03302,-0.036322));
#1572=CARTESIAN_POINT('',(0.0270645366346836,-0.03302,-0.036322));
#1573=CARTESIAN_POINT('',(0.0501063244346836,-0.03302,-0.036322));
#1574=CARTESIAN_POINT('',(0.0501063244346836,-0.03302,-0.036322));
#1575=CARTESIAN_POINT('',(0.0501063244346836,-0.03302,-0.0254));
#1576=CARTESIAN_POINT('',(0.0501063244346836,-0.03302,-0.0131357878));
#1577=CARTESIAN_POINT('',(0.0270645366346836,0.142979266528666,4.33680868994202E-17));
#1578=CARTESIAN_POINT('',(0.0232545366346836,0.142979266528666,0.0254));
#1579=CARTESIAN_POINT('',(0.0232545366346836,0.142979266528666,0.0254));
#1580=CARTESIAN_POINT('',(0.0270645366346836,0.142979266528666,0.0254));
#1581=CARTESIAN_POINT('',(0.0270645366346836,0.054979633264333,0.0254));
#1582=CARTESIAN_POINT('',(0.0501063244346836,0.054979633264333,0.0254));
#1583=CARTESIAN_POINT('',(0.0501063244346836,-0.021688211709261,0.0254));
#1584=CARTESIAN_POINT('',(0.0623705366346836,-0.021688211709261,0.0254));
#1585=CARTESIAN_POINT('',(0.0583065366346836,0.054979633264333,0.0254));
#1586=CARTESIAN_POINT('',(0.0232545366346836,-0.03302,0.0254));
#1587=CARTESIAN_POINT('',(0.0169045366346836,0.0545295041225255,1.04083408558608E-17));
#1588=CARTESIAN_POINT('',(0.0169045366346836,0.136629266528666,-0.0254));
#1589=CARTESIAN_POINT('',(0.0169045366346836,0.136629266528666,0.01905));
#1590=CARTESIAN_POINT('',(0.0169045366346836,0.136629266528666,-0.01905));
#1591=CARTESIAN_POINT('',(0.0169045366346836,-0.03302,-0.01905));
#1592=CARTESIAN_POINT('',(0.0169045366346836,0.0427910392940044,-0.014732));
#1593=CARTESIAN_POINT('',(0.0169045366346836,0.0427910392940044,-0.014732));
#1594=CARTESIAN_POINT('',(0.0169045366346836,0.0427910392940044,1.04083408558608E-17));
#1595=CARTESIAN_POINT('',(0.0169045366346836,0.0427910392940044,0.014732));
#1596=CARTESIAN_POINT('',(0.0169045366346836,0.0545295041225255,0.014732));
#1597=CARTESIAN_POINT('',(0.0169045366346836,0.142979266528666,0.01905));
#1598=CARTESIAN_POINT('',(0.0105545366346836,0.00126039050519466,0.014732));
#1599=CARTESIAN_POINT('',(0.0105545366346836,0.0427910392940044,0.014732));
#1600=CARTESIAN_POINT('',(0.0105545366346836,0.0427910392940044,1.04083408558608E-17));
#1601=CARTESIAN_POINT('',(0.0105545366346836,0.0427910392940044,-0.014732));
#1602=CARTESIAN_POINT('',(0.0105545366346836,0.0545295041225255,-0.014732));
#1603=CARTESIAN_POINT('',(0.0232545366346836,0.0545295041225255,0.01905));
#1604=CARTESIAN_POINT('',(0.0232545366346836,0.136629266528666,0.01905));
#1605=CARTESIAN_POINT('',(0.0232545366346836,0.136629266528666,5.52651550977664E-17));
#1606=CARTESIAN_POINT('',(0.0232545366346836,0.136629266528666,-0.01905));
#1607=CARTESIAN_POINT('',(0.0232545366346836,0.0545295041225255,-0.01905));
#1608=CARTESIAN_POINT('',(-0.00408216776711944,-0.0216560533867598,-0.008382));
#1609=CARTESIAN_POINT('',(-0.0138063726639748,-0.0291293766686756,-0.008382));
#1610=CARTESIAN_POINT('',(-0.0142423847868592,-0.0285620425576649,-0.008382));
#1611=CARTESIAN_POINT('',(-0.0149965844788997,-0.0273751782951774,-0.0085952881000706));
#1612=CARTESIAN_POINT('',(-0.0160460704649892,-0.0248801110627429,-0.00944852020388897));
#1613=CARTESIAN_POINT('',(-0.0163463726639748,-0.0229410165200454,-0.0103372270629753));
#1614=CARTESIAN_POINT('',(-0.0163463726639748,-0.0216560533867598,-0.010922));
#1615=CARTESIAN_POINT('',(-0.00408216776711944,0.0241768343971491,-0.008382));
#1616=CARTESIAN_POINT('',(-0.0138063726639748,0.0316501576790649,-0.008382));
#1617=CARTESIAN_POINT('',(-0.0142423847868592,0.0310828235680542,-0.008382));
#1618=CARTESIAN_POINT('',(-0.0149965844788997,0.0298959593055667,-0.00859528810007059));
#1619=CARTESIAN_POINT('',(-0.0160460704649892,0.0274008920731323,-0.00944852020388898));
#1620=CARTESIAN_POINT('',(-0.0163463726639748,0.0254617975304346,-0.0103372270629752));
#1621=CARTESIAN_POINT('',(-0.0163463726639748,0.0241768343971491,-0.010922));
#1622=CARTESIAN_POINT('',(0.,2.56624736761328E-19,0.00254));
#1623=CARTESIAN_POINT('',(0.,2.56624736761328E-19,0.00254));
#1624=CARTESIAN_POINT('',(0.004191,2.56624736761328E-19,0.00254));
#1625=CARTESIAN_POINT('',(0.,2.56624736761328E-19,0.));
#1626=CARTESIAN_POINT('',(0.004191,2.56624736761328E-19,0.));
#1627=CARTESIAN_POINT('',(0.000279081985354424,0.00126039050519466,0.00254));
#1628=CARTESIAN_POINT('',(0.000279081985354424,0.00126039050519466,0.));
#1629=CARTESIAN_POINT('',(0.0623705366346836,-0.021688211709261,-1.38777878078145E-17));
#1630=CARTESIAN_POINT('',(0.0487739878163835,-0.021688211709261,0.01778));
#1631=CARTESIAN_POINT('',(0.0487739878163835,-0.021688211709261,0.021717));
#1632=CARTESIAN_POINT('',(0.0487739878163835,-0.021688211709261,-0.01778));
#1633=CARTESIAN_POINT('',(0.0487739878163835,-0.021688211709261,-0.013843));
#1634=CARTESIAN_POINT('',(0.0487739878163835,-0.021688211709261,6.71145003164191E-18));
#1635=CARTESIAN_POINT('',(0.0487739878163835,-0.0216882117092609,0.00698500000000001));
#1636=CARTESIAN_POINT('',(0.0501063244346836,-0.021688211709261,0.0131357878));
#1637=CARTESIAN_POINT('',(0.0623705366346836,-0.021688211709261,0.0131357878));
#1638=CARTESIAN_POINT('',(0.0623705366346836,-0.021688211709261,-1.38777878078145E-17));
#1639=CARTESIAN_POINT('',(0.0623705366346836,-0.021688211709261,-0.0131357878));
#1640=CARTESIAN_POINT('',(0.0501063244346836,-0.021688211709261,-0.0131357878));
#1641=CARTESIAN_POINT('',(0.0501063244346836,-0.021688211709261,-0.0254));
#1642=CARTESIAN_POINT('',(0.0501063244346836,-0.021688211709261,-0.036322));
#1643=CARTESIAN_POINT('',(0.0501063244346836,-0.021688211709261,-0.036322));
#1644=CARTESIAN_POINT('',(0.0623705366346836,-0.021688211709261,-0.036322));
#1645=CARTESIAN_POINT('',(0.0454165533244939,-0.021688211709261,-0.036322));
#1646=CARTESIAN_POINT('',(0.0454165533244939,-0.021688211709261,-0.036322));
#1647=CARTESIAN_POINT('',(0.0623705366346836,0.054979633264333,1.04083408558608E-17));
#1648=CARTESIAN_POINT('',(0.0623705366346836,0.054979633264333,0.0131357878));
#1649=CARTESIAN_POINT('',(0.0623705366346836,0.054979633264333,-0.0131357878));
#1650=CARTESIAN_POINT('',(0.0501063244346836,0.054979633264333,0.0131357878));
#1651=CARTESIAN_POINT('',(0.0501063244346836,0.0549796332643329,-0.0131357878));
#1652=CARTESIAN_POINT('',(0.0501063244346836,0.0549796332643329,-0.0254));
#1653=CARTESIAN_POINT('',(0.0487739878163835,-0.047088211709261,1.36503439355491E-17));
#1654=CARTESIAN_POINT('',(0.0487739878163835,-0.027530211709261,-0.01778));
#1655=CARTESIAN_POINT('',(0.0487739878163835,-0.027530211709261,-0.01778));
#1656=CARTESIAN_POINT('',(0.0487739878163835,-0.027530211709261,-0.013843));
#1657=CARTESIAN_POINT('',(0.0447175366346836,-0.027530211709261,-6.35695244550476E-18));
#1658=CARTESIAN_POINT('',(0.0487739878163835,-0.027530211709261,0.01778));
#1659=CARTESIAN_POINT('',(0.0487739878163835,-0.027530211709261,0.01778));
#1660=CARTESIAN_POINT('',(0.0487739878163835,-0.027530211709261,0.021717));
#1661=CARTESIAN_POINT('',(0.0447175366346836,-0.027530211709261,-6.35695244550476E-18));
#1662=CARTESIAN_POINT('',(0.0583065366346836,0.0461841002106667,-0.0251694228500128));
#1663=CARTESIAN_POINT('',(0.0583065366346836,0.0461841002106667,-0.0251694228500128));
#1664=CARTESIAN_POINT('',(0.0583065366346836,0.0606455274097025,1.04083408558608E-17));
#1665=CARTESIAN_POINT('',(0.048777163028717,0.0253659427821637,-0.0177760906517506));
#1666=CARTESIAN_POINT('',(0.0487163662910461,0.0253659427821637,1.41923074173046E-17));
#1667=CARTESIAN_POINT('',(0.048777163028717,0.0253659427821637,0.0177760906517506));
#1668=CARTESIAN_POINT('',(-0.0214263726639748,-0.00398827344179153,-0.00616631192678213));
#1669=CARTESIAN_POINT('',(-0.0214263726639748,-0.00398827344179153,-0.0207146238535642));
#1670=CARTESIAN_POINT('',(-0.0214263726639748,-0.00398827344179153,-0.0207146238535642));
#1671=CARTESIAN_POINT('',(-0.0188863726639748,-0.00398827344179153,-0.0207146238535642));
#1672=CARTESIAN_POINT('',(-0.0188863726639748,-0.00398827344179153,-0.00616631192678213));
#1673=CARTESIAN_POINT('',(-0.0214263726639748,-0.00398827344179153,-0.00616631192678213));
#1674=CARTESIAN_POINT('',(-0.0214263726639748,0.00597368786111474,-0.00616631192678213));
#1675=CARTESIAN_POINT('',(-0.0188863726639748,0.00597368786111474,-0.00616631192678213));
#1676=CARTESIAN_POINT('',(-0.0188863726639748,0.00597368786111474,-0.0207146238535642));
#1677=CARTESIAN_POINT('',(-0.0214263726639748,0.00597368786111474,-0.0207146238535642));
#1678=CARTESIAN_POINT('',(-0.0214263726639748,0.00597368786111474,-0.0207146238535642));
#1679=CARTESIAN_POINT('',(-0.0214263726639748,0.00597368786111474,-0.00616631192678213));
#1680=CARTESIAN_POINT('',(-0.0214263726639748,0.000992707209661603,-0.0207146238535642));
#1681=CARTESIAN_POINT('',(-0.0163463726639748,0.000992707209661603,-0.0207146238535642));
#1682=CARTESIAN_POINT('',(-0.0163463726639748,-0.00652826989157459,-0.0207146238535642));
#1683=CARTESIAN_POINT('',(-0.0163463726639748,0.00851368431089634,-0.0207146238535642));
#1684=CARTESIAN_POINT('',(-0.0188863726639748,-0.00652827344179154,-0.0207146238535642));
#1685=CARTESIAN_POINT('',(-0.0214263726639748,0.000992707209661603,-0.0207146238535642));
#1686=CARTESIAN_POINT('',(-0.0188863726639748,0.00851368786111474,-0.0207146238535642));
#1687=CARTESIAN_POINT('',(-0.0214263726639748,0.00126039050519466,-0.00616631192678213));
#1688=CARTESIAN_POINT('',(-0.0163463726639748,0.00126039050519466,-0.00616631192678213));
#1689=CARTESIAN_POINT('',(-0.0163463726639748,0.00851368786111474,-0.0158183119267822));
#1690=CARTESIAN_POINT('',(-0.0163463726639748,-0.00398827344179153,-0.010922));
#1691=CARTESIAN_POINT('',(-0.0163463726639748,-0.00652827344179154,-0.0158183119267822));
#1692=CARTESIAN_POINT('',(-0.0188863726639748,-0.00652827344179154,-0.008382));
#1693=CARTESIAN_POINT('',(-0.0188863726639748,0.00851368786111474,-0.008382));
#1694=CARTESIAN_POINT('',(-0.0138063726639748,0.00126039050519466,-0.010922));
#1695=CARTESIAN_POINT('',(0.0454165533244939,-0.027381040136781,-0.036322));
#1696=CARTESIAN_POINT('',(0.0454165533244939,-0.027381040136781,-0.036322));
#1697=CARTESIAN_POINT('',(0.0501063244346836,0.054979633264333,-0.036322));
#1698=CARTESIAN_POINT('',(0.0501063244346836,0.054979633264333,-0.036322));
#1699=CARTESIAN_POINT('',(0.0366804305346836,0.0549526989821825,-0.036322));
#1700=MECHANICAL_DESIGN_GEOMETRIC_PRESENTATION_REPRESENTATION('',(#1005),
#1701);
#1701=(
GEOMETRIC_REPRESENTATION_CONTEXT(3)
GLOBAL_UNCERTAINTY_ASSIGNED_CONTEXT((#1702))
GLOBAL_UNIT_ASSIGNED_CONTEXT((#1705,#1704,#1703))
REPRESENTATION_CONTEXT('gantry shoulder','TOP_LEVEL_ASSEMBLY_PART')
);
#1702=UNCERTAINTY_MEASURE_WITH_UNIT(LENGTH_MEASURE(2.E-5),#1705,
'DISTANCE_ACCURACY_VALUE','Maximum Tolerance applied to model');
#1703=(
NAMED_UNIT(*)
SI_UNIT($,.STERADIAN.)
SOLID_ANGLE_UNIT()
);
#1704=(
NAMED_UNIT(*)
PLANE_ANGLE_UNIT()
SI_UNIT($,.RADIAN.)
);
#1705=(
LENGTH_UNIT()
NAMED_UNIT(*)
SI_UNIT($,.METRE.)
);
#1706=PRODUCT_DEFINITION_SHAPE('','',#1707);
#1707=PRODUCT_DEFINITION('','',#1709,#1708);
#1708=PRODUCT_DEFINITION_CONTEXT('',#1715,'design');
#1709=PRODUCT_DEFINITION_FORMATION_WITH_SPECIFIED_SOURCE('','',#1711,
 .NOT_KNOWN.);
#1710=PRODUCT_RELATED_PRODUCT_CATEGORY('','',(#1711));
#1711=PRODUCT('gantry shoulder','gantry shoulder','gantry shoulder',(#1713));
#1712=PRODUCT_CATEGORY('','');
#1713=PRODUCT_CONTEXT('',#1715,'mechanical');
#1714=APPLICATION_PROTOCOL_DEFINITION('international standard',
'ap242_managed_model_based_3d_engineering',2020,#1715);
#1715=APPLICATION_CONTEXT('managed model based 3d engineering');
ENDSEC;
END-ISO-10303-21;
