ISO-10303-21;
HEADER;
/* Generated by software containing ST-Developer
 * from STEP Tools, Inc. (www.steptools.com) 
 */
/* OPTION: using custom renumber hook */

FILE_DESCRIPTION(
/* description */ ('STEP AP242 Edition 2',
'CAx-IF Rec.Pracs.---Representation and Presentation of Product Manufa
cturing Information (PMI)---4.0---2014-10-13',
'CAx-IF Rec.Pracs.---3D Tessellated Geometry---0.4---2014-09-14','2;1',
'CAx-IF Rec.Pracs.---User Defined Attributes---1.5---2016-08-15'),
/* implementation_level */ '2;1');

FILE_NAME(
/* name */ 'gantry arm part',
/* time_stamp */ '2026-08-14T04:16:57Z',
/* author */ (''),
/* organization */ (''),
/* preprocessor_version */ 'ST-DEVELOPER v20',
/* originating_system */ 'ONSHAPE BY PTC INC, 1.219',
/* authorisation */ '  ');

FILE_SCHEMA (('AP242_MANAGED_MODEL_BASED_3D_ENGINEERING_MIM_LF { 1 0 10303 442 3 1 4 }'));
ENDSEC;

DATA;
#10=SHAPE_REPRESENTATION_RELATIONSHIP('','',#500,#13);
#11=SHAPE_REPRESENTATION_RELATIONSHIP('','',#501,#14);
#12=SHAPE_REPRESENTATION_RELATIONSHIP('','',#502,#15);
#13=ADVANCED_BREP_SHAPE_REPRESENTATION('',(#494),#820);
#14=ADVANCED_BREP_SHAPE_REPRESENTATION('',(#495),#821);
#15=ADVANCED_BREP_SHAPE_REPRESENTATION('',(#496),#822);
#16=CIRCLE('',#509,0.007493);
#17=CIRCLE('',#510,0.007493);
#18=CIRCLE('',#512,0.007493);
#19=CIRCLE('',#513,0.007493);
#20=CIRCLE('',#515,0.0107280870096485);
#21=CIRCLE('',#516,0.0107280870096485);
#22=CIRCLE('',#519,0.0141038356313836);
#23=CIRCLE('',#520,0.0141038356313836);
#24=CIRCLE('',#522,0.0141038356313836);
#25=CIRCLE('',#523,0.0141038356313836);
#26=CIRCLE('',#536,0.00792471820399228);
#27=CIRCLE('',#537,0.00792471820399228);
#28=CIRCLE('',#539,0.0107280870096485);
#29=CIRCLE('',#540,0.0107280870096485);
#30=CIRCLE('',#545,0.003937);
#31=CIRCLE('',#546,0.003937);
#32=CIRCLE('',#548,0.00792471820399228);
#33=CIRCLE('',#549,0.00792471820399228);
#34=CYLINDRICAL_SURFACE('',#508,0.007493);
#35=CYLINDRICAL_SURFACE('',#511,0.007493);
#36=CYLINDRICAL_SURFACE('',#514,0.0107280870096485);
#37=CYLINDRICAL_SURFACE('',#518,0.0141038356313836);
#38=CYLINDRICAL_SURFACE('',#521,0.0141038356313836);
#39=CYLINDRICAL_SURFACE('',#535,0.00792471820399228);
#40=CYLINDRICAL_SURFACE('',#538,0.0107280870096485);
#41=CYLINDRICAL_SURFACE('',#544,0.003937);
#42=CYLINDRICAL_SURFACE('',#547,0.00792471820399228);
#43=ORIENTED_EDGE('',*,*,#155,.F.);
#44=ORIENTED_EDGE('',*,*,#156,.T.);
#45=ORIENTED_EDGE('',*,*,#157,.T.);
#46=ORIENTED_EDGE('',*,*,#158,.F.);
#47=ORIENTED_EDGE('',*,*,#159,.F.);
#48=ORIENTED_EDGE('',*,*,#160,.T.);
#49=ORIENTED_EDGE('',*,*,#161,.F.);
#50=ORIENTED_EDGE('',*,*,#162,.T.);
#51=ORIENTED_EDGE('',*,*,#163,.F.);
#52=ORIENTED_EDGE('',*,*,#164,.T.);
#53=ORIENTED_EDGE('',*,*,#165,.F.);
#54=ORIENTED_EDGE('',*,*,#166,.T.);
#55=ORIENTED_EDGE('',*,*,#167,.F.);
#56=ORIENTED_EDGE('',*,*,#168,.T.);
#57=ORIENTED_EDGE('',*,*,#169,.T.);
#58=ORIENTED_EDGE('',*,*,#170,.T.);
#59=ORIENTED_EDGE('',*,*,#171,.T.);
#60=ORIENTED_EDGE('',*,*,#172,.T.);
#61=ORIENTED_EDGE('',*,*,#173,.F.);
#62=ORIENTED_EDGE('',*,*,#174,.F.);
#63=ORIENTED_EDGE('',*,*,#175,.T.);
#64=ORIENTED_EDGE('',*,*,#176,.T.);
#65=ORIENTED_EDGE('',*,*,#177,.F.);
#66=ORIENTED_EDGE('',*,*,#178,.F.);
#67=ORIENTED_EDGE('',*,*,#179,.F.);
#68=ORIENTED_EDGE('',*,*,#180,.F.);
#69=ORIENTED_EDGE('',*,*,#181,.F.);
#70=ORIENTED_EDGE('',*,*,#162,.F.);
#71=ORIENTED_EDGE('',*,*,#182,.T.);
#72=ORIENTED_EDGE('',*,*,#164,.F.);
#73=ORIENTED_EDGE('',*,*,#183,.F.);
#74=ORIENTED_EDGE('',*,*,#166,.F.);
#75=ORIENTED_EDGE('',*,*,#184,.T.);
#76=ORIENTED_EDGE('',*,*,#169,.F.);
#77=ORIENTED_EDGE('',*,*,#160,.F.);
#78=ORIENTED_EDGE('',*,*,#185,.F.);
#79=ORIENTED_EDGE('',*,*,#167,.T.);
#80=ORIENTED_EDGE('',*,*,#186,.F.);
#81=ORIENTED_EDGE('',*,*,#187,.F.);
#82=ORIENTED_EDGE('',*,*,#188,.F.);
#83=ORIENTED_EDGE('',*,*,#189,.T.);
#84=ORIENTED_EDGE('',*,*,#177,.T.);
#85=ORIENTED_EDGE('',*,*,#180,.T.);
#86=ORIENTED_EDGE('',*,*,#190,.F.);
#87=ORIENTED_EDGE('',*,*,#191,.T.);
#88=ORIENTED_EDGE('',*,*,#156,.F.);
#89=ORIENTED_EDGE('',*,*,#192,.F.);
#90=ORIENTED_EDGE('',*,*,#193,.F.);
#91=ORIENTED_EDGE('',*,*,#194,.F.);
#92=ORIENTED_EDGE('',*,*,#187,.T.);
#93=ORIENTED_EDGE('',*,*,#178,.T.);
#94=ORIENTED_EDGE('',*,*,#189,.F.);
#95=ORIENTED_EDGE('',*,*,#195,.F.);
#96=ORIENTED_EDGE('',*,*,#196,.T.);
#97=ORIENTED_EDGE('',*,*,#197,.T.);
#98=ORIENTED_EDGE('',*,*,#158,.T.);
#99=ORIENTED_EDGE('',*,*,#198,.F.);
#100=ORIENTED_EDGE('',*,*,#199,.T.);
#101=ORIENTED_EDGE('',*,*,#188,.T.);
#102=ORIENTED_EDGE('',*,*,#194,.T.);
#103=ORIENTED_EDGE('',*,*,#200,.T.);
#104=ORIENTED_EDGE('',*,*,#195,.T.);
#105=ORIENTED_EDGE('',*,*,#171,.F.);
#106=ORIENTED_EDGE('',*,*,#175,.F.);
#107=ORIENTED_EDGE('',*,*,#161,.T.);
#108=ORIENTED_EDGE('',*,*,#186,.T.);
#109=ORIENTED_EDGE('',*,*,#170,.F.);
#110=ORIENTED_EDGE('',*,*,#184,.F.);
#111=ORIENTED_EDGE('',*,*,#165,.T.);
#112=ORIENTED_EDGE('',*,*,#182,.F.);
#113=ORIENTED_EDGE('',*,*,#173,.T.);
#114=ORIENTED_EDGE('',*,*,#174,.T.);
#115=ORIENTED_EDGE('',*,*,#172,.F.);
#116=ORIENTED_EDGE('',*,*,#176,.F.);
#117=ORIENTED_EDGE('',*,*,#168,.F.);
#118=ORIENTED_EDGE('',*,*,#185,.T.);
#119=ORIENTED_EDGE('',*,*,#159,.T.);
#120=ORIENTED_EDGE('',*,*,#181,.T.);
#121=ORIENTED_EDGE('',*,*,#163,.T.);
#122=ORIENTED_EDGE('',*,*,#183,.T.);
#123=ORIENTED_EDGE('',*,*,#157,.F.);
#124=ORIENTED_EDGE('',*,*,#191,.F.);
#125=ORIENTED_EDGE('',*,*,#201,.T.);
#126=ORIENTED_EDGE('',*,*,#198,.T.);
#127=ORIENTED_EDGE('',*,*,#201,.F.);
#128=ORIENTED_EDGE('',*,*,#190,.T.);
#129=ORIENTED_EDGE('',*,*,#179,.T.);
#130=ORIENTED_EDGE('',*,*,#199,.F.);
#131=ORIENTED_EDGE('',*,*,#155,.T.);
#132=ORIENTED_EDGE('',*,*,#197,.F.);
#133=ORIENTED_EDGE('',*,*,#202,.F.);
#134=ORIENTED_EDGE('',*,*,#192,.T.);
#135=ORIENTED_EDGE('',*,*,#193,.T.);
#136=ORIENTED_EDGE('',*,*,#202,.T.);
#137=ORIENTED_EDGE('',*,*,#196,.F.);
#138=ORIENTED_EDGE('',*,*,#200,.F.);
#139=ORIENTED_EDGE('',*,*,#203,.T.);
#140=ORIENTED_EDGE('',*,*,#204,.F.);
#141=ORIENTED_EDGE('',*,*,#205,.F.);
#142=ORIENTED_EDGE('',*,*,#206,.T.);
#143=ORIENTED_EDGE('',*,*,#203,.F.);
#144=ORIENTED_EDGE('',*,*,#205,.T.);
#145=ORIENTED_EDGE('',*,*,#204,.T.);
#146=ORIENTED_EDGE('',*,*,#206,.F.);
#147=ORIENTED_EDGE('',*,*,#207,.T.);
#148=ORIENTED_EDGE('',*,*,#208,.F.);
#149=ORIENTED_EDGE('',*,*,#209,.F.);
#150=ORIENTED_EDGE('',*,*,#210,.T.);
#151=ORIENTED_EDGE('',*,*,#207,.F.);
#152=ORIENTED_EDGE('',*,*,#209,.T.);
#153=ORIENTED_EDGE('',*,*,#208,.T.);
#154=ORIENTED_EDGE('',*,*,#210,.F.);
#155=EDGE_CURVE('',#211,#212,#253,.T.);
#156=EDGE_CURVE('',#211,#213,#254,.T.);
#157=EDGE_CURVE('',#213,#214,#255,.T.);
#158=EDGE_CURVE('',#212,#214,#256,.T.);
#159=EDGE_CURVE('',#215,#216,#257,.T.);
#160=EDGE_CURVE('',#215,#217,#258,.T.);
#161=EDGE_CURVE('',#218,#217,#259,.T.);
#162=EDGE_CURVE('',#218,#216,#260,.F.);
#163=EDGE_CURVE('',#219,#220,#261,.T.);
#164=EDGE_CURVE('',#219,#221,#262,.T.);
#165=EDGE_CURVE('',#222,#221,#263,.T.);
#166=EDGE_CURVE('',#222,#220,#264,.F.);
#167=EDGE_CURVE('',#223,#224,#265,.T.);
#168=EDGE_CURVE('',#223,#225,#266,.T.);
#169=EDGE_CURVE('',#225,#226,#267,.T.);
#170=EDGE_CURVE('',#226,#224,#268,.T.);
#171=EDGE_CURVE('',#227,#227,#16,.T.);
#172=EDGE_CURVE('',#228,#228,#17,.T.);
#173=EDGE_CURVE('',#229,#229,#18,.F.);
#174=EDGE_CURVE('',#230,#230,#19,.T.);
#175=EDGE_CURVE('',#231,#231,#20,.T.);
#176=EDGE_CURVE('',#232,#232,#21,.T.);
#177=EDGE_CURVE('',#233,#234,#269,.T.);
#178=EDGE_CURVE('',#235,#233,#270,.T.);
#179=EDGE_CURVE('',#236,#235,#271,.T.);
#180=EDGE_CURVE('',#234,#236,#272,.T.);
#181=EDGE_CURVE('',#216,#219,#22,.T.);
#182=EDGE_CURVE('',#218,#221,#23,.F.);
#183=EDGE_CURVE('',#220,#225,#24,.T.);
#184=EDGE_CURVE('',#222,#226,#25,.F.);
#185=EDGE_CURVE('',#223,#215,#273,.T.);
#186=EDGE_CURVE('',#217,#224,#274,.T.);
#187=EDGE_CURVE('',#237,#234,#275,.T.);
#188=EDGE_CURVE('',#238,#237,#276,.T.);
#189=EDGE_CURVE('',#238,#233,#277,.T.);
#190=EDGE_CURVE('',#239,#236,#278,.T.);
#191=EDGE_CURVE('',#239,#213,#279,.T.);
#192=EDGE_CURVE('',#240,#211,#280,.T.);
#193=EDGE_CURVE('',#241,#240,#281,.T.);
#194=EDGE_CURVE('',#237,#241,#282,.T.);
#195=EDGE_CURVE('',#242,#238,#283,.T.);
#196=EDGE_CURVE('',#242,#243,#284,.T.);
#197=EDGE_CURVE('',#243,#212,#285,.T.);
#198=EDGE_CURVE('',#244,#214,#286,.T.);
#199=EDGE_CURVE('',#244,#235,#287,.T.);
#200=EDGE_CURVE('',#241,#242,#288,.T.);
#201=EDGE_CURVE('',#239,#244,#289,.T.);
#202=EDGE_CURVE('',#240,#243,#290,.T.);
#203=EDGE_CURVE('',#245,#245,#26,.T.);
#204=EDGE_CURVE('',#246,#246,#27,.T.);
#205=EDGE_CURVE('',#247,#247,#28,.T.);
#206=EDGE_CURVE('',#248,#248,#29,.T.);
#207=EDGE_CURVE('',#249,#249,#30,.T.);
#208=EDGE_CURVE('',#250,#250,#31,.T.);
#209=EDGE_CURVE('',#251,#251,#32,.T.);
#210=EDGE_CURVE('',#252,#252,#33,.T.);
#211=VERTEX_POINT('',#691);
#212=VERTEX_POINT('',#692);
#213=VERTEX_POINT('',#694);
#214=VERTEX_POINT('',#696);
#215=VERTEX_POINT('',#700);
#216=VERTEX_POINT('',#701);
#217=VERTEX_POINT('',#703);
#218=VERTEX_POINT('',#705);
#219=VERTEX_POINT('',#709);
#220=VERTEX_POINT('',#710);
#221=VERTEX_POINT('',#712);
#222=VERTEX_POINT('',#714);
#223=VERTEX_POINT('',#718);
#224=VERTEX_POINT('',#719);
#225=VERTEX_POINT('',#721);
#226=VERTEX_POINT('',#723);
#227=VERTEX_POINT('',#727);
#228=VERTEX_POINT('',#729);
#229=VERTEX_POINT('',#732);
#230=VERTEX_POINT('',#734);
#231=VERTEX_POINT('',#737);
#232=VERTEX_POINT('',#739);
#233=VERTEX_POINT('',#742);
#234=VERTEX_POINT('',#743);
#235=VERTEX_POINT('',#745);
#236=VERTEX_POINT('',#747);
#237=VERTEX_POINT('',#759);
#238=VERTEX_POINT('',#761);
#239=VERTEX_POINT('',#765);
#240=VERTEX_POINT('',#768);
#241=VERTEX_POINT('',#770);
#242=VERTEX_POINT('',#774);
#243=VERTEX_POINT('',#776);
#244=VERTEX_POINT('',#779);
#245=VERTEX_POINT('',#794);
#246=VERTEX_POINT('',#796);
#247=VERTEX_POINT('',#799);
#248=VERTEX_POINT('',#801);
#249=VERTEX_POINT('',#807);
#250=VERTEX_POINT('',#809);
#251=VERTEX_POINT('',#812);
#252=VERTEX_POINT('',#814);
#253=LINE('',#690,#291);
#254=LINE('',#693,#292);
#255=LINE('',#695,#293);
#256=LINE('',#697,#294);
#257=LINE('',#699,#295);
#258=LINE('',#702,#296);
#259=LINE('',#704,#297);
#260=LINE('',#706,#298);
#261=LINE('',#708,#299);
#262=LINE('',#711,#300);
#263=LINE('',#713,#301);
#264=LINE('',#715,#302);
#265=LINE('',#717,#303);
#266=LINE('',#720,#304);
#267=LINE('',#722,#305);
#268=LINE('',#724,#306);
#269=LINE('',#741,#307);
#270=LINE('',#744,#308);
#271=LINE('',#746,#309);
#272=LINE('',#748,#310);
#273=LINE('',#756,#311);
#274=LINE('',#757,#312);
#275=LINE('',#758,#313);
#276=LINE('',#760,#314);
#277=LINE('',#762,#315);
#278=LINE('',#764,#316);
#279=LINE('',#766,#317);
#280=LINE('',#767,#318);
#281=LINE('',#769,#319);
#282=LINE('',#771,#320);
#283=LINE('',#773,#321);
#284=LINE('',#775,#322);
#285=LINE('',#777,#323);
#286=LINE('',#778,#324);
#287=LINE('',#780,#325);
#288=LINE('',#782,#326);
#289=LINE('',#786,#327);
#290=LINE('',#789,#328);
#291=VECTOR('',#556,1.);
#292=VECTOR('',#557,1.);
#293=VECTOR('',#558,1.);
#294=VECTOR('',#559,1.);
#295=VECTOR('',#562,1.);
#296=VECTOR('',#563,1.);
#297=VECTOR('',#564,1.);
#298=VECTOR('',#565,1.);
#299=VECTOR('',#568,1.);
#300=VECTOR('',#569,1.);
#301=VECTOR('',#570,1.);
#302=VECTOR('',#571,1.);
#303=VECTOR('',#574,1.);
#304=VECTOR('',#575,1.);
#305=VECTOR('',#576,1.);
#306=VECTOR('',#577,1.);
#307=VECTOR('',#598,1.);
#308=VECTOR('',#599,1.);
#309=VECTOR('',#600,1.);
#310=VECTOR('',#601,1.);
#311=VECTOR('',#616,1.);
#312=VECTOR('',#617,1.);
#313=VECTOR('',#618,1.);
#314=VECTOR('',#619,1.);
#315=VECTOR('',#620,1.);
#316=VECTOR('',#623,1.);
#317=VECTOR('',#624,1.);
#318=VECTOR('',#625,1.);
#319=VECTOR('',#626,1.);
#320=VECTOR('',#627,1.);
#321=VECTOR('',#630,1.);
#322=VECTOR('',#631,1.);
#323=VECTOR('',#632,1.);
#324=VECTOR('',#633,1.);
#325=VECTOR('',#634,1.);
#326=VECTOR('',#637,1.);
#327=VECTOR('',#644,1.);
#328=VECTOR('',#649,1.);
#329=EDGE_LOOP('',(#43,#44,#45,#46));
#330=EDGE_LOOP('',(#47,#48,#49,#50));
#331=EDGE_LOOP('',(#51,#52,#53,#54));
#332=EDGE_LOOP('',(#55,#56,#57,#58));
#333=EDGE_LOOP('',(#59));
#334=EDGE_LOOP('',(#60));
#335=EDGE_LOOP('',(#61));
#336=EDGE_LOOP('',(#62));
#337=EDGE_LOOP('',(#63));
#338=EDGE_LOOP('',(#64));
#339=EDGE_LOOP('',(#65,#66,#67,#68));
#340=EDGE_LOOP('',(#69,#70,#71,#72));
#341=EDGE_LOOP('',(#73,#74,#75,#76));
#342=EDGE_LOOP('',(#77,#78,#79,#80));
#343=EDGE_LOOP('',(#81,#82,#83,#84));
#344=EDGE_LOOP('',(#85,#86,#87,#88,#89,#90,#91,#92));
#345=EDGE_LOOP('',(#93,#94,#95,#96,#97,#98,#99,#100));
#346=EDGE_LOOP('',(#101,#102,#103,#104));
#347=EDGE_LOOP('',(#105));
#348=EDGE_LOOP('',(#106));
#349=EDGE_LOOP('',(#107,#108,#109,#110,#111,#112));
#350=EDGE_LOOP('',(#113));
#351=EDGE_LOOP('',(#114));
#352=EDGE_LOOP('',(#115));
#353=EDGE_LOOP('',(#116));
#354=EDGE_LOOP('',(#117,#118,#119,#120,#121,#122));
#355=EDGE_LOOP('',(#123,#124,#125,#126));
#356=EDGE_LOOP('',(#127,#128,#129,#130));
#357=EDGE_LOOP('',(#131,#132,#133,#134));
#358=EDGE_LOOP('',(#135,#136,#137,#138));
#359=EDGE_LOOP('',(#139));
#360=EDGE_LOOP('',(#140));
#361=EDGE_LOOP('',(#141));
#362=EDGE_LOOP('',(#142));
#363=EDGE_LOOP('',(#143));
#364=EDGE_LOOP('',(#144));
#365=EDGE_LOOP('',(#145));
#366=EDGE_LOOP('',(#146));
#367=EDGE_LOOP('',(#147));
#368=EDGE_LOOP('',(#148));
#369=EDGE_LOOP('',(#149));
#370=EDGE_LOOP('',(#150));
#371=EDGE_LOOP('',(#151));
#372=EDGE_LOOP('',(#152));
#373=EDGE_LOOP('',(#153));
#374=EDGE_LOOP('',(#154));
#375=FACE_BOUND('',#329,.T.);
#376=FACE_BOUND('',#330,.T.);
#377=FACE_BOUND('',#331,.T.);
#378=FACE_BOUND('',#332,.T.);
#379=FACE_BOUND('',#333,.T.);
#380=FACE_BOUND('',#334,.T.);
#381=FACE_BOUND('',#335,.T.);
#382=FACE_BOUND('',#336,.T.);
#383=FACE_BOUND('',#337,.T.);
#384=FACE_BOUND('',#338,.T.);
#385=FACE_BOUND('',#339,.T.);
#386=FACE_BOUND('',#340,.T.);
#387=FACE_BOUND('',#341,.T.);
#388=FACE_BOUND('',#342,.T.);
#389=FACE_BOUND('',#343,.T.);
#390=FACE_BOUND('',#344,.T.);
#391=FACE_BOUND('',#345,.T.);
#392=FACE_BOUND('',#346,.T.);
#393=FACE_BOUND('',#347,.T.);
#394=FACE_BOUND('',#348,.T.);
#395=FACE_BOUND('',#349,.T.);
#396=FACE_BOUND('',#350,.T.);
#397=FACE_BOUND('',#351,.T.);
#398=FACE_BOUND('',#352,.T.);
#399=FACE_BOUND('',#353,.T.);
#400=FACE_BOUND('',#354,.T.);
#401=FACE_BOUND('',#355,.T.);
#402=FACE_BOUND('',#356,.T.);
#403=FACE_BOUND('',#357,.T.);
#404=FACE_BOUND('',#358,.T.);
#405=FACE_BOUND('',#359,.T.);
#406=FACE_BOUND('',#360,.T.);
#407=FACE_BOUND('',#361,.T.);
#408=FACE_BOUND('',#362,.T.);
#409=FACE_BOUND('',#363,.T.);
#410=FACE_BOUND('',#364,.T.);
#411=FACE_BOUND('',#365,.T.);
#412=FACE_BOUND('',#366,.T.);
#413=FACE_BOUND('',#367,.T.);
#414=FACE_BOUND('',#368,.T.);
#415=FACE_BOUND('',#369,.T.);
#416=FACE_BOUND('',#370,.T.);
#417=FACE_BOUND('',#371,.T.);
#418=FACE_BOUND('',#372,.T.);
#419=FACE_BOUND('',#373,.T.);
#420=FACE_BOUND('',#374,.T.);
#421=PLANE('',#504);
#422=PLANE('',#505);
#423=PLANE('',#506);
#424=PLANE('',#507);
#425=PLANE('',#517);
#426=PLANE('',#524);
#427=PLANE('',#525);
#428=PLANE('',#526);
#429=PLANE('',#527);
#430=PLANE('',#528);
#431=PLANE('',#529);
#432=PLANE('',#530);
#433=PLANE('',#531);
#434=PLANE('',#532);
#435=PLANE('',#533);
#436=PLANE('',#541);
#437=PLANE('',#542);
#438=PLANE('',#550);
#439=PLANE('',#551);
#440=ADVANCED_FACE('',(#375),#421,.F.);
#441=ADVANCED_FACE('',(#376),#422,.F.);
#442=ADVANCED_FACE('',(#377),#423,.F.);
#443=ADVANCED_FACE('',(#378),#424,.T.);
#444=ADVANCED_FACE('',(#379,#380),#34,.F.);
#445=ADVANCED_FACE('',(#381,#382),#35,.F.);
#446=ADVANCED_FACE('',(#383,#384),#36,.F.);
#447=ADVANCED_FACE('',(#385),#425,.F.);
#448=ADVANCED_FACE('',(#386),#37,.T.);
#449=ADVANCED_FACE('',(#387),#38,.T.);
#450=ADVANCED_FACE('',(#388,#389),#426,.F.);
#451=ADVANCED_FACE('',(#390),#427,.F.);
#452=ADVANCED_FACE('',(#391),#428,.F.);
#453=ADVANCED_FACE('',(#392),#429,.T.);
#454=ADVANCED_FACE('',(#393,#394,#395,#396),#430,.T.);
#455=ADVANCED_FACE('',(#397,#398,#399,#400),#431,.T.);
#456=ADVANCED_FACE('',(#401),#432,.T.);
#457=ADVANCED_FACE('',(#402),#433,.T.);
#458=ADVANCED_FACE('',(#403),#434,.F.);
#459=ADVANCED_FACE('',(#404),#435,.T.);
#460=ADVANCED_FACE('',(#405,#406),#39,.F.);
#461=ADVANCED_FACE('',(#407,#408),#40,.T.);
#462=ADVANCED_FACE('',(#409,#410),#436,.T.);
#463=ADVANCED_FACE('',(#411,#412),#437,.F.);
#464=ADVANCED_FACE('',(#413,#414),#41,.F.);
#465=ADVANCED_FACE('',(#415,#416),#42,.T.);
#466=ADVANCED_FACE('',(#417,#418),#438,.T.);
#467=ADVANCED_FACE('',(#419,#420),#439,.F.);
#468=CLOSED_SHELL('',(#440,#441,#442,#443,#444,#445,#446,#447,#448,#449,
#450,#451,#452,#453,#454,#455,#456,#457,#458,#459));
#469=CLOSED_SHELL('',(#460,#461,#462,#463));
#470=CLOSED_SHELL('',(#464,#465,#466,#467));
#471=STYLED_ITEM('',(#474),#494);
#472=STYLED_ITEM('',(#475),#495);
#473=STYLED_ITEM('',(#476),#496);
#474=PRESENTATION_STYLE_ASSIGNMENT((#477));
#475=PRESENTATION_STYLE_ASSIGNMENT((#478));
#476=PRESENTATION_STYLE_ASSIGNMENT((#479));
#477=SURFACE_STYLE_USAGE(.BOTH.,#480);
#478=SURFACE_STYLE_USAGE(.BOTH.,#481);
#479=SURFACE_STYLE_USAGE(.BOTH.,#482);
#480=SURFACE_SIDE_STYLE('',(#483));
#481=SURFACE_SIDE_STYLE('',(#484));
#482=SURFACE_SIDE_STYLE('',(#485));
#483=SURFACE_STYLE_FILL_AREA(#486);
#484=SURFACE_STYLE_FILL_AREA(#487);
#485=SURFACE_STYLE_FILL_AREA(#488);
#486=FILL_AREA_STYLE('',(#489));
#487=FILL_AREA_STYLE('',(#490));
#488=FILL_AREA_STYLE('',(#491));
#489=FILL_AREA_STYLE_COLOUR('',#492);
#490=FILL_AREA_STYLE_COLOUR('',#493);
#491=FILL_AREA_STYLE_COLOUR('',#492);
#492=COLOUR_RGB('',0.615686274509804,0.811764705882353,0.929411764705882);
#493=COLOUR_RGB('',0.647058823529412,0.647058823529412,0.647058823529412);
#494=MANIFOLD_SOLID_BREP('gantry arm',#468);
#495=MANIFOLD_SOLID_BREP('screw connector pt 2',#469);
#496=MANIFOLD_SOLID_BREP('screw connector',#470);
#497=SHAPE_DEFINITION_REPRESENTATION(#835,#500);
#498=SHAPE_DEFINITION_REPRESENTATION(#836,#501);
#499=SHAPE_DEFINITION_REPRESENTATION(#837,#502);
#500=SHAPE_REPRESENTATION('gantry arm',(#503),#820);
#501=SHAPE_REPRESENTATION('screw connector pt 2',(#534),#821);
#502=SHAPE_REPRESENTATION('screw connector',(#543),#822);
#503=AXIS2_PLACEMENT_3D('',#688,#552,#553);
#504=AXIS2_PLACEMENT_3D('',#689,#554,#555);
#505=AXIS2_PLACEMENT_3D('',#698,#560,#561);
#506=AXIS2_PLACEMENT_3D('',#707,#566,#567);
#507=AXIS2_PLACEMENT_3D('',#716,#572,#573);
#508=AXIS2_PLACEMENT_3D('',#725,#578,#579);
#509=AXIS2_PLACEMENT_3D('',#726,#580,#581);
#510=AXIS2_PLACEMENT_3D('',#728,#582,#583);
#511=AXIS2_PLACEMENT_3D('',#730,#584,#585);
#512=AXIS2_PLACEMENT_3D('',#731,#586,#587);
#513=AXIS2_PLACEMENT_3D('',#733,#588,#589);
#514=AXIS2_PLACEMENT_3D('',#735,#590,#591);
#515=AXIS2_PLACEMENT_3D('',#736,#592,#593);
#516=AXIS2_PLACEMENT_3D('',#738,#594,#595);
#517=AXIS2_PLACEMENT_3D('',#740,#596,#597);
#518=AXIS2_PLACEMENT_3D('',#749,#602,#603);
#519=AXIS2_PLACEMENT_3D('',#750,#604,#605);
#520=AXIS2_PLACEMENT_3D('',#751,#606,#607);
#521=AXIS2_PLACEMENT_3D('',#752,#608,#609);
#522=AXIS2_PLACEMENT_3D('',#753,#610,#611);
#523=AXIS2_PLACEMENT_3D('',#754,#612,#613);
#524=AXIS2_PLACEMENT_3D('',#755,#614,#615);
#525=AXIS2_PLACEMENT_3D('',#763,#621,#622);
#526=AXIS2_PLACEMENT_3D('',#772,#628,#629);
#527=AXIS2_PLACEMENT_3D('',#781,#635,#636);
#528=AXIS2_PLACEMENT_3D('',#783,#638,#639);
#529=AXIS2_PLACEMENT_3D('',#784,#640,#641);
#530=AXIS2_PLACEMENT_3D('',#785,#642,#643);
#531=AXIS2_PLACEMENT_3D('',#787,#645,#646);
#532=AXIS2_PLACEMENT_3D('',#788,#647,#648);
#533=AXIS2_PLACEMENT_3D('',#790,#650,#651);
#534=AXIS2_PLACEMENT_3D('',#791,#652,#653);
#535=AXIS2_PLACEMENT_3D('',#792,#654,#655);
#536=AXIS2_PLACEMENT_3D('',#793,#656,#657);
#537=AXIS2_PLACEMENT_3D('',#795,#658,#659);
#538=AXIS2_PLACEMENT_3D('',#797,#660,#661);
#539=AXIS2_PLACEMENT_3D('',#798,#662,#663);
#540=AXIS2_PLACEMENT_3D('',#800,#664,#665);
#541=AXIS2_PLACEMENT_3D('',#802,#666,#667);
#542=AXIS2_PLACEMENT_3D('',#803,#668,#669);
#543=AXIS2_PLACEMENT_3D('',#804,#670,#671);
#544=AXIS2_PLACEMENT_3D('',#805,#672,#673);
#545=AXIS2_PLACEMENT_3D('',#806,#674,#675);
#546=AXIS2_PLACEMENT_3D('',#808,#676,#677);
#547=AXIS2_PLACEMENT_3D('',#810,#678,#679);
#548=AXIS2_PLACEMENT_3D('',#811,#680,#681);
#549=AXIS2_PLACEMENT_3D('',#813,#682,#683);
#550=AXIS2_PLACEMENT_3D('',#815,#684,#685);
#551=AXIS2_PLACEMENT_3D('',#816,#686,#687);
#552=DIRECTION('',(0.,0.,1.));
#553=DIRECTION('',(1.,0.,0.));
#554=DIRECTION('',(-2.73184799366426E-16,1.,0.));
#555=DIRECTION('',(-1.,-2.73184799366426E-16,0.));
#556=DIRECTION('',(1.,2.73184799366426E-16,0.));
#557=DIRECTION('',(0.,0.,-1.));
#558=DIRECTION('',(1.,2.73184799366426E-16,0.));
#559=DIRECTION('',(0.,0.,-1.));
#560=DIRECTION('',(-1.,-1.11073694156518E-16,0.));
#561=DIRECTION('',(1.11073694156518E-16,-1.,0.));
#562=DIRECTION('',(-1.11073694156518E-16,1.,0.));
#563=DIRECTION('',(0.,0.,-1.));
#564=DIRECTION('',(1.11073694156518E-16,-1.,0.));
#565=DIRECTION('',(0.,0.,-1.));
#566=DIRECTION('',(1.13826999736011E-16,-1.,0.));
#567=DIRECTION('',(1.,1.13826999736011E-16,0.));
#568=DIRECTION('',(-1.,-1.13826999736011E-16,0.));
#569=DIRECTION('',(0.,0.,-1.));
#570=DIRECTION('',(1.,1.13826999736011E-16,0.));
#571=DIRECTION('',(0.,0.,-1.));
#572=DIRECTION('',(-1.,-1.11073694156517E-16,0.));
#573=DIRECTION('',(1.11073694156518E-16,-1.,0.));
#574=DIRECTION('',(0.,0.,-1.));
#575=DIRECTION('',(-1.11073694156517E-16,1.,0.));
#576=DIRECTION('',(0.,0.,-1.));
#577=DIRECTION('',(1.11073694156518E-16,-1.,0.));
#578=DIRECTION('',(0.,0.,-1.));
#579=DIRECTION('',(-1.,0.,0.));
#580=DIRECTION('',(0.,0.,-1.));
#581=DIRECTION('',(-1.,0.,0.));
#582=DIRECTION('',(0.,0.,1.));
#583=DIRECTION('',(1.,0.,0.));
#584=DIRECTION('',(0.,0.,-1.));
#585=DIRECTION('',(-1.,0.,0.));
#586=DIRECTION('',(0.,0.,-1.));
#587=DIRECTION('',(-1.,0.,0.));
#588=DIRECTION('',(0.,0.,-1.));
#589=DIRECTION('',(1.,0.,0.));
#590=DIRECTION('',(0.,0.,-1.));
#591=DIRECTION('',(-1.,0.,0.));
#592=DIRECTION('',(0.,0.,-1.));
#593=DIRECTION('',(-1.,0.,0.));
#594=DIRECTION('',(0.,0.,1.));
#595=DIRECTION('',(1.,0.,0.));
#596=DIRECTION('',(0.,0.,1.));
#597=DIRECTION('',(1.,0.,0.));
#598=DIRECTION('',(-1.,0.,0.));
#599=DIRECTION('',(0.,1.,0.));
#600=DIRECTION('',(1.,2.73184799366426E-16,0.));
#601=DIRECTION('',(0.,-1.,0.));
#602=DIRECTION('',(0.,0.,-1.));
#603=DIRECTION('',(-1.,0.,0.));
#604=DIRECTION('',(0.,0.,1.));
#605=DIRECTION('',(1.,0.,0.));
#606=DIRECTION('',(0.,0.,-1.));
#607=DIRECTION('',(-1.,0.,0.));
#608=DIRECTION('',(0.,0.,1.));
#609=DIRECTION('',(1.,0.,0.));
#610=DIRECTION('',(0.,0.,1.));
#611=DIRECTION('',(1.,0.,0.));
#612=DIRECTION('',(0.,0.,-1.));
#613=DIRECTION('',(-1.,0.,0.));
#614=DIRECTION('',(0.,-1.,0.));
#615=DIRECTION('',(0.,0.,-1.));
#616=DIRECTION('',(1.,1.0927391974657E-16,0.));
#617=DIRECTION('',(-1.,0.,0.));
#618=DIRECTION('',(0.,0.,-1.));
#619=DIRECTION('',(-1.,0.,0.));
#620=DIRECTION('',(0.,0.,-1.));
#621=DIRECTION('',(1.,0.,0.));
#622=DIRECTION('',(0.,0.,-1.));
#623=DIRECTION('',(0.,0.,-1.));
#624=DIRECTION('',(-2.73184799366426E-16,1.,0.));
#625=DIRECTION('',(-2.73184799366426E-16,1.,0.));
#626=DIRECTION('',(0.,0.,-1.));
#627=DIRECTION('',(0.,-1.,0.));
#628=DIRECTION('',(-1.,0.,0.));
#629=DIRECTION('',(0.,0.,1.));
#630=DIRECTION('',(0.,1.,0.));
#631=DIRECTION('',(0.,0.,-1.));
#632=DIRECTION('',(-2.73184799366426E-16,1.,0.));
#633=DIRECTION('',(-2.73184799366426E-16,1.,0.));
#634=DIRECTION('',(0.,0.,-1.));
#635=DIRECTION('',(0.,0.,1.));
#636=DIRECTION('',(1.,0.,0.));
#637=DIRECTION('',(1.,2.73184799366426E-16,0.));
#638=DIRECTION('',(0.,0.,-1.));
#639=DIRECTION('',(1.,0.,0.));
#640=DIRECTION('',(0.,0.,1.));
#641=DIRECTION('',(1.,0.,0.));
#642=DIRECTION('',(0.,0.,1.));
#643=DIRECTION('',(1.,0.,0.));
#644=DIRECTION('',(1.,2.73184799366426E-16,0.));
#645=DIRECTION('',(2.73184799366426E-16,-1.,0.));
#646=DIRECTION('',(1.,2.73184799366426E-16,0.));
#647=DIRECTION('',(0.,0.,1.));
#648=DIRECTION('',(1.,0.,0.));
#649=DIRECTION('',(1.,2.73184799366426E-16,0.));
#650=DIRECTION('',(2.73184799366426E-16,-1.,0.));
#651=DIRECTION('',(1.,2.73184799366426E-16,0.));
#652=DIRECTION('',(0.,0.,1.));
#653=DIRECTION('',(1.,0.,0.));
#654=DIRECTION('',(0.,0.,-1.));
#655=DIRECTION('',(-1.,0.,0.));
#656=DIRECTION('',(0.,0.,1.));
#657=DIRECTION('',(1.,0.,0.));
#658=DIRECTION('',(0.,0.,1.));
#659=DIRECTION('',(1.,0.,0.));
#660=DIRECTION('',(0.,0.,-1.));
#661=DIRECTION('',(-1.,0.,0.));
#662=DIRECTION('',(0.,0.,1.));
#663=DIRECTION('',(1.,0.,0.));
#664=DIRECTION('',(0.,0.,1.));
#665=DIRECTION('',(1.,0.,0.));
#666=DIRECTION('',(0.,0.,1.));
#667=DIRECTION('',(1.,0.,0.));
#668=DIRECTION('',(0.,0.,1.));
#669=DIRECTION('',(1.,0.,0.));
#670=DIRECTION('',(0.,0.,1.));
#671=DIRECTION('',(1.,0.,0.));
#672=DIRECTION('',(0.,0.,-1.));
#673=DIRECTION('',(-1.,0.,0.));
#674=DIRECTION('',(0.,0.,1.));
#675=DIRECTION('',(1.,0.,0.));
#676=DIRECTION('',(0.,0.,1.));
#677=DIRECTION('',(1.,0.,0.));
#678=DIRECTION('',(0.,0.,-1.));
#679=DIRECTION('',(-1.,0.,0.));
#680=DIRECTION('',(0.,0.,1.));
#681=DIRECTION('',(1.,0.,0.));
#682=DIRECTION('',(0.,0.,1.));
#683=DIRECTION('',(1.,0.,0.));
#684=DIRECTION('',(0.,0.,1.));
#685=DIRECTION('',(1.,0.,0.));
#686=DIRECTION('',(0.,0.,1.));
#687=DIRECTION('',(1.,0.,0.));
#688=CARTESIAN_POINT('',(0.,0.,0.));
#689=CARTESIAN_POINT('',(0.,-0.0247495565563443,0.0254));
#690=CARTESIAN_POINT('',(-1.32610872371177E-50,-0.0247495565563443,0.02028932236135));
#691=CARTESIAN_POINT('',(-0.03175,-0.0247495565563443,0.02028932236135));
#692=CARTESIAN_POINT('',(0.03175,-0.0247495565563442,0.02028932236135));
#693=CARTESIAN_POINT('',(-0.03175,-0.0247495565563443,0.0254));
#694=CARTESIAN_POINT('',(-0.03175,-0.0247495565563443,-0.0204717088490724));
#695=CARTESIAN_POINT('',(-1.32610872371177E-50,-0.0247495565563443,-0.0204717088490724));
#696=CARTESIAN_POINT('',(0.03175,-0.0247495565563442,-0.0204717088490724));
#697=CARTESIAN_POINT('',(0.03175,-0.0247495565563442,0.0254));
#698=CARTESIAN_POINT('',(0.03048,-0.00314868008717906,0.0254));
#699=CARTESIAN_POINT('',(0.03048,-0.00314868008717906,0.01778));
#700=CARTESIAN_POINT('',(0.03048,-0.0187664506956937,0.01778));
#701=CARTESIAN_POINT('',(0.03048,-0.00163474511004801,0.01778));
#702=CARTESIAN_POINT('',(0.03048,-0.0187664506956937,0.0254));
#703=CARTESIAN_POINT('',(0.03048,-0.0187664506956937,-0.01778));
#704=CARTESIAN_POINT('',(0.03048,-0.00314868008717906,-0.01778));
#705=CARTESIAN_POINT('',(0.03048,-0.00163474511004801,-0.01778));
#706=CARTESIAN_POINT('',(0.03048,-0.00163474511004801,0.0254));
#707=CARTESIAN_POINT('',(0.,0.0124690905213356,0.0254));
#708=CARTESIAN_POINT('',(0.,0.0124690905213356,0.01778));
#709=CARTESIAN_POINT('',(0.0163761643686164,0.0124690905213356,0.01778));
#710=CARTESIAN_POINT('',(-0.0163761643686164,0.0124690905213356,0.01778));
#711=CARTESIAN_POINT('',(0.0163761643686164,0.0124690905213356,0.0254));
#712=CARTESIAN_POINT('',(0.0163761643686164,0.0124690905213356,-0.01778));
#713=CARTESIAN_POINT('',(0.,0.0124690905213356,-0.01778));
#714=CARTESIAN_POINT('',(-0.0163761643686164,0.0124690905213356,-0.01778));
#715=CARTESIAN_POINT('',(-0.0163761643686164,0.0124690905213356,0.0254));
#716=CARTESIAN_POINT('',(-0.03048,-0.00314868008717907,0.0254));
#717=CARTESIAN_POINT('',(-0.03048,-0.0187664506956937,0.0254));
#718=CARTESIAN_POINT('',(-0.03048,-0.0187664506956937,0.01778));
#719=CARTESIAN_POINT('',(-0.03048,-0.0187664506956937,-0.01778));
#720=CARTESIAN_POINT('',(-0.03048,-0.00314868008717907,0.01778));
#721=CARTESIAN_POINT('',(-0.03048,-0.00163474511004802,0.01778));
#722=CARTESIAN_POINT('',(-0.03048,-0.00163474511004802,-0.0254));
#723=CARTESIAN_POINT('',(-0.03048,-0.00163474511004802,-0.01778));
#724=CARTESIAN_POINT('',(-0.03048,-0.00314868008717907,-0.01778));
#725=CARTESIAN_POINT('',(0.02032,7.69874210283984E-19,0.0254));
#726=CARTESIAN_POINT('',(0.02032,7.69874210283984E-19,-0.01778));
#727=CARTESIAN_POINT('',(0.012827,7.69874210283984E-19,-0.01778));
#728=CARTESIAN_POINT('',(0.02032,7.69874210283984E-19,0.01778));
#729=CARTESIAN_POINT('',(0.027813,7.69874210283984E-19,0.01778));
#730=CARTESIAN_POINT('',(-0.02032,7.69874210283984E-19,0.0254));
#731=CARTESIAN_POINT('',(-0.02032,7.69874210283984E-19,-0.01778));
#732=CARTESIAN_POINT('',(-0.027813,7.69874210283984E-19,-0.01778));
#733=CARTESIAN_POINT('',(-0.02032,7.69874210283984E-19,0.01778));
#734=CARTESIAN_POINT('',(-0.012827,7.69874210283984E-19,0.01778));
#735=CARTESIAN_POINT('',(0.,6.5690587086702E-19,0.0254));
#736=CARTESIAN_POINT('',(0.,6.5690587086702E-19,-0.01778));
#737=CARTESIAN_POINT('',(-0.0107280870096485,6.5690587086702E-19,-0.01778));
#738=CARTESIAN_POINT('',(0.,6.5690587086702E-19,0.01778));
#739=CARTESIAN_POINT('',(0.0107280870096485,6.5690587086702E-19,0.01778));
#740=CARTESIAN_POINT('',(0.,-0.00614023301750434,-0.0254));
#741=CARTESIAN_POINT('',(-0.031115,-0.0187664506956937,-0.0254));
#742=CARTESIAN_POINT('',(0.03175,-0.0187664506956937,-0.0254));
#743=CARTESIAN_POINT('',(-0.03175,-0.0187664506956937,-0.0254));
#744=CARTESIAN_POINT('',(0.03175,-0.021758003626019,-0.0254));
#745=CARTESIAN_POINT('',(0.03175,-0.0313535565563442,-0.0254));
#746=CARTESIAN_POINT('',(1.80411241501588E-18,-0.0313535565563443,-0.0254));
#747=CARTESIAN_POINT('',(-0.03175,-0.0313535565563443,-0.0254));
#748=CARTESIAN_POINT('',(-0.03175,-0.021758003626019,-0.0254));
#749=CARTESIAN_POINT('',(0.0163761643686164,-0.00163474511004801,0.0254));
#750=CARTESIAN_POINT('',(0.0163761643686164,-0.00163474511004801,0.01778));
#751=CARTESIAN_POINT('',(0.0163761643686164,-0.00163474511004801,-0.01778));
#752=CARTESIAN_POINT('',(-0.0163761643686164,-0.00163474511004802,0.0254));
#753=CARTESIAN_POINT('',(-0.0163761643686164,-0.00163474511004802,0.01778));
#754=CARTESIAN_POINT('',(-0.0163761643686164,-0.00163474511004802,-0.01778));
#755=CARTESIAN_POINT('',(-0.031115,-0.0187664506956937,0.0254));
#756=CARTESIAN_POINT('',(0.,-0.0187664506956937,0.01778));
#757=CARTESIAN_POINT('',(0.031115,-0.0187664506956937,-0.01778));
#758=CARTESIAN_POINT('',(-0.03175,-0.0187664506956937,0.0254));
#759=CARTESIAN_POINT('',(-0.03175,-0.0187664506956937,0.0254));
#760=CARTESIAN_POINT('',(0.031115,-0.0187664506956937,0.0254));
#761=CARTESIAN_POINT('',(0.03175,-0.0187664506956937,0.0254));
#762=CARTESIAN_POINT('',(0.03175,-0.0187664506956937,0.0254));
#763=CARTESIAN_POINT('',(-0.03175,-0.021758003626019,0.0254));
#764=CARTESIAN_POINT('',(-0.03175,-0.0313535565563443,0.0254));
#765=CARTESIAN_POINT('',(-0.03175,-0.0313535565563443,-0.0204717088490724));
#766=CARTESIAN_POINT('',(-0.03175,-0.0313535565563443,-0.0204717088490724));
#767=CARTESIAN_POINT('',(-0.03175,-0.0313535565563443,0.02028932236135));
#768=CARTESIAN_POINT('',(-0.03175,-0.0313535565563443,0.02028932236135));
#769=CARTESIAN_POINT('',(-0.03175,-0.0313535565563443,0.0254));
#770=CARTESIAN_POINT('',(-0.03175,-0.0313535565563443,0.0254));
#771=CARTESIAN_POINT('',(-0.03175,-0.021758003626019,0.0254));
#772=CARTESIAN_POINT('',(0.03175,-0.021758003626019,0.0254));
#773=CARTESIAN_POINT('',(0.03175,-0.021758003626019,0.0254));
#774=CARTESIAN_POINT('',(0.03175,-0.0313535565563442,0.0254));
#775=CARTESIAN_POINT('',(0.03175,-0.0313535565563442,0.0254));
#776=CARTESIAN_POINT('',(0.03175,-0.0313535565563442,0.02028932236135));
#777=CARTESIAN_POINT('',(0.03175,-0.0313535565563442,0.02028932236135));
#778=CARTESIAN_POINT('',(0.03175,-0.0313535565563442,-0.0204717088490724));
#779=CARTESIAN_POINT('',(0.03175,-0.0313535565563442,-0.0204717088490724));
#780=CARTESIAN_POINT('',(0.03175,-0.0313535565563442,0.0254));
#781=CARTESIAN_POINT('',(0.,-0.00614023301750434,0.0254));
#782=CARTESIAN_POINT('',(1.80411241501588E-18,-0.0313535565563443,0.0254));
#783=CARTESIAN_POINT('',(0.,-0.00390630448237075,-0.01778));
#784=CARTESIAN_POINT('',(-6.93889390390723E-18,-0.000382150057703371,0.01778));
#785=CARTESIAN_POINT('',(1.80411241501588E-18,-0.0313535565563443,-0.0204717088490724));
#786=CARTESIAN_POINT('',(1.80411241501588E-18,-0.0313535565563443,-0.0204717088490724));
#787=CARTESIAN_POINT('',(1.62642115336159E-18,-0.0313535565563443,0.));
#788=CARTESIAN_POINT('',(1.80411241501588E-18,-0.0313535565563443,0.02028932236135));
#789=CARTESIAN_POINT('',(1.80411241501588E-18,-0.0313535565563443,0.02028932236135));
#790=CARTESIAN_POINT('',(1.62642115336159E-18,-0.0313535565563443,0.));
#791=CARTESIAN_POINT('',(0.,0.,0.));
#792=CARTESIAN_POINT('',(0.,4.85249039133195E-19,0.011557));
#793=CARTESIAN_POINT('',(0.,4.85249039133195E-19,0.011557));
#794=CARTESIAN_POINT('',(0.00792471820399228,4.85249039133195E-19,0.011557));
#795=CARTESIAN_POINT('',(0.,4.85249039133195E-19,-0.011557));
#796=CARTESIAN_POINT('',(0.00792471820399228,4.85249039133195E-19,-0.011557));
#797=CARTESIAN_POINT('',(0.,6.5690587086702E-19,0.011557));
#798=CARTESIAN_POINT('',(0.,6.5690587086702E-19,0.011557));
#799=CARTESIAN_POINT('',(0.0107280870096485,6.5690587086702E-19,0.011557));
#800=CARTESIAN_POINT('',(0.,6.5690587086702E-19,-0.011557));
#801=CARTESIAN_POINT('',(0.0107280870096485,6.5690587086702E-19,-0.011557));
#802=CARTESIAN_POINT('',(0.,-0.00614023301750434,0.011557));
#803=CARTESIAN_POINT('',(0.,-0.00614023301750434,-0.011557));
#804=CARTESIAN_POINT('',(0.,0.,0.));
#805=CARTESIAN_POINT('',(0.,2.41071722412157E-19,0.0127));
#806=CARTESIAN_POINT('',(0.,2.41071722412157E-19,0.0127));
#807=CARTESIAN_POINT('',(0.003937,2.41071722412157E-19,0.0127));
#808=CARTESIAN_POINT('',(0.,2.41071722412157E-19,-0.0127));
#809=CARTESIAN_POINT('',(0.003937,2.41071722412157E-19,-0.0127));
#810=CARTESIAN_POINT('',(0.,4.85249039133195E-19,0.0127));
#811=CARTESIAN_POINT('',(0.,4.85249039133195E-19,0.0127));
#812=CARTESIAN_POINT('',(0.00792471820399228,4.85249039133195E-19,0.0127));
#813=CARTESIAN_POINT('',(0.,4.85249039133195E-19,-0.0127));
#814=CARTESIAN_POINT('',(0.00792471820399228,4.85249039133195E-19,-0.0127));
#815=CARTESIAN_POINT('',(0.,-0.00614023301750434,0.0127));
#816=CARTESIAN_POINT('',(0.,-0.00614023301750434,-0.0127));
#817=MECHANICAL_DESIGN_GEOMETRIC_PRESENTATION_REPRESENTATION('',(#471),
#820);
#818=MECHANICAL_DESIGN_GEOMETRIC_PRESENTATION_REPRESENTATION('',(#472),
#821);
#819=MECHANICAL_DESIGN_GEOMETRIC_PRESENTATION_REPRESENTATION('',(#473),
#822);
#820=(
GEOMETRIC_REPRESENTATION_CONTEXT(3)
GLOBAL_UNCERTAINTY_ASSIGNED_CONTEXT((#823))
GLOBAL_UNIT_ASSIGNED_CONTEXT((#832,#829,#826))
REPRESENTATION_CONTEXT('gantry arm','TOP_LEVEL_ASSEMBLY_PART')
);
#821=(
GEOMETRIC_REPRESENTATION_CONTEXT(3)
GLOBAL_UNCERTAINTY_ASSIGNED_CONTEXT((#824))
GLOBAL_UNIT_ASSIGNED_CONTEXT((#833,#830,#827))
REPRESENTATION_CONTEXT('screw connector pt 2','TOP_LEVEL_ASSEMBLY_PART')
);
#822=(
GEOMETRIC_REPRESENTATION_CONTEXT(3)
GLOBAL_UNCERTAINTY_ASSIGNED_CONTEXT((#825))
GLOBAL_UNIT_ASSIGNED_CONTEXT((#834,#831,#828))
REPRESENTATION_CONTEXT('screw connector','TOP_LEVEL_ASSEMBLY_PART')
);
#823=UNCERTAINTY_MEASURE_WITH_UNIT(LENGTH_MEASURE(1.E-8),#832,
'DISTANCE_ACCURACY_VALUE','Maximum Tolerance applied to model');
#824=UNCERTAINTY_MEASURE_WITH_UNIT(LENGTH_MEASURE(1.E-8),#833,
'DISTANCE_ACCURACY_VALUE','Maximum Tolerance applied to model');
#825=UNCERTAINTY_MEASURE_WITH_UNIT(LENGTH_MEASURE(1.E-8),#834,
'DISTANCE_ACCURACY_VALUE','Maximum Tolerance applied to model');
#826=(
NAMED_UNIT(*)
SI_UNIT($,.STERADIAN.)
SOLID_ANGLE_UNIT()
);
#827=(
NAMED_UNIT(*)
SI_UNIT($,.STERADIAN.)
SOLID_ANGLE_UNIT()
);
#828=(
NAMED_UNIT(*)
SI_UNIT($,.STERADIAN.)
SOLID_ANGLE_UNIT()
);
#829=(
NAMED_UNIT(*)
PLANE_ANGLE_UNIT()
SI_UNIT($,.RADIAN.)
);
#830=(
NAMED_UNIT(*)
PLANE_ANGLE_UNIT()
SI_UNIT($,.RADIAN.)
);
#831=(
NAMED_UNIT(*)
PLANE_ANGLE_UNIT()
SI_UNIT($,.RADIAN.)
);
#832=(
LENGTH_UNIT()
NAMED_UNIT(*)
SI_UNIT($,.METRE.)
);
#833=(
LENGTH_UNIT()
NAMED_UNIT(*)
SI_UNIT($,.METRE.)
);
#834=(
LENGTH_UNIT()
NAMED_UNIT(*)
SI_UNIT($,.METRE.)
);
#835=PRODUCT_DEFINITION_SHAPE('','',#838);
#836=PRODUCT_DEFINITION_SHAPE('','',#839);
#837=PRODUCT_DEFINITION_SHAPE('','',#840);
#838=PRODUCT_DEFINITION('','',#844,#841);
#839=PRODUCT_DEFINITION('','',#845,#842);
#840=PRODUCT_DEFINITION('','',#846,#843);
#841=PRODUCT_DEFINITION_CONTEXT('',#862,'design');
#842=PRODUCT_DEFINITION_CONTEXT('',#863,'design');
#843=PRODUCT_DEFINITION_CONTEXT('',#864,'design');
#844=PRODUCT_DEFINITION_FORMATION_WITH_SPECIFIED_SOURCE('','',#850,
 .NOT_KNOWN.);
#845=PRODUCT_DEFINITION_FORMATION_WITH_SPECIFIED_SOURCE('','',#851,
 .NOT_KNOWN.);
#846=PRODUCT_DEFINITION_FORMATION_WITH_SPECIFIED_SOURCE('','',#852,
 .NOT_KNOWN.);
#847=PRODUCT_RELATED_PRODUCT_CATEGORY('','',(#850));
#848=PRODUCT_RELATED_PRODUCT_CATEGORY('','',(#851));
#849=PRODUCT_RELATED_PRODUCT_CATEGORY('','',(#852));
#850=PRODUCT('gantry arm','gantry arm','gantry arm',(#856));
#851=PRODUCT('screw connector pt 2','screw connector pt 2',
'screw connector pt 2',(#857));
#852=PRODUCT('screw connector','screw connector','screw connector',(#858));
#853=PRODUCT_CATEGORY('','');
#854=PRODUCT_CATEGORY('','');
#855=PRODUCT_CATEGORY('','');
#856=PRODUCT_CONTEXT('',#862,'mechanical');
#857=PRODUCT_CONTEXT('',#863,'mechanical');
#858=PRODUCT_CONTEXT('',#864,'mechanical');
#859=APPLICATION_PROTOCOL_DEFINITION('international standard',
'ap242_managed_model_based_3d_engineering',2020,#862);
#860=APPLICATION_PROTOCOL_DEFINITION('international standard',
'ap242_managed_model_based_3d_engineering',2020,#863);
#861=APPLICATION_PROTOCOL_DEFINITION('international standard',
'ap242_managed_model_based_3d_engineering',2020,#864);
#862=APPLICATION_CONTEXT('managed model based 3d engineering');
#863=APPLICATION_CONTEXT('managed model based 3d engineering');
#864=APPLICATION_CONTEXT('managed model based 3d engineering');
ENDSEC;
END-ISO-10303-21;
