ISO-10303-21;
HEADER;
/* Generated by software containing ST-Developer
 * from STEP Tools, Inc. (www.steptools.com) 
 */
/* OPTION: using custom renumber hook */

FILE_DESCRIPTION(
/* description */ ('STEP AP242 Edition 2',
'CAx-IF Rec.Pracs.---Representation and Presentation of Product Manufa
cturing Information (PMI)---4.0---2014-10-13',
'CAx-IF Rec.Pracs.---3D Tessellated Geometry---0.4---2014-09-14','2;1',
'CAx-IF Rec.Pracs.---User Defined Attributes---1.5---2016-08-15'),
/* implementation_level */ '2;1');

FILE_NAME(
/* name */ 'gantry holder',
/* time_stamp */ '2026-08-14T04:17:05Z',
/* author */ (''),
/* organization */ (''),
/* preprocessor_version */ 'ST-DEVELOPER v20',
/* originating_system */ 'ONSHAPE BY PTC INC, 1.219',
/* authorisation */ '  ');

FILE_SCHEMA (('AP242_MANAGED_MODEL_BASED_3D_ENGINEERING_MIM_LF { 1 0 10303 442 3 1 4 }'));
ENDSEC;

DATA;
#10=SHAPE_REPRESENTATION_RELATIONSHIP('','',#560,#11);
#11=ADVANCED_BREP_SHAPE_REPRESENTATION('',(#558),#946);
#12=TOROIDAL_SURFACE('',#603,0.00508,0.00254);
#13=TOROIDAL_SURFACE('',#616,0.00508,0.00254);
#14=TOROIDAL_SURFACE('',#619,0.00642473035042041,0.00254);
#15=TOROIDAL_SURFACE('',#620,0.00642473035042041,0.00254);
#16=CYLINDRICAL_SURFACE('',#596,0.00388473035042041);
#17=CYLINDRICAL_SURFACE('',#598,0.00388473035042041);
#18=CYLINDRICAL_SURFACE('',#600,0.00254);
#19=CYLINDRICAL_SURFACE('',#606,0.00254);
#20=CYLINDRICAL_SURFACE('',#608,0.00254);
#21=CYLINDRICAL_SURFACE('',#610,0.00254);
#22=CYLINDRICAL_SURFACE('',#612,0.00254);
#23=CYLINDRICAL_SURFACE('',#614,0.00254);
#24=CYLINDRICAL_SURFACE('',#618,0.00254);
#25=CYLINDRICAL_SURFACE('',#621,0.003937);
#26=CYLINDRICAL_SURFACE('',#622,0.003937);
#27=CYLINDRICAL_SURFACE('',#623,0.003937);
#28=CYLINDRICAL_SURFACE('',#624,0.003937);
#29=CYLINDRICAL_SURFACE('',#625,0.006985);
#30=CYLINDRICAL_SURFACE('',#626,0.006985);
#31=CYLINDRICAL_SURFACE('',#627,0.00254);
#32=CYLINDRICAL_SURFACE('',#628,0.00254);
#33=ELLIPSE('',#590,0.00515983059797818,0.00254);
#34=ELLIPSE('',#591,0.00515983059797818,0.00254);
#35=ELLIPSE('',#601,0.00359210244842766,0.00254);
#36=ELLIPSE('',#607,0.00359210244842766,0.00254);
#37=ELLIPSE('',#609,0.00359210244842766,0.00254);
#38=ELLIPSE('',#615,0.00359210244842766,0.00254);
#39=LINE('',#812,#70);
#40=LINE('',#815,#71);
#41=LINE('',#817,#72);
#42=LINE('',#819,#73);
#43=LINE('',#837,#74);
#44=LINE('',#840,#75);
#45=LINE('',#842,#76);
#46=LINE('',#844,#77);
#47=LINE('',#848,#78);
#48=LINE('',#850,#79);
#49=LINE('',#852,#80);
#50=LINE('',#854,#81);
#51=LINE('',#856,#82);
#52=LINE('',#858,#83);
#53=LINE('',#864,#84);
#54=LINE('',#866,#85);
#55=LINE('',#868,#86);
#56=LINE('',#870,#87);
#57=LINE('',#872,#88);
#58=LINE('',#874,#89);
#59=LINE('',#880,#90);
#60=LINE('',#883,#91);
#61=LINE('',#885,#92);
#62=LINE('',#887,#93);
#63=LINE('',#889,#94);
#64=LINE('',#893,#95);
#65=LINE('',#897,#96);
#66=LINE('',#902,#97);
#67=LINE('',#903,#98);
#68=LINE('',#905,#99);
#69=LINE('',#909,#100);
#70=VECTOR('',#647,1.);
#71=VECTOR('',#648,1.);
#72=VECTOR('',#649,1.);
#73=VECTOR('',#650,1.);
#74=VECTOR('',#669,1.);
#75=VECTOR('',#670,1.);
#76=VECTOR('',#671,1.);
#77=VECTOR('',#672,1.);
#78=VECTOR('',#677,1.);
#79=VECTOR('',#678,1.);
#80=VECTOR('',#679,1.);
#81=VECTOR('',#682,1.);
#82=VECTOR('',#683,1.);
#83=VECTOR('',#684,1.);
#84=VECTOR('',#691,1.);
#85=VECTOR('',#692,1.);
#86=VECTOR('',#693,1.);
#87=VECTOR('',#696,1.);
#88=VECTOR('',#697,1.);
#89=VECTOR('',#698,1.);
#90=VECTOR('',#705,1.);
#91=VECTOR('',#706,1.);
#92=VECTOR('',#707,1.);
#93=VECTOR('',#708,1.);
#94=VECTOR('',#711,1.);
#95=VECTOR('',#714,1.);
#96=VECTOR('',#717,1.);
#97=VECTOR('',#722,1.);
#98=VECTOR('',#723,1.);
#99=VECTOR('',#726,1.);
#100=VECTOR('',#729,1.);
#101=ORIENTED_EDGE('',*,*,#235,.T.);
#102=ORIENTED_EDGE('',*,*,#236,.T.);
#103=ORIENTED_EDGE('',*,*,#237,.F.);
#104=ORIENTED_EDGE('',*,*,#238,.T.);
#105=ORIENTED_EDGE('',*,*,#239,.T.);
#106=ORIENTED_EDGE('',*,*,#240,.F.);
#107=ORIENTED_EDGE('',*,*,#241,.F.);
#108=ORIENTED_EDGE('',*,*,#242,.F.);
#109=ORIENTED_EDGE('',*,*,#243,.F.);
#110=ORIENTED_EDGE('',*,*,#244,.T.);
#111=ORIENTED_EDGE('',*,*,#245,.T.);
#112=ORIENTED_EDGE('',*,*,#246,.F.);
#113=ORIENTED_EDGE('',*,*,#247,.T.);
#114=ORIENTED_EDGE('',*,*,#248,.T.);
#115=ORIENTED_EDGE('',*,*,#249,.F.);
#116=ORIENTED_EDGE('',*,*,#250,.T.);
#117=ORIENTED_EDGE('',*,*,#251,.T.);
#118=ORIENTED_EDGE('',*,*,#252,.F.);
#119=ORIENTED_EDGE('',*,*,#253,.F.);
#120=ORIENTED_EDGE('',*,*,#254,.T.);
#121=ORIENTED_EDGE('',*,*,#255,.T.);
#122=ORIENTED_EDGE('',*,*,#256,.T.);
#123=ORIENTED_EDGE('',*,*,#257,.T.);
#124=ORIENTED_EDGE('',*,*,#258,.F.);
#125=ORIENTED_EDGE('',*,*,#259,.T.);
#126=ORIENTED_EDGE('',*,*,#260,.F.);
#127=ORIENTED_EDGE('',*,*,#261,.F.);
#128=ORIENTED_EDGE('',*,*,#243,.T.);
#129=ORIENTED_EDGE('',*,*,#262,.T.);
#130=ORIENTED_EDGE('',*,*,#263,.F.);
#131=ORIENTED_EDGE('',*,*,#264,.F.);
#132=ORIENTED_EDGE('',*,*,#260,.T.);
#133=ORIENTED_EDGE('',*,*,#265,.F.);
#134=ORIENTED_EDGE('',*,*,#266,.F.);
#135=ORIENTED_EDGE('',*,*,#267,.F.);
#136=ORIENTED_EDGE('',*,*,#268,.F.);
#137=ORIENTED_EDGE('',*,*,#269,.T.);
#138=ORIENTED_EDGE('',*,*,#263,.T.);
#139=ORIENTED_EDGE('',*,*,#270,.F.);
#140=ORIENTED_EDGE('',*,*,#271,.T.);
#141=ORIENTED_EDGE('',*,*,#272,.T.);
#142=ORIENTED_EDGE('',*,*,#268,.T.);
#143=ORIENTED_EDGE('',*,*,#273,.T.);
#144=ORIENTED_EDGE('',*,*,#274,.T.);
#145=ORIENTED_EDGE('',*,*,#275,.T.);
#146=ORIENTED_EDGE('',*,*,#276,.T.);
#147=ORIENTED_EDGE('',*,*,#277,.T.);
#148=ORIENTED_EDGE('',*,*,#278,.T.);
#149=ORIENTED_EDGE('',*,*,#279,.T.);
#150=ORIENTED_EDGE('',*,*,#280,.T.);
#151=ORIENTED_EDGE('',*,*,#281,.T.);
#152=ORIENTED_EDGE('',*,*,#282,.T.);
#153=ORIENTED_EDGE('',*,*,#283,.F.);
#154=ORIENTED_EDGE('',*,*,#245,.F.);
#155=ORIENTED_EDGE('',*,*,#284,.F.);
#156=ORIENTED_EDGE('',*,*,#285,.T.);
#157=ORIENTED_EDGE('',*,*,#279,.F.);
#158=ORIENTED_EDGE('',*,*,#244,.F.);
#159=ORIENTED_EDGE('',*,*,#261,.T.);
#160=ORIENTED_EDGE('',*,*,#264,.T.);
#161=ORIENTED_EDGE('',*,*,#269,.F.);
#162=ORIENTED_EDGE('',*,*,#272,.F.);
#163=ORIENTED_EDGE('',*,*,#286,.T.);
#164=ORIENTED_EDGE('',*,*,#283,.T.);
#165=ORIENTED_EDGE('',*,*,#287,.T.);
#166=ORIENTED_EDGE('',*,*,#288,.F.);
#167=ORIENTED_EDGE('',*,*,#289,.T.);
#168=ORIENTED_EDGE('',*,*,#270,.T.);
#169=ORIENTED_EDGE('',*,*,#267,.T.);
#170=ORIENTED_EDGE('',*,*,#262,.F.);
#171=ORIENTED_EDGE('',*,*,#259,.F.);
#172=ORIENTED_EDGE('',*,*,#242,.T.);
#173=ORIENTED_EDGE('',*,*,#290,.T.);
#174=ORIENTED_EDGE('',*,*,#266,.T.);
#175=ORIENTED_EDGE('',*,*,#291,.T.);
#176=ORIENTED_EDGE('',*,*,#265,.T.);
#177=ORIENTED_EDGE('',*,*,#292,.F.);
#178=ORIENTED_EDGE('',*,*,#289,.F.);
#179=ORIENTED_EDGE('',*,*,#293,.F.);
#180=ORIENTED_EDGE('',*,*,#277,.F.);
#181=ORIENTED_EDGE('',*,*,#293,.T.);
#182=ORIENTED_EDGE('',*,*,#288,.T.);
#183=ORIENTED_EDGE('',*,*,#294,.F.);
#184=ORIENTED_EDGE('',*,*,#295,.F.);
#185=ORIENTED_EDGE('',*,*,#292,.T.);
#186=ORIENTED_EDGE('',*,*,#276,.F.);
#187=ORIENTED_EDGE('',*,*,#296,.F.);
#188=ORIENTED_EDGE('',*,*,#271,.F.);
#189=ORIENTED_EDGE('',*,*,#287,.F.);
#190=ORIENTED_EDGE('',*,*,#282,.F.);
#191=ORIENTED_EDGE('',*,*,#297,.F.);
#192=ORIENTED_EDGE('',*,*,#254,.F.);
#193=ORIENTED_EDGE('',*,*,#294,.T.);
#194=ORIENTED_EDGE('',*,*,#295,.T.);
#195=ORIENTED_EDGE('',*,*,#257,.F.);
#196=ORIENTED_EDGE('',*,*,#298,.F.);
#197=ORIENTED_EDGE('',*,*,#278,.F.);
#198=ORIENTED_EDGE('',*,*,#296,.T.);
#199=ORIENTED_EDGE('',*,*,#275,.F.);
#200=ORIENTED_EDGE('',*,*,#299,.F.);
#201=ORIENTED_EDGE('',*,*,#286,.F.);
#202=ORIENTED_EDGE('',*,*,#297,.T.);
#203=ORIENTED_EDGE('',*,*,#281,.F.);
#204=ORIENTED_EDGE('',*,*,#300,.F.);
#205=ORIENTED_EDGE('',*,*,#255,.F.);
#206=ORIENTED_EDGE('',*,*,#299,.T.);
#207=ORIENTED_EDGE('',*,*,#298,.T.);
#208=ORIENTED_EDGE('',*,*,#301,.F.);
#209=ORIENTED_EDGE('',*,*,#284,.T.);
#210=ORIENTED_EDGE('',*,*,#280,.F.);
#211=ORIENTED_EDGE('',*,*,#285,.F.);
#212=ORIENTED_EDGE('',*,*,#301,.T.);
#213=ORIENTED_EDGE('',*,*,#256,.F.);
#214=ORIENTED_EDGE('',*,*,#300,.T.);
#215=ORIENTED_EDGE('',*,*,#273,.F.);
#216=ORIENTED_EDGE('',*,*,#290,.F.);
#217=ORIENTED_EDGE('',*,*,#274,.F.);
#218=ORIENTED_EDGE('',*,*,#291,.F.);
#219=ORIENTED_EDGE('',*,*,#241,.T.);
#220=ORIENTED_EDGE('',*,*,#253,.T.);
#221=ORIENTED_EDGE('',*,*,#240,.T.);
#222=ORIENTED_EDGE('',*,*,#252,.T.);
#223=ORIENTED_EDGE('',*,*,#239,.F.);
#224=ORIENTED_EDGE('',*,*,#251,.F.);
#225=ORIENTED_EDGE('',*,*,#238,.F.);
#226=ORIENTED_EDGE('',*,*,#250,.F.);
#227=ORIENTED_EDGE('',*,*,#237,.T.);
#228=ORIENTED_EDGE('',*,*,#249,.T.);
#229=ORIENTED_EDGE('',*,*,#236,.F.);
#230=ORIENTED_EDGE('',*,*,#248,.F.);
#231=ORIENTED_EDGE('',*,*,#235,.F.);
#232=ORIENTED_EDGE('',*,*,#247,.F.);
#233=ORIENTED_EDGE('',*,*,#246,.T.);
#234=ORIENTED_EDGE('',*,*,#258,.T.);
#235=EDGE_CURVE('',#302,#302,#352,.F.);
#236=EDGE_CURVE('',#303,#303,#353,.F.);
#237=EDGE_CURVE('',#304,#304,#354,.T.);
#238=EDGE_CURVE('',#305,#305,#355,.F.);
#239=EDGE_CURVE('',#306,#306,#356,.F.);
#240=EDGE_CURVE('',#307,#307,#357,.T.);
#241=EDGE_CURVE('',#308,#308,#358,.T.);
#242=EDGE_CURVE('',#309,#310,#39,.T.);
#243=EDGE_CURVE('',#311,#309,#40,.T.);
#244=EDGE_CURVE('',#311,#312,#41,.T.);
#245=EDGE_CURVE('',#312,#310,#42,.T.);
#246=EDGE_CURVE('',#313,#313,#359,.T.);
#247=EDGE_CURVE('',#314,#314,#360,.T.);
#248=EDGE_CURVE('',#315,#315,#361,.T.);
#249=EDGE_CURVE('',#316,#316,#362,.T.);
#250=EDGE_CURVE('',#317,#317,#363,.T.);
#251=EDGE_CURVE('',#318,#318,#364,.T.);
#252=EDGE_CURVE('',#319,#319,#365,.T.);
#253=EDGE_CURVE('',#320,#320,#366,.T.);
#254=EDGE_CURVE('',#321,#322,#43,.F.);
#255=EDGE_CURVE('',#322,#323,#44,.F.);
#256=EDGE_CURVE('',#323,#324,#45,.T.);
#257=EDGE_CURVE('',#324,#321,#46,.T.);
#258=EDGE_CURVE('',#325,#325,#367,.T.);
#259=EDGE_CURVE('',#309,#326,#47,.T.);
#260=EDGE_CURVE('',#327,#326,#48,.T.);
#261=EDGE_CURVE('',#311,#327,#49,.T.);
#262=EDGE_CURVE('',#326,#328,#50,.T.);
#263=EDGE_CURVE('',#329,#328,#51,.T.);
#264=EDGE_CURVE('',#327,#329,#52,.T.);
#265=EDGE_CURVE('',#330,#330,#368,.T.);
#266=EDGE_CURVE('',#331,#331,#369,.T.);
#267=EDGE_CURVE('',#332,#328,#53,.T.);
#268=EDGE_CURVE('',#333,#332,#54,.T.);
#269=EDGE_CURVE('',#333,#329,#55,.T.);
#270=EDGE_CURVE('',#334,#332,#56,.T.);
#271=EDGE_CURVE('',#334,#335,#57,.F.);
#272=EDGE_CURVE('',#335,#333,#58,.T.);
#273=EDGE_CURVE('',#336,#336,#370,.F.);
#274=EDGE_CURVE('',#337,#337,#371,.F.);
#275=EDGE_CURVE('',#338,#339,#59,.T.);
#276=EDGE_CURVE('',#339,#340,#60,.T.);
#277=EDGE_CURVE('',#340,#341,#61,.F.);
#278=EDGE_CURVE('',#341,#338,#62,.F.);
#279=EDGE_CURVE('',#312,#342,#63,.T.);
#280=EDGE_CURVE('',#342,#343,#33,.T.);
#281=EDGE_CURVE('',#343,#344,#64,.T.);
#282=EDGE_CURVE('',#344,#345,#34,.T.);
#283=EDGE_CURVE('',#310,#345,#65,.T.);
#284=EDGE_CURVE('',#346,#347,#372,.T.);
#285=EDGE_CURVE('',#346,#342,#66,.F.);
#286=EDGE_CURVE('',#335,#347,#67,.F.);
#287=EDGE_CURVE('',#345,#348,#68,.T.);
#288=EDGE_CURVE('',#349,#348,#373,.F.);
#289=EDGE_CURVE('',#349,#334,#69,.T.);
#290=EDGE_CURVE('',#350,#350,#374,.T.);
#291=EDGE_CURVE('',#351,#351,#375,.T.);
#292=EDGE_CURVE('',#334,#340,#35,.F.);
#293=EDGE_CURVE('',#341,#349,#376,.T.);
#294=EDGE_CURVE('',#321,#348,#377,.F.);
#295=EDGE_CURVE('',#341,#321,#378,.F.);
#296=EDGE_CURVE('',#335,#339,#36,.F.);
#297=EDGE_CURVE('',#322,#344,#37,.F.);
#298=EDGE_CURVE('',#338,#324,#379,.F.);
#299=EDGE_CURVE('',#347,#338,#380,.T.);
#300=EDGE_CURVE('',#323,#343,#38,.F.);
#301=EDGE_CURVE('',#346,#324,#381,.F.);
#302=VERTEX_POINT('',#799);
#303=VERTEX_POINT('',#801);
#304=VERTEX_POINT('',#803);
#305=VERTEX_POINT('',#805);
#306=VERTEX_POINT('',#807);
#307=VERTEX_POINT('',#809);
#308=VERTEX_POINT('',#811);
#309=VERTEX_POINT('',#813);
#310=VERTEX_POINT('',#814);
#311=VERTEX_POINT('',#816);
#312=VERTEX_POINT('',#818);
#313=VERTEX_POINT('',#821);
#314=VERTEX_POINT('',#824);
#315=VERTEX_POINT('',#826);
#316=VERTEX_POINT('',#828);
#317=VERTEX_POINT('',#830);
#318=VERTEX_POINT('',#832);
#319=VERTEX_POINT('',#834);
#320=VERTEX_POINT('',#836);
#321=VERTEX_POINT('',#838);
#322=VERTEX_POINT('',#839);
#323=VERTEX_POINT('',#841);
#324=VERTEX_POINT('',#843);
#325=VERTEX_POINT('',#846);
#326=VERTEX_POINT('',#849);
#327=VERTEX_POINT('',#851);
#328=VERTEX_POINT('',#855);
#329=VERTEX_POINT('',#857);
#330=VERTEX_POINT('',#861);
#331=VERTEX_POINT('',#863);
#332=VERTEX_POINT('',#865);
#333=VERTEX_POINT('',#867);
#334=VERTEX_POINT('',#871);
#335=VERTEX_POINT('',#873);
#336=VERTEX_POINT('',#877);
#337=VERTEX_POINT('',#879);
#338=VERTEX_POINT('',#881);
#339=VERTEX_POINT('',#882);
#340=VERTEX_POINT('',#884);
#341=VERTEX_POINT('',#886);
#342=VERTEX_POINT('',#890);
#343=VERTEX_POINT('',#892);
#344=VERTEX_POINT('',#894);
#345=VERTEX_POINT('',#896);
#346=VERTEX_POINT('',#900);
#347=VERTEX_POINT('',#901);
#348=VERTEX_POINT('',#906);
#349=VERTEX_POINT('',#908);
#350=VERTEX_POINT('',#912);
#351=VERTEX_POINT('',#915);
#352=CIRCLE('',#563,0.00254);
#353=CIRCLE('',#564,0.006985);
#354=CIRCLE('',#565,0.006985);
#355=CIRCLE('',#566,0.003937);
#356=CIRCLE('',#567,0.003937);
#357=CIRCLE('',#568,0.003937);
#358=CIRCLE('',#569,0.003937);
#359=CIRCLE('',#570,0.00254);
#360=CIRCLE('',#572,0.00254);
#361=CIRCLE('',#573,0.006985);
#362=CIRCLE('',#574,0.006985);
#363=CIRCLE('',#575,0.003937);
#364=CIRCLE('',#576,0.003937);
#365=CIRCLE('',#577,0.003937);
#366=CIRCLE('',#578,0.003937);
#367=CIRCLE('',#579,0.00254);
#368=CIRCLE('',#583,0.00388473035042041);
#369=CIRCLE('',#584,0.00388473035042041);
#370=CIRCLE('',#587,0.00642473035042041);
#371=CIRCLE('',#588,0.00642473035042041);
#372=CIRCLE('',#593,0.00508);
#373=CIRCLE('',#595,0.00508);
#374=CIRCLE('',#597,0.00388473035042041);
#375=CIRCLE('',#599,0.00388473035042041);
#376=CIRCLE('',#602,0.00254);
#377=CIRCLE('',#604,0.00254);
#378=CIRCLE('',#605,0.00254);
#379=CIRCLE('',#611,0.00254);
#380=CIRCLE('',#613,0.00254);
#381=CIRCLE('',#617,0.00254);
#382=EDGE_LOOP('',(#101));
#383=EDGE_LOOP('',(#102));
#384=EDGE_LOOP('',(#103));
#385=EDGE_LOOP('',(#104));
#386=EDGE_LOOP('',(#105));
#387=EDGE_LOOP('',(#106));
#388=EDGE_LOOP('',(#107));
#389=EDGE_LOOP('',(#108,#109,#110,#111));
#390=EDGE_LOOP('',(#112));
#391=EDGE_LOOP('',(#113));
#392=EDGE_LOOP('',(#114));
#393=EDGE_LOOP('',(#115));
#394=EDGE_LOOP('',(#116));
#395=EDGE_LOOP('',(#117));
#396=EDGE_LOOP('',(#118));
#397=EDGE_LOOP('',(#119));
#398=EDGE_LOOP('',(#120,#121,#122,#123));
#399=EDGE_LOOP('',(#124));
#400=EDGE_LOOP('',(#125,#126,#127,#128));
#401=EDGE_LOOP('',(#129,#130,#131,#132));
#402=EDGE_LOOP('',(#133));
#403=EDGE_LOOP('',(#134));
#404=EDGE_LOOP('',(#135,#136,#137,#138));
#405=EDGE_LOOP('',(#139,#140,#141,#142));
#406=EDGE_LOOP('',(#143));
#407=EDGE_LOOP('',(#144));
#408=EDGE_LOOP('',(#145,#146,#147,#148));
#409=EDGE_LOOP('',(#149,#150,#151,#152,#153,#154));
#410=EDGE_LOOP('',(#155,#156,#157,#158,#159,#160,#161,#162,#163));
#411=EDGE_LOOP('',(#164,#165,#166,#167,#168,#169,#170,#171,#172));
#412=EDGE_LOOP('',(#173));
#413=EDGE_LOOP('',(#174));
#414=EDGE_LOOP('',(#175));
#415=EDGE_LOOP('',(#176));
#416=EDGE_LOOP('',(#177,#178,#179,#180));
#417=EDGE_LOOP('',(#181,#182,#183,#184));
#418=EDGE_LOOP('',(#185,#186,#187,#188));
#419=EDGE_LOOP('',(#189,#190,#191,#192,#193));
#420=EDGE_LOOP('',(#194,#195,#196,#197));
#421=EDGE_LOOP('',(#198,#199,#200,#201));
#422=EDGE_LOOP('',(#202,#203,#204,#205));
#423=EDGE_LOOP('',(#206,#207,#208,#209));
#424=EDGE_LOOP('',(#210,#211,#212,#213,#214));
#425=EDGE_LOOP('',(#215));
#426=EDGE_LOOP('',(#216));
#427=EDGE_LOOP('',(#217));
#428=EDGE_LOOP('',(#218));
#429=EDGE_LOOP('',(#219));
#430=EDGE_LOOP('',(#220));
#431=EDGE_LOOP('',(#221));
#432=EDGE_LOOP('',(#222));
#433=EDGE_LOOP('',(#223));
#434=EDGE_LOOP('',(#224));
#435=EDGE_LOOP('',(#225));
#436=EDGE_LOOP('',(#226));
#437=EDGE_LOOP('',(#227));
#438=EDGE_LOOP('',(#228));
#439=EDGE_LOOP('',(#229));
#440=EDGE_LOOP('',(#230));
#441=EDGE_LOOP('',(#231));
#442=EDGE_LOOP('',(#232));
#443=EDGE_LOOP('',(#233));
#444=EDGE_LOOP('',(#234));
#445=FACE_BOUND('',#382,.T.);
#446=FACE_BOUND('',#383,.T.);
#447=FACE_BOUND('',#384,.T.);
#448=FACE_BOUND('',#385,.T.);
#449=FACE_BOUND('',#386,.T.);
#450=FACE_BOUND('',#387,.T.);
#451=FACE_BOUND('',#388,.T.);
#452=FACE_BOUND('',#389,.T.);
#453=FACE_BOUND('',#390,.T.);
#454=FACE_BOUND('',#391,.T.);
#455=FACE_BOUND('',#392,.T.);
#456=FACE_BOUND('',#393,.T.);
#457=FACE_BOUND('',#394,.T.);
#458=FACE_BOUND('',#395,.T.);
#459=FACE_BOUND('',#396,.T.);
#460=FACE_BOUND('',#397,.T.);
#461=FACE_BOUND('',#398,.T.);
#462=FACE_BOUND('',#399,.T.);
#463=FACE_BOUND('',#400,.T.);
#464=FACE_BOUND('',#401,.T.);
#465=FACE_BOUND('',#402,.T.);
#466=FACE_BOUND('',#403,.T.);
#467=FACE_BOUND('',#404,.T.);
#468=FACE_BOUND('',#405,.T.);
#469=FACE_BOUND('',#406,.T.);
#470=FACE_BOUND('',#407,.T.);
#471=FACE_BOUND('',#408,.T.);
#472=FACE_BOUND('',#409,.T.);
#473=FACE_BOUND('',#410,.T.);
#474=FACE_BOUND('',#411,.T.);
#475=FACE_BOUND('',#412,.T.);
#476=FACE_BOUND('',#413,.T.);
#477=FACE_BOUND('',#414,.T.);
#478=FACE_BOUND('',#415,.T.);
#479=FACE_BOUND('',#416,.T.);
#480=FACE_BOUND('',#417,.T.);
#481=FACE_BOUND('',#418,.T.);
#482=FACE_BOUND('',#419,.T.);
#483=FACE_BOUND('',#420,.T.);
#484=FACE_BOUND('',#421,.T.);
#485=FACE_BOUND('',#422,.T.);
#486=FACE_BOUND('',#423,.T.);
#487=FACE_BOUND('',#424,.T.);
#488=FACE_BOUND('',#425,.T.);
#489=FACE_BOUND('',#426,.T.);
#490=FACE_BOUND('',#427,.T.);
#491=FACE_BOUND('',#428,.T.);
#492=FACE_BOUND('',#429,.T.);
#493=FACE_BOUND('',#430,.T.);
#494=FACE_BOUND('',#431,.T.);
#495=FACE_BOUND('',#432,.T.);
#496=FACE_BOUND('',#433,.T.);
#497=FACE_BOUND('',#434,.T.);
#498=FACE_BOUND('',#435,.T.);
#499=FACE_BOUND('',#436,.T.);
#500=FACE_BOUND('',#437,.T.);
#501=FACE_BOUND('',#438,.T.);
#502=FACE_BOUND('',#439,.T.);
#503=FACE_BOUND('',#440,.T.);
#504=FACE_BOUND('',#441,.T.);
#505=FACE_BOUND('',#442,.T.);
#506=FACE_BOUND('',#443,.T.);
#507=FACE_BOUND('',#444,.T.);
#508=PLANE('',#562);
#509=PLANE('',#571);
#510=PLANE('',#580);
#511=PLANE('',#581);
#512=PLANE('',#582);
#513=PLANE('',#585);
#514=PLANE('',#586);
#515=PLANE('',#589);
#516=PLANE('',#592);
#517=PLANE('',#594);
#518=ADVANCED_FACE('',(#445,#446,#447,#448,#449,#450,#451,#452,#453),#508,
 .T.);
#519=ADVANCED_FACE('',(#454,#455,#456,#457,#458,#459,#460,#461,#462),#509,
 .T.);
#520=ADVANCED_FACE('',(#463),#510,.F.);
#521=ADVANCED_FACE('',(#464),#511,.F.);
#522=ADVANCED_FACE('',(#465,#466,#467),#512,.T.);
#523=ADVANCED_FACE('',(#468),#513,.T.);
#524=ADVANCED_FACE('',(#469,#470,#471),#514,.T.);
#525=ADVANCED_FACE('',(#472),#515,.T.);
#526=ADVANCED_FACE('',(#473),#516,.T.);
#527=ADVANCED_FACE('',(#474),#517,.F.);
#528=ADVANCED_FACE('',(#475,#476),#16,.F.);
#529=ADVANCED_FACE('',(#477,#478),#17,.F.);
#530=ADVANCED_FACE('',(#479),#18,.T.);
#531=ADVANCED_FACE('',(#480),#12,.T.);
#532=ADVANCED_FACE('',(#481),#19,.T.);
#533=ADVANCED_FACE('',(#482),#20,.T.);
#534=ADVANCED_FACE('',(#483),#21,.F.);
#535=ADVANCED_FACE('',(#484),#22,.T.);
#536=ADVANCED_FACE('',(#485),#23,.T.);
#537=ADVANCED_FACE('',(#486),#13,.T.);
#538=ADVANCED_FACE('',(#487),#24,.T.);
#539=ADVANCED_FACE('',(#488,#489),#14,.T.);
#540=ADVANCED_FACE('',(#490,#491),#15,.T.);
#541=ADVANCED_FACE('',(#492,#493),#25,.F.);
#542=ADVANCED_FACE('',(#494,#495),#26,.F.);
#543=ADVANCED_FACE('',(#496,#497),#27,.F.);
#544=ADVANCED_FACE('',(#498,#499),#28,.F.);
#545=ADVANCED_FACE('',(#500,#501),#29,.F.);
#546=ADVANCED_FACE('',(#502,#503),#30,.F.);
#547=ADVANCED_FACE('',(#504,#505),#31,.F.);
#548=ADVANCED_FACE('',(#506,#507),#32,.F.);
#549=CLOSED_SHELL('',(#518,#519,#520,#521,#522,#523,#524,#525,#526,#527,
#528,#529,#530,#531,#532,#533,#534,#535,#536,#537,#538,#539,#540,#541,#542,
#543,#544,#545,#546,#547,#548));
#550=STYLED_ITEM('',(#551),#558);
#551=PRESENTATION_STYLE_ASSIGNMENT((#552));
#552=SURFACE_STYLE_USAGE(.BOTH.,#553);
#553=SURFACE_SIDE_STYLE('',(#554));
#554=SURFACE_STYLE_FILL_AREA(#555);
#555=FILL_AREA_STYLE('',(#556));
#556=FILL_AREA_STYLE_COLOUR('',#557);
#557=COLOUR_RGB('',0.615686274509804,0.811764705882353,0.929411764705882);
#558=MANIFOLD_SOLID_BREP('gantry holder',#549);
#559=SHAPE_DEFINITION_REPRESENTATION(#951,#560);
#560=SHAPE_REPRESENTATION('gantry holder',(#561),#946);
#561=AXIS2_PLACEMENT_3D('',#796,#629,#630);
#562=AXIS2_PLACEMENT_3D('',#797,#631,#632);
#563=AXIS2_PLACEMENT_3D('',#798,#633,#634);
#564=AXIS2_PLACEMENT_3D('',#800,#635,#636);
#565=AXIS2_PLACEMENT_3D('',#802,#637,#638);
#566=AXIS2_PLACEMENT_3D('',#804,#639,#640);
#567=AXIS2_PLACEMENT_3D('',#806,#641,#642);
#568=AXIS2_PLACEMENT_3D('',#808,#643,#644);
#569=AXIS2_PLACEMENT_3D('',#810,#645,#646);
#570=AXIS2_PLACEMENT_3D('',#820,#651,#652);
#571=AXIS2_PLACEMENT_3D('',#822,#653,#654);
#572=AXIS2_PLACEMENT_3D('',#823,#655,#656);
#573=AXIS2_PLACEMENT_3D('',#825,#657,#658);
#574=AXIS2_PLACEMENT_3D('',#827,#659,#660);
#575=AXIS2_PLACEMENT_3D('',#829,#661,#662);
#576=AXIS2_PLACEMENT_3D('',#831,#663,#664);
#577=AXIS2_PLACEMENT_3D('',#833,#665,#666);
#578=AXIS2_PLACEMENT_3D('',#835,#667,#668);
#579=AXIS2_PLACEMENT_3D('',#845,#673,#674);
#580=AXIS2_PLACEMENT_3D('',#847,#675,#676);
#581=AXIS2_PLACEMENT_3D('',#853,#680,#681);
#582=AXIS2_PLACEMENT_3D('',#859,#685,#686);
#583=AXIS2_PLACEMENT_3D('',#860,#687,#688);
#584=AXIS2_PLACEMENT_3D('',#862,#689,#690);
#585=AXIS2_PLACEMENT_3D('',#869,#694,#695);
#586=AXIS2_PLACEMENT_3D('',#875,#699,#700);
#587=AXIS2_PLACEMENT_3D('',#876,#701,#702);
#588=AXIS2_PLACEMENT_3D('',#878,#703,#704);
#589=AXIS2_PLACEMENT_3D('',#888,#709,#710);
#590=AXIS2_PLACEMENT_3D('',#891,#712,#713);
#591=AXIS2_PLACEMENT_3D('',#895,#715,#716);
#592=AXIS2_PLACEMENT_3D('',#898,#718,#719);
#593=AXIS2_PLACEMENT_3D('',#899,#720,#721);
#594=AXIS2_PLACEMENT_3D('',#904,#724,#725);
#595=AXIS2_PLACEMENT_3D('',#907,#727,#728);
#596=AXIS2_PLACEMENT_3D('',#910,#730,#731);
#597=AXIS2_PLACEMENT_3D('',#911,#732,#733);
#598=AXIS2_PLACEMENT_3D('',#913,#734,#735);
#599=AXIS2_PLACEMENT_3D('',#914,#736,#737);
#600=AXIS2_PLACEMENT_3D('',#916,#738,#739);
#601=AXIS2_PLACEMENT_3D('',#917,#740,#741);
#602=AXIS2_PLACEMENT_3D('',#918,#742,#743);
#603=AXIS2_PLACEMENT_3D('',#919,#744,#745);
#604=AXIS2_PLACEMENT_3D('',#920,#746,#747);
#605=AXIS2_PLACEMENT_3D('',#921,#748,#749);
#606=AXIS2_PLACEMENT_3D('',#922,#750,#751);
#607=AXIS2_PLACEMENT_3D('',#923,#752,#753);
#608=AXIS2_PLACEMENT_3D('',#924,#754,#755);
#609=AXIS2_PLACEMENT_3D('',#925,#756,#757);
#610=AXIS2_PLACEMENT_3D('',#926,#758,#759);
#611=AXIS2_PLACEMENT_3D('',#927,#760,#761);
#612=AXIS2_PLACEMENT_3D('',#928,#762,#763);
#613=AXIS2_PLACEMENT_3D('',#929,#764,#765);
#614=AXIS2_PLACEMENT_3D('',#930,#766,#767);
#615=AXIS2_PLACEMENT_3D('',#931,#768,#769);
#616=AXIS2_PLACEMENT_3D('',#932,#770,#771);
#617=AXIS2_PLACEMENT_3D('',#933,#772,#773);
#618=AXIS2_PLACEMENT_3D('',#934,#774,#775);
#619=AXIS2_PLACEMENT_3D('',#935,#776,#777);
#620=AXIS2_PLACEMENT_3D('',#936,#778,#779);
#621=AXIS2_PLACEMENT_3D('',#937,#780,#781);
#622=AXIS2_PLACEMENT_3D('',#938,#782,#783);
#623=AXIS2_PLACEMENT_3D('',#939,#784,#785);
#624=AXIS2_PLACEMENT_3D('',#940,#786,#787);
#625=AXIS2_PLACEMENT_3D('',#941,#788,#789);
#626=AXIS2_PLACEMENT_3D('',#942,#790,#791);
#627=AXIS2_PLACEMENT_3D('',#943,#792,#793);
#628=AXIS2_PLACEMENT_3D('',#944,#794,#795);
#629=DIRECTION('',(0.,0.,1.));
#630=DIRECTION('',(1.,0.,0.));
#631=DIRECTION('',(-1.,0.,0.));
#632=DIRECTION('',(0.,0.,1.));
#633=DIRECTION('',(-1.,0.,0.));
#634=DIRECTION('',(0.,0.,1.));
#635=DIRECTION('',(-1.,0.,0.));
#636=DIRECTION('',(0.,0.,1.));
#637=DIRECTION('',(-1.,0.,0.));
#638=DIRECTION('',(0.,0.,1.));
#639=DIRECTION('',(-1.,0.,0.));
#640=DIRECTION('',(0.,0.,1.));
#641=DIRECTION('',(-1.,0.,0.));
#642=DIRECTION('',(0.,0.,1.));
#643=DIRECTION('',(-1.,0.,0.));
#644=DIRECTION('',(0.,0.,1.));
#645=DIRECTION('',(-1.,0.,0.));
#646=DIRECTION('',(0.,0.,1.));
#647=DIRECTION('',(0.,0.,1.));
#648=DIRECTION('',(0.,1.,0.));
#649=DIRECTION('',(0.,0.,1.));
#650=DIRECTION('',(0.,1.,0.));
#651=DIRECTION('',(-1.,0.,0.));
#652=DIRECTION('',(0.,0.,1.));
#653=DIRECTION('',(1.,0.,0.));
#654=DIRECTION('',(0.,0.,-1.));
#655=DIRECTION('',(-1.,0.,0.));
#656=DIRECTION('',(0.,0.,-1.));
#657=DIRECTION('',(-1.,0.,0.));
#658=DIRECTION('',(0.,0.,-1.));
#659=DIRECTION('',(1.,0.,0.));
#660=DIRECTION('',(0.,0.,-1.));
#661=DIRECTION('',(-1.,0.,0.));
#662=DIRECTION('',(0.,0.,-1.));
#663=DIRECTION('',(-1.,0.,0.));
#664=DIRECTION('',(0.,0.,-1.));
#665=DIRECTION('',(1.,0.,0.));
#666=DIRECTION('',(0.,0.,-1.));
#667=DIRECTION('',(1.,0.,0.));
#668=DIRECTION('',(0.,0.,-1.));
#669=DIRECTION('',(0.,0.,-1.));
#670=DIRECTION('',(0.,1.,0.));
#671=DIRECTION('',(0.,0.,-1.));
#672=DIRECTION('',(0.,1.,0.));
#673=DIRECTION('',(1.,0.,0.));
#674=DIRECTION('',(0.,0.,-1.));
#675=DIRECTION('',(0.,0.,1.));
#676=DIRECTION('',(1.,0.,0.));
#677=DIRECTION('',(1.,0.,0.));
#678=DIRECTION('',(0.,1.,0.));
#679=DIRECTION('',(1.,0.,0.));
#680=DIRECTION('',(-1.,0.,0.));
#681=DIRECTION('',(0.,0.,1.));
#682=DIRECTION('',(0.,0.,1.));
#683=DIRECTION('',(0.,1.,0.));
#684=DIRECTION('',(0.,0.,1.));
#685=DIRECTION('',(0.,0.,-1.));
#686=DIRECTION('',(-1.,0.,0.));
#687=DIRECTION('',(0.,0.,-1.));
#688=DIRECTION('',(-1.,0.,0.));
#689=DIRECTION('',(0.,0.,-1.));
#690=DIRECTION('',(-1.,0.,0.));
#691=DIRECTION('',(-1.,0.,0.));
#692=DIRECTION('',(0.,1.,0.));
#693=DIRECTION('',(-1.,0.,0.));
#694=DIRECTION('',(1.,0.,0.));
#695=DIRECTION('',(0.,0.,-1.));
#696=DIRECTION('',(0.,0.,-1.));
#697=DIRECTION('',(0.,1.,0.));
#698=DIRECTION('',(0.,0.,-1.));
#699=DIRECTION('',(0.,0.,1.));
#700=DIRECTION('',(1.,0.,0.));
#701=DIRECTION('',(0.,0.,1.));
#702=DIRECTION('',(1.,0.,0.));
#703=DIRECTION('',(0.,0.,1.));
#704=DIRECTION('',(1.,0.,0.));
#705=DIRECTION('',(1.,0.,0.));
#706=DIRECTION('',(0.,1.,0.));
#707=DIRECTION('',(1.,0.,0.));
#708=DIRECTION('',(0.,1.,0.));
#709=DIRECTION('',(0.87044582529766,0.,0.492264222975706));
#710=DIRECTION('',(0.492264222975706,0.,-0.87044582529766));
#711=DIRECTION('',(0.492264222975706,0.,-0.87044582529766));
#712=DIRECTION('',(0.87044582529766,0.,0.492264222975706));
#713=DIRECTION('',(0.492264222975706,0.,-0.87044582529766));
#714=DIRECTION('',(0.,1.,0.));
#715=DIRECTION('',(0.87044582529766,0.,0.492264222975706));
#716=DIRECTION('',(-0.492264222975706,0.,0.87044582529766));
#717=DIRECTION('',(0.492264222975706,0.,-0.87044582529766));
#718=DIRECTION('',(0.,-1.,0.));
#719=DIRECTION('',(1.,0.,0.));
#720=DIRECTION('',(0.,-1.,0.));
#721=DIRECTION('',(0.,0.,-1.));
#722=DIRECTION('',(0.,0.,-1.));
#723=DIRECTION('',(1.,0.,0.));
#724=DIRECTION('',(0.,-1.,0.));
#725=DIRECTION('',(1.,0.,0.));
#726=DIRECTION('',(0.,0.,-1.));
#727=DIRECTION('',(0.,-1.,0.));
#728=DIRECTION('',(0.,0.,-1.));
#729=DIRECTION('',(1.,0.,0.));
#730=DIRECTION('',(0.,0.,1.));
#731=DIRECTION('',(1.,0.,0.));
#732=DIRECTION('',(0.,0.,1.));
#733=DIRECTION('',(1.,0.,0.));
#734=DIRECTION('',(0.,0.,1.));
#735=DIRECTION('',(1.,0.,0.));
#736=DIRECTION('',(0.,0.,1.));
#737=DIRECTION('',(1.,0.,0.));
#738=DIRECTION('',(-1.,0.,0.));
#739=DIRECTION('',(0.,0.,1.));
#740=DIRECTION('',(-0.707106781186548,0.707106781186548,0.));
#741=DIRECTION('',(0.707106781186548,0.707106781186548,0.));
#742=DIRECTION('',(-1.,0.,0.));
#743=DIRECTION('',(0.,0.,1.));
#744=DIRECTION('',(0.,-1.,0.));
#745=DIRECTION('',(0.,0.,-1.));
#746=DIRECTION('',(0.,0.,-1.));
#747=DIRECTION('',(-1.,0.,0.));
#748=DIRECTION('',(0.,-1.,0.));
#749=DIRECTION('',(0.,0.,-1.));
#750=DIRECTION('',(0.,1.,0.));
#751=DIRECTION('',(0.,0.,1.));
#752=DIRECTION('',(0.707106781186548,0.707106781186548,0.));
#753=DIRECTION('',(-0.707106781186548,0.707106781186548,0.));
#754=DIRECTION('',(0.,0.,1.));
#755=DIRECTION('',(1.,0.,0.));
#756=DIRECTION('',(0.,0.707106781186548,-0.707106781186548));
#757=DIRECTION('',(0.,0.707106781186548,0.707106781186548));
#758=DIRECTION('',(0.,-1.,0.));
#759=DIRECTION('',(0.,0.,-1.));
#760=DIRECTION('',(0.,-1.,0.));
#761=DIRECTION('',(0.,0.,-1.));
#762=DIRECTION('',(1.,0.,0.));
#763=DIRECTION('',(0.,0.,-1.));
#764=DIRECTION('',(-1.,0.,0.));
#765=DIRECTION('',(0.,0.,1.));
#766=DIRECTION('',(0.,1.,0.));
#767=DIRECTION('',(0.,0.,1.));
#768=DIRECTION('',(0.,0.707106781186548,0.707106781186548));
#769=DIRECTION('',(0.,0.707106781186548,-0.707106781186548));
#770=DIRECTION('',(0.,-1.,0.));
#771=DIRECTION('',(0.,0.,-1.));
#772=DIRECTION('',(0.,0.,-1.));
#773=DIRECTION('',(-1.,0.,0.));
#774=DIRECTION('',(0.,0.,-1.));
#775=DIRECTION('',(-1.,0.,0.));
#776=DIRECTION('',(0.,0.,1.));
#777=DIRECTION('',(1.,0.,0.));
#778=DIRECTION('',(0.,0.,1.));
#779=DIRECTION('',(1.,0.,0.));
#780=DIRECTION('',(1.,0.,0.));
#781=DIRECTION('',(0.,0.,-1.));
#782=DIRECTION('',(1.,0.,0.));
#783=DIRECTION('',(0.,0.,-1.));
#784=DIRECTION('',(1.,0.,0.));
#785=DIRECTION('',(0.,0.,-1.));
#786=DIRECTION('',(1.,0.,0.));
#787=DIRECTION('',(0.,0.,-1.));
#788=DIRECTION('',(1.,0.,0.));
#789=DIRECTION('',(0.,0.,-1.));
#790=DIRECTION('',(1.,0.,0.));
#791=DIRECTION('',(0.,0.,-1.));
#792=DIRECTION('',(1.,0.,0.));
#793=DIRECTION('',(0.,0.,-1.));
#794=DIRECTION('',(1.,0.,0.));
#795=DIRECTION('',(0.,0.,-1.));
#796=CARTESIAN_POINT('',(0.,0.,0.));
#797=CARTESIAN_POINT('',(-0.0102539332583547,-0.0254,0.105296388268471));
#798=CARTESIAN_POINT('',(-0.0102539332583547,-0.007874,0.168124909388661));
#799=CARTESIAN_POINT('',(-0.0102539332583547,-0.007874,0.170664909388661));
#800=CARTESIAN_POINT('',(-0.0102539332583547,0.00762,0.152630909388662));
#801=CARTESIAN_POINT('',(-0.0102539332583547,0.00762,0.159615909388661));
#802=CARTESIAN_POINT('',(-0.0102539332583547,-0.00762,0.152630909388662));
#803=CARTESIAN_POINT('',(-0.0102539332583547,-0.00762,0.159615909388661));
#804=CARTESIAN_POINT('',(-0.0102539332583547,0.00762,0.178030909388662));
#805=CARTESIAN_POINT('',(-0.0102539332583547,0.00762,0.181967909388662));
#806=CARTESIAN_POINT('',(-0.0102539332583547,0.00762,0.127230909388661));
#807=CARTESIAN_POINT('',(-0.0102539332583547,0.00762,0.131167909388661));
#808=CARTESIAN_POINT('',(-0.0102539332583547,-0.00762,0.178030909388662));
#809=CARTESIAN_POINT('',(-0.0102539332583547,-0.00762,0.181967909388662));
#810=CARTESIAN_POINT('',(-0.0102539332583547,-0.00762,0.127230909388661));
#811=CARTESIAN_POINT('',(-0.0102539332583547,-0.00762,0.131167909388661));
#812=CARTESIAN_POINT('',(-0.0102539332583547,0.0254,0.105296388268471));
#813=CARTESIAN_POINT('',(-0.0102539332583547,0.0254,-0.0216724686324597));
#814=CARTESIAN_POINT('',(-0.0102539332583546,0.0254,0.210592776536942));
#815=CARTESIAN_POINT('',(-0.0102539332583547,-0.0254,-0.0216724686324597));
#816=CARTESIAN_POINT('',(-0.0102539332583547,-0.0254,-0.0216724686324597));
#817=CARTESIAN_POINT('',(-0.0102539332583547,-0.0254,0.105296388268471));
#818=CARTESIAN_POINT('',(-0.0102539332583546,-0.0254,0.210592776536942));
#819=CARTESIAN_POINT('',(-0.0102539332583546,-0.0254,0.210592776536942));
#820=CARTESIAN_POINT('',(-0.0102539332583547,-0.007874,0.137136909388661));
#821=CARTESIAN_POINT('',(-0.0102539332583547,-0.007874,0.139676909388661));
#822=CARTESIAN_POINT('',(0.,-0.0254,0.101426088251173));
#823=CARTESIAN_POINT('',(0.,-0.007874,0.168124909388661));
#824=CARTESIAN_POINT('',(0.,-0.007874,0.165584909388661));
#825=CARTESIAN_POINT('',(0.,0.00762,0.152630909388662));
#826=CARTESIAN_POINT('',(0.,0.00762,0.145645909388662));
#827=CARTESIAN_POINT('',(0.,-0.00762,0.152630909388662));
#828=CARTESIAN_POINT('',(0.,-0.00762,0.145645909388662));
#829=CARTESIAN_POINT('',(0.,0.00762,0.178030909388662));
#830=CARTESIAN_POINT('',(0.,0.00762,0.174093909388662));
#831=CARTESIAN_POINT('',(0.,0.00762,0.127230909388661));
#832=CARTESIAN_POINT('',(0.,0.00762,0.123293909388661));
#833=CARTESIAN_POINT('',(0.,-0.00762,0.178030909388662));
#834=CARTESIAN_POINT('',(0.,-0.00762,0.174093909388662));
#835=CARTESIAN_POINT('',(0.,-0.00762,0.127230909388661));
#836=CARTESIAN_POINT('',(0.,-0.00762,0.123293909388661));
#837=CARTESIAN_POINT('',(0.,0.02286,0.192461267113685));
#838=CARTESIAN_POINT('',(0.,0.02286,0.0129309093886614));
#839=CARTESIAN_POINT('',(0.,0.02286,0.191792789518961));
#840=CARTESIAN_POINT('',(0.,-0.0254,0.191792789518961));
#841=CARTESIAN_POINT('',(0.,-0.02286,0.191792789518961));
#842=CARTESIAN_POINT('',(0.,-0.02286,0.101426088251173));
#843=CARTESIAN_POINT('',(0.,-0.02286,0.0129309093886614));
#844=CARTESIAN_POINT('',(0.,0.0254,0.0129309093886614));
#845=CARTESIAN_POINT('',(0.,-0.007874,0.137136909388661));
#846=CARTESIAN_POINT('',(0.,-0.007874,0.134596909388661));
#847=CARTESIAN_POINT('',(-0.00512696662917733,-0.0254,-0.0216724686324597));
#848=CARTESIAN_POINT('',(-0.00512696662917733,0.0254,-0.0216724686324597));
#849=CARTESIAN_POINT('',(0.,0.0254,-0.0216724686324597));
#850=CARTESIAN_POINT('',(0.,-0.0254,-0.0216724686324597));
#851=CARTESIAN_POINT('',(0.,-0.0254,-0.0216724686324597));
#852=CARTESIAN_POINT('',(-0.00512696662917733,-0.0254,-0.0216724686324597));
#853=CARTESIAN_POINT('',(0.,-0.0254,-0.0108362343162298));
#854=CARTESIAN_POINT('',(0.,0.0254,-0.0108362343162298));
#855=CARTESIAN_POINT('',(0.,0.0254,0.));
#856=CARTESIAN_POINT('',(0.,-0.0254,0.));
#857=CARTESIAN_POINT('',(0.,-0.0254,0.));
#858=CARTESIAN_POINT('',(0.,-0.0254,-0.0108362343162298));
#859=CARTESIAN_POINT('',(0.0133659169077873,-0.0254,0.));
#860=CARTESIAN_POINT('',(0.0133659169077873,-0.0125086162166524,0.));
#861=CARTESIAN_POINT('',(0.00948118655736685,-0.0125086162166524,0.));
#862=CARTESIAN_POINT('',(0.0133659169077873,0.0108188352799842,0.));
#863=CARTESIAN_POINT('',(0.00948118655736685,0.0108188352799842,0.));
#864=CARTESIAN_POINT('',(0.0133659169077873,0.0254,0.));
#865=CARTESIAN_POINT('',(0.0267318338155745,0.0254,0.));
#866=CARTESIAN_POINT('',(0.0267318338155745,-0.0254,0.));
#867=CARTESIAN_POINT('',(0.0267318338155745,-0.0254,0.));
#868=CARTESIAN_POINT('',(0.0133659169077873,-0.0254,0.));
#869=CARTESIAN_POINT('',(0.0267318338155745,-0.0254,0.00519545469433069));
#870=CARTESIAN_POINT('',(0.0267318338155745,0.0254,0.00519545469433069));
#871=CARTESIAN_POINT('',(0.0267318338155745,0.0254,0.00785090938866138));
#872=CARTESIAN_POINT('',(0.0267318338155745,-0.0254,0.00785090938866138));
#873=CARTESIAN_POINT('',(0.0267318338155745,-0.0254,0.00785090938866138));
#874=CARTESIAN_POINT('',(0.0267318338155745,-0.0254,0.00519545469433069));
#875=CARTESIAN_POINT('',(0.0133659169077873,-0.0254,0.0103909093886614));
#876=CARTESIAN_POINT('',(0.0133659169077873,0.0108188352799842,0.0103909093886614));
#877=CARTESIAN_POINT('',(0.0197906472582077,0.0108188352799842,0.0103909093886614));
#878=CARTESIAN_POINT('',(0.0133659169077873,-0.0125086162166524,0.0103909093886614));
#879=CARTESIAN_POINT('',(0.0197906472582077,-0.0125086162166524,0.0103909093886614));
#880=CARTESIAN_POINT('',(0.0133659169077873,-0.02286,0.0103909093886614));
#881=CARTESIAN_POINT('',(0.00254,-0.02286,0.0103909093886614));
#882=CARTESIAN_POINT('',(0.0241918338155745,-0.02286,0.0103909093886614));
#883=CARTESIAN_POINT('',(0.0241918338155745,-0.0254,0.0103909093886614));
#884=CARTESIAN_POINT('',(0.0241918338155745,0.02286,0.0103909093886614));
#885=CARTESIAN_POINT('',(0.,0.02286,0.0103909093886614));
#886=CARTESIAN_POINT('',(0.00254,0.02286,0.0103909093886614));
#887=CARTESIAN_POINT('',(0.00254,-0.0254,0.0103909093886614));
#888=CARTESIAN_POINT('',(-0.00512696662917722,-0.0254,0.201527021825314));
#889=CARTESIAN_POINT('',(-0.00512696662917722,-0.0254,0.201527021825314));
#890=CARTESIAN_POINT('',(-0.00254,-0.0254,0.196952620116939));
#891=CARTESIAN_POINT('',(-0.00254,-0.02286,0.196952620116939));
#892=CARTESIAN_POINT('',(-0.000329067603743938,-0.0241103511263583,0.193043140645319));
#893=CARTESIAN_POINT('',(-0.000329067603743938,-0.0254,0.193043140645319));
#894=CARTESIAN_POINT('',(-0.000329067603743938,0.0241103511263583,0.193043140645319));
#895=CARTESIAN_POINT('',(-0.00254,0.02286,0.196952620116939));
#896=CARTESIAN_POINT('',(-0.00254,0.0254,0.196952620116939));
#897=CARTESIAN_POINT('',(-0.00512696662917722,0.0254,0.201527021825314));
#898=CARTESIAN_POINT('',(0.00823895027860993,-0.0254,0.0944601539522409));
#899=CARTESIAN_POINT('',(0.00254,-0.0254,0.0129309093886614));
#900=CARTESIAN_POINT('',(-0.00254,-0.0254,0.0129309093886614));
#901=CARTESIAN_POINT('',(0.00254,-0.0254,0.00785090938866138));
#902=CARTESIAN_POINT('',(-0.00254,-0.0254,0.0944601539522409));
#903=CARTESIAN_POINT('',(0.00823895027860993,-0.0254,0.00785090938866138));
#904=CARTESIAN_POINT('',(0.00823895027860993,0.0254,0.0944601539522409));
#905=CARTESIAN_POINT('',(-0.00254,0.0254,0.0103909093886614));
#906=CARTESIAN_POINT('',(-0.00254,0.0254,0.0129309093886614));
#907=CARTESIAN_POINT('',(0.00254,0.0254,0.0129309093886614));
#908=CARTESIAN_POINT('',(0.00254,0.0254,0.00785090938866138));
#909=CARTESIAN_POINT('',(0.0267318338155745,0.0254,0.00785090938866138));
#910=CARTESIAN_POINT('',(0.0133659169077873,0.0108188352799842,-0.0150090906113386));
#911=CARTESIAN_POINT('',(0.0133659169077873,0.0108188352799842,0.00785090938866137));
#912=CARTESIAN_POINT('',(0.0172506472582077,0.0108188352799842,0.00785090938866137));
#913=CARTESIAN_POINT('',(0.0133659169077873,-0.0125086162166524,-0.0150090906113386));
#914=CARTESIAN_POINT('',(0.0133659169077873,-0.0125086162166524,0.00785090938866137));
#915=CARTESIAN_POINT('',(0.0172506472582077,-0.0125086162166524,0.00785090938866137));
#916=CARTESIAN_POINT('',(0.00823895027860993,0.02286,0.00785090938866138));
#917=CARTESIAN_POINT('',(0.0241918338155745,0.02286,0.00785090938866138));
#918=CARTESIAN_POINT('',(0.00254,0.02286,0.00785090938866138));
#919=CARTESIAN_POINT('',(0.00254,0.02286,0.0129309093886614));
#920=CARTESIAN_POINT('',(-0.00254,0.02286,0.0129309093886614));
#921=CARTESIAN_POINT('',(0.00254,0.02286,0.0129309093886614));
#922=CARTESIAN_POINT('',(0.0241918338155745,-0.0254,0.00785090938866138));
#923=CARTESIAN_POINT('',(0.0241918338155745,-0.02286,0.00785090938866138));
#924=CARTESIAN_POINT('',(-0.00254,0.02286,0.0944601539522409));
#925=CARTESIAN_POINT('',(-0.00254,0.02286,0.191792789518961));
#926=CARTESIAN_POINT('',(0.00254,-0.0254,0.0129309093886614));
#927=CARTESIAN_POINT('',(0.00254,-0.02286,0.0129309093886614));
#928=CARTESIAN_POINT('',(0.0133659169077873,-0.02286,0.00785090938866138));
#929=CARTESIAN_POINT('',(0.00254,-0.02286,0.00785090938866138));
#930=CARTESIAN_POINT('',(-0.00254,-0.0254,0.191792789518961));
#931=CARTESIAN_POINT('',(-0.00254,-0.02286,0.191792789518961));
#932=CARTESIAN_POINT('',(0.00254,-0.02286,0.0129309093886614));
#933=CARTESIAN_POINT('',(-0.00254,-0.02286,0.0129309093886614));
#934=CARTESIAN_POINT('',(-0.00254,-0.02286,0.101426088251173));
#935=CARTESIAN_POINT('',(0.0133659169077873,0.0108188352799842,0.00785090938866138));
#936=CARTESIAN_POINT('',(0.0133659169077873,-0.0125086162166524,0.00785090938866138));
#937=CARTESIAN_POINT('',(-0.0254,-0.00762,0.127230909388661));
#938=CARTESIAN_POINT('',(-0.0254,-0.00762,0.178030909388662));
#939=CARTESIAN_POINT('',(-0.0254,0.00762,0.127230909388661));
#940=CARTESIAN_POINT('',(-0.0254,0.00762,0.178030909388662));
#941=CARTESIAN_POINT('',(-0.0254,-0.00762,0.152630909388662));
#942=CARTESIAN_POINT('',(-0.0254,0.00762,0.152630909388662));
#943=CARTESIAN_POINT('',(-0.0254,-0.007874,0.168124909388661));
#944=CARTESIAN_POINT('',(-0.0254,-0.007874,0.137136909388661));
#945=MECHANICAL_DESIGN_GEOMETRIC_PRESENTATION_REPRESENTATION('',(#550),
#946);
#946=(
GEOMETRIC_REPRESENTATION_CONTEXT(3)
GLOBAL_UNCERTAINTY_ASSIGNED_CONTEXT((#947))
GLOBAL_UNIT_ASSIGNED_CONTEXT((#950,#949,#948))
REPRESENTATION_CONTEXT('gantry holder','TOP_LEVEL_ASSEMBLY_PART')
);
#947=UNCERTAINTY_MEASURE_WITH_UNIT(LENGTH_MEASURE(1.E-8),#950,
'DISTANCE_ACCURACY_VALUE','Maximum Tolerance applied to model');
#948=(
NAMED_UNIT(*)
SI_UNIT($,.STERADIAN.)
SOLID_ANGLE_UNIT()
);
#949=(
NAMED_UNIT(*)
PLANE_ANGLE_UNIT()
SI_UNIT($,.RADIAN.)
);
#950=(
LENGTH_UNIT()
NAMED_UNIT(*)
SI_UNIT($,.METRE.)
);
#951=PRODUCT_DEFINITION_SHAPE('','',#952);
#952=PRODUCT_DEFINITION('','',#954,#953);
#953=PRODUCT_DEFINITION_CONTEXT('',#960,'design');
#954=PRODUCT_DEFINITION_FORMATION_WITH_SPECIFIED_SOURCE('','',#956,
 .NOT_KNOWN.);
#955=PRODUCT_RELATED_PRODUCT_CATEGORY('','',(#956));
#956=PRODUCT('gantry holder','gantry holder','gantry holder',(#958));
#957=PRODUCT_CATEGORY('','');
#958=PRODUCT_CONTEXT('',#960,'mechanical');
#959=APPLICATION_PROTOCOL_DEFINITION('international standard',
'ap242_managed_model_based_3d_engineering',2020,#960);
#960=APPLICATION_CONTEXT('managed model based 3d engineering');
ENDSEC;
END-ISO-10303-21;
