ISO-10303-21;
HEADER;
/* Generated by software containing ST-Developer
 * from STEP Tools, Inc. (www.steptools.com) 
 */
/* OPTION: using custom renumber hook */

FILE_DESCRIPTION(
/* description */ ('STEP AP242 Edition 2',
'CAx-IF Rec.Pracs.---Representation and Presentation of Product Manufa
cturing Information (PMI)---4.0---2014-10-13',
'CAx-IF Rec.Pracs.---3D Tessellated Geometry---0.4---2014-09-14','2;1',
'CAx-IF Rec.Pracs.---User Defined Attributes---1.5---2016-08-15'),
/* implementation_level */ '2;1');

FILE_NAME(
/* name */ 'limit switch - limit switch',
/* time_stamp */ '2026-08-14T04:14:00Z',
/* author */ (''),
/* organization */ (''),
/* preprocessor_version */ 'ST-DEVELOPER v20',
/* originating_system */ 'ONSHAPE BY PTC INC, 1.219',
/* authorisation */ '  ');

FILE_SCHEMA (('AP242_MANAGED_MODEL_BASED_3D_ENGINEERING_MIM_LF { 1 0 10303 442 3 1 4 }'));
ENDSEC;

DATA;
#10=SHAPE_REPRESENTATION_RELATIONSHIP('','',#506,#11);
#11=ADVANCED_BREP_SHAPE_REPRESENTATION('',(#504),#816);
#12=CYLINDRICAL_SURFACE('',#533,0.00103400632941054);
#13=CYLINDRICAL_SURFACE('',#534,0.00103400632941054);
#14=CIRCLE('',#528,0.00103400632941054);
#15=CIRCLE('',#529,0.00103400632941054);
#16=CIRCLE('',#531,0.00103400632941054);
#17=CIRCLE('',#532,0.00103400632941054);
#18=B_SPLINE_CURVE_WITH_KNOTS('',2,(#670,#671,#672),.UNSPECIFIED.,.F.,.F.,
(3,3),(0.,0.169766660675025),.PIECEWISE_BEZIER_KNOTS.);
#19=B_SPLINE_CURVE_WITH_KNOTS('',2,(#676,#677,#678),.UNSPECIFIED.,.F.,.F.,
(3,3),(0.,0.169766660675025),.PIECEWISE_BEZIER_KNOTS.);
#20=B_SPLINE_CURVE_WITH_KNOTS('',2,(#789,#790,#791),.UNSPECIFIED.,.F.,.F.,
(3,3),(0.335154138571928,1.),.PIECEWISE_BEZIER_KNOTS.);
#21=B_SPLINE_CURVE_WITH_KNOTS('',2,(#795,#796,#797),.UNSPECIFIED.,.F.,.F.,
(3,3),(0.335154138571928,1.),.PIECEWISE_BEZIER_KNOTS.);
#22=B_SPLINE_SURFACE_WITH_KNOTS('',3,1,((#662,#663),(#664,#665),(#666,#667),
(#668,#669)),.SURF_OF_LINEAR_EXTRUSION.,.F.,.F.,.F.,(4,4),(2,2),(0.,0.169766660675025),
(0.,1.),.PIECEWISE_BEZIER_KNOTS.);
#23=B_SPLINE_SURFACE_WITH_KNOTS('',3,1,((#781,#782),(#783,#784),(#785,#786),
(#787,#788)),.SURF_OF_LINEAR_EXTRUSION.,.F.,.F.,.F.,(4,4),(2,2),(0.335154138571928,
1.),(0.,1.),.PIECEWISE_BEZIER_KNOTS.);
#24=ORIENTED_EDGE('',*,*,#162,.F.);
#25=ORIENTED_EDGE('',*,*,#163,.T.);
#26=ORIENTED_EDGE('',*,*,#164,.T.);
#27=ORIENTED_EDGE('',*,*,#165,.F.);
#28=ORIENTED_EDGE('',*,*,#166,.F.);
#29=ORIENTED_EDGE('',*,*,#167,.F.);
#30=ORIENTED_EDGE('',*,*,#168,.T.);
#31=ORIENTED_EDGE('',*,*,#165,.T.);
#32=ORIENTED_EDGE('',*,*,#169,.T.);
#33=ORIENTED_EDGE('',*,*,#170,.F.);
#34=ORIENTED_EDGE('',*,*,#171,.F.);
#35=ORIENTED_EDGE('',*,*,#167,.T.);
#36=ORIENTED_EDGE('',*,*,#172,.T.);
#37=ORIENTED_EDGE('',*,*,#173,.F.);
#38=ORIENTED_EDGE('',*,*,#174,.F.);
#39=ORIENTED_EDGE('',*,*,#170,.T.);
#40=ORIENTED_EDGE('',*,*,#175,.F.);
#41=ORIENTED_EDGE('',*,*,#176,.F.);
#42=ORIENTED_EDGE('',*,*,#177,.T.);
#43=ORIENTED_EDGE('',*,*,#173,.T.);
#44=ORIENTED_EDGE('',*,*,#178,.F.);
#45=ORIENTED_EDGE('',*,*,#179,.F.);
#46=ORIENTED_EDGE('',*,*,#180,.T.);
#47=ORIENTED_EDGE('',*,*,#176,.T.);
#48=ORIENTED_EDGE('',*,*,#181,.F.);
#49=ORIENTED_EDGE('',*,*,#182,.F.);
#50=ORIENTED_EDGE('',*,*,#183,.T.);
#51=ORIENTED_EDGE('',*,*,#179,.T.);
#52=ORIENTED_EDGE('',*,*,#184,.F.);
#53=ORIENTED_EDGE('',*,*,#185,.F.);
#54=ORIENTED_EDGE('',*,*,#186,.T.);
#55=ORIENTED_EDGE('',*,*,#182,.T.);
#56=ORIENTED_EDGE('',*,*,#187,.F.);
#57=ORIENTED_EDGE('',*,*,#188,.F.);
#58=ORIENTED_EDGE('',*,*,#189,.T.);
#59=ORIENTED_EDGE('',*,*,#185,.T.);
#60=ORIENTED_EDGE('',*,*,#190,.F.);
#61=ORIENTED_EDGE('',*,*,#191,.F.);
#62=ORIENTED_EDGE('',*,*,#192,.T.);
#63=ORIENTED_EDGE('',*,*,#188,.T.);
#64=ORIENTED_EDGE('',*,*,#193,.F.);
#65=ORIENTED_EDGE('',*,*,#194,.F.);
#66=ORIENTED_EDGE('',*,*,#195,.T.);
#67=ORIENTED_EDGE('',*,*,#191,.T.);
#68=ORIENTED_EDGE('',*,*,#196,.F.);
#69=ORIENTED_EDGE('',*,*,#197,.F.);
#70=ORIENTED_EDGE('',*,*,#198,.T.);
#71=ORIENTED_EDGE('',*,*,#194,.T.);
#72=ORIENTED_EDGE('',*,*,#199,.F.);
#73=ORIENTED_EDGE('',*,*,#200,.F.);
#74=ORIENTED_EDGE('',*,*,#201,.T.);
#75=ORIENTED_EDGE('',*,*,#197,.T.);
#76=ORIENTED_EDGE('',*,*,#202,.F.);
#77=ORIENTED_EDGE('',*,*,#203,.F.);
#78=ORIENTED_EDGE('',*,*,#204,.T.);
#79=ORIENTED_EDGE('',*,*,#200,.T.);
#80=ORIENTED_EDGE('',*,*,#205,.F.);
#81=ORIENTED_EDGE('',*,*,#206,.F.);
#82=ORIENTED_EDGE('',*,*,#207,.T.);
#83=ORIENTED_EDGE('',*,*,#203,.T.);
#84=ORIENTED_EDGE('',*,*,#208,.F.);
#85=ORIENTED_EDGE('',*,*,#209,.F.);
#86=ORIENTED_EDGE('',*,*,#210,.T.);
#87=ORIENTED_EDGE('',*,*,#206,.T.);
#88=ORIENTED_EDGE('',*,*,#211,.F.);
#89=ORIENTED_EDGE('',*,*,#212,.F.);
#90=ORIENTED_EDGE('',*,*,#213,.T.);
#91=ORIENTED_EDGE('',*,*,#209,.T.);
#92=ORIENTED_EDGE('',*,*,#214,.F.);
#93=ORIENTED_EDGE('',*,*,#215,.F.);
#94=ORIENTED_EDGE('',*,*,#216,.T.);
#95=ORIENTED_EDGE('',*,*,#212,.T.);
#96=ORIENTED_EDGE('',*,*,#217,.T.);
#97=ORIENTED_EDGE('',*,*,#218,.F.);
#98=ORIENTED_EDGE('',*,*,#219,.F.);
#99=ORIENTED_EDGE('',*,*,#215,.T.);
#100=ORIENTED_EDGE('',*,*,#220,.F.);
#101=ORIENTED_EDGE('',*,*,#221,.F.);
#102=ORIENTED_EDGE('',*,*,#222,.T.);
#103=ORIENTED_EDGE('',*,*,#218,.T.);
#104=ORIENTED_EDGE('',*,*,#223,.T.);
#105=ORIENTED_EDGE('',*,*,#224,.T.);
#106=ORIENTED_EDGE('',*,*,#225,.F.);
#107=ORIENTED_EDGE('',*,*,#221,.T.);
#108=ORIENTED_EDGE('',*,*,#226,.T.);
#109=ORIENTED_EDGE('',*,*,#227,.T.);
#110=ORIENTED_EDGE('',*,*,#162,.T.);
#111=ORIENTED_EDGE('',*,*,#168,.F.);
#112=ORIENTED_EDGE('',*,*,#171,.T.);
#113=ORIENTED_EDGE('',*,*,#174,.T.);
#114=ORIENTED_EDGE('',*,*,#177,.F.);
#115=ORIENTED_EDGE('',*,*,#180,.F.);
#116=ORIENTED_EDGE('',*,*,#183,.F.);
#117=ORIENTED_EDGE('',*,*,#186,.F.);
#118=ORIENTED_EDGE('',*,*,#189,.F.);
#119=ORIENTED_EDGE('',*,*,#192,.F.);
#120=ORIENTED_EDGE('',*,*,#195,.F.);
#121=ORIENTED_EDGE('',*,*,#198,.F.);
#122=ORIENTED_EDGE('',*,*,#201,.F.);
#123=ORIENTED_EDGE('',*,*,#204,.F.);
#124=ORIENTED_EDGE('',*,*,#207,.F.);
#125=ORIENTED_EDGE('',*,*,#210,.F.);
#126=ORIENTED_EDGE('',*,*,#213,.F.);
#127=ORIENTED_EDGE('',*,*,#216,.F.);
#128=ORIENTED_EDGE('',*,*,#219,.T.);
#129=ORIENTED_EDGE('',*,*,#222,.F.);
#130=ORIENTED_EDGE('',*,*,#225,.T.);
#131=ORIENTED_EDGE('',*,*,#164,.F.);
#132=ORIENTED_EDGE('',*,*,#228,.T.);
#133=ORIENTED_EDGE('',*,*,#229,.T.);
#134=ORIENTED_EDGE('',*,*,#223,.F.);
#135=ORIENTED_EDGE('',*,*,#220,.T.);
#136=ORIENTED_EDGE('',*,*,#217,.F.);
#137=ORIENTED_EDGE('',*,*,#214,.T.);
#138=ORIENTED_EDGE('',*,*,#211,.T.);
#139=ORIENTED_EDGE('',*,*,#208,.T.);
#140=ORIENTED_EDGE('',*,*,#205,.T.);
#141=ORIENTED_EDGE('',*,*,#202,.T.);
#142=ORIENTED_EDGE('',*,*,#199,.T.);
#143=ORIENTED_EDGE('',*,*,#196,.T.);
#144=ORIENTED_EDGE('',*,*,#193,.T.);
#145=ORIENTED_EDGE('',*,*,#190,.T.);
#146=ORIENTED_EDGE('',*,*,#187,.T.);
#147=ORIENTED_EDGE('',*,*,#184,.T.);
#148=ORIENTED_EDGE('',*,*,#181,.T.);
#149=ORIENTED_EDGE('',*,*,#178,.T.);
#150=ORIENTED_EDGE('',*,*,#175,.T.);
#151=ORIENTED_EDGE('',*,*,#172,.F.);
#152=ORIENTED_EDGE('',*,*,#169,.F.);
#153=ORIENTED_EDGE('',*,*,#166,.T.);
#154=ORIENTED_EDGE('',*,*,#230,.F.);
#155=ORIENTED_EDGE('',*,*,#226,.F.);
#156=ORIENTED_EDGE('',*,*,#224,.F.);
#157=ORIENTED_EDGE('',*,*,#229,.F.);
#158=ORIENTED_EDGE('',*,*,#227,.F.);
#159=ORIENTED_EDGE('',*,*,#230,.T.);
#160=ORIENTED_EDGE('',*,*,#228,.F.);
#161=ORIENTED_EDGE('',*,*,#163,.F.);
#162=EDGE_CURVE('',#231,#232,#277,.T.);
#163=EDGE_CURVE('',#231,#233,#278,.T.);
#164=EDGE_CURVE('',#233,#234,#279,.T.);
#165=EDGE_CURVE('',#232,#234,#280,.T.);
#166=EDGE_CURVE('',#235,#234,#18,.T.);
#167=EDGE_CURVE('',#236,#235,#281,.T.);
#168=EDGE_CURVE('',#236,#232,#19,.T.);
#169=EDGE_CURVE('',#235,#237,#282,.T.);
#170=EDGE_CURVE('',#238,#237,#283,.T.);
#171=EDGE_CURVE('',#236,#238,#284,.T.);
#172=EDGE_CURVE('',#237,#239,#285,.T.);
#173=EDGE_CURVE('',#240,#239,#286,.T.);
#174=EDGE_CURVE('',#238,#240,#287,.T.);
#175=EDGE_CURVE('',#241,#239,#288,.T.);
#176=EDGE_CURVE('',#242,#241,#289,.T.);
#177=EDGE_CURVE('',#242,#240,#290,.T.);
#178=EDGE_CURVE('',#243,#241,#291,.T.);
#179=EDGE_CURVE('',#244,#243,#292,.T.);
#180=EDGE_CURVE('',#244,#242,#293,.T.);
#181=EDGE_CURVE('',#245,#243,#294,.T.);
#182=EDGE_CURVE('',#246,#245,#295,.T.);
#183=EDGE_CURVE('',#246,#244,#296,.T.);
#184=EDGE_CURVE('',#247,#245,#297,.T.);
#185=EDGE_CURVE('',#248,#247,#298,.T.);
#186=EDGE_CURVE('',#248,#246,#299,.T.);
#187=EDGE_CURVE('',#249,#247,#300,.T.);
#188=EDGE_CURVE('',#250,#249,#301,.T.);
#189=EDGE_CURVE('',#250,#248,#302,.T.);
#190=EDGE_CURVE('',#251,#249,#303,.T.);
#191=EDGE_CURVE('',#252,#251,#304,.T.);
#192=EDGE_CURVE('',#252,#250,#305,.T.);
#193=EDGE_CURVE('',#253,#251,#306,.T.);
#194=EDGE_CURVE('',#254,#253,#307,.T.);
#195=EDGE_CURVE('',#254,#252,#308,.T.);
#196=EDGE_CURVE('',#255,#253,#309,.T.);
#197=EDGE_CURVE('',#256,#255,#310,.T.);
#198=EDGE_CURVE('',#256,#254,#311,.T.);
#199=EDGE_CURVE('',#257,#255,#312,.T.);
#200=EDGE_CURVE('',#258,#257,#313,.T.);
#201=EDGE_CURVE('',#258,#256,#314,.T.);
#202=EDGE_CURVE('',#259,#257,#315,.T.);
#203=EDGE_CURVE('',#260,#259,#316,.T.);
#204=EDGE_CURVE('',#260,#258,#317,.T.);
#205=EDGE_CURVE('',#261,#259,#318,.T.);
#206=EDGE_CURVE('',#262,#261,#319,.T.);
#207=EDGE_CURVE('',#262,#260,#320,.T.);
#208=EDGE_CURVE('',#263,#261,#321,.T.);
#209=EDGE_CURVE('',#264,#263,#322,.T.);
#210=EDGE_CURVE('',#264,#262,#323,.T.);
#211=EDGE_CURVE('',#265,#263,#324,.T.);
#212=EDGE_CURVE('',#266,#265,#325,.T.);
#213=EDGE_CURVE('',#266,#264,#326,.T.);
#214=EDGE_CURVE('',#267,#265,#327,.T.);
#215=EDGE_CURVE('',#268,#267,#328,.T.);
#216=EDGE_CURVE('',#268,#266,#329,.T.);
#217=EDGE_CURVE('',#267,#269,#330,.T.);
#218=EDGE_CURVE('',#270,#269,#331,.T.);
#219=EDGE_CURVE('',#268,#270,#332,.T.);
#220=EDGE_CURVE('',#271,#269,#20,.T.);
#221=EDGE_CURVE('',#272,#271,#333,.T.);
#222=EDGE_CURVE('',#272,#270,#21,.T.);
#223=EDGE_CURVE('',#271,#273,#334,.T.);
#224=EDGE_CURVE('',#273,#274,#335,.F.);
#225=EDGE_CURVE('',#272,#274,#336,.T.);
#226=EDGE_CURVE('',#274,#275,#14,.T.);
#227=EDGE_CURVE('',#275,#231,#15,.T.);
#228=EDGE_CURVE('',#233,#276,#16,.F.);
#229=EDGE_CURVE('',#276,#273,#17,.F.);
#230=EDGE_CURVE('',#275,#276,#337,.T.);
#231=VERTEX_POINT('',#655);
#232=VERTEX_POINT('',#656);
#233=VERTEX_POINT('',#658);
#234=VERTEX_POINT('',#660);
#235=VERTEX_POINT('',#673);
#236=VERTEX_POINT('',#675);
#237=VERTEX_POINT('',#681);
#238=VERTEX_POINT('',#683);
#239=VERTEX_POINT('',#687);
#240=VERTEX_POINT('',#689);
#241=VERTEX_POINT('',#693);
#242=VERTEX_POINT('',#695);
#243=VERTEX_POINT('',#699);
#244=VERTEX_POINT('',#701);
#245=VERTEX_POINT('',#705);
#246=VERTEX_POINT('',#707);
#247=VERTEX_POINT('',#711);
#248=VERTEX_POINT('',#713);
#249=VERTEX_POINT('',#717);
#250=VERTEX_POINT('',#719);
#251=VERTEX_POINT('',#723);
#252=VERTEX_POINT('',#725);
#253=VERTEX_POINT('',#729);
#254=VERTEX_POINT('',#731);
#255=VERTEX_POINT('',#735);
#256=VERTEX_POINT('',#737);
#257=VERTEX_POINT('',#741);
#258=VERTEX_POINT('',#743);
#259=VERTEX_POINT('',#747);
#260=VERTEX_POINT('',#749);
#261=VERTEX_POINT('',#753);
#262=VERTEX_POINT('',#755);
#263=VERTEX_POINT('',#759);
#264=VERTEX_POINT('',#761);
#265=VERTEX_POINT('',#765);
#266=VERTEX_POINT('',#767);
#267=VERTEX_POINT('',#771);
#268=VERTEX_POINT('',#773);
#269=VERTEX_POINT('',#777);
#270=VERTEX_POINT('',#779);
#271=VERTEX_POINT('',#792);
#272=VERTEX_POINT('',#794);
#273=VERTEX_POINT('',#800);
#274=VERTEX_POINT('',#802);
#275=VERTEX_POINT('',#806);
#276=VERTEX_POINT('',#810);
#277=LINE('',#654,#338);
#278=LINE('',#657,#339);
#279=LINE('',#659,#340);
#280=LINE('',#661,#341);
#281=LINE('',#674,#342);
#282=LINE('',#680,#343);
#283=LINE('',#682,#344);
#284=LINE('',#684,#345);
#285=LINE('',#686,#346);
#286=LINE('',#688,#347);
#287=LINE('',#690,#348);
#288=LINE('',#692,#349);
#289=LINE('',#694,#350);
#290=LINE('',#696,#351);
#291=LINE('',#698,#352);
#292=LINE('',#700,#353);
#293=LINE('',#702,#354);
#294=LINE('',#704,#355);
#295=LINE('',#706,#356);
#296=LINE('',#708,#357);
#297=LINE('',#710,#358);
#298=LINE('',#712,#359);
#299=LINE('',#714,#360);
#300=LINE('',#716,#361);
#301=LINE('',#718,#362);
#302=LINE('',#720,#363);
#303=LINE('',#722,#364);
#304=LINE('',#724,#365);
#305=LINE('',#726,#366);
#306=LINE('',#728,#367);
#307=LINE('',#730,#368);
#308=LINE('',#732,#369);
#309=LINE('',#734,#370);
#310=LINE('',#736,#371);
#311=LINE('',#738,#372);
#312=LINE('',#740,#373);
#313=LINE('',#742,#374);
#314=LINE('',#744,#375);
#315=LINE('',#746,#376);
#316=LINE('',#748,#377);
#317=LINE('',#750,#378);
#318=LINE('',#752,#379);
#319=LINE('',#754,#380);
#320=LINE('',#756,#381);
#321=LINE('',#758,#382);
#322=LINE('',#760,#383);
#323=LINE('',#762,#384);
#324=LINE('',#764,#385);
#325=LINE('',#766,#386);
#326=LINE('',#768,#387);
#327=LINE('',#770,#388);
#328=LINE('',#772,#389);
#329=LINE('',#774,#390);
#330=LINE('',#776,#391);
#331=LINE('',#778,#392);
#332=LINE('',#780,#393);
#333=LINE('',#793,#394);
#334=LINE('',#799,#395);
#335=LINE('',#801,#396);
#336=LINE('',#803,#397);
#337=LINE('',#813,#398);
#338=VECTOR('',#539,1.);
#339=VECTOR('',#540,1.);
#340=VECTOR('',#541,1.);
#341=VECTOR('',#542,1.);
#342=VECTOR('',#543,1.);
#343=VECTOR('',#546,1.);
#344=VECTOR('',#547,1.);
#345=VECTOR('',#548,1.);
#346=VECTOR('',#551,1.);
#347=VECTOR('',#552,1.);
#348=VECTOR('',#553,1.);
#349=VECTOR('',#556,1.);
#350=VECTOR('',#557,1.);
#351=VECTOR('',#558,1.);
#352=VECTOR('',#561,1.);
#353=VECTOR('',#562,1.);
#354=VECTOR('',#563,1.);
#355=VECTOR('',#566,1.);
#356=VECTOR('',#567,1.);
#357=VECTOR('',#568,1.);
#358=VECTOR('',#571,1.);
#359=VECTOR('',#572,1.);
#360=VECTOR('',#573,1.);
#361=VECTOR('',#576,1.);
#362=VECTOR('',#577,1.);
#363=VECTOR('',#578,1.);
#364=VECTOR('',#581,1.);
#365=VECTOR('',#582,1.);
#366=VECTOR('',#583,1.);
#367=VECTOR('',#586,1.);
#368=VECTOR('',#587,1.);
#369=VECTOR('',#588,1.);
#370=VECTOR('',#591,1.);
#371=VECTOR('',#592,1.);
#372=VECTOR('',#593,1.);
#373=VECTOR('',#596,1.);
#374=VECTOR('',#597,1.);
#375=VECTOR('',#598,1.);
#376=VECTOR('',#601,1.);
#377=VECTOR('',#602,1.);
#378=VECTOR('',#603,1.);
#379=VECTOR('',#606,1.);
#380=VECTOR('',#607,1.);
#381=VECTOR('',#608,1.);
#382=VECTOR('',#611,1.);
#383=VECTOR('',#612,1.);
#384=VECTOR('',#613,1.);
#385=VECTOR('',#616,1.);
#386=VECTOR('',#617,1.);
#387=VECTOR('',#618,1.);
#388=VECTOR('',#621,1.);
#389=VECTOR('',#622,1.);
#390=VECTOR('',#623,1.);
#391=VECTOR('',#626,1.);
#392=VECTOR('',#627,1.);
#393=VECTOR('',#628,1.);
#394=VECTOR('',#629,1.);
#395=VECTOR('',#632,1.);
#396=VECTOR('',#633,1.);
#397=VECTOR('',#634,1.);
#398=VECTOR('',#649,1.);
#399=EDGE_LOOP('',(#24,#25,#26,#27));
#400=EDGE_LOOP('',(#28,#29,#30,#31));
#401=EDGE_LOOP('',(#32,#33,#34,#35));
#402=EDGE_LOOP('',(#36,#37,#38,#39));
#403=EDGE_LOOP('',(#40,#41,#42,#43));
#404=EDGE_LOOP('',(#44,#45,#46,#47));
#405=EDGE_LOOP('',(#48,#49,#50,#51));
#406=EDGE_LOOP('',(#52,#53,#54,#55));
#407=EDGE_LOOP('',(#56,#57,#58,#59));
#408=EDGE_LOOP('',(#60,#61,#62,#63));
#409=EDGE_LOOP('',(#64,#65,#66,#67));
#410=EDGE_LOOP('',(#68,#69,#70,#71));
#411=EDGE_LOOP('',(#72,#73,#74,#75));
#412=EDGE_LOOP('',(#76,#77,#78,#79));
#413=EDGE_LOOP('',(#80,#81,#82,#83));
#414=EDGE_LOOP('',(#84,#85,#86,#87));
#415=EDGE_LOOP('',(#88,#89,#90,#91));
#416=EDGE_LOOP('',(#92,#93,#94,#95));
#417=EDGE_LOOP('',(#96,#97,#98,#99));
#418=EDGE_LOOP('',(#100,#101,#102,#103));
#419=EDGE_LOOP('',(#104,#105,#106,#107));
#420=EDGE_LOOP('',(#108,#109,#110,#111,#112,#113,#114,#115,#116,#117,#118,
#119,#120,#121,#122,#123,#124,#125,#126,#127,#128,#129,#130));
#421=EDGE_LOOP('',(#131,#132,#133,#134,#135,#136,#137,#138,#139,#140,#141,
#142,#143,#144,#145,#146,#147,#148,#149,#150,#151,#152,#153));
#422=EDGE_LOOP('',(#154,#155,#156,#157));
#423=EDGE_LOOP('',(#158,#159,#160,#161));
#424=FACE_BOUND('',#399,.T.);
#425=FACE_BOUND('',#400,.T.);
#426=FACE_BOUND('',#401,.T.);
#427=FACE_BOUND('',#402,.T.);
#428=FACE_BOUND('',#403,.T.);
#429=FACE_BOUND('',#404,.T.);
#430=FACE_BOUND('',#405,.T.);
#431=FACE_BOUND('',#406,.T.);
#432=FACE_BOUND('',#407,.T.);
#433=FACE_BOUND('',#408,.T.);
#434=FACE_BOUND('',#409,.T.);
#435=FACE_BOUND('',#410,.T.);
#436=FACE_BOUND('',#411,.T.);
#437=FACE_BOUND('',#412,.T.);
#438=FACE_BOUND('',#413,.T.);
#439=FACE_BOUND('',#414,.T.);
#440=FACE_BOUND('',#415,.T.);
#441=FACE_BOUND('',#416,.T.);
#442=FACE_BOUND('',#417,.T.);
#443=FACE_BOUND('',#418,.T.);
#444=FACE_BOUND('',#419,.T.);
#445=FACE_BOUND('',#420,.T.);
#446=FACE_BOUND('',#421,.T.);
#447=FACE_BOUND('',#422,.T.);
#448=FACE_BOUND('',#423,.T.);
#449=PLANE('',#508);
#450=PLANE('',#509);
#451=PLANE('',#510);
#452=PLANE('',#511);
#453=PLANE('',#512);
#454=PLANE('',#513);
#455=PLANE('',#514);
#456=PLANE('',#515);
#457=PLANE('',#516);
#458=PLANE('',#517);
#459=PLANE('',#518);
#460=PLANE('',#519);
#461=PLANE('',#520);
#462=PLANE('',#521);
#463=PLANE('',#522);
#464=PLANE('',#523);
#465=PLANE('',#524);
#466=PLANE('',#525);
#467=PLANE('',#526);
#468=PLANE('',#527);
#469=PLANE('',#530);
#470=ADVANCED_FACE('',(#424),#449,.F.);
#471=ADVANCED_FACE('',(#425),#22,.T.);
#472=ADVANCED_FACE('',(#426),#450,.F.);
#473=ADVANCED_FACE('',(#427),#451,.F.);
#474=ADVANCED_FACE('',(#428),#452,.T.);
#475=ADVANCED_FACE('',(#429),#453,.T.);
#476=ADVANCED_FACE('',(#430),#454,.T.);
#477=ADVANCED_FACE('',(#431),#455,.T.);
#478=ADVANCED_FACE('',(#432),#456,.T.);
#479=ADVANCED_FACE('',(#433),#457,.T.);
#480=ADVANCED_FACE('',(#434),#458,.T.);
#481=ADVANCED_FACE('',(#435),#459,.T.);
#482=ADVANCED_FACE('',(#436),#460,.T.);
#483=ADVANCED_FACE('',(#437),#461,.T.);
#484=ADVANCED_FACE('',(#438),#462,.T.);
#485=ADVANCED_FACE('',(#439),#463,.T.);
#486=ADVANCED_FACE('',(#440),#464,.T.);
#487=ADVANCED_FACE('',(#441),#465,.T.);
#488=ADVANCED_FACE('',(#442),#466,.F.);
#489=ADVANCED_FACE('',(#443),#23,.T.);
#490=ADVANCED_FACE('',(#444),#467,.F.);
#491=ADVANCED_FACE('',(#445),#468,.T.);
#492=ADVANCED_FACE('',(#446),#469,.F.);
#493=ADVANCED_FACE('',(#447),#12,.T.);
#494=ADVANCED_FACE('',(#448),#13,.T.);
#495=CLOSED_SHELL('',(#470,#471,#472,#473,#474,#475,#476,#477,#478,#479,
#480,#481,#482,#483,#484,#485,#486,#487,#488,#489,#490,#491,#492,#493,#494));
#496=STYLED_ITEM('',(#497),#504);
#497=PRESENTATION_STYLE_ASSIGNMENT((#498));
#498=SURFACE_STYLE_USAGE(.BOTH.,#499);
#499=SURFACE_SIDE_STYLE('',(#500));
#500=SURFACE_STYLE_FILL_AREA(#501);
#501=FILL_AREA_STYLE('',(#502));
#502=FILL_AREA_STYLE_COLOUR('',#503);
#503=COLOUR_RGB('',0.0509803921568627,0.0627450980392157,0.0627450980392157);
#504=MANIFOLD_SOLID_BREP('limit switch',#495);
#505=SHAPE_DEFINITION_REPRESENTATION(#821,#506);
#506=SHAPE_REPRESENTATION('limit switch',(#507),#816);
#507=AXIS2_PLACEMENT_3D('',#652,#535,#536);
#508=AXIS2_PLACEMENT_3D('',#653,#537,#538);
#509=AXIS2_PLACEMENT_3D('',#679,#544,#545);
#510=AXIS2_PLACEMENT_3D('',#685,#549,#550);
#511=AXIS2_PLACEMENT_3D('',#691,#554,#555);
#512=AXIS2_PLACEMENT_3D('',#697,#559,#560);
#513=AXIS2_PLACEMENT_3D('',#703,#564,#565);
#514=AXIS2_PLACEMENT_3D('',#709,#569,#570);
#515=AXIS2_PLACEMENT_3D('',#715,#574,#575);
#516=AXIS2_PLACEMENT_3D('',#721,#579,#580);
#517=AXIS2_PLACEMENT_3D('',#727,#584,#585);
#518=AXIS2_PLACEMENT_3D('',#733,#589,#590);
#519=AXIS2_PLACEMENT_3D('',#739,#594,#595);
#520=AXIS2_PLACEMENT_3D('',#745,#599,#600);
#521=AXIS2_PLACEMENT_3D('',#751,#604,#605);
#522=AXIS2_PLACEMENT_3D('',#757,#609,#610);
#523=AXIS2_PLACEMENT_3D('',#763,#614,#615);
#524=AXIS2_PLACEMENT_3D('',#769,#619,#620);
#525=AXIS2_PLACEMENT_3D('',#775,#624,#625);
#526=AXIS2_PLACEMENT_3D('',#798,#630,#631);
#527=AXIS2_PLACEMENT_3D('',#804,#635,#636);
#528=AXIS2_PLACEMENT_3D('',#805,#637,#638);
#529=AXIS2_PLACEMENT_3D('',#807,#639,#640);
#530=AXIS2_PLACEMENT_3D('',#808,#641,#642);
#531=AXIS2_PLACEMENT_3D('',#809,#643,#644);
#532=AXIS2_PLACEMENT_3D('',#811,#645,#646);
#533=AXIS2_PLACEMENT_3D('',#812,#647,#648);
#534=AXIS2_PLACEMENT_3D('',#814,#650,#651);
#535=DIRECTION('',(0.,0.,1.));
#536=DIRECTION('',(1.,0.,0.));
#537=DIRECTION('',(0.384193808374187,0.923252466883755,0.));
#538=DIRECTION('',(-0.923252466883755,0.384193808374187,0.));
#539=DIRECTION('',(0.923252466883755,-0.384193808374187,0.));
#540=DIRECTION('',(0.,0.,-1.));
#541=DIRECTION('',(0.923252466883755,-0.384193808374187,0.));
#542=DIRECTION('',(0.,0.,-1.));
#543=DIRECTION('',(0.,0.,-1.));
#544=DIRECTION('',(0.,-1.,0.));
#545=DIRECTION('',(0.,0.,-1.));
#546=DIRECTION('',(-1.,0.,0.));
#547=DIRECTION('',(0.,0.,-1.));
#548=DIRECTION('',(-1.,0.,0.));
#549=DIRECTION('',(1.,-3.40141858034668E-16,0.));
#550=DIRECTION('',(3.40141858034668E-16,1.,0.));
#551=DIRECTION('',(-3.40141858034668E-16,-1.,0.));
#552=DIRECTION('',(0.,0.,-1.));
#553=DIRECTION('',(-3.40141858034668E-16,-1.,0.));
#554=DIRECTION('',(0.,-1.,0.));
#555=DIRECTION('',(0.,0.,-1.));
#556=DIRECTION('',(-1.,0.,0.));
#557=DIRECTION('',(0.,0.,-1.));
#558=DIRECTION('',(-1.,0.,0.));
#559=DIRECTION('',(-1.,-3.41480999208033E-16,0.));
#560=DIRECTION('',(3.41480999208033E-16,-1.,0.));
#561=DIRECTION('',(-3.41480999208033E-16,1.,0.));
#562=DIRECTION('',(0.,0.,-1.));
#563=DIRECTION('',(-3.41480999208033E-16,1.,0.));
#564=DIRECTION('',(0.,-1.,0.));
#565=DIRECTION('',(0.,0.,-1.));
#566=DIRECTION('',(-1.,0.,0.));
#567=DIRECTION('',(0.,0.,-1.));
#568=DIRECTION('',(-1.,0.,0.));
#569=DIRECTION('',(1.,1.70740499604017E-16,0.));
#570=DIRECTION('',(-1.70740499604017E-16,1.,0.));
#571=DIRECTION('',(1.70740499604017E-16,-1.,0.));
#572=DIRECTION('',(0.,0.,-1.));
#573=DIRECTION('',(1.70740499604017E-16,-1.,0.));
#574=DIRECTION('',(0.,-1.,0.));
#575=DIRECTION('',(0.,0.,-1.));
#576=DIRECTION('',(-1.,0.,0.));
#577=DIRECTION('',(0.,0.,-1.));
#578=DIRECTION('',(-1.,0.,0.));
#579=DIRECTION('',(-1.,-2.98795874307029E-16,0.));
#580=DIRECTION('',(2.98795874307029E-16,-1.,0.));
#581=DIRECTION('',(-2.98795874307029E-16,1.,0.));
#582=DIRECTION('',(0.,0.,-1.));
#583=DIRECTION('',(-2.98795874307029E-16,1.,0.));
#584=DIRECTION('',(0.,-1.,0.));
#585=DIRECTION('',(0.,0.,-1.));
#586=DIRECTION('',(-1.,0.,0.));
#587=DIRECTION('',(0.,0.,-1.));
#588=DIRECTION('',(-1.,0.,0.));
#589=DIRECTION('',(1.,1.92083062054518E-16,0.));
#590=DIRECTION('',(-1.92083062054518E-16,1.,0.));
#591=DIRECTION('',(1.92083062054518E-16,-1.,0.));
#592=DIRECTION('',(0.,0.,-1.));
#593=DIRECTION('',(1.92083062054518E-16,-1.,0.));
#594=DIRECTION('',(0.,-1.,0.));
#595=DIRECTION('',(0.,0.,-1.));
#596=DIRECTION('',(-1.,0.,0.));
#597=DIRECTION('',(0.,0.,-1.));
#598=DIRECTION('',(-1.,0.,0.));
#599=DIRECTION('',(-1.,-1.70740499604017E-16,0.));
#600=DIRECTION('',(1.70740499604017E-16,-1.,0.));
#601=DIRECTION('',(-1.70740499604017E-16,1.,0.));
#602=DIRECTION('',(0.,0.,-1.));
#603=DIRECTION('',(-1.70740499604017E-16,1.,0.));
#604=DIRECTION('',(0.,-1.,0.));
#605=DIRECTION('',(0.,0.,-1.));
#606=DIRECTION('',(-1.,0.,0.));
#607=DIRECTION('',(0.,0.,-1.));
#608=DIRECTION('',(-1.,0.,0.));
#609=DIRECTION('',(1.,1.70740499604017E-16,0.));
#610=DIRECTION('',(-1.70740499604017E-16,1.,0.));
#611=DIRECTION('',(1.70740499604017E-16,-1.,0.));
#612=DIRECTION('',(0.,0.,-1.));
#613=DIRECTION('',(1.70740499604017E-16,-1.,0.));
#614=DIRECTION('',(0.,-1.,0.));
#615=DIRECTION('',(0.,0.,-1.));
#616=DIRECTION('',(-1.,0.,0.));
#617=DIRECTION('',(0.,0.,-1.));
#618=DIRECTION('',(-1.,0.,0.));
#619=DIRECTION('',(1.,-3.40141858034668E-16,0.));
#620=DIRECTION('',(3.40141858034668E-16,1.,0.));
#621=DIRECTION('',(-3.40141858034668E-16,-1.,0.));
#622=DIRECTION('',(0.,0.,-1.));
#623=DIRECTION('',(-3.40141858034668E-16,-1.,0.));
#624=DIRECTION('',(0.,-1.,0.));
#625=DIRECTION('',(0.,0.,-1.));
#626=DIRECTION('',(-1.,0.,0.));
#627=DIRECTION('',(0.,0.,-1.));
#628=DIRECTION('',(-1.,0.,0.));
#629=DIRECTION('',(0.,0.,-1.));
#630=DIRECTION('',(-0.419350348213522,-0.907824479430467,0.));
#631=DIRECTION('',(0.907824479430467,-0.419350348213522,0.));
#632=DIRECTION('',(-0.907824479430467,0.419350348213522,0.));
#633=DIRECTION('',(0.,0.,-1.));
#634=DIRECTION('',(-0.907824479430467,0.419350348213522,0.));
#635=DIRECTION('',(0.,0.,1.));
#636=DIRECTION('',(1.,0.,0.));
#637=DIRECTION('',(0.,0.,1.));
#638=DIRECTION('',(1.,0.,0.));
#639=DIRECTION('',(0.,0.,1.));
#640=DIRECTION('',(1.,0.,0.));
#641=DIRECTION('',(0.,0.,1.));
#642=DIRECTION('',(1.,0.,0.));
#643=DIRECTION('',(0.,0.,1.));
#644=DIRECTION('',(1.,0.,0.));
#645=DIRECTION('',(0.,0.,1.));
#646=DIRECTION('',(1.,0.,0.));
#647=DIRECTION('',(0.,0.,-1.));
#648=DIRECTION('',(-1.,0.,0.));
#649=DIRECTION('',(0.,0.,-1.));
#650=DIRECTION('',(0.,0.,-1.));
#651=DIRECTION('',(-1.,0.,0.));
#652=CARTESIAN_POINT('',(0.,0.,0.));
#653=CARTESIAN_POINT('',(-0.00299809520770179,0.00970848962368114,0.0064));
#654=CARTESIAN_POINT('',(-0.00299809520770179,0.00970848962368114,0.0064));
#655=CARTESIAN_POINT('',(-0.00865098287244581,0.0120608304168338,0.0064));
#656=CARTESIAN_POINT('',(0.00364681734179142,0.00694333669934603,0.0064));
#657=CARTESIAN_POINT('',(-0.00865098287244581,0.0120608304168338,0.0064));
#658=CARTESIAN_POINT('',(-0.00865098287244581,0.0120608304168338,0.));
#659=CARTESIAN_POINT('',(-0.00299809520770179,0.00970848962368114,0.));
#660=CARTESIAN_POINT('',(0.00364681734179142,0.00694333669934603,0.));
#661=CARTESIAN_POINT('',(0.00364681734179142,0.00694333669934603,0.0064));
#662=CARTESIAN_POINT('',(0.00254550552926958,0.0051,0.0064));
#663=CARTESIAN_POINT('',(0.00254550552926958,0.0051,8.67361737988404E-19));
#664=CARTESIAN_POINT('',(0.00292851934482838,0.00584008779380451,0.0064));
#665=CARTESIAN_POINT('',(0.00292851934482838,0.00584008779380451,8.67361737988404E-19));
#666=CARTESIAN_POINT('',(0.00329562327983692,0.00645453335424848,0.0064));
#667=CARTESIAN_POINT('',(0.00329562327983692,0.00645453335424848,8.67361737988404E-19));
#668=CARTESIAN_POINT('',(0.00364681733429519,0.00694333668133191,0.0064));
#669=CARTESIAN_POINT('',(0.00364681733429519,0.00694333668133191,8.67361737988404E-19));
#670=CARTESIAN_POINT('',(0.00254550552926958,0.0051,0.));
#671=CARTESIAN_POINT('',(0.00312002625260779,0.00621013169070676,0.));
#672=CARTESIAN_POINT('',(0.00364681733429518,0.00694333668133191,0.));
#673=CARTESIAN_POINT('',(0.00254550552926958,0.0051,0.));
#674=CARTESIAN_POINT('',(0.00254550552926958,0.0051,0.0064));
#675=CARTESIAN_POINT('',(0.00254550552926958,0.0051,0.0064));
#676=CARTESIAN_POINT('',(0.00254550552926958,0.0051,0.0064));
#677=CARTESIAN_POINT('',(0.00312002625260779,0.00621013169070676,0.0064));
#678=CARTESIAN_POINT('',(0.00364681733429518,0.00694333668133191,0.0064));
#679=CARTESIAN_POINT('',(-0.00372724723536521,0.0051,0.0064));
#680=CARTESIAN_POINT('',(-0.00372724723536521,0.0051,0.));
#681=CARTESIAN_POINT('',(-0.01,0.0051,0.));
#682=CARTESIAN_POINT('',(-0.01,0.0051,0.0064));
#683=CARTESIAN_POINT('',(-0.01,0.0051,0.0064));
#684=CARTESIAN_POINT('',(-0.00372724723536521,0.0051,0.0064));
#685=CARTESIAN_POINT('',(-0.01,0.,0.0064));
#686=CARTESIAN_POINT('',(-0.01,0.,0.));
#687=CARTESIAN_POINT('',(-0.01,-0.0051,0.));
#688=CARTESIAN_POINT('',(-0.01,-0.0051,0.0064));
#689=CARTESIAN_POINT('',(-0.01,-0.0051,0.0064));
#690=CARTESIAN_POINT('',(-0.01,0.,0.0064));
#691=CARTESIAN_POINT('',(-0.00910058675333858,-0.0051,0.0064));
#692=CARTESIAN_POINT('',(-0.00910058675333858,-0.0051,0.));
#693=CARTESIAN_POINT('',(-0.00820117350667715,-0.0051,0.));
#694=CARTESIAN_POINT('',(-0.00820117350667715,-0.0051,0.0064));
#695=CARTESIAN_POINT('',(-0.00820117350667715,-0.0051,0.0064));
#696=CARTESIAN_POINT('',(-0.00910058675333858,-0.0051,0.0064));
#697=CARTESIAN_POINT('',(-0.00820117350667715,-0.00764,0.0064));
#698=CARTESIAN_POINT('',(-0.00820117350667715,-0.00764,0.));
#699=CARTESIAN_POINT('',(-0.00820117350667715,-0.01018,0.));
#700=CARTESIAN_POINT('',(-0.00820117350667715,-0.01018,0.0064));
#701=CARTESIAN_POINT('',(-0.00820117350667715,-0.01018,0.0064));
#702=CARTESIAN_POINT('',(-0.00820117350667715,-0.00764,0.0064));
#703=CARTESIAN_POINT('',(-0.00756617350667715,-0.01018,0.0064));
#704=CARTESIAN_POINT('',(-0.00756617350667715,-0.01018,0.));
#705=CARTESIAN_POINT('',(-0.00693117350667715,-0.01018,0.));
#706=CARTESIAN_POINT('',(-0.00693117350667715,-0.01018,0.0064));
#707=CARTESIAN_POINT('',(-0.00693117350667715,-0.01018,0.0064));
#708=CARTESIAN_POINT('',(-0.00756617350667715,-0.01018,0.0064));
#709=CARTESIAN_POINT('',(-0.00693117350667715,-0.00764,0.0064));
#710=CARTESIAN_POINT('',(-0.00693117350667715,-0.00764,0.));
#711=CARTESIAN_POINT('',(-0.00693117350667715,-0.0051,0.));
#712=CARTESIAN_POINT('',(-0.00693117350667715,-0.0051,0.0064));
#713=CARTESIAN_POINT('',(-0.00693117350667715,-0.0051,0.0064));
#714=CARTESIAN_POINT('',(-0.00693117350667715,-0.00764,0.0064));
#715=CARTESIAN_POINT('',(-0.00439800596028566,-0.0051,0.0064));
#716=CARTESIAN_POINT('',(-0.00439800596028566,-0.0051,0.));
#717=CARTESIAN_POINT('',(-0.00186483841389418,-0.0051,0.));
#718=CARTESIAN_POINT('',(-0.00186483841389418,-0.0051,0.0064));
#719=CARTESIAN_POINT('',(-0.00186483841389418,-0.0051,0.0064));
#720=CARTESIAN_POINT('',(-0.00439800596028566,-0.0051,0.0064));
#721=CARTESIAN_POINT('',(-0.00186483841389418,-0.00764,0.0064));
#722=CARTESIAN_POINT('',(-0.00186483841389418,-0.00764,0.));
#723=CARTESIAN_POINT('',(-0.00186483841389417,-0.01018,0.));
#724=CARTESIAN_POINT('',(-0.00186483841389417,-0.01018,0.0064));
#725=CARTESIAN_POINT('',(-0.00186483841389417,-0.01018,0.0064));
#726=CARTESIAN_POINT('',(-0.00186483841389418,-0.00764,0.0064));
#727=CARTESIAN_POINT('',(-0.00122983841389418,-0.01018,0.0064));
#728=CARTESIAN_POINT('',(-0.00122983841389418,-0.01018,0.));
#729=CARTESIAN_POINT('',(-0.000594838413894177,-0.01018,0.));
#730=CARTESIAN_POINT('',(-0.000594838413894177,-0.01018,0.0064));
#731=CARTESIAN_POINT('',(-0.000594838413894177,-0.01018,0.0064));
#732=CARTESIAN_POINT('',(-0.00122983841389418,-0.01018,0.0064));
#733=CARTESIAN_POINT('',(-0.000594838413894178,-0.00764,0.0064));
#734=CARTESIAN_POINT('',(-0.000594838413894178,-0.00764,0.));
#735=CARTESIAN_POINT('',(-0.000594838413894178,-0.0051,0.));
#736=CARTESIAN_POINT('',(-0.000594838413894178,-0.0051,0.0064));
#737=CARTESIAN_POINT('',(-0.000594838413894178,-0.0051,0.0064));
#738=CARTESIAN_POINT('',(-0.000594838413894178,-0.00764,0.0064));
#739=CARTESIAN_POINT('',(0.00280237482696772,-0.0051,0.0064));
#740=CARTESIAN_POINT('',(0.00280237482696772,-0.0051,0.));
#741=CARTESIAN_POINT('',(0.00619958806782961,-0.0051,0.));
#742=CARTESIAN_POINT('',(0.00619958806782961,-0.0051,0.0064));
#743=CARTESIAN_POINT('',(0.00619958806782961,-0.0051,0.0064));
#744=CARTESIAN_POINT('',(0.00280237482696772,-0.0051,0.0064));
#745=CARTESIAN_POINT('',(0.00619958806782961,-0.00764,0.0064));
#746=CARTESIAN_POINT('',(0.00619958806782961,-0.00764,0.));
#747=CARTESIAN_POINT('',(0.00619958806782961,-0.01018,0.));
#748=CARTESIAN_POINT('',(0.00619958806782961,-0.01018,0.0064));
#749=CARTESIAN_POINT('',(0.00619958806782961,-0.01018,0.0064));
#750=CARTESIAN_POINT('',(0.00619958806782961,-0.00764,0.0064));
#751=CARTESIAN_POINT('',(0.00683458806782961,-0.01018,0.0064));
#752=CARTESIAN_POINT('',(0.00683458806782961,-0.01018,0.));
#753=CARTESIAN_POINT('',(0.00746958806782961,-0.01018,0.));
#754=CARTESIAN_POINT('',(0.00746958806782961,-0.01018,0.0064));
#755=CARTESIAN_POINT('',(0.00746958806782961,-0.01018,0.0064));
#756=CARTESIAN_POINT('',(0.00683458806782961,-0.01018,0.0064));
#757=CARTESIAN_POINT('',(0.00746958806782961,-0.00764,0.0064));
#758=CARTESIAN_POINT('',(0.00746958806782961,-0.00764,0.));
#759=CARTESIAN_POINT('',(0.00746958806782961,-0.0051,0.));
#760=CARTESIAN_POINT('',(0.00746958806782961,-0.0051,0.0064));
#761=CARTESIAN_POINT('',(0.00746958806782961,-0.0051,0.0064));
#762=CARTESIAN_POINT('',(0.00746958806782961,-0.00764,0.0064));
#763=CARTESIAN_POINT('',(0.0087347940339148,-0.0051,0.0064));
#764=CARTESIAN_POINT('',(0.0087347940339148,-0.0051,0.));
#765=CARTESIAN_POINT('',(0.01,-0.0051,0.));
#766=CARTESIAN_POINT('',(0.01,-0.0051,0.0064));
#767=CARTESIAN_POINT('',(0.01,-0.0051,0.0064));
#768=CARTESIAN_POINT('',(0.0087347940339148,-0.0051,0.0064));
#769=CARTESIAN_POINT('',(0.01,8.67361737988404E-19,0.0064));
#770=CARTESIAN_POINT('',(0.01,8.67361737988404E-19,0.));
#771=CARTESIAN_POINT('',(0.01,0.0051,0.));
#772=CARTESIAN_POINT('',(0.01,0.0051,0.0064));
#773=CARTESIAN_POINT('',(0.01,0.0051,0.0064));
#774=CARTESIAN_POINT('',(0.01,8.67361737988404E-19,0.0064));
#775=CARTESIAN_POINT('',(0.00882888759486377,0.0051,0.0064));
#776=CARTESIAN_POINT('',(0.00882888759486377,0.0051,0.));
#777=CARTESIAN_POINT('',(0.00765777518972755,0.0051,0.));
#778=CARTESIAN_POINT('',(0.00765777518972755,0.0051,0.0064));
#779=CARTESIAN_POINT('',(0.00765777518972755,0.0051,0.0064));
#780=CARTESIAN_POINT('',(0.00882888759486377,0.0051,0.0064));
#781=CARTESIAN_POINT('',(0.00462792302497611,0.00801418854203505,0.0064));
#782=CARTESIAN_POINT('',(0.00462792302497611,0.00801418854203505,0.));
#783=CARTESIAN_POINT('',(0.0058818817358012,0.00896975269454212,0.0064));
#784=CARTESIAN_POINT('',(0.0058818817358012,0.00896975269454212,0.));
#785=CARTESIAN_POINT('',(0.00689183245738501,0.00799835651386377,0.0064));
#786=CARTESIAN_POINT('',(0.00689183245738501,0.00799835651386377,0.));
#787=CARTESIAN_POINT('',(0.00765777518972755,0.0051,0.0064));
#788=CARTESIAN_POINT('',(0.00765777518972755,0.0051,0.));
#789=CARTESIAN_POINT('',(0.00462792302497611,0.00801418854203505,0.));
#790=CARTESIAN_POINT('',(0.00650886109121374,0.00944753477079566,0.));
#791=CARTESIAN_POINT('',(0.00765777518972755,0.0051,0.));
#792=CARTESIAN_POINT('',(0.00462792302496084,0.00801418854200199,0.));
#793=CARTESIAN_POINT('',(0.00462792302496084,0.00801418854200199,0.0064));
#794=CARTESIAN_POINT('',(0.00462792302496084,0.00801418854200199,0.0064));
#795=CARTESIAN_POINT('',(0.00462792302497611,0.00801418854203505,0.0064));
#796=CARTESIAN_POINT('',(0.00650886109121374,0.00944753477079566,0.0064));
#797=CARTESIAN_POINT('',(0.00765777518972755,0.0051,0.0064));
#798=CARTESIAN_POINT('',(-0.00210158642839964,0.0111227433304159,0.0064));
#799=CARTESIAN_POINT('',(-0.00210158642839964,0.0111227433304159,0.));
#800=CARTESIAN_POINT('',(-0.00789239962403518,0.0137976872045364,0.));
#801=CARTESIAN_POINT('',(-0.00789239962403518,0.0137976872045364,0.0064));
#802=CARTESIAN_POINT('',(-0.00789239962403518,0.0137976872045364,0.0064));
#803=CARTESIAN_POINT('',(-0.00210158642839964,0.0111227433304159,0.0064));
#804=CARTESIAN_POINT('',(0.,0.00202564905941486,0.0064));
#805=CARTESIAN_POINT('',(-0.00832601053832848,0.0128589909468115,0.0064));
#806=CARTESIAN_POINT('',(-0.00922529687758778,0.0133693370737515,0.0064));
#807=CARTESIAN_POINT('',(-0.00825372404286656,0.0130154793112355,0.0064));
#808=CARTESIAN_POINT('',(0.,0.00202564905941486,0.));
#809=CARTESIAN_POINT('',(-0.00825372404286656,0.0130154793112355,0.));
#810=CARTESIAN_POINT('',(-0.00922529687758778,0.0133693370737515,0.));
#811=CARTESIAN_POINT('',(-0.00832601053832848,0.0128589909468115,0.));
#812=CARTESIAN_POINT('',(-0.00832601053832848,0.0128589909468115,0.0064));
#813=CARTESIAN_POINT('',(-0.00922529687758778,0.0133693370737515,0.0032));
#814=CARTESIAN_POINT('',(-0.00825372404286656,0.0130154793112355,0.0064));
#815=MECHANICAL_DESIGN_GEOMETRIC_PRESENTATION_REPRESENTATION('',(#496),
#816);
#816=(
GEOMETRIC_REPRESENTATION_CONTEXT(3)
GLOBAL_UNCERTAINTY_ASSIGNED_CONTEXT((#817))
GLOBAL_UNIT_ASSIGNED_CONTEXT((#820,#819,#818))
REPRESENTATION_CONTEXT('limit switch','TOP_LEVEL_ASSEMBLY_PART')
);
#817=UNCERTAINTY_MEASURE_WITH_UNIT(LENGTH_MEASURE(2.E-5),#820,
'DISTANCE_ACCURACY_VALUE','Maximum Tolerance applied to model');
#818=(
NAMED_UNIT(*)
SI_UNIT($,.STERADIAN.)
SOLID_ANGLE_UNIT()
);
#819=(
NAMED_UNIT(*)
PLANE_ANGLE_UNIT()
SI_UNIT($,.RADIAN.)
);
#820=(
LENGTH_UNIT()
NAMED_UNIT(*)
SI_UNIT($,.METRE.)
);
#821=PRODUCT_DEFINITION_SHAPE('','',#822);
#822=PRODUCT_DEFINITION('','',#824,#823);
#823=PRODUCT_DEFINITION_CONTEXT('',#830,'design');
#824=PRODUCT_DEFINITION_FORMATION_WITH_SPECIFIED_SOURCE('','',#826,
 .NOT_KNOWN.);
#825=PRODUCT_RELATED_PRODUCT_CATEGORY('','',(#826));
#826=PRODUCT('limit switch','limit switch','limit switch',(#828));
#827=PRODUCT_CATEGORY('','');
#828=PRODUCT_CONTEXT('',#830,'mechanical');
#829=APPLICATION_PROTOCOL_DEFINITION('international standard',
'ap242_managed_model_based_3d_engineering',2020,#830);
#830=APPLICATION_CONTEXT('managed model based 3d engineering');
ENDSEC;
END-ISO-10303-21;
