ISO-10303-21;
HEADER;
/* Generated by software containing ST-Developer
 * from STEP Tools, Inc. (www.steptools.com) 
 */
/* OPTION: using custom renumber hook */

FILE_DESCRIPTION(
/* description */ ('STEP AP242 Edition 2',
'CAx-IF Rec.Pracs.---Representation and Presentation of Product Manufa
cturing Information (PMI)---4.0---2014-10-13',
'CAx-IF Rec.Pracs.---3D Tessellated Geometry---0.4---2014-09-14','2;1',
'CAx-IF Rec.Pracs.---User Defined Attributes---1.5---2016-08-15'),
/* implementation_level */ '2;1');

FILE_NAME(
/* name */ 'nema 17',
/* time_stamp */ '2026-08-14T04:19:28Z',
/* author */ (''),
/* organization */ (''),
/* preprocessor_version */ 'ST-DEVELOPER v20',
/* originating_system */ 'ONSHAPE BY PTC INC, 1.219',
/* authorisation */ '  ');

FILE_SCHEMA (('AP242_MANAGED_MODEL_BASED_3D_ENGINEERING_MIM_LF { 1 0 10303 442 3 1 4 }'));
ENDSEC;

DATA;
#10=MANIFOLD_SURFACE_SHAPE_REPRESENTATION('',(#13),#597);
#11=OPEN_SHELL('',(#338));
#12=COLOUR_RGB('',0.647058823529412,0.647058823529412,0.647058823529412);
#13=SHELL_BASED_SURFACE_MODEL('Surface 1',(#11));
#14=SHAPE_REPRESENTATION_RELATIONSHIP('','',#358,#16);
#15=SHAPE_REPRESENTATION_RELATIONSHIP('','',#359,#10);
#16=ADVANCED_BREP_SHAPE_REPRESENTATION('',(#355),#596);
#17=CYLINDRICAL_SURFACE('',#376,0.00254);
#18=CYLINDRICAL_SURFACE('',#379,0.011049);
#19=CYLINDRICAL_SURFACE('',#383,0.001778);
#20=CYLINDRICAL_SURFACE('',#386,0.001778);
#21=CYLINDRICAL_SURFACE('',#389,0.001778);
#22=CYLINDRICAL_SURFACE('',#392,0.001778);
#23=CYLINDRICAL_SURFACE('',#396,0.00254);
#24=LINE('',#509,#48);
#25=LINE('',#512,#49);
#26=LINE('',#514,#50);
#27=LINE('',#516,#51);
#28=LINE('',#518,#52);
#29=LINE('',#520,#53);
#30=LINE('',#522,#54);
#31=LINE('',#524,#55);
#32=LINE('',#530,#56);
#33=LINE('',#533,#57);
#34=LINE('',#534,#58);
#35=LINE('',#536,#59);
#36=LINE('',#538,#60);
#37=LINE('',#540,#61);
#38=LINE('',#542,#62);
#39=LINE('',#544,#63);
#40=LINE('',#546,#64);
#41=LINE('',#548,#65);
#42=LINE('',#550,#66);
#43=LINE('',#552,#67);
#44=LINE('',#554,#68);
#45=LINE('',#556,#69);
#46=LINE('',#558,#70);
#47=LINE('',#560,#71);
#48=VECTOR('',#409,1.);
#49=VECTOR('',#410,1.);
#50=VECTOR('',#411,1.);
#51=VECTOR('',#412,1.);
#52=VECTOR('',#413,1.);
#53=VECTOR('',#414,1.);
#54=VECTOR('',#415,1.);
#55=VECTOR('',#416,1.);
#56=VECTOR('',#423,1.);
#57=VECTOR('',#424,1.);
#58=VECTOR('',#425,1.);
#59=VECTOR('',#428,1.);
#60=VECTOR('',#429,1.);
#61=VECTOR('',#432,1.);
#62=VECTOR('',#433,1.);
#63=VECTOR('',#436,1.);
#64=VECTOR('',#437,1.);
#65=VECTOR('',#440,1.);
#66=VECTOR('',#441,1.);
#67=VECTOR('',#444,1.);
#68=VECTOR('',#445,1.);
#69=VECTOR('',#448,1.);
#70=VECTOR('',#449,1.);
#71=VECTOR('',#452,1.);
#72=ORIENTED_EDGE('',*,*,#146,.T.);
#73=ORIENTED_EDGE('',*,*,#147,.F.);
#74=ORIENTED_EDGE('',*,*,#148,.F.);
#75=ORIENTED_EDGE('',*,*,#149,.F.);
#76=ORIENTED_EDGE('',*,*,#150,.F.);
#77=ORIENTED_EDGE('',*,*,#151,.T.);
#78=ORIENTED_EDGE('',*,*,#152,.T.);
#79=ORIENTED_EDGE('',*,*,#153,.F.);
#80=ORIENTED_EDGE('',*,*,#154,.T.);
#81=ORIENTED_EDGE('',*,*,#155,.T.);
#82=ORIENTED_EDGE('',*,*,#156,.F.);
#83=ORIENTED_EDGE('',*,*,#157,.F.);
#84=ORIENTED_EDGE('',*,*,#158,.T.);
#85=ORIENTED_EDGE('',*,*,#159,.F.);
#86=ORIENTED_EDGE('',*,*,#160,.F.);
#87=ORIENTED_EDGE('',*,*,#149,.T.);
#88=ORIENTED_EDGE('',*,*,#161,.T.);
#89=ORIENTED_EDGE('',*,*,#162,.F.);
#90=ORIENTED_EDGE('',*,*,#163,.F.);
#91=ORIENTED_EDGE('',*,*,#150,.T.);
#92=ORIENTED_EDGE('',*,*,#160,.T.);
#93=ORIENTED_EDGE('',*,*,#164,.T.);
#94=ORIENTED_EDGE('',*,*,#165,.F.);
#95=ORIENTED_EDGE('',*,*,#151,.F.);
#96=ORIENTED_EDGE('',*,*,#163,.T.);
#97=ORIENTED_EDGE('',*,*,#166,.T.);
#98=ORIENTED_EDGE('',*,*,#167,.F.);
#99=ORIENTED_EDGE('',*,*,#152,.F.);
#100=ORIENTED_EDGE('',*,*,#165,.T.);
#101=ORIENTED_EDGE('',*,*,#168,.F.);
#102=ORIENTED_EDGE('',*,*,#169,.F.);
#103=ORIENTED_EDGE('',*,*,#153,.T.);
#104=ORIENTED_EDGE('',*,*,#167,.T.);
#105=ORIENTED_EDGE('',*,*,#170,.T.);
#106=ORIENTED_EDGE('',*,*,#171,.F.);
#107=ORIENTED_EDGE('',*,*,#154,.F.);
#108=ORIENTED_EDGE('',*,*,#169,.T.);
#109=ORIENTED_EDGE('',*,*,#172,.T.);
#110=ORIENTED_EDGE('',*,*,#173,.F.);
#111=ORIENTED_EDGE('',*,*,#155,.F.);
#112=ORIENTED_EDGE('',*,*,#171,.T.);
#113=ORIENTED_EDGE('',*,*,#174,.F.);
#114=ORIENTED_EDGE('',*,*,#161,.F.);
#115=ORIENTED_EDGE('',*,*,#156,.T.);
#116=ORIENTED_EDGE('',*,*,#173,.T.);
#117=ORIENTED_EDGE('',*,*,#159,.T.);
#118=ORIENTED_EDGE('',*,*,#174,.T.);
#119=ORIENTED_EDGE('',*,*,#172,.F.);
#120=ORIENTED_EDGE('',*,*,#170,.F.);
#121=ORIENTED_EDGE('',*,*,#168,.T.);
#122=ORIENTED_EDGE('',*,*,#166,.F.);
#123=ORIENTED_EDGE('',*,*,#164,.F.);
#124=ORIENTED_EDGE('',*,*,#162,.T.);
#125=ORIENTED_EDGE('',*,*,#175,.T.);
#126=ORIENTED_EDGE('',*,*,#176,.F.);
#127=ORIENTED_EDGE('',*,*,#177,.F.);
#128=ORIENTED_EDGE('',*,*,#148,.T.);
#129=ORIENTED_EDGE('',*,*,#175,.F.);
#130=ORIENTED_EDGE('',*,*,#177,.T.);
#131=ORIENTED_EDGE('',*,*,#176,.T.);
#132=ORIENTED_EDGE('',*,*,#178,.F.);
#133=ORIENTED_EDGE('',*,*,#147,.T.);
#134=ORIENTED_EDGE('',*,*,#178,.T.);
#135=ORIENTED_EDGE('',*,*,#179,.T.);
#136=ORIENTED_EDGE('',*,*,#146,.F.);
#137=ORIENTED_EDGE('',*,*,#179,.F.);
#138=ORIENTED_EDGE('',*,*,#180,.F.);
#139=ORIENTED_EDGE('',*,*,#157,.T.);
#140=ORIENTED_EDGE('',*,*,#180,.T.);
#141=ORIENTED_EDGE('',*,*,#181,.T.);
#142=ORIENTED_EDGE('',*,*,#158,.F.);
#143=ORIENTED_EDGE('',*,*,#181,.F.);
#144=ORIENTED_EDGE('',*,*,#182,.T.);
#145=ORIENTED_EDGE('',*,*,#183,.F.);
#146=EDGE_CURVE('',#184,#184,#214,.T.);
#147=EDGE_CURVE('',#185,#185,#215,.T.);
#148=EDGE_CURVE('',#186,#186,#216,.T.);
#149=EDGE_CURVE('',#187,#188,#24,.T.);
#150=EDGE_CURVE('',#189,#187,#25,.T.);
#151=EDGE_CURVE('',#189,#190,#26,.T.);
#152=EDGE_CURVE('',#190,#191,#27,.T.);
#153=EDGE_CURVE('',#192,#191,#28,.T.);
#154=EDGE_CURVE('',#192,#193,#29,.T.);
#155=EDGE_CURVE('',#193,#194,#30,.T.);
#156=EDGE_CURVE('',#188,#194,#31,.T.);
#157=EDGE_CURVE('',#195,#195,#217,.T.);
#158=EDGE_CURVE('',#196,#196,#218,.T.);
#159=EDGE_CURVE('',#197,#198,#32,.T.);
#160=EDGE_CURVE('',#187,#197,#33,.T.);
#161=EDGE_CURVE('',#188,#198,#34,.T.);
#162=EDGE_CURVE('',#199,#197,#35,.T.);
#163=EDGE_CURVE('',#189,#199,#36,.T.);
#164=EDGE_CURVE('',#199,#200,#37,.T.);
#165=EDGE_CURVE('',#190,#200,#38,.T.);
#166=EDGE_CURVE('',#200,#201,#39,.T.);
#167=EDGE_CURVE('',#191,#201,#40,.T.);
#168=EDGE_CURVE('',#202,#201,#41,.T.);
#169=EDGE_CURVE('',#192,#202,#42,.T.);
#170=EDGE_CURVE('',#202,#203,#43,.T.);
#171=EDGE_CURVE('',#193,#203,#44,.T.);
#172=EDGE_CURVE('',#203,#204,#45,.T.);
#173=EDGE_CURVE('',#194,#204,#46,.T.);
#174=EDGE_CURVE('',#198,#204,#47,.T.);
#175=EDGE_CURVE('',#205,#205,#219,.T.);
#176=EDGE_CURVE('',#206,#206,#220,.T.);
#177=EDGE_CURVE('',#207,#207,#221,.T.);
#178=EDGE_CURVE('',#208,#208,#222,.T.);
#179=EDGE_CURVE('',#209,#209,#223,.T.);
#180=EDGE_CURVE('',#210,#210,#224,.T.);
#181=EDGE_CURVE('',#211,#211,#225,.T.);
#182=EDGE_CURVE('',#212,#212,#226,.T.);
#183=EDGE_CURVE('',#213,#213,#227,.T.);
#184=VERTEX_POINT('',#504);
#185=VERTEX_POINT('',#506);
#186=VERTEX_POINT('',#508);
#187=VERTEX_POINT('',#510);
#188=VERTEX_POINT('',#511);
#189=VERTEX_POINT('',#513);
#190=VERTEX_POINT('',#515);
#191=VERTEX_POINT('',#517);
#192=VERTEX_POINT('',#519);
#193=VERTEX_POINT('',#521);
#194=VERTEX_POINT('',#523);
#195=VERTEX_POINT('',#526);
#196=VERTEX_POINT('',#528);
#197=VERTEX_POINT('',#531);
#198=VERTEX_POINT('',#532);
#199=VERTEX_POINT('',#537);
#200=VERTEX_POINT('',#541);
#201=VERTEX_POINT('',#545);
#202=VERTEX_POINT('',#549);
#203=VERTEX_POINT('',#553);
#204=VERTEX_POINT('',#557);
#205=VERTEX_POINT('',#564);
#206=VERTEX_POINT('',#566);
#207=VERTEX_POINT('',#569);
#208=VERTEX_POINT('',#574);
#209=VERTEX_POINT('',#578);
#210=VERTEX_POINT('',#582);
#211=VERTEX_POINT('',#586);
#212=VERTEX_POINT('',#591);
#213=VERTEX_POINT('',#593);
#214=CIRCLE('',#362,0.001778);
#215=CIRCLE('',#363,0.001778);
#216=CIRCLE('',#364,0.011049);
#217=CIRCLE('',#365,0.001778);
#218=CIRCLE('',#366,0.001778);
#219=CIRCLE('',#377,0.00254);
#220=CIRCLE('',#378,0.00254);
#221=CIRCLE('',#380,0.011049);
#222=CIRCLE('',#384,0.001778);
#223=CIRCLE('',#387,0.001778);
#224=CIRCLE('',#390,0.001778);
#225=CIRCLE('',#393,0.001778);
#226=CIRCLE('',#397,0.00254);
#227=CIRCLE('',#398,0.00254);
#228=EDGE_LOOP('',(#72));
#229=EDGE_LOOP('',(#73));
#230=EDGE_LOOP('',(#74));
#231=EDGE_LOOP('',(#75,#76,#77,#78,#79,#80,#81,#82));
#232=EDGE_LOOP('',(#83));
#233=EDGE_LOOP('',(#84));
#234=EDGE_LOOP('',(#85,#86,#87,#88));
#235=EDGE_LOOP('',(#89,#90,#91,#92));
#236=EDGE_LOOP('',(#93,#94,#95,#96));
#237=EDGE_LOOP('',(#97,#98,#99,#100));
#238=EDGE_LOOP('',(#101,#102,#103,#104));
#239=EDGE_LOOP('',(#105,#106,#107,#108));
#240=EDGE_LOOP('',(#109,#110,#111,#112));
#241=EDGE_LOOP('',(#113,#114,#115,#116));
#242=EDGE_LOOP('',(#117,#118,#119,#120,#121,#122,#123,#124));
#243=EDGE_LOOP('',(#125));
#244=EDGE_LOOP('',(#126));
#245=EDGE_LOOP('',(#127));
#246=EDGE_LOOP('',(#128));
#247=EDGE_LOOP('',(#129));
#248=EDGE_LOOP('',(#130));
#249=EDGE_LOOP('',(#131));
#250=EDGE_LOOP('',(#132));
#251=EDGE_LOOP('',(#133));
#252=EDGE_LOOP('',(#134));
#253=EDGE_LOOP('',(#135));
#254=EDGE_LOOP('',(#136));
#255=EDGE_LOOP('',(#137));
#256=EDGE_LOOP('',(#138));
#257=EDGE_LOOP('',(#139));
#258=EDGE_LOOP('',(#140));
#259=EDGE_LOOP('',(#141));
#260=EDGE_LOOP('',(#142));
#261=EDGE_LOOP('',(#143));
#262=EDGE_LOOP('',(#144));
#263=EDGE_LOOP('',(#145));
#264=FACE_BOUND('',#228,.T.);
#265=FACE_BOUND('',#229,.T.);
#266=FACE_BOUND('',#230,.T.);
#267=FACE_BOUND('',#231,.T.);
#268=FACE_BOUND('',#232,.T.);
#269=FACE_BOUND('',#233,.T.);
#270=FACE_BOUND('',#234,.T.);
#271=FACE_BOUND('',#235,.T.);
#272=FACE_BOUND('',#236,.T.);
#273=FACE_BOUND('',#237,.T.);
#274=FACE_BOUND('',#238,.T.);
#275=FACE_BOUND('',#239,.T.);
#276=FACE_BOUND('',#240,.T.);
#277=FACE_BOUND('',#241,.T.);
#278=FACE_BOUND('',#242,.T.);
#279=FACE_BOUND('',#243,.T.);
#280=FACE_BOUND('',#244,.T.);
#281=FACE_BOUND('',#245,.T.);
#282=FACE_BOUND('',#246,.T.);
#283=FACE_BOUND('',#247,.T.);
#284=FACE_BOUND('',#248,.T.);
#285=FACE_BOUND('',#249,.T.);
#286=FACE_BOUND('',#250,.T.);
#287=FACE_BOUND('',#251,.T.);
#288=FACE_BOUND('',#252,.T.);
#289=FACE_BOUND('',#253,.T.);
#290=FACE_BOUND('',#254,.T.);
#291=FACE_BOUND('',#255,.T.);
#292=FACE_BOUND('',#256,.T.);
#293=FACE_BOUND('',#257,.T.);
#294=FACE_BOUND('',#258,.T.);
#295=FACE_BOUND('',#259,.T.);
#296=FACE_BOUND('',#260,.T.);
#297=FACE_BOUND('',#261,.T.);
#298=FACE_BOUND('',#262,.T.);
#299=FACE_BOUND('',#263,.T.);
#300=PLANE('',#361);
#301=PLANE('',#367);
#302=PLANE('',#368);
#303=PLANE('',#369);
#304=PLANE('',#370);
#305=PLANE('',#371);
#306=PLANE('',#372);
#307=PLANE('',#373);
#308=PLANE('',#374);
#309=PLANE('',#375);
#310=PLANE('',#381);
#311=PLANE('',#382);
#312=PLANE('',#385);
#313=PLANE('',#388);
#314=PLANE('',#391);
#315=PLANE('',#394);
#316=ADVANCED_FACE('',(#264,#265,#266,#267,#268,#269),#300,.T.);
#317=ADVANCED_FACE('',(#270),#301,.T.);
#318=ADVANCED_FACE('',(#271),#302,.T.);
#319=ADVANCED_FACE('',(#272),#303,.F.);
#320=ADVANCED_FACE('',(#273),#304,.F.);
#321=ADVANCED_FACE('',(#274),#305,.T.);
#322=ADVANCED_FACE('',(#275),#306,.F.);
#323=ADVANCED_FACE('',(#276),#307,.F.);
#324=ADVANCED_FACE('',(#277),#308,.T.);
#325=ADVANCED_FACE('',(#278),#309,.F.);
#326=ADVANCED_FACE('',(#279,#280),#17,.F.);
#327=ADVANCED_FACE('',(#281,#282),#18,.T.);
#328=ADVANCED_FACE('',(#283,#284),#310,.T.);
#329=ADVANCED_FACE('',(#285),#311,.T.);
#330=ADVANCED_FACE('',(#286,#287),#19,.F.);
#331=ADVANCED_FACE('',(#288),#312,.T.);
#332=ADVANCED_FACE('',(#289,#290),#20,.F.);
#333=ADVANCED_FACE('',(#291),#313,.T.);
#334=ADVANCED_FACE('',(#292,#293),#21,.F.);
#335=ADVANCED_FACE('',(#294),#314,.T.);
#336=ADVANCED_FACE('',(#295,#296),#22,.F.);
#337=ADVANCED_FACE('',(#297),#315,.T.);
#338=ADVANCED_FACE('',(#298,#299),#23,.T.);
#339=CLOSED_SHELL('',(#316,#317,#318,#319,#320,#321,#322,#323,#324,#325,
#326,#327,#328,#329,#330,#331,#332,#333,#334,#335,#336,#337));
#340=STYLED_ITEM('',(#342),#355);
#341=STYLED_ITEM('',(#343),#13);
#342=PRESENTATION_STYLE_ASSIGNMENT((#344));
#343=PRESENTATION_STYLE_ASSIGNMENT((#345));
#344=SURFACE_STYLE_USAGE(.BOTH.,#346);
#345=SURFACE_STYLE_USAGE(.BOTH.,#347);
#346=SURFACE_SIDE_STYLE('',(#348));
#347=SURFACE_SIDE_STYLE('',(#349));
#348=SURFACE_STYLE_FILL_AREA(#350);
#349=SURFACE_STYLE_FILL_AREA(#351);
#350=FILL_AREA_STYLE('',(#352));
#351=FILL_AREA_STYLE('',(#353));
#352=FILL_AREA_STYLE_COLOUR('',#354);
#353=FILL_AREA_STYLE_COLOUR('',#12);
#354=DRAUGHTING_PRE_DEFINED_COLOUR('black');
#355=MANIFOLD_SOLID_BREP('nema model',#339);
#356=SHAPE_DEFINITION_REPRESENTATION(#606,#358);
#357=SHAPE_DEFINITION_REPRESENTATION(#607,#359);
#358=SHAPE_REPRESENTATION('nema model',(#360),#596);
#359=SHAPE_REPRESENTATION('Surface 1',(#395),#597);
#360=AXIS2_PLACEMENT_3D('',#501,#399,#400);
#361=AXIS2_PLACEMENT_3D('',#502,#401,#402);
#362=AXIS2_PLACEMENT_3D('',#503,#403,#404);
#363=AXIS2_PLACEMENT_3D('',#505,#405,#406);
#364=AXIS2_PLACEMENT_3D('',#507,#407,#408);
#365=AXIS2_PLACEMENT_3D('',#525,#417,#418);
#366=AXIS2_PLACEMENT_3D('',#527,#419,#420);
#367=AXIS2_PLACEMENT_3D('',#529,#421,#422);
#368=AXIS2_PLACEMENT_3D('',#535,#426,#427);
#369=AXIS2_PLACEMENT_3D('',#539,#430,#431);
#370=AXIS2_PLACEMENT_3D('',#543,#434,#435);
#371=AXIS2_PLACEMENT_3D('',#547,#438,#439);
#372=AXIS2_PLACEMENT_3D('',#551,#442,#443);
#373=AXIS2_PLACEMENT_3D('',#555,#446,#447);
#374=AXIS2_PLACEMENT_3D('',#559,#450,#451);
#375=AXIS2_PLACEMENT_3D('',#561,#453,#454);
#376=AXIS2_PLACEMENT_3D('',#562,#455,#456);
#377=AXIS2_PLACEMENT_3D('',#563,#457,#458);
#378=AXIS2_PLACEMENT_3D('',#565,#459,#460);
#379=AXIS2_PLACEMENT_3D('',#567,#461,#462);
#380=AXIS2_PLACEMENT_3D('',#568,#463,#464);
#381=AXIS2_PLACEMENT_3D('',#570,#465,#466);
#382=AXIS2_PLACEMENT_3D('',#571,#467,#468);
#383=AXIS2_PLACEMENT_3D('',#572,#469,#470);
#384=AXIS2_PLACEMENT_3D('',#573,#471,#472);
#385=AXIS2_PLACEMENT_3D('',#575,#473,#474);
#386=AXIS2_PLACEMENT_3D('',#576,#475,#476);
#387=AXIS2_PLACEMENT_3D('',#577,#477,#478);
#388=AXIS2_PLACEMENT_3D('',#579,#479,#480);
#389=AXIS2_PLACEMENT_3D('',#580,#481,#482);
#390=AXIS2_PLACEMENT_3D('',#581,#483,#484);
#391=AXIS2_PLACEMENT_3D('',#583,#485,#486);
#392=AXIS2_PLACEMENT_3D('',#584,#487,#488);
#393=AXIS2_PLACEMENT_3D('',#585,#489,#490);
#394=AXIS2_PLACEMENT_3D('',#587,#491,#492);
#395=AXIS2_PLACEMENT_3D('',#588,#493,#494);
#396=AXIS2_PLACEMENT_3D('',#589,#495,#496);
#397=AXIS2_PLACEMENT_3D('',#590,#497,#498);
#398=AXIS2_PLACEMENT_3D('',#592,#499,#500);
#399=DIRECTION('',(0.,0.,1.));
#400=DIRECTION('',(1.,0.,0.));
#401=DIRECTION('',(0.,0.,1.));
#402=DIRECTION('',(1.,0.,0.));
#403=DIRECTION('',(0.,0.,-1.));
#404=DIRECTION('',(1.,0.,0.));
#405=DIRECTION('',(0.,0.,1.));
#406=DIRECTION('',(1.,0.,0.));
#407=DIRECTION('',(0.,0.,1.));
#408=DIRECTION('',(1.,0.,0.));
#409=DIRECTION('',(0.707106781186548,-0.707106781186548,0.));
#410=DIRECTION('',(1.,0.,0.));
#411=DIRECTION('',(-0.707106781186548,-0.707106781186548,0.));
#412=DIRECTION('',(-2.27653999472022E-16,-1.,0.));
#413=DIRECTION('',(-0.707106781186548,0.707106781186548,0.));
#414=DIRECTION('',(1.,0.,0.));
#415=DIRECTION('',(0.707106781186548,0.707106781186548,0.));
#416=DIRECTION('',(-2.27653999472022E-16,-1.,0.));
#417=DIRECTION('',(0.,0.,1.));
#418=DIRECTION('',(1.,0.,0.));
#419=DIRECTION('',(0.,0.,-1.));
#420=DIRECTION('',(1.,0.,0.));
#421=DIRECTION('',(0.707106781186548,0.707106781186548,0.));
#422=DIRECTION('',(-0.707106781186548,0.707106781186548,0.));
#423=DIRECTION('',(0.707106781186548,-0.707106781186548,0.));
#424=DIRECTION('',(0.,0.,-1.));
#425=DIRECTION('',(0.,0.,-1.));
#426=DIRECTION('',(0.,1.,0.));
#427=DIRECTION('',(0.,0.,1.));
#428=DIRECTION('',(1.,0.,0.));
#429=DIRECTION('',(0.,0.,-1.));
#430=DIRECTION('',(0.707106781186548,-0.707106781186548,0.));
#431=DIRECTION('',(0.707106781186548,0.707106781186548,0.));
#432=DIRECTION('',(-0.707106781186548,-0.707106781186548,0.));
#433=DIRECTION('',(0.,0.,-1.));
#434=DIRECTION('',(1.,-2.27653999472022E-16,0.));
#435=DIRECTION('',(2.27653999472022E-16,1.,0.));
#436=DIRECTION('',(-2.27653999472022E-16,-1.,0.));
#437=DIRECTION('',(0.,0.,-1.));
#438=DIRECTION('',(-0.707106781186548,-0.707106781186548,0.));
#439=DIRECTION('',(0.707106781186548,-0.707106781186548,0.));
#440=DIRECTION('',(-0.707106781186548,0.707106781186548,0.));
#441=DIRECTION('',(0.,0.,-1.));
#442=DIRECTION('',(0.,1.,0.));
#443=DIRECTION('',(0.,0.,1.));
#444=DIRECTION('',(1.,0.,0.));
#445=DIRECTION('',(0.,0.,-1.));
#446=DIRECTION('',(-0.707106781186548,0.707106781186548,0.));
#447=DIRECTION('',(-0.707106781186548,-0.707106781186548,0.));
#448=DIRECTION('',(0.707106781186548,0.707106781186548,0.));
#449=DIRECTION('',(0.,0.,-1.));
#450=DIRECTION('',(1.,-2.27653999472022E-16,0.));
#451=DIRECTION('',(2.27653999472022E-16,1.,0.));
#452=DIRECTION('',(-2.27653999472022E-16,-1.,0.));
#453=DIRECTION('',(0.,0.,1.));
#454=DIRECTION('',(1.,0.,0.));
#455=DIRECTION('',(0.,0.,-1.));
#456=DIRECTION('',(-1.,0.,0.));
#457=DIRECTION('',(0.,0.,1.));
#458=DIRECTION('',(1.,0.,0.));
#459=DIRECTION('',(0.,0.,1.));
#460=DIRECTION('',(1.,0.,0.));
#461=DIRECTION('',(0.,0.,-1.));
#462=DIRECTION('',(-1.,0.,0.));
#463=DIRECTION('',(0.,0.,1.));
#464=DIRECTION('',(1.,0.,0.));
#465=DIRECTION('',(0.,0.,1.));
#466=DIRECTION('',(1.,0.,0.));
#467=DIRECTION('',(0.,0.,1.));
#468=DIRECTION('',(1.,0.,0.));
#469=DIRECTION('',(0.,0.,1.));
#470=DIRECTION('',(1.,0.,0.));
#471=DIRECTION('',(0.,0.,1.));
#472=DIRECTION('',(1.,0.,0.));
#473=DIRECTION('',(0.,0.,1.));
#474=DIRECTION('',(1.,0.,0.));
#475=DIRECTION('',(0.,0.,1.));
#476=DIRECTION('',(1.,0.,0.));
#477=DIRECTION('',(0.,0.,-1.));
#478=DIRECTION('',(1.,0.,0.));
#479=DIRECTION('',(0.,0.,1.));
#480=DIRECTION('',(1.,0.,0.));
#481=DIRECTION('',(0.,0.,1.));
#482=DIRECTION('',(1.,0.,0.));
#483=DIRECTION('',(0.,0.,1.));
#484=DIRECTION('',(1.,0.,0.));
#485=DIRECTION('',(0.,0.,1.));
#486=DIRECTION('',(1.,0.,0.));
#487=DIRECTION('',(0.,0.,1.));
#488=DIRECTION('',(1.,0.,0.));
#489=DIRECTION('',(0.,0.,-1.));
#490=DIRECTION('',(1.,0.,0.));
#491=DIRECTION('',(0.,0.,1.));
#492=DIRECTION('',(1.,0.,0.));
#493=DIRECTION('',(0.,0.,1.));
#494=DIRECTION('',(1.,0.,0.));
#495=DIRECTION('',(0.,0.,1.));
#496=DIRECTION('',(1.,0.,0.));
#497=DIRECTION('',(0.,0.,1.));
#498=DIRECTION('',(1.,0.,0.));
#499=DIRECTION('',(0.,0.,1.));
#500=DIRECTION('',(1.,0.,0.));
#501=CARTESIAN_POINT('',(0.,0.,0.));
#502=CARTESIAN_POINT('',(0.,0.,0.024511));
#503=CARTESIAN_POINT('',(-0.015494,-0.015494,0.024511));
#504=CARTESIAN_POINT('',(-0.013716,-0.015494,0.024511));
#505=CARTESIAN_POINT('',(-0.015494,0.015494,0.024511));
#506=CARTESIAN_POINT('',(-0.013716,0.015494,0.024511));
#507=CARTESIAN_POINT('',(0.,6.76556124188955E-19,0.024511));
#508=CARTESIAN_POINT('',(0.011049,6.76556124188955E-19,0.024511));
#509=CARTESIAN_POINT('',(0.018415,0.018415,0.024511));
#510=CARTESIAN_POINT('',(0.01524,0.02159,0.024511));
#511=CARTESIAN_POINT('',(0.02159,0.01524,0.024511));
#512=CARTESIAN_POINT('',(3.46944695195361E-18,0.02159,0.024511));
#513=CARTESIAN_POINT('',(-0.01524,0.02159,0.024511));
#514=CARTESIAN_POINT('',(-0.018415,0.018415,0.024511));
#515=CARTESIAN_POINT('',(-0.02159,0.01524,0.024511));
#516=CARTESIAN_POINT('',(-0.02159,-8.67361737988404E-19,0.024511));
#517=CARTESIAN_POINT('',(-0.02159,-0.01524,0.024511));
#518=CARTESIAN_POINT('',(-0.018415,-0.018415,0.024511));
#519=CARTESIAN_POINT('',(-0.01524,-0.02159,0.024511));
#520=CARTESIAN_POINT('',(-3.46944695195361E-18,-0.02159,0.024511));
#521=CARTESIAN_POINT('',(0.01524,-0.02159,0.024511));
#522=CARTESIAN_POINT('',(0.018415,-0.018415,0.024511));
#523=CARTESIAN_POINT('',(0.02159,-0.01524,0.024511));
#524=CARTESIAN_POINT('',(0.02159,2.60208521396521E-18,0.024511));
#525=CARTESIAN_POINT('',(0.015494,-0.015494,0.024511));
#526=CARTESIAN_POINT('',(0.017272,-0.015494,0.024511));
#527=CARTESIAN_POINT('',(0.015494,0.015494,0.024511));
#528=CARTESIAN_POINT('',(0.017272,0.015494,0.024511));
#529=CARTESIAN_POINT('',(0.018415,0.018415,0.024511));
#530=CARTESIAN_POINT('',(0.018415,0.018415,-0.024511));
#531=CARTESIAN_POINT('',(0.01524,0.02159,-0.024511));
#532=CARTESIAN_POINT('',(0.02159,0.01524,-0.024511));
#533=CARTESIAN_POINT('',(0.01524,0.02159,0.024511));
#534=CARTESIAN_POINT('',(0.02159,0.01524,0.024511));
#535=CARTESIAN_POINT('',(3.46944695195361E-18,0.02159,0.024511));
#536=CARTESIAN_POINT('',(3.46944695195361E-18,0.02159,-0.024511));
#537=CARTESIAN_POINT('',(-0.01524,0.02159,-0.024511));
#538=CARTESIAN_POINT('',(-0.01524,0.02159,0.024511));
#539=CARTESIAN_POINT('',(-0.018415,0.018415,0.024511));
#540=CARTESIAN_POINT('',(-0.018415,0.018415,-0.024511));
#541=CARTESIAN_POINT('',(-0.02159,0.01524,-0.024511));
#542=CARTESIAN_POINT('',(-0.02159,0.01524,0.024511));
#543=CARTESIAN_POINT('',(-0.02159,-8.67361737988404E-19,0.024511));
#544=CARTESIAN_POINT('',(-0.02159,-8.67361737988404E-19,-0.024511));
#545=CARTESIAN_POINT('',(-0.02159,-0.01524,-0.024511));
#546=CARTESIAN_POINT('',(-0.02159,-0.01524,0.024511));
#547=CARTESIAN_POINT('',(-0.018415,-0.018415,0.024511));
#548=CARTESIAN_POINT('',(-0.018415,-0.018415,-0.024511));
#549=CARTESIAN_POINT('',(-0.01524,-0.02159,-0.024511));
#550=CARTESIAN_POINT('',(-0.01524,-0.02159,0.024511));
#551=CARTESIAN_POINT('',(-3.46944695195361E-18,-0.02159,0.024511));
#552=CARTESIAN_POINT('',(-3.46944695195361E-18,-0.02159,-0.024511));
#553=CARTESIAN_POINT('',(0.01524,-0.02159,-0.024511));
#554=CARTESIAN_POINT('',(0.01524,-0.02159,0.024511));
#555=CARTESIAN_POINT('',(0.018415,-0.018415,0.024511));
#556=CARTESIAN_POINT('',(0.018415,-0.018415,-0.024511));
#557=CARTESIAN_POINT('',(0.02159,-0.01524,-0.024511));
#558=CARTESIAN_POINT('',(0.02159,-0.01524,0.024511));
#559=CARTESIAN_POINT('',(0.02159,2.60208521396521E-18,0.024511));
#560=CARTESIAN_POINT('',(0.02159,2.60208521396521E-18,-0.024511));
#561=CARTESIAN_POINT('',(0.,0.,-0.024511));
#562=CARTESIAN_POINT('',(0.,1.55530143491714E-19,0.025781));
#563=CARTESIAN_POINT('',(0.,1.55530143491714E-19,0.025781));
#564=CARTESIAN_POINT('',(0.00254,1.55530143491714E-19,0.025781));
#565=CARTESIAN_POINT('',(0.,1.55530143491714E-19,0.024511));
#566=CARTESIAN_POINT('',(0.00254,1.55530143491714E-19,0.024511));
#567=CARTESIAN_POINT('',(0.,6.76556124188955E-19,0.025781));
#568=CARTESIAN_POINT('',(0.,6.76556124188955E-19,0.025781));
#569=CARTESIAN_POINT('',(0.011049,6.76556124188955E-19,0.025781));
#570=CARTESIAN_POINT('',(0.,0.,0.025781));
#571=CARTESIAN_POINT('',(0.,0.,0.024511));
#572=CARTESIAN_POINT('',(-0.015494,0.015494,0.009271));
#573=CARTESIAN_POINT('',(-0.015494,0.015494,0.009271));
#574=CARTESIAN_POINT('',(-0.013716,0.015494,0.009271));
#575=CARTESIAN_POINT('',(0.,0.,0.009271));
#576=CARTESIAN_POINT('',(-0.015494,-0.015494,0.009271));
#577=CARTESIAN_POINT('',(-0.015494,-0.015494,0.009271));
#578=CARTESIAN_POINT('',(-0.013716,-0.015494,0.009271));
#579=CARTESIAN_POINT('',(0.,0.,0.009271));
#580=CARTESIAN_POINT('',(0.015494,-0.015494,0.009271));
#581=CARTESIAN_POINT('',(0.015494,-0.015494,0.009271));
#582=CARTESIAN_POINT('',(0.017272,-0.015494,0.009271));
#583=CARTESIAN_POINT('',(0.,0.,0.009271));
#584=CARTESIAN_POINT('',(0.015494,0.015494,0.009271));
#585=CARTESIAN_POINT('',(0.015494,0.015494,0.009271));
#586=CARTESIAN_POINT('',(0.017272,0.015494,0.009271));
#587=CARTESIAN_POINT('',(0.,0.,0.009271));
#588=CARTESIAN_POINT('',(0.,0.,0.));
#589=CARTESIAN_POINT('',(0.0212271437048912,0.0403761006891728,0.));
#590=CARTESIAN_POINT('',(0.0212271437048912,0.0403761006891728,0.));
#591=CARTESIAN_POINT('',(0.0237671437048912,0.0403761006891728,0.));
#592=CARTESIAN_POINT('',(0.0212271437048912,0.0403761006891728,0.019558));
#593=CARTESIAN_POINT('',(0.0237671437048912,0.0403761006891728,0.019558));
#594=MECHANICAL_DESIGN_GEOMETRIC_PRESENTATION_REPRESENTATION('',(#340),
#596);
#595=MECHANICAL_DESIGN_GEOMETRIC_PRESENTATION_REPRESENTATION('',(#341),
#597);
#596=(
GEOMETRIC_REPRESENTATION_CONTEXT(3)
GLOBAL_UNCERTAINTY_ASSIGNED_CONTEXT((#598))
GLOBAL_UNIT_ASSIGNED_CONTEXT((#604,#602,#600))
REPRESENTATION_CONTEXT('nema model','TOP_LEVEL_ASSEMBLY_PART')
);
#597=(
GEOMETRIC_REPRESENTATION_CONTEXT(3)
GLOBAL_UNCERTAINTY_ASSIGNED_CONTEXT((#599))
GLOBAL_UNIT_ASSIGNED_CONTEXT((#605,#603,#601))
REPRESENTATION_CONTEXT('Surface 1','TOP_LEVEL_ASSEMBLY_PART')
);
#598=UNCERTAINTY_MEASURE_WITH_UNIT(LENGTH_MEASURE(1.E-8),#604,
'DISTANCE_ACCURACY_VALUE','Maximum Tolerance applied to model');
#599=UNCERTAINTY_MEASURE_WITH_UNIT(LENGTH_MEASURE(1.E-8),#605,
'DISTANCE_ACCURACY_VALUE','Maximum Tolerance applied to model');
#600=(
NAMED_UNIT(*)
SI_UNIT($,.STERADIAN.)
SOLID_ANGLE_UNIT()
);
#601=(
NAMED_UNIT(*)
SI_UNIT($,.STERADIAN.)
SOLID_ANGLE_UNIT()
);
#602=(
NAMED_UNIT(*)
PLANE_ANGLE_UNIT()
SI_UNIT($,.RADIAN.)
);
#603=(
NAMED_UNIT(*)
PLANE_ANGLE_UNIT()
SI_UNIT($,.RADIAN.)
);
#604=(
LENGTH_UNIT()
NAMED_UNIT(*)
SI_UNIT($,.METRE.)
);
#605=(
LENGTH_UNIT()
NAMED_UNIT(*)
SI_UNIT($,.METRE.)
);
#606=PRODUCT_DEFINITION_SHAPE('','',#608);
#607=PRODUCT_DEFINITION_SHAPE('','',#609);
#608=PRODUCT_DEFINITION('','',#612,#610);
#609=PRODUCT_DEFINITION('','',#613,#611);
#610=PRODUCT_DEFINITION_CONTEXT('',#624,'design');
#611=PRODUCT_DEFINITION_CONTEXT('',#625,'design');
#612=PRODUCT_DEFINITION_FORMATION_WITH_SPECIFIED_SOURCE('','',#616,
 .NOT_KNOWN.);
#613=PRODUCT_DEFINITION_FORMATION_WITH_SPECIFIED_SOURCE('','',#617,
 .NOT_KNOWN.);
#614=PRODUCT_RELATED_PRODUCT_CATEGORY('','',(#616));
#615=PRODUCT_RELATED_PRODUCT_CATEGORY('','',(#617));
#616=PRODUCT('nema model','nema model','nema model',(#620));
#617=PRODUCT('Surface 1','Surface 1','Surface 1',(#621));
#618=PRODUCT_CATEGORY('','');
#619=PRODUCT_CATEGORY('','');
#620=PRODUCT_CONTEXT('',#624,'mechanical');
#621=PRODUCT_CONTEXT('',#625,'mechanical');
#622=APPLICATION_PROTOCOL_DEFINITION('international standard',
'ap242_managed_model_based_3d_engineering',2020,#624);
#623=APPLICATION_PROTOCOL_DEFINITION('international standard',
'ap242_managed_model_based_3d_engineering',2020,#625);
#624=APPLICATION_CONTEXT('managed model based 3d engineering');
#625=APPLICATION_CONTEXT('managed model based 3d engineering');
ENDSEC;
END-ISO-10303-21;
