ISO-10303-21;
HEADER;
/* Generated by software containing ST-Developer
 * from STEP Tools, Inc. (www.steptools.com) 
 */
/* OPTION: using custom renumber hook */

FILE_DESCRIPTION(
/* description */ ('STEP AP242 Edition 2',
'CAx-IF Rec.Pracs.---Representation and Presentation of Product Manufa
cturing Information (PMI)---4.0---2014-10-13',
'CAx-IF Rec.Pracs.---3D Tessellated Geometry---0.4---2014-09-14','2;1',
'CAx-IF Rec.Pracs.---User Defined Attributes---1.5---2016-08-15'),
/* implementation_level */ '2;1');

FILE_NAME(
/* name */ 'og side holder',
/* time_stamp */ '2026-08-14T04:18:58Z',
/* author */ (''),
/* organization */ (''),
/* preprocessor_version */ 'ST-DEVELOPER v20',
/* originating_system */ 'ONSHAPE BY PTC INC, 1.219',
/* authorisation */ '  ');

FILE_SCHEMA (('AP242_MANAGED_MODEL_BASED_3D_ENGINEERING_MIM_LF { 1 0 10303 442 3 1 4 }'));
ENDSEC;

DATA;
#10=SPHERICAL_SURFACE('',#1318,0.0012264136);
#11=SPHERICAL_SURFACE('',#1324,0.0012264136);
#12=SPHERICAL_SURFACE('',#1336,0.0012264136);
#13=ELLIPSE('',#1248,0.00173441074619881,0.0012264136);
#14=ELLIPSE('',#1249,0.00173441074619881,0.0012264136);
#15=ELLIPSE('',#1251,0.00173441074619882,0.0012264136);
#16=ELLIPSE('',#1253,0.00173441074619881,0.0012264136);
#17=ELLIPSE('',#1307,0.00173441074619881,0.0012264136);
#18=ELLIPSE('',#1309,0.00173441074619881,0.0012264136);
#19=ELLIPSE('',#1311,0.00173441074619882,0.0012264136);
#20=ELLIPSE('',#1313,0.00173441074619882,0.0012264136);
#21=ELLIPSE('',#1339,0.00173441074619881,0.0012264136);
#22=SHAPE_REPRESENTATION_RELATIONSHIP('','',#1218,#27);
#23=SHAPE_REPRESENTATION_RELATIONSHIP('','',#1219,#28);
#24=SHAPE_REPRESENTATION_RELATIONSHIP('','',#1220,#29);
#25=SHAPE_REPRESENTATION_RELATIONSHIP('','',#1221,#30);
#26=SHAPE_REPRESENTATION_RELATIONSHIP('','',#1222,#31);
#27=ADVANCED_BREP_SHAPE_REPRESENTATION('',(#1208),#2050);
#28=ADVANCED_BREP_SHAPE_REPRESENTATION('',(#1209),#2051);
#29=ADVANCED_BREP_SHAPE_REPRESENTATION('',(#1210),#2052);
#30=ADVANCED_BREP_SHAPE_REPRESENTATION('',(#1211),#2053);
#31=ADVANCED_BREP_SHAPE_REPRESENTATION('',(#1212),#2054);
#32=TOROIDAL_SURFACE('',#1239,0.026981257662767,0.0012264136);
#33=TOROIDAL_SURFACE('',#1271,0.0269812576627676,0.0012264136);
#34=TOROIDAL_SURFACE('',#1283,0.0269812576627672,0.0012264136);
#35=TOROIDAL_SURFACE('',#1330,0.0024528272,0.0012264136);
#36=B_SPLINE_CURVE_WITH_KNOTS('',3,(#1721,#1722,#1723,#1724,#1725),
 .UNSPECIFIED.,.F.,.F.,(4,1,4),(0.,0.000968648372653916,0.00193729674530783),
 .UNSPECIFIED.);
#37=B_SPLINE_CURVE_WITH_KNOTS('',3,(#1809,#1810,#1811,#1812,#1813),
 .UNSPECIFIED.,.F.,.F.,(4,1,4),(0.,0.000964853155375611,0.00192970631075122),
 .UNSPECIFIED.);
#38=B_SPLINE_CURVE_WITH_KNOTS('',3,(#1859,#1860,#1861,#1862,#1863),
 .UNSPECIFIED.,.F.,.F.,(4,1,4),(0.,0.000968636591301055,0.00193727318260211),
 .UNSPECIFIED.);
#39=B_SPLINE_CURVE_WITH_KNOTS('',3,(#1880,#1881,#1882,#1883,#1884),
 .UNSPECIFIED.,.F.,.F.,(4,1,4),(0.,0.000964862106502176,0.00192972421300435),
 .UNSPECIFIED.);
#40=CYLINDRICAL_SURFACE('',#1227,0.028207671262767);
#41=CYLINDRICAL_SURFACE('',#1237,0.0012264136);
#42=CYLINDRICAL_SURFACE('',#1247,0.0012264136);
#43=CYLINDRICAL_SURFACE('',#1250,0.0012264136);
#44=CYLINDRICAL_SURFACE('',#1252,0.0012264136);
#45=CYLINDRICAL_SURFACE('',#1254,0.0012264136);
#46=CYLINDRICAL_SURFACE('',#1258,0.0282076712627676);
#47=CYLINDRICAL_SURFACE('',#1269,0.0012264136);
#48=CYLINDRICAL_SURFACE('',#1274,0.0282076712627672);
#49=CYLINDRICAL_SURFACE('',#1306,0.0012264136);
#50=CYLINDRICAL_SURFACE('',#1308,0.0012264136);
#51=CYLINDRICAL_SURFACE('',#1310,0.0012264136);
#52=CYLINDRICAL_SURFACE('',#1312,0.0012264136);
#53=CYLINDRICAL_SURFACE('',#1314,0.0012264136);
#54=CYLINDRICAL_SURFACE('',#1316,0.0012264136);
#55=CYLINDRICAL_SURFACE('',#1320,0.0012264136);
#56=CYLINDRICAL_SURFACE('',#1322,0.0012264136);
#57=CYLINDRICAL_SURFACE('',#1326,0.0012264136);
#58=CYLINDRICAL_SURFACE('',#1328,0.0012264136);
#59=CYLINDRICAL_SURFACE('',#1332,0.0012264136);
#60=CYLINDRICAL_SURFACE('',#1334,0.0012264136);
#61=CYLINDRICAL_SURFACE('',#1338,0.0012264136);
#62=CYLINDRICAL_SURFACE('',#1340,0.0012264136);
#63=CYLINDRICAL_SURFACE('',#1341,0.00508);
#64=CIRCLE('',#1225,0.0012264136);
#65=CIRCLE('',#1228,0.028207671262767);
#66=CIRCLE('',#1229,0.028207671262767);
#67=CIRCLE('',#1235,0.026981257662767);
#68=CIRCLE('',#1238,0.0012264136);
#69=CIRCLE('',#1259,0.0282076712627676);
#70=CIRCLE('',#1260,0.0282076712627676);
#71=CIRCLE('',#1263,0.0012264136);
#72=CIRCLE('',#1267,0.0269812576627676);
#73=CIRCLE('',#1270,0.0012264136);
#74=CIRCLE('',#1275,0.0282076712627672);
#75=CIRCLE('',#1276,0.0282076712627672);
#76=CIRCLE('',#1281,0.0269812576627672);
#77=CIRCLE('',#1289,0.00508);
#78=CIRCLE('',#1293,0.0012264136);
#79=CIRCLE('',#1297,0.00508);
#80=CIRCLE('',#1299,0.0024528272);
#81=CIRCLE('',#1301,0.0012264136);
#82=CIRCLE('',#1302,0.0012264136);
#83=CIRCLE('',#1303,0.0012264136);
#84=CIRCLE('',#1304,0.0012264136);
#85=CIRCLE('',#1305,0.0012264136);
#86=CIRCLE('',#1315,0.0012264136);
#87=CIRCLE('',#1317,0.0012264136);
#88=CIRCLE('',#1319,0.0012264136);
#89=CIRCLE('',#1321,0.0012264136);
#90=CIRCLE('',#1323,0.0012264136);
#91=CIRCLE('',#1325,0.0012264136);
#92=CIRCLE('',#1327,0.0012264136);
#93=CIRCLE('',#1329,0.0012264136);
#94=CIRCLE('',#1331,0.0012264136);
#95=CIRCLE('',#1333,0.0012264136);
#96=CIRCLE('',#1335,0.0012264136);
#97=CIRCLE('',#1337,0.0012264136);
#98=ORIENTED_EDGE('',*,*,#418,.F.);
#99=ORIENTED_EDGE('',*,*,#419,.T.);
#100=ORIENTED_EDGE('',*,*,#420,.T.);
#101=ORIENTED_EDGE('',*,*,#421,.T.);
#102=ORIENTED_EDGE('',*,*,#422,.F.);
#103=ORIENTED_EDGE('',*,*,#423,.F.);
#104=ORIENTED_EDGE('',*,*,#424,.T.);
#105=ORIENTED_EDGE('',*,*,#418,.T.);
#106=ORIENTED_EDGE('',*,*,#425,.F.);
#107=ORIENTED_EDGE('',*,*,#426,.F.);
#108=ORIENTED_EDGE('',*,*,#427,.T.);
#109=ORIENTED_EDGE('',*,*,#423,.T.);
#110=ORIENTED_EDGE('',*,*,#428,.T.);
#111=ORIENTED_EDGE('',*,*,#429,.F.);
#112=ORIENTED_EDGE('',*,*,#430,.T.);
#113=ORIENTED_EDGE('',*,*,#426,.T.);
#114=ORIENTED_EDGE('',*,*,#431,.T.);
#115=ORIENTED_EDGE('',*,*,#432,.F.);
#116=ORIENTED_EDGE('',*,*,#433,.T.);
#117=ORIENTED_EDGE('',*,*,#434,.F.);
#118=ORIENTED_EDGE('',*,*,#435,.F.);
#119=ORIENTED_EDGE('',*,*,#432,.T.);
#120=ORIENTED_EDGE('',*,*,#436,.F.);
#121=ORIENTED_EDGE('',*,*,#437,.F.);
#122=ORIENTED_EDGE('',*,*,#438,.T.);
#123=ORIENTED_EDGE('',*,*,#434,.T.);
#124=ORIENTED_EDGE('',*,*,#439,.F.);
#125=ORIENTED_EDGE('',*,*,#421,.F.);
#126=ORIENTED_EDGE('',*,*,#440,.T.);
#127=ORIENTED_EDGE('',*,*,#437,.T.);
#128=ORIENTED_EDGE('',*,*,#441,.T.);
#129=ORIENTED_EDGE('',*,*,#442,.T.);
#130=ORIENTED_EDGE('',*,*,#429,.T.);
#131=ORIENTED_EDGE('',*,*,#435,.T.);
#132=ORIENTED_EDGE('',*,*,#438,.F.);
#133=ORIENTED_EDGE('',*,*,#440,.F.);
#134=ORIENTED_EDGE('',*,*,#420,.F.);
#135=ORIENTED_EDGE('',*,*,#422,.T.);
#136=ORIENTED_EDGE('',*,*,#439,.T.);
#137=ORIENTED_EDGE('',*,*,#436,.T.);
#138=ORIENTED_EDGE('',*,*,#433,.F.);
#139=ORIENTED_EDGE('',*,*,#431,.F.);
#140=ORIENTED_EDGE('',*,*,#428,.F.);
#141=ORIENTED_EDGE('',*,*,#425,.T.);
#142=ORIENTED_EDGE('',*,*,#419,.F.);
#143=ORIENTED_EDGE('',*,*,#424,.F.);
#144=ORIENTED_EDGE('',*,*,#443,.F.);
#145=ORIENTED_EDGE('',*,*,#441,.F.);
#146=ORIENTED_EDGE('',*,*,#443,.T.);
#147=ORIENTED_EDGE('',*,*,#427,.F.);
#148=ORIENTED_EDGE('',*,*,#430,.F.);
#149=ORIENTED_EDGE('',*,*,#442,.F.);
#150=ORIENTED_EDGE('',*,*,#444,.F.);
#151=ORIENTED_EDGE('',*,*,#445,.T.);
#152=ORIENTED_EDGE('',*,*,#446,.T.);
#153=ORIENTED_EDGE('',*,*,#447,.F.);
#154=ORIENTED_EDGE('',*,*,#448,.F.);
#155=ORIENTED_EDGE('',*,*,#449,.T.);
#156=ORIENTED_EDGE('',*,*,#444,.T.);
#157=ORIENTED_EDGE('',*,*,#450,.T.);
#158=ORIENTED_EDGE('',*,*,#451,.F.);
#159=ORIENTED_EDGE('',*,*,#452,.T.);
#160=ORIENTED_EDGE('',*,*,#448,.T.);
#161=ORIENTED_EDGE('',*,*,#453,.F.);
#162=ORIENTED_EDGE('',*,*,#446,.F.);
#163=ORIENTED_EDGE('',*,*,#454,.T.);
#164=ORIENTED_EDGE('',*,*,#451,.T.);
#165=ORIENTED_EDGE('',*,*,#455,.T.);
#166=ORIENTED_EDGE('',*,*,#456,.T.);
#167=ORIENTED_EDGE('',*,*,#457,.T.);
#168=ORIENTED_EDGE('',*,*,#458,.T.);
#169=ORIENTED_EDGE('',*,*,#459,.T.);
#170=ORIENTED_EDGE('',*,*,#447,.T.);
#171=ORIENTED_EDGE('',*,*,#455,.F.);
#172=ORIENTED_EDGE('',*,*,#453,.T.);
#173=ORIENTED_EDGE('',*,*,#450,.F.);
#174=ORIENTED_EDGE('',*,*,#460,.F.);
#175=ORIENTED_EDGE('',*,*,#449,.F.);
#176=ORIENTED_EDGE('',*,*,#461,.F.);
#177=ORIENTED_EDGE('',*,*,#456,.F.);
#178=ORIENTED_EDGE('',*,*,#461,.T.);
#179=ORIENTED_EDGE('',*,*,#452,.F.);
#180=ORIENTED_EDGE('',*,*,#462,.F.);
#181=ORIENTED_EDGE('',*,*,#457,.F.);
#182=ORIENTED_EDGE('',*,*,#460,.T.);
#183=ORIENTED_EDGE('',*,*,#459,.F.);
#184=ORIENTED_EDGE('',*,*,#463,.F.);
#185=ORIENTED_EDGE('',*,*,#445,.F.);
#186=ORIENTED_EDGE('',*,*,#462,.T.);
#187=ORIENTED_EDGE('',*,*,#454,.F.);
#188=ORIENTED_EDGE('',*,*,#463,.T.);
#189=ORIENTED_EDGE('',*,*,#458,.F.);
#190=ORIENTED_EDGE('',*,*,#464,.F.);
#191=ORIENTED_EDGE('',*,*,#465,.F.);
#192=ORIENTED_EDGE('',*,*,#466,.T.);
#193=ORIENTED_EDGE('',*,*,#467,.T.);
#194=ORIENTED_EDGE('',*,*,#468,.F.);
#195=ORIENTED_EDGE('',*,*,#469,.T.);
#196=ORIENTED_EDGE('',*,*,#470,.T.);
#197=ORIENTED_EDGE('',*,*,#465,.T.);
#198=ORIENTED_EDGE('',*,*,#471,.F.);
#199=ORIENTED_EDGE('',*,*,#472,.F.);
#200=ORIENTED_EDGE('',*,*,#473,.T.);
#201=ORIENTED_EDGE('',*,*,#468,.T.);
#202=ORIENTED_EDGE('',*,*,#474,.T.);
#203=ORIENTED_EDGE('',*,*,#475,.F.);
#204=ORIENTED_EDGE('',*,*,#476,.T.);
#205=ORIENTED_EDGE('',*,*,#472,.T.);
#206=ORIENTED_EDGE('',*,*,#477,.T.);
#207=ORIENTED_EDGE('',*,*,#478,.F.);
#208=ORIENTED_EDGE('',*,*,#479,.T.);
#209=ORIENTED_EDGE('',*,*,#475,.T.);
#210=ORIENTED_EDGE('',*,*,#480,.T.);
#211=ORIENTED_EDGE('',*,*,#481,.F.);
#212=ORIENTED_EDGE('',*,*,#482,.T.);
#213=ORIENTED_EDGE('',*,*,#483,.F.);
#214=ORIENTED_EDGE('',*,*,#484,.F.);
#215=ORIENTED_EDGE('',*,*,#481,.T.);
#216=ORIENTED_EDGE('',*,*,#485,.T.);
#217=ORIENTED_EDGE('',*,*,#467,.F.);
#218=ORIENTED_EDGE('',*,*,#486,.F.);
#219=ORIENTED_EDGE('',*,*,#483,.T.);
#220=ORIENTED_EDGE('',*,*,#470,.F.);
#221=ORIENTED_EDGE('',*,*,#487,.T.);
#222=ORIENTED_EDGE('',*,*,#488,.T.);
#223=ORIENTED_EDGE('',*,*,#478,.T.);
#224=ORIENTED_EDGE('',*,*,#484,.T.);
#225=ORIENTED_EDGE('',*,*,#486,.T.);
#226=ORIENTED_EDGE('',*,*,#466,.F.);
#227=ORIENTED_EDGE('',*,*,#464,.T.);
#228=ORIENTED_EDGE('',*,*,#485,.F.);
#229=ORIENTED_EDGE('',*,*,#482,.F.);
#230=ORIENTED_EDGE('',*,*,#480,.F.);
#231=ORIENTED_EDGE('',*,*,#477,.F.);
#232=ORIENTED_EDGE('',*,*,#474,.F.);
#233=ORIENTED_EDGE('',*,*,#471,.T.);
#234=ORIENTED_EDGE('',*,*,#479,.F.);
#235=ORIENTED_EDGE('',*,*,#488,.F.);
#236=ORIENTED_EDGE('',*,*,#489,.F.);
#237=ORIENTED_EDGE('',*,*,#476,.F.);
#238=ORIENTED_EDGE('',*,*,#469,.F.);
#239=ORIENTED_EDGE('',*,*,#473,.F.);
#240=ORIENTED_EDGE('',*,*,#489,.T.);
#241=ORIENTED_EDGE('',*,*,#487,.F.);
#242=ORIENTED_EDGE('',*,*,#490,.F.);
#243=ORIENTED_EDGE('',*,*,#491,.T.);
#244=ORIENTED_EDGE('',*,*,#492,.T.);
#245=ORIENTED_EDGE('',*,*,#493,.T.);
#246=ORIENTED_EDGE('',*,*,#494,.F.);
#247=ORIENTED_EDGE('',*,*,#495,.F.);
#248=ORIENTED_EDGE('',*,*,#496,.T.);
#249=ORIENTED_EDGE('',*,*,#490,.T.);
#250=ORIENTED_EDGE('',*,*,#497,.T.);
#251=ORIENTED_EDGE('',*,*,#498,.F.);
#252=ORIENTED_EDGE('',*,*,#499,.T.);
#253=ORIENTED_EDGE('',*,*,#495,.T.);
#254=ORIENTED_EDGE('',*,*,#500,.T.);
#255=ORIENTED_EDGE('',*,*,#501,.F.);
#256=ORIENTED_EDGE('',*,*,#502,.T.);
#257=ORIENTED_EDGE('',*,*,#503,.F.);
#258=ORIENTED_EDGE('',*,*,#504,.F.);
#259=ORIENTED_EDGE('',*,*,#501,.T.);
#260=ORIENTED_EDGE('',*,*,#505,.F.);
#261=ORIENTED_EDGE('',*,*,#493,.F.);
#262=ORIENTED_EDGE('',*,*,#506,.T.);
#263=ORIENTED_EDGE('',*,*,#503,.T.);
#264=ORIENTED_EDGE('',*,*,#492,.F.);
#265=ORIENTED_EDGE('',*,*,#507,.T.);
#266=ORIENTED_EDGE('',*,*,#498,.T.);
#267=ORIENTED_EDGE('',*,*,#504,.T.);
#268=ORIENTED_EDGE('',*,*,#506,.F.);
#269=ORIENTED_EDGE('',*,*,#494,.T.);
#270=ORIENTED_EDGE('',*,*,#505,.T.);
#271=ORIENTED_EDGE('',*,*,#502,.F.);
#272=ORIENTED_EDGE('',*,*,#500,.F.);
#273=ORIENTED_EDGE('',*,*,#497,.F.);
#274=ORIENTED_EDGE('',*,*,#491,.F.);
#275=ORIENTED_EDGE('',*,*,#496,.F.);
#276=ORIENTED_EDGE('',*,*,#499,.F.);
#277=ORIENTED_EDGE('',*,*,#507,.F.);
#278=ORIENTED_EDGE('',*,*,#508,.F.);
#279=ORIENTED_EDGE('',*,*,#509,.T.);
#280=ORIENTED_EDGE('',*,*,#510,.T.);
#281=ORIENTED_EDGE('',*,*,#511,.T.);
#282=ORIENTED_EDGE('',*,*,#512,.T.);
#283=ORIENTED_EDGE('',*,*,#513,.T.);
#284=ORIENTED_EDGE('',*,*,#514,.F.);
#285=ORIENTED_EDGE('',*,*,#515,.F.);
#286=ORIENTED_EDGE('',*,*,#516,.F.);
#287=ORIENTED_EDGE('',*,*,#517,.T.);
#288=ORIENTED_EDGE('',*,*,#515,.T.);
#289=ORIENTED_EDGE('',*,*,#518,.T.);
#290=ORIENTED_EDGE('',*,*,#519,.F.);
#291=ORIENTED_EDGE('',*,*,#520,.F.);
#292=ORIENTED_EDGE('',*,*,#521,.T.);
#293=ORIENTED_EDGE('',*,*,#516,.T.);
#294=ORIENTED_EDGE('',*,*,#522,.T.);
#295=ORIENTED_EDGE('',*,*,#523,.F.);
#296=ORIENTED_EDGE('',*,*,#524,.T.);
#297=ORIENTED_EDGE('',*,*,#520,.T.);
#298=ORIENTED_EDGE('',*,*,#525,.F.);
#299=ORIENTED_EDGE('',*,*,#526,.F.);
#300=ORIENTED_EDGE('',*,*,#527,.T.);
#301=ORIENTED_EDGE('',*,*,#523,.T.);
#302=ORIENTED_EDGE('',*,*,#528,.F.);
#303=ORIENTED_EDGE('',*,*,#529,.T.);
#304=ORIENTED_EDGE('',*,*,#530,.T.);
#305=ORIENTED_EDGE('',*,*,#531,.F.);
#306=ORIENTED_EDGE('',*,*,#532,.T.);
#307=ORIENTED_EDGE('',*,*,#526,.T.);
#308=ORIENTED_EDGE('',*,*,#533,.T.);
#309=ORIENTED_EDGE('',*,*,#534,.T.);
#310=ORIENTED_EDGE('',*,*,#535,.T.);
#311=ORIENTED_EDGE('',*,*,#536,.T.);
#312=ORIENTED_EDGE('',*,*,#537,.T.);
#313=ORIENTED_EDGE('',*,*,#538,.T.);
#314=ORIENTED_EDGE('',*,*,#539,.T.);
#315=ORIENTED_EDGE('',*,*,#540,.T.);
#316=ORIENTED_EDGE('',*,*,#541,.T.);
#317=ORIENTED_EDGE('',*,*,#542,.T.);
#318=ORIENTED_EDGE('',*,*,#543,.T.);
#319=ORIENTED_EDGE('',*,*,#544,.T.);
#320=ORIENTED_EDGE('',*,*,#545,.T.);
#321=ORIENTED_EDGE('',*,*,#546,.T.);
#322=ORIENTED_EDGE('',*,*,#547,.T.);
#323=ORIENTED_EDGE('',*,*,#531,.T.);
#324=ORIENTED_EDGE('',*,*,#548,.T.);
#325=ORIENTED_EDGE('',*,*,#549,.T.);
#326=ORIENTED_EDGE('',*,*,#550,.F.);
#327=ORIENTED_EDGE('',*,*,#551,.T.);
#328=ORIENTED_EDGE('',*,*,#552,.T.);
#329=ORIENTED_EDGE('',*,*,#553,.T.);
#330=ORIENTED_EDGE('',*,*,#554,.T.);
#331=ORIENTED_EDGE('',*,*,#555,.T.);
#332=ORIENTED_EDGE('',*,*,#535,.F.);
#333=ORIENTED_EDGE('',*,*,#556,.T.);
#334=ORIENTED_EDGE('',*,*,#529,.F.);
#335=ORIENTED_EDGE('',*,*,#528,.T.);
#336=ORIENTED_EDGE('',*,*,#525,.T.);
#337=ORIENTED_EDGE('',*,*,#522,.F.);
#338=ORIENTED_EDGE('',*,*,#518,.F.);
#339=ORIENTED_EDGE('',*,*,#514,.T.);
#340=ORIENTED_EDGE('',*,*,#557,.T.);
#341=ORIENTED_EDGE('',*,*,#508,.T.);
#342=ORIENTED_EDGE('',*,*,#558,.T.);
#343=ORIENTED_EDGE('',*,*,#544,.F.);
#344=ORIENTED_EDGE('',*,*,#559,.T.);
#345=ORIENTED_EDGE('',*,*,#537,.F.);
#346=ORIENTED_EDGE('',*,*,#560,.T.);
#347=ORIENTED_EDGE('',*,*,#532,.F.);
#348=ORIENTED_EDGE('',*,*,#547,.F.);
#349=ORIENTED_EDGE('',*,*,#561,.F.);
#350=ORIENTED_EDGE('',*,*,#527,.F.);
#351=ORIENTED_EDGE('',*,*,#561,.T.);
#352=ORIENTED_EDGE('',*,*,#546,.F.);
#353=ORIENTED_EDGE('',*,*,#562,.F.);
#354=ORIENTED_EDGE('',*,*,#524,.F.);
#355=ORIENTED_EDGE('',*,*,#562,.T.);
#356=ORIENTED_EDGE('',*,*,#555,.F.);
#357=ORIENTED_EDGE('',*,*,#563,.F.);
#358=ORIENTED_EDGE('',*,*,#521,.F.);
#359=ORIENTED_EDGE('',*,*,#563,.T.);
#360=ORIENTED_EDGE('',*,*,#554,.F.);
#361=ORIENTED_EDGE('',*,*,#564,.F.);
#362=ORIENTED_EDGE('',*,*,#517,.F.);
#363=ORIENTED_EDGE('',*,*,#564,.T.);
#364=ORIENTED_EDGE('',*,*,#553,.F.);
#365=ORIENTED_EDGE('',*,*,#565,.F.);
#366=ORIENTED_EDGE('',*,*,#512,.F.);
#367=ORIENTED_EDGE('',*,*,#557,.F.);
#368=ORIENTED_EDGE('',*,*,#513,.F.);
#369=ORIENTED_EDGE('',*,*,#566,.F.);
#370=ORIENTED_EDGE('',*,*,#509,.F.);
#371=ORIENTED_EDGE('',*,*,#566,.T.);
#372=ORIENTED_EDGE('',*,*,#565,.T.);
#373=ORIENTED_EDGE('',*,*,#567,.F.);
#374=ORIENTED_EDGE('',*,*,#567,.T.);
#375=ORIENTED_EDGE('',*,*,#552,.F.);
#376=ORIENTED_EDGE('',*,*,#568,.F.);
#377=ORIENTED_EDGE('',*,*,#510,.F.);
#378=ORIENTED_EDGE('',*,*,#558,.F.);
#379=ORIENTED_EDGE('',*,*,#511,.F.);
#380=ORIENTED_EDGE('',*,*,#569,.F.);
#381=ORIENTED_EDGE('',*,*,#545,.F.);
#382=ORIENTED_EDGE('',*,*,#569,.T.);
#383=ORIENTED_EDGE('',*,*,#568,.T.);
#384=ORIENTED_EDGE('',*,*,#570,.F.);
#385=ORIENTED_EDGE('',*,*,#570,.T.);
#386=ORIENTED_EDGE('',*,*,#551,.F.);
#387=ORIENTED_EDGE('',*,*,#571,.F.);
#388=ORIENTED_EDGE('',*,*,#542,.F.);
#389=ORIENTED_EDGE('',*,*,#559,.F.);
#390=ORIENTED_EDGE('',*,*,#543,.F.);
#391=ORIENTED_EDGE('',*,*,#572,.F.);
#392=ORIENTED_EDGE('',*,*,#538,.F.);
#393=ORIENTED_EDGE('',*,*,#571,.T.);
#394=ORIENTED_EDGE('',*,*,#550,.T.);
#395=ORIENTED_EDGE('',*,*,#573,.F.);
#396=ORIENTED_EDGE('',*,*,#572,.T.);
#397=ORIENTED_EDGE('',*,*,#573,.T.);
#398=ORIENTED_EDGE('',*,*,#549,.F.);
#399=ORIENTED_EDGE('',*,*,#574,.F.);
#400=ORIENTED_EDGE('',*,*,#539,.F.);
#401=ORIENTED_EDGE('',*,*,#560,.F.);
#402=ORIENTED_EDGE('',*,*,#540,.F.);
#403=ORIENTED_EDGE('',*,*,#575,.F.);
#404=ORIENTED_EDGE('',*,*,#536,.F.);
#405=ORIENTED_EDGE('',*,*,#575,.T.);
#406=ORIENTED_EDGE('',*,*,#574,.T.);
#407=ORIENTED_EDGE('',*,*,#576,.F.);
#408=ORIENTED_EDGE('',*,*,#576,.T.);
#409=ORIENTED_EDGE('',*,*,#548,.F.);
#410=ORIENTED_EDGE('',*,*,#577,.F.);
#411=ORIENTED_EDGE('',*,*,#533,.F.);
#412=ORIENTED_EDGE('',*,*,#577,.T.);
#413=ORIENTED_EDGE('',*,*,#530,.F.);
#414=ORIENTED_EDGE('',*,*,#556,.F.);
#415=ORIENTED_EDGE('',*,*,#534,.F.);
#416=ORIENTED_EDGE('',*,*,#519,.T.);
#417=ORIENTED_EDGE('',*,*,#541,.F.);
#418=EDGE_CURVE('',#578,#579,#678,.T.);
#419=EDGE_CURVE('',#578,#580,#64,.T.);
#420=EDGE_CURVE('',#580,#581,#679,.T.);
#421=EDGE_CURVE('',#581,#582,#680,.T.);
#422=EDGE_CURVE('',#579,#582,#681,.T.);
#423=EDGE_CURVE('',#583,#584,#682,.T.);
#424=EDGE_CURVE('',#583,#578,#683,.T.);
#425=EDGE_CURVE('',#584,#579,#684,.T.);
#426=EDGE_CURVE('',#585,#586,#685,.T.);
#427=EDGE_CURVE('',#585,#583,#65,.F.);
#428=EDGE_CURVE('',#584,#586,#66,.T.);
#429=EDGE_CURVE('',#587,#588,#686,.T.);
#430=EDGE_CURVE('',#587,#585,#36,.T.);
#431=EDGE_CURVE('',#586,#589,#687,.T.);
#432=EDGE_CURVE('',#588,#589,#688,.T.);
#433=EDGE_CURVE('',#589,#590,#689,.T.);
#434=EDGE_CURVE('',#591,#590,#690,.T.);
#435=EDGE_CURVE('',#588,#591,#691,.T.);
#436=EDGE_CURVE('',#592,#590,#692,.T.);
#437=EDGE_CURVE('',#593,#592,#693,.T.);
#438=EDGE_CURVE('',#593,#591,#694,.T.);
#439=EDGE_CURVE('',#582,#592,#695,.T.);
#440=EDGE_CURVE('',#581,#593,#696,.T.);
#441=EDGE_CURVE('',#580,#594,#697,.F.);
#442=EDGE_CURVE('',#594,#587,#67,.T.);
#443=EDGE_CURVE('',#594,#583,#68,.T.);
#444=EDGE_CURVE('',#595,#596,#698,.T.);
#445=EDGE_CURVE('',#595,#597,#699,.T.);
#446=EDGE_CURVE('',#597,#598,#700,.T.);
#447=EDGE_CURVE('',#596,#598,#701,.T.);
#448=EDGE_CURVE('',#599,#600,#702,.T.);
#449=EDGE_CURVE('',#599,#595,#703,.F.);
#450=EDGE_CURVE('',#596,#600,#704,.T.);
#451=EDGE_CURVE('',#601,#602,#705,.T.);
#452=EDGE_CURVE('',#601,#599,#706,.T.);
#453=EDGE_CURVE('',#602,#600,#707,.T.);
#454=EDGE_CURVE('',#597,#601,#708,.F.);
#455=EDGE_CURVE('',#602,#598,#709,.T.);
#456=EDGE_CURVE('',#603,#604,#710,.T.);
#457=EDGE_CURVE('',#604,#605,#711,.F.);
#458=EDGE_CURVE('',#605,#606,#712,.T.);
#459=EDGE_CURVE('',#606,#603,#713,.F.);
#460=EDGE_CURVE('',#595,#603,#13,.T.);
#461=EDGE_CURVE('',#604,#599,#14,.F.);
#462=EDGE_CURVE('',#605,#601,#15,.F.);
#463=EDGE_CURVE('',#597,#606,#16,.T.);
#464=EDGE_CURVE('',#607,#608,#714,.T.);
#465=EDGE_CURVE('',#609,#607,#715,.T.);
#466=EDGE_CURVE('',#609,#610,#716,.T.);
#467=EDGE_CURVE('',#610,#608,#717,.T.);
#468=EDGE_CURVE('',#611,#612,#718,.T.);
#469=EDGE_CURVE('',#611,#613,#37,.T.);
#470=EDGE_CURVE('',#613,#609,#719,.T.);
#471=EDGE_CURVE('',#612,#607,#720,.T.);
#472=EDGE_CURVE('',#614,#615,#721,.T.);
#473=EDGE_CURVE('',#614,#611,#69,.F.);
#474=EDGE_CURVE('',#612,#615,#70,.T.);
#475=EDGE_CURVE('',#616,#617,#722,.T.);
#476=EDGE_CURVE('',#616,#614,#723,.F.);
#477=EDGE_CURVE('',#615,#617,#724,.T.);
#478=EDGE_CURVE('',#618,#619,#725,.T.);
#479=EDGE_CURVE('',#618,#616,#71,.F.);
#480=EDGE_CURVE('',#617,#620,#726,.T.);
#481=EDGE_CURVE('',#619,#620,#727,.T.);
#482=EDGE_CURVE('',#620,#621,#728,.T.);
#483=EDGE_CURVE('',#622,#621,#729,.T.);
#484=EDGE_CURVE('',#619,#622,#730,.T.);
#485=EDGE_CURVE('',#621,#608,#731,.T.);
#486=EDGE_CURVE('',#622,#610,#732,.T.);
#487=EDGE_CURVE('',#613,#623,#72,.T.);
#488=EDGE_CURVE('',#623,#618,#733,.T.);
#489=EDGE_CURVE('',#614,#623,#73,.T.);
#490=EDGE_CURVE('',#624,#625,#734,.T.);
#491=EDGE_CURVE('',#624,#626,#38,.T.);
#492=EDGE_CURVE('',#626,#627,#735,.T.);
#493=EDGE_CURVE('',#627,#628,#736,.T.);
#494=EDGE_CURVE('',#625,#628,#737,.T.);
#495=EDGE_CURVE('',#629,#630,#738,.T.);
#496=EDGE_CURVE('',#629,#624,#74,.F.);
#497=EDGE_CURVE('',#625,#630,#75,.T.);
#498=EDGE_CURVE('',#631,#632,#739,.T.);
#499=EDGE_CURVE('',#631,#629,#39,.T.);
#500=EDGE_CURVE('',#630,#633,#740,.T.);
#501=EDGE_CURVE('',#632,#633,#741,.T.);
#502=EDGE_CURVE('',#633,#634,#742,.T.);
#503=EDGE_CURVE('',#635,#634,#743,.T.);
#504=EDGE_CURVE('',#632,#635,#744,.T.);
#505=EDGE_CURVE('',#628,#634,#745,.T.);
#506=EDGE_CURVE('',#627,#635,#746,.T.);
#507=EDGE_CURVE('',#626,#631,#76,.T.);
#508=EDGE_CURVE('',#636,#637,#747,.T.);
#509=EDGE_CURVE('',#636,#638,#748,.F.);
#510=EDGE_CURVE('',#638,#639,#749,.T.);
#511=EDGE_CURVE('',#639,#637,#750,.T.);
#512=EDGE_CURVE('',#640,#641,#751,.T.);
#513=EDGE_CURVE('',#641,#642,#752,.T.);
#514=EDGE_CURVE('',#643,#642,#753,.T.);
#515=EDGE_CURVE('',#640,#643,#754,.T.);
#516=EDGE_CURVE('',#644,#645,#755,.T.);
#517=EDGE_CURVE('',#644,#640,#756,.F.);
#518=EDGE_CURVE('',#643,#645,#757,.T.);
#519=EDGE_CURVE('',#646,#646,#77,.T.);
#520=EDGE_CURVE('',#647,#648,#758,.T.);
#521=EDGE_CURVE('',#647,#644,#759,.F.);
#522=EDGE_CURVE('',#645,#648,#760,.T.);
#523=EDGE_CURVE('',#649,#650,#761,.T.);
#524=EDGE_CURVE('',#649,#647,#762,.T.);
#525=EDGE_CURVE('',#650,#648,#763,.T.);
#526=EDGE_CURVE('',#651,#652,#764,.T.);
#527=EDGE_CURVE('',#651,#649,#765,.T.);
#528=EDGE_CURVE('',#652,#650,#766,.T.);
#529=EDGE_CURVE('',#652,#653,#767,.T.);
#530=EDGE_CURVE('',#653,#654,#768,.F.);
#531=EDGE_CURVE('',#655,#654,#769,.T.);
#532=EDGE_CURVE('',#655,#651,#78,.F.);
#533=EDGE_CURVE('',#656,#657,#770,.F.);
#534=EDGE_CURVE('',#657,#658,#771,.T.);
#535=EDGE_CURVE('',#658,#659,#772,.T.);
#536=EDGE_CURVE('',#659,#656,#773,.F.);
#537=EDGE_CURVE('',#660,#661,#774,.T.);
#538=EDGE_CURVE('',#661,#662,#775,.F.);
#539=EDGE_CURVE('',#662,#663,#776,.F.);
#540=EDGE_CURVE('',#663,#660,#777,.T.);
#541=EDGE_CURVE('',#664,#664,#79,.T.);
#542=EDGE_CURVE('',#665,#666,#778,.F.);
#543=EDGE_CURVE('',#666,#667,#779,.T.);
#544=EDGE_CURVE('',#667,#668,#780,.T.);
#545=EDGE_CURVE('',#668,#665,#781,.F.);
#546=EDGE_CURVE('',#669,#670,#782,.F.);
#547=EDGE_CURVE('',#670,#655,#783,.F.);
#548=EDGE_CURVE('',#654,#671,#784,.T.);
#549=EDGE_CURVE('',#671,#672,#785,.T.);
#550=EDGE_CURVE('',#673,#672,#80,.T.);
#551=EDGE_CURVE('',#673,#674,#786,.T.);
#552=EDGE_CURVE('',#674,#675,#787,.F.);
#553=EDGE_CURVE('',#675,#676,#788,.F.);
#554=EDGE_CURVE('',#676,#677,#789,.T.);
#555=EDGE_CURVE('',#677,#669,#790,.T.);
#556=EDGE_CURVE('',#658,#653,#81,.F.);
#557=EDGE_CURVE('',#642,#636,#82,.F.);
#558=EDGE_CURVE('',#637,#668,#83,.F.);
#559=EDGE_CURVE('',#667,#661,#84,.T.);
#560=EDGE_CURVE('',#660,#659,#85,.F.);
#561=EDGE_CURVE('',#649,#670,#17,.T.);
#562=EDGE_CURVE('',#647,#669,#18,.T.);
#563=EDGE_CURVE('',#644,#677,#19,.T.);
#564=EDGE_CURVE('',#640,#676,#20,.T.);
#565=EDGE_CURVE('',#641,#675,#86,.T.);
#566=EDGE_CURVE('',#638,#641,#87,.T.);
#567=EDGE_CURVE('',#638,#675,#88,.F.);
#568=EDGE_CURVE('',#639,#674,#89,.T.);
#569=EDGE_CURVE('',#665,#639,#90,.T.);
#570=EDGE_CURVE('',#665,#674,#91,.F.);
#571=EDGE_CURVE('',#666,#673,#92,.T.);
#572=EDGE_CURVE('',#662,#666,#93,.F.);
#573=EDGE_CURVE('',#662,#672,#94,.F.);
#574=EDGE_CURVE('',#663,#671,#95,.T.);
#575=EDGE_CURVE('',#656,#663,#96,.T.);
#576=EDGE_CURVE('',#656,#671,#97,.F.);
#577=EDGE_CURVE('',#657,#654,#21,.T.);
#578=VERTEX_POINT('',#1696);
#579=VERTEX_POINT('',#1697);
#580=VERTEX_POINT('',#1699);
#581=VERTEX_POINT('',#1701);
#582=VERTEX_POINT('',#1703);
#583=VERTEX_POINT('',#1707);
#584=VERTEX_POINT('',#1708);
#585=VERTEX_POINT('',#1713);
#586=VERTEX_POINT('',#1714);
#587=VERTEX_POINT('',#1719);
#588=VERTEX_POINT('',#1720);
#589=VERTEX_POINT('',#1727);
#590=VERTEX_POINT('',#1731);
#591=VERTEX_POINT('',#1733);
#592=VERTEX_POINT('',#1737);
#593=VERTEX_POINT('',#1739);
#594=VERTEX_POINT('',#1746);
#595=VERTEX_POINT('',#1755);
#596=VERTEX_POINT('',#1756);
#597=VERTEX_POINT('',#1758);
#598=VERTEX_POINT('',#1760);
#599=VERTEX_POINT('',#1764);
#600=VERTEX_POINT('',#1765);
#601=VERTEX_POINT('',#1770);
#602=VERTEX_POINT('',#1771);
#603=VERTEX_POINT('',#1779);
#604=VERTEX_POINT('',#1780);
#605=VERTEX_POINT('',#1782);
#606=VERTEX_POINT('',#1784);
#607=VERTEX_POINT('',#1798);
#608=VERTEX_POINT('',#1799);
#609=VERTEX_POINT('',#1801);
#610=VERTEX_POINT('',#1803);
#611=VERTEX_POINT('',#1807);
#612=VERTEX_POINT('',#1808);
#613=VERTEX_POINT('',#1814);
#614=VERTEX_POINT('',#1819);
#615=VERTEX_POINT('',#1820);
#616=VERTEX_POINT('',#1825);
#617=VERTEX_POINT('',#1826);
#618=VERTEX_POINT('',#1831);
#619=VERTEX_POINT('',#1832);
#620=VERTEX_POINT('',#1835);
#621=VERTEX_POINT('',#1839);
#622=VERTEX_POINT('',#1841);
#623=VERTEX_POINT('',#1848);
#624=VERTEX_POINT('',#1857);
#625=VERTEX_POINT('',#1858);
#626=VERTEX_POINT('',#1864);
#627=VERTEX_POINT('',#1866);
#628=VERTEX_POINT('',#1868);
#629=VERTEX_POINT('',#1872);
#630=VERTEX_POINT('',#1873);
#631=VERTEX_POINT('',#1878);
#632=VERTEX_POINT('',#1879);
#633=VERTEX_POINT('',#1886);
#634=VERTEX_POINT('',#1890);
#635=VERTEX_POINT('',#1892);
#636=VERTEX_POINT('',#1904);
#637=VERTEX_POINT('',#1905);
#638=VERTEX_POINT('',#1907);
#639=VERTEX_POINT('',#1909);
#640=VERTEX_POINT('',#1913);
#641=VERTEX_POINT('',#1914);
#642=VERTEX_POINT('',#1916);
#643=VERTEX_POINT('',#1918);
#644=VERTEX_POINT('',#1922);
#645=VERTEX_POINT('',#1923);
#646=VERTEX_POINT('',#1928);
#647=VERTEX_POINT('',#1930);
#648=VERTEX_POINT('',#1931);
#649=VERTEX_POINT('',#1936);
#650=VERTEX_POINT('',#1937);
#651=VERTEX_POINT('',#1942);
#652=VERTEX_POINT('',#1943);
#653=VERTEX_POINT('',#1948);
#654=VERTEX_POINT('',#1950);
#655=VERTEX_POINT('',#1952);
#656=VERTEX_POINT('',#1956);
#657=VERTEX_POINT('',#1957);
#658=VERTEX_POINT('',#1959);
#659=VERTEX_POINT('',#1961);
#660=VERTEX_POINT('',#1965);
#661=VERTEX_POINT('',#1966);
#662=VERTEX_POINT('',#1968);
#663=VERTEX_POINT('',#1970);
#664=VERTEX_POINT('',#1974);
#665=VERTEX_POINT('',#1976);
#666=VERTEX_POINT('',#1977);
#667=VERTEX_POINT('',#1979);
#668=VERTEX_POINT('',#1981);
#669=VERTEX_POINT('',#1985);
#670=VERTEX_POINT('',#1986);
#671=VERTEX_POINT('',#1989);
#672=VERTEX_POINT('',#1991);
#673=VERTEX_POINT('',#1993);
#674=VERTEX_POINT('',#1995);
#675=VERTEX_POINT('',#1997);
#676=VERTEX_POINT('',#1999);
#677=VERTEX_POINT('',#2001);
#678=LINE('',#1695,#791);
#679=LINE('',#1700,#792);
#680=LINE('',#1702,#793);
#681=LINE('',#1704,#794);
#682=LINE('',#1706,#795);
#683=LINE('',#1709,#796);
#684=LINE('',#1710,#797);
#685=LINE('',#1712,#798);
#686=LINE('',#1718,#799);
#687=LINE('',#1726,#800);
#688=LINE('',#1728,#801);
#689=LINE('',#1730,#802);
#690=LINE('',#1732,#803);
#691=LINE('',#1734,#804);
#692=LINE('',#1736,#805);
#693=LINE('',#1738,#806);
#694=LINE('',#1740,#807);
#695=LINE('',#1742,#808);
#696=LINE('',#1743,#809);
#697=LINE('',#1745,#810);
#698=LINE('',#1754,#811);
#699=LINE('',#1757,#812);
#700=LINE('',#1759,#813);
#701=LINE('',#1761,#814);
#702=LINE('',#1763,#815);
#703=LINE('',#1766,#816);
#704=LINE('',#1767,#817);
#705=LINE('',#1769,#818);
#706=LINE('',#1772,#819);
#707=LINE('',#1773,#820);
#708=LINE('',#1775,#821);
#709=LINE('',#1776,#822);
#710=LINE('',#1778,#823);
#711=LINE('',#1781,#824);
#712=LINE('',#1783,#825);
#713=LINE('',#1785,#826);
#714=LINE('',#1797,#827);
#715=LINE('',#1800,#828);
#716=LINE('',#1802,#829);
#717=LINE('',#1804,#830);
#718=LINE('',#1806,#831);
#719=LINE('',#1815,#832);
#720=LINE('',#1816,#833);
#721=LINE('',#1818,#834);
#722=LINE('',#1824,#835);
#723=LINE('',#1827,#836);
#724=LINE('',#1828,#837);
#725=LINE('',#1830,#838);
#726=LINE('',#1834,#839);
#727=LINE('',#1836,#840);
#728=LINE('',#1838,#841);
#729=LINE('',#1840,#842);
#730=LINE('',#1842,#843);
#731=LINE('',#1844,#844);
#732=LINE('',#1845,#845);
#733=LINE('',#1849,#846);
#734=LINE('',#1856,#847);
#735=LINE('',#1865,#848);
#736=LINE('',#1867,#849);
#737=LINE('',#1869,#850);
#738=LINE('',#1871,#851);
#739=LINE('',#1877,#852);
#740=LINE('',#1885,#853);
#741=LINE('',#1887,#854);
#742=LINE('',#1889,#855);
#743=LINE('',#1891,#856);
#744=LINE('',#1893,#857);
#745=LINE('',#1895,#858);
#746=LINE('',#1896,#859);
#747=LINE('',#1903,#860);
#748=LINE('',#1906,#861);
#749=LINE('',#1908,#862);
#750=LINE('',#1910,#863);
#751=LINE('',#1912,#864);
#752=LINE('',#1915,#865);
#753=LINE('',#1917,#866);
#754=LINE('',#1919,#867);
#755=LINE('',#1921,#868);
#756=LINE('',#1924,#869);
#757=LINE('',#1925,#870);
#758=LINE('',#1929,#871);
#759=LINE('',#1932,#872);
#760=LINE('',#1933,#873);
#761=LINE('',#1935,#874);
#762=LINE('',#1938,#875);
#763=LINE('',#1939,#876);
#764=LINE('',#1941,#877);
#765=LINE('',#1944,#878);
#766=LINE('',#1945,#879);
#767=LINE('',#1947,#880);
#768=LINE('',#1949,#881);
#769=LINE('',#1951,#882);
#770=LINE('',#1955,#883);
#771=LINE('',#1958,#884);
#772=LINE('',#1960,#885);
#773=LINE('',#1962,#886);
#774=LINE('',#1964,#887);
#775=LINE('',#1967,#888);
#776=LINE('',#1969,#889);
#777=LINE('',#1971,#890);
#778=LINE('',#1975,#891);
#779=LINE('',#1978,#892);
#780=LINE('',#1980,#893);
#781=LINE('',#1982,#894);
#782=LINE('',#1984,#895);
#783=LINE('',#1987,#896);
#784=LINE('',#1988,#897);
#785=LINE('',#1990,#898);
#786=LINE('',#1994,#899);
#787=LINE('',#1996,#900);
#788=LINE('',#1998,#901);
#789=LINE('',#2000,#902);
#790=LINE('',#2002,#903);
#791=VECTOR('',#1346,1.);
#792=VECTOR('',#1349,1.);
#793=VECTOR('',#1350,1.);
#794=VECTOR('',#1351,1.);
#795=VECTOR('',#1354,1.);
#796=VECTOR('',#1355,1.);
#797=VECTOR('',#1356,1.);
#798=VECTOR('',#1359,1.);
#799=VECTOR('',#1366,1.);
#800=VECTOR('',#1367,1.);
#801=VECTOR('',#1368,1.);
#802=VECTOR('',#1371,1.);
#803=VECTOR('',#1372,1.);
#804=VECTOR('',#1373,1.);
#805=VECTOR('',#1376,1.);
#806=VECTOR('',#1377,1.);
#807=VECTOR('',#1378,1.);
#808=VECTOR('',#1381,1.);
#809=VECTOR('',#1382,1.);
#810=VECTOR('',#1385,1.);
#811=VECTOR('',#1400,1.);
#812=VECTOR('',#1401,1.);
#813=VECTOR('',#1402,1.);
#814=VECTOR('',#1403,1.);
#815=VECTOR('',#1406,1.);
#816=VECTOR('',#1407,1.);
#817=VECTOR('',#1408,1.);
#818=VECTOR('',#1411,1.);
#819=VECTOR('',#1412,1.);
#820=VECTOR('',#1413,1.);
#821=VECTOR('',#1416,1.);
#822=VECTOR('',#1417,1.);
#823=VECTOR('',#1420,1.);
#824=VECTOR('',#1421,1.);
#825=VECTOR('',#1422,1.);
#826=VECTOR('',#1423,1.);
#827=VECTOR('',#1446,1.);
#828=VECTOR('',#1447,1.);
#829=VECTOR('',#1448,1.);
#830=VECTOR('',#1449,1.);
#831=VECTOR('',#1452,1.);
#832=VECTOR('',#1453,1.);
#833=VECTOR('',#1454,1.);
#834=VECTOR('',#1457,1.);
#835=VECTOR('',#1464,1.);
#836=VECTOR('',#1465,1.);
#837=VECTOR('',#1466,1.);
#838=VECTOR('',#1469,1.);
#839=VECTOR('',#1472,1.);
#840=VECTOR('',#1473,1.);
#841=VECTOR('',#1476,1.);
#842=VECTOR('',#1477,1.);
#843=VECTOR('',#1478,1.);
#844=VECTOR('',#1481,1.);
#845=VECTOR('',#1482,1.);
#846=VECTOR('',#1487,1.);
#847=VECTOR('',#1500,1.);
#848=VECTOR('',#1501,1.);
#849=VECTOR('',#1502,1.);
#850=VECTOR('',#1503,1.);
#851=VECTOR('',#1506,1.);
#852=VECTOR('',#1513,1.);
#853=VECTOR('',#1514,1.);
#854=VECTOR('',#1515,1.);
#855=VECTOR('',#1518,1.);
#856=VECTOR('',#1519,1.);
#857=VECTOR('',#1520,1.);
#858=VECTOR('',#1523,1.);
#859=VECTOR('',#1524,1.);
#860=VECTOR('',#1537,1.);
#861=VECTOR('',#1538,1.);
#862=VECTOR('',#1539,1.);
#863=VECTOR('',#1540,1.);
#864=VECTOR('',#1543,1.);
#865=VECTOR('',#1544,1.);
#866=VECTOR('',#1545,1.);
#867=VECTOR('',#1546,1.);
#868=VECTOR('',#1549,1.);
#869=VECTOR('',#1550,1.);
#870=VECTOR('',#1551,1.);
#871=VECTOR('',#1556,1.);
#872=VECTOR('',#1557,1.);
#873=VECTOR('',#1558,1.);
#874=VECTOR('',#1561,1.);
#875=VECTOR('',#1562,1.);
#876=VECTOR('',#1563,1.);
#877=VECTOR('',#1566,1.);
#878=VECTOR('',#1567,1.);
#879=VECTOR('',#1568,1.);
#880=VECTOR('',#1571,1.);
#881=VECTOR('',#1572,1.);
#882=VECTOR('',#1573,1.);
#883=VECTOR('',#1578,1.);
#884=VECTOR('',#1579,1.);
#885=VECTOR('',#1580,1.);
#886=VECTOR('',#1581,1.);
#887=VECTOR('',#1584,1.);
#888=VECTOR('',#1585,1.);
#889=VECTOR('',#1586,1.);
#890=VECTOR('',#1587,1.);
#891=VECTOR('',#1592,1.);
#892=VECTOR('',#1593,1.);
#893=VECTOR('',#1594,1.);
#894=VECTOR('',#1595,1.);
#895=VECTOR('',#1598,1.);
#896=VECTOR('',#1599,1.);
#897=VECTOR('',#1600,1.);
#898=VECTOR('',#1601,1.);
#899=VECTOR('',#1604,1.);
#900=VECTOR('',#1605,1.);
#901=VECTOR('',#1606,1.);
#902=VECTOR('',#1607,1.);
#903=VECTOR('',#1608,1.);
#904=EDGE_LOOP('',(#98,#99,#100,#101,#102));
#905=EDGE_LOOP('',(#103,#104,#105,#106));
#906=EDGE_LOOP('',(#107,#108,#109,#110));
#907=EDGE_LOOP('',(#111,#112,#113,#114,#115));
#908=EDGE_LOOP('',(#116,#117,#118,#119));
#909=EDGE_LOOP('',(#120,#121,#122,#123));
#910=EDGE_LOOP('',(#124,#125,#126,#127));
#911=EDGE_LOOP('',(#128,#129,#130,#131,#132,#133,#134));
#912=EDGE_LOOP('',(#135,#136,#137,#138,#139,#140,#141));
#913=EDGE_LOOP('',(#142,#143,#144,#145));
#914=EDGE_LOOP('',(#146,#147,#148,#149));
#915=EDGE_LOOP('',(#150,#151,#152,#153));
#916=EDGE_LOOP('',(#154,#155,#156,#157));
#917=EDGE_LOOP('',(#158,#159,#160,#161));
#918=EDGE_LOOP('',(#162,#163,#164,#165));
#919=EDGE_LOOP('',(#166,#167,#168,#169));
#920=EDGE_LOOP('',(#170,#171,#172,#173));
#921=EDGE_LOOP('',(#174,#175,#176,#177));
#922=EDGE_LOOP('',(#178,#179,#180,#181));
#923=EDGE_LOOP('',(#182,#183,#184,#185));
#924=EDGE_LOOP('',(#186,#187,#188,#189));
#925=EDGE_LOOP('',(#190,#191,#192,#193));
#926=EDGE_LOOP('',(#194,#195,#196,#197,#198));
#927=EDGE_LOOP('',(#199,#200,#201,#202));
#928=EDGE_LOOP('',(#203,#204,#205,#206));
#929=EDGE_LOOP('',(#207,#208,#209,#210,#211));
#930=EDGE_LOOP('',(#212,#213,#214,#215));
#931=EDGE_LOOP('',(#216,#217,#218,#219));
#932=EDGE_LOOP('',(#220,#221,#222,#223,#224,#225,#226));
#933=EDGE_LOOP('',(#227,#228,#229,#230,#231,#232,#233));
#934=EDGE_LOOP('',(#234,#235,#236,#237));
#935=EDGE_LOOP('',(#238,#239,#240,#241));
#936=EDGE_LOOP('',(#242,#243,#244,#245,#246));
#937=EDGE_LOOP('',(#247,#248,#249,#250));
#938=EDGE_LOOP('',(#251,#252,#253,#254,#255));
#939=EDGE_LOOP('',(#256,#257,#258,#259));
#940=EDGE_LOOP('',(#260,#261,#262,#263));
#941=EDGE_LOOP('',(#264,#265,#266,#267,#268));
#942=EDGE_LOOP('',(#269,#270,#271,#272,#273));
#943=EDGE_LOOP('',(#274,#275,#276,#277));
#944=EDGE_LOOP('',(#278,#279,#280,#281));
#945=EDGE_LOOP('',(#282,#283,#284,#285));
#946=EDGE_LOOP('',(#286,#287,#288,#289));
#947=EDGE_LOOP('',(#290));
#948=EDGE_LOOP('',(#291,#292,#293,#294));
#949=EDGE_LOOP('',(#295,#296,#297,#298));
#950=EDGE_LOOP('',(#299,#300,#301,#302));
#951=EDGE_LOOP('',(#303,#304,#305,#306,#307));
#952=EDGE_LOOP('',(#308,#309,#310,#311));
#953=EDGE_LOOP('',(#312,#313,#314,#315));
#954=EDGE_LOOP('',(#316));
#955=EDGE_LOOP('',(#317,#318,#319,#320));
#956=EDGE_LOOP('',(#321,#322,#323,#324,#325,#326,#327,#328,#329,#330,#331));
#957=EDGE_LOOP('',(#332,#333,#334,#335,#336,#337,#338,#339,#340,#341,#342,
#343,#344,#345,#346));
#958=EDGE_LOOP('',(#347,#348,#349,#350));
#959=EDGE_LOOP('',(#351,#352,#353,#354));
#960=EDGE_LOOP('',(#355,#356,#357,#358));
#961=EDGE_LOOP('',(#359,#360,#361,#362));
#962=EDGE_LOOP('',(#363,#364,#365,#366));
#963=EDGE_LOOP('',(#367,#368,#369,#370));
#964=EDGE_LOOP('',(#371,#372,#373));
#965=EDGE_LOOP('',(#374,#375,#376,#377));
#966=EDGE_LOOP('',(#378,#379,#380,#381));
#967=EDGE_LOOP('',(#382,#383,#384));
#968=EDGE_LOOP('',(#385,#386,#387,#388));
#969=EDGE_LOOP('',(#389,#390,#391,#392));
#970=EDGE_LOOP('',(#393,#394,#395,#396));
#971=EDGE_LOOP('',(#397,#398,#399,#400));
#972=EDGE_LOOP('',(#401,#402,#403,#404));
#973=EDGE_LOOP('',(#405,#406,#407));
#974=EDGE_LOOP('',(#408,#409,#410,#411));
#975=EDGE_LOOP('',(#412,#413,#414,#415));
#976=EDGE_LOOP('',(#416));
#977=EDGE_LOOP('',(#417));
#978=FACE_BOUND('',#904,.T.);
#979=FACE_BOUND('',#905,.T.);
#980=FACE_BOUND('',#906,.T.);
#981=FACE_BOUND('',#907,.T.);
#982=FACE_BOUND('',#908,.T.);
#983=FACE_BOUND('',#909,.T.);
#984=FACE_BOUND('',#910,.T.);
#985=FACE_BOUND('',#911,.T.);
#986=FACE_BOUND('',#912,.T.);
#987=FACE_BOUND('',#913,.T.);
#988=FACE_BOUND('',#914,.T.);
#989=FACE_BOUND('',#915,.T.);
#990=FACE_BOUND('',#916,.T.);
#991=FACE_BOUND('',#917,.T.);
#992=FACE_BOUND('',#918,.T.);
#993=FACE_BOUND('',#919,.T.);
#994=FACE_BOUND('',#920,.T.);
#995=FACE_BOUND('',#921,.T.);
#996=FACE_BOUND('',#922,.T.);
#997=FACE_BOUND('',#923,.T.);
#998=FACE_BOUND('',#924,.T.);
#999=FACE_BOUND('',#925,.T.);
#1000=FACE_BOUND('',#926,.T.);
#1001=FACE_BOUND('',#927,.T.);
#1002=FACE_BOUND('',#928,.T.);
#1003=FACE_BOUND('',#929,.T.);
#1004=FACE_BOUND('',#930,.T.);
#1005=FACE_BOUND('',#931,.T.);
#1006=FACE_BOUND('',#932,.T.);
#1007=FACE_BOUND('',#933,.T.);
#1008=FACE_BOUND('',#934,.T.);
#1009=FACE_BOUND('',#935,.T.);
#1010=FACE_BOUND('',#936,.T.);
#1011=FACE_BOUND('',#937,.T.);
#1012=FACE_BOUND('',#938,.T.);
#1013=FACE_BOUND('',#939,.T.);
#1014=FACE_BOUND('',#940,.T.);
#1015=FACE_BOUND('',#941,.T.);
#1016=FACE_BOUND('',#942,.T.);
#1017=FACE_BOUND('',#943,.T.);
#1018=FACE_BOUND('',#944,.T.);
#1019=FACE_BOUND('',#945,.T.);
#1020=FACE_BOUND('',#946,.T.);
#1021=FACE_BOUND('',#947,.T.);
#1022=FACE_BOUND('',#948,.T.);
#1023=FACE_BOUND('',#949,.T.);
#1024=FACE_BOUND('',#950,.T.);
#1025=FACE_BOUND('',#951,.T.);
#1026=FACE_BOUND('',#952,.T.);
#1027=FACE_BOUND('',#953,.T.);
#1028=FACE_BOUND('',#954,.T.);
#1029=FACE_BOUND('',#955,.T.);
#1030=FACE_BOUND('',#956,.T.);
#1031=FACE_BOUND('',#957,.T.);
#1032=FACE_BOUND('',#958,.T.);
#1033=FACE_BOUND('',#959,.T.);
#1034=FACE_BOUND('',#960,.T.);
#1035=FACE_BOUND('',#961,.T.);
#1036=FACE_BOUND('',#962,.T.);
#1037=FACE_BOUND('',#963,.T.);
#1038=FACE_BOUND('',#964,.T.);
#1039=FACE_BOUND('',#965,.T.);
#1040=FACE_BOUND('',#966,.T.);
#1041=FACE_BOUND('',#967,.T.);
#1042=FACE_BOUND('',#968,.T.);
#1043=FACE_BOUND('',#969,.T.);
#1044=FACE_BOUND('',#970,.T.);
#1045=FACE_BOUND('',#971,.T.);
#1046=FACE_BOUND('',#972,.T.);
#1047=FACE_BOUND('',#973,.T.);
#1048=FACE_BOUND('',#974,.T.);
#1049=FACE_BOUND('',#975,.T.);
#1050=FACE_BOUND('',#976,.T.);
#1051=FACE_BOUND('',#977,.T.);
#1052=PLANE('',#1224);
#1053=PLANE('',#1226);
#1054=PLANE('',#1230);
#1055=PLANE('',#1231);
#1056=PLANE('',#1232);
#1057=PLANE('',#1233);
#1058=PLANE('',#1234);
#1059=PLANE('',#1236);
#1060=PLANE('',#1241);
#1061=PLANE('',#1242);
#1062=PLANE('',#1243);
#1063=PLANE('',#1244);
#1064=PLANE('',#1245);
#1065=PLANE('',#1246);
#1066=PLANE('',#1256);
#1067=PLANE('',#1257);
#1068=PLANE('',#1261);
#1069=PLANE('',#1262);
#1070=PLANE('',#1264);
#1071=PLANE('',#1265);
#1072=PLANE('',#1266);
#1073=PLANE('',#1268);
#1074=PLANE('',#1273);
#1075=PLANE('',#1277);
#1076=PLANE('',#1278);
#1077=PLANE('',#1279);
#1078=PLANE('',#1280);
#1079=PLANE('',#1282);
#1080=PLANE('',#1285);
#1081=PLANE('',#1286);
#1082=PLANE('',#1287);
#1083=PLANE('',#1288);
#1084=PLANE('',#1290);
#1085=PLANE('',#1291);
#1086=PLANE('',#1292);
#1087=PLANE('',#1294);
#1088=PLANE('',#1295);
#1089=PLANE('',#1296);
#1090=PLANE('',#1298);
#1091=PLANE('',#1300);
#1092=ADVANCED_FACE('',(#978),#1052,.T.);
#1093=ADVANCED_FACE('',(#979),#1053,.T.);
#1094=ADVANCED_FACE('',(#980),#40,.T.);
#1095=ADVANCED_FACE('',(#981),#1054,.F.);
#1096=ADVANCED_FACE('',(#982),#1055,.F.);
#1097=ADVANCED_FACE('',(#983),#1056,.T.);
#1098=ADVANCED_FACE('',(#984),#1057,.T.);
#1099=ADVANCED_FACE('',(#985),#1058,.T.);
#1100=ADVANCED_FACE('',(#986),#1059,.F.);
#1101=ADVANCED_FACE('',(#987),#41,.T.);
#1102=ADVANCED_FACE('',(#988),#32,.T.);
#1103=ADVANCED_FACE('',(#989),#1060,.T.);
#1104=ADVANCED_FACE('',(#990),#1061,.F.);
#1105=ADVANCED_FACE('',(#991),#1062,.T.);
#1106=ADVANCED_FACE('',(#992),#1063,.F.);
#1107=ADVANCED_FACE('',(#993),#1064,.T.);
#1108=ADVANCED_FACE('',(#994),#1065,.F.);
#1109=ADVANCED_FACE('',(#995),#42,.T.);
#1110=ADVANCED_FACE('',(#996),#43,.T.);
#1111=ADVANCED_FACE('',(#997),#44,.T.);
#1112=ADVANCED_FACE('',(#998),#45,.T.);
#1113=ADVANCED_FACE('',(#999),#1066,.T.);
#1114=ADVANCED_FACE('',(#1000),#1067,.T.);
#1115=ADVANCED_FACE('',(#1001),#46,.T.);
#1116=ADVANCED_FACE('',(#1002),#1068,.F.);
#1117=ADVANCED_FACE('',(#1003),#1069,.F.);
#1118=ADVANCED_FACE('',(#1004),#1070,.F.);
#1119=ADVANCED_FACE('',(#1005),#1071,.F.);
#1120=ADVANCED_FACE('',(#1006),#1072,.T.);
#1121=ADVANCED_FACE('',(#1007),#1073,.F.);
#1122=ADVANCED_FACE('',(#1008),#47,.T.);
#1123=ADVANCED_FACE('',(#1009),#33,.T.);
#1124=ADVANCED_FACE('',(#1010),#1074,.T.);
#1125=ADVANCED_FACE('',(#1011),#48,.T.);
#1126=ADVANCED_FACE('',(#1012),#1075,.F.);
#1127=ADVANCED_FACE('',(#1013),#1076,.F.);
#1128=ADVANCED_FACE('',(#1014),#1077,.T.);
#1129=ADVANCED_FACE('',(#1015),#1078,.T.);
#1130=ADVANCED_FACE('',(#1016),#1079,.F.);
#1131=ADVANCED_FACE('',(#1017),#34,.T.);
#1132=ADVANCED_FACE('',(#1018),#1080,.T.);
#1133=ADVANCED_FACE('',(#1019),#1081,.T.);
#1134=ADVANCED_FACE('',(#1020),#1082,.F.);
#1135=ADVANCED_FACE('',(#1021,#1022),#1083,.F.);
#1136=ADVANCED_FACE('',(#1023),#1084,.T.);
#1137=ADVANCED_FACE('',(#1024),#1085,.T.);
#1138=ADVANCED_FACE('',(#1025),#1086,.F.);
#1139=ADVANCED_FACE('',(#1026),#1087,.F.);
#1140=ADVANCED_FACE('',(#1027),#1088,.F.);
#1141=ADVANCED_FACE('',(#1028,#1029),#1089,.F.);
#1142=ADVANCED_FACE('',(#1030),#1090,.T.);
#1143=ADVANCED_FACE('',(#1031),#1091,.F.);
#1144=ADVANCED_FACE('',(#1032),#49,.T.);
#1145=ADVANCED_FACE('',(#1033),#50,.T.);
#1146=ADVANCED_FACE('',(#1034),#51,.T.);
#1147=ADVANCED_FACE('',(#1035),#52,.T.);
#1148=ADVANCED_FACE('',(#1036),#53,.T.);
#1149=ADVANCED_FACE('',(#1037),#54,.T.);
#1150=ADVANCED_FACE('',(#1038),#10,.T.);
#1151=ADVANCED_FACE('',(#1039),#55,.T.);
#1152=ADVANCED_FACE('',(#1040),#56,.T.);
#1153=ADVANCED_FACE('',(#1041),#11,.T.);
#1154=ADVANCED_FACE('',(#1042),#57,.T.);
#1155=ADVANCED_FACE('',(#1043),#58,.F.);
#1156=ADVANCED_FACE('',(#1044),#35,.T.);
#1157=ADVANCED_FACE('',(#1045),#59,.T.);
#1158=ADVANCED_FACE('',(#1046),#60,.T.);
#1159=ADVANCED_FACE('',(#1047),#12,.T.);
#1160=ADVANCED_FACE('',(#1048),#61,.T.);
#1161=ADVANCED_FACE('',(#1049),#62,.T.);
#1162=ADVANCED_FACE('',(#1050,#1051),#63,.F.);
#1163=CLOSED_SHELL('',(#1092,#1093,#1094,#1095,#1096,#1097,#1098,#1099,
#1100,#1101,#1102));
#1164=CLOSED_SHELL('',(#1103,#1104,#1105,#1106,#1107,#1108,#1109,#1110,
#1111,#1112));
#1165=CLOSED_SHELL('',(#1113,#1114,#1115,#1116,#1117,#1118,#1119,#1120,
#1121,#1122,#1123));
#1166=CLOSED_SHELL('',(#1124,#1125,#1126,#1127,#1128,#1129,#1130,#1131));
#1167=CLOSED_SHELL('',(#1132,#1133,#1134,#1135,#1136,#1137,#1138,#1139,
#1140,#1141,#1142,#1143,#1144,#1145,#1146,#1147,#1148,#1149,#1150,#1151,
#1152,#1153,#1154,#1155,#1156,#1157,#1158,#1159,#1160,#1161,#1162));
#1168=STYLED_ITEM('',(#1173),#1208);
#1169=STYLED_ITEM('',(#1174),#1209);
#1170=STYLED_ITEM('',(#1175),#1210);
#1171=STYLED_ITEM('',(#1176),#1211);
#1172=STYLED_ITEM('',(#1177),#1212);
#1173=PRESENTATION_STYLE_ASSIGNMENT((#1178));
#1174=PRESENTATION_STYLE_ASSIGNMENT((#1179));
#1175=PRESENTATION_STYLE_ASSIGNMENT((#1180));
#1176=PRESENTATION_STYLE_ASSIGNMENT((#1181));
#1177=PRESENTATION_STYLE_ASSIGNMENT((#1182));
#1178=SURFACE_STYLE_USAGE(.BOTH.,#1183);
#1179=SURFACE_STYLE_USAGE(.BOTH.,#1184);
#1180=SURFACE_STYLE_USAGE(.BOTH.,#1185);
#1181=SURFACE_STYLE_USAGE(.BOTH.,#1186);
#1182=SURFACE_STYLE_USAGE(.BOTH.,#1187);
#1183=SURFACE_SIDE_STYLE('',(#1188));
#1184=SURFACE_SIDE_STYLE('',(#1189));
#1185=SURFACE_SIDE_STYLE('',(#1190));
#1186=SURFACE_SIDE_STYLE('',(#1191));
#1187=SURFACE_SIDE_STYLE('',(#1192));
#1188=SURFACE_STYLE_FILL_AREA(#1193);
#1189=SURFACE_STYLE_FILL_AREA(#1194);
#1190=SURFACE_STYLE_FILL_AREA(#1195);
#1191=SURFACE_STYLE_FILL_AREA(#1196);
#1192=SURFACE_STYLE_FILL_AREA(#1197);
#1193=FILL_AREA_STYLE('',(#1198));
#1194=FILL_AREA_STYLE('',(#1199));
#1195=FILL_AREA_STYLE('',(#1200));
#1196=FILL_AREA_STYLE('',(#1201));
#1197=FILL_AREA_STYLE('',(#1202));
#1198=FILL_AREA_STYLE_COLOUR('',#1203);
#1199=FILL_AREA_STYLE_COLOUR('',#1204);
#1200=FILL_AREA_STYLE_COLOUR('',#1205);
#1201=FILL_AREA_STYLE_COLOUR('',#1206);
#1202=FILL_AREA_STYLE_COLOUR('',#1207);
#1203=COLOUR_RGB('',0.917647058823529,0.917647058823529,0.917647058823529);
#1204=COLOUR_RGB('',0.647058823529412,0.647058823529412,0.647058823529412);
#1205=COLOUR_RGB('',0.231372549019608,0.380392156862745,0.705882352941177);
#1206=COLOUR_RGB('',0.768627450980392,0.886274509803922,0.952941176470588);
#1207=COLOUR_RGB('',0.615686274509804,0.811764705882353,0.929411764705882);
#1208=MANIFOLD_SOLID_BREP('Part 4',#1163);
#1209=MANIFOLD_SOLID_BREP('Part 2',#1164);
#1210=MANIFOLD_SOLID_BREP('Part 3',#1165);
#1211=MANIFOLD_SOLID_BREP('Part 5',#1166);
#1212=MANIFOLD_SOLID_BREP('Part 1',#1167);
#1213=SHAPE_DEFINITION_REPRESENTATION(#2075,#1218);
#1214=SHAPE_DEFINITION_REPRESENTATION(#2076,#1219);
#1215=SHAPE_DEFINITION_REPRESENTATION(#2077,#1220);
#1216=SHAPE_DEFINITION_REPRESENTATION(#2078,#1221);
#1217=SHAPE_DEFINITION_REPRESENTATION(#2079,#1222);
#1218=SHAPE_REPRESENTATION('Part 4',(#1223),#2050);
#1219=SHAPE_REPRESENTATION('Part 2',(#1240),#2051);
#1220=SHAPE_REPRESENTATION('Part 3',(#1255),#2052);
#1221=SHAPE_REPRESENTATION('Part 5',(#1272),#2053);
#1222=SHAPE_REPRESENTATION('Part 1',(#1284),#2054);
#1223=AXIS2_PLACEMENT_3D('',#1693,#1342,#1343);
#1224=AXIS2_PLACEMENT_3D('',#1694,#1344,#1345);
#1225=AXIS2_PLACEMENT_3D('',#1698,#1347,#1348);
#1226=AXIS2_PLACEMENT_3D('',#1705,#1352,#1353);
#1227=AXIS2_PLACEMENT_3D('',#1711,#1357,#1358);
#1228=AXIS2_PLACEMENT_3D('',#1715,#1360,#1361);
#1229=AXIS2_PLACEMENT_3D('',#1716,#1362,#1363);
#1230=AXIS2_PLACEMENT_3D('',#1717,#1364,#1365);
#1231=AXIS2_PLACEMENT_3D('',#1729,#1369,#1370);
#1232=AXIS2_PLACEMENT_3D('',#1735,#1374,#1375);
#1233=AXIS2_PLACEMENT_3D('',#1741,#1379,#1380);
#1234=AXIS2_PLACEMENT_3D('',#1744,#1383,#1384);
#1235=AXIS2_PLACEMENT_3D('',#1747,#1386,#1387);
#1236=AXIS2_PLACEMENT_3D('',#1748,#1388,#1389);
#1237=AXIS2_PLACEMENT_3D('',#1749,#1390,#1391);
#1238=AXIS2_PLACEMENT_3D('',#1750,#1392,#1393);
#1239=AXIS2_PLACEMENT_3D('',#1751,#1394,#1395);
#1240=AXIS2_PLACEMENT_3D('',#1752,#1396,#1397);
#1241=AXIS2_PLACEMENT_3D('',#1753,#1398,#1399);
#1242=AXIS2_PLACEMENT_3D('',#1762,#1404,#1405);
#1243=AXIS2_PLACEMENT_3D('',#1768,#1409,#1410);
#1244=AXIS2_PLACEMENT_3D('',#1774,#1414,#1415);
#1245=AXIS2_PLACEMENT_3D('',#1777,#1418,#1419);
#1246=AXIS2_PLACEMENT_3D('',#1786,#1424,#1425);
#1247=AXIS2_PLACEMENT_3D('',#1787,#1426,#1427);
#1248=AXIS2_PLACEMENT_3D('',#1788,#1428,#1429);
#1249=AXIS2_PLACEMENT_3D('',#1789,#1430,#1431);
#1250=AXIS2_PLACEMENT_3D('',#1790,#1432,#1433);
#1251=AXIS2_PLACEMENT_3D('',#1791,#1434,#1435);
#1252=AXIS2_PLACEMENT_3D('',#1792,#1436,#1437);
#1253=AXIS2_PLACEMENT_3D('',#1793,#1438,#1439);
#1254=AXIS2_PLACEMENT_3D('',#1794,#1440,#1441);
#1255=AXIS2_PLACEMENT_3D('',#1795,#1442,#1443);
#1256=AXIS2_PLACEMENT_3D('',#1796,#1444,#1445);
#1257=AXIS2_PLACEMENT_3D('',#1805,#1450,#1451);
#1258=AXIS2_PLACEMENT_3D('',#1817,#1455,#1456);
#1259=AXIS2_PLACEMENT_3D('',#1821,#1458,#1459);
#1260=AXIS2_PLACEMENT_3D('',#1822,#1460,#1461);
#1261=AXIS2_PLACEMENT_3D('',#1823,#1462,#1463);
#1262=AXIS2_PLACEMENT_3D('',#1829,#1467,#1468);
#1263=AXIS2_PLACEMENT_3D('',#1833,#1470,#1471);
#1264=AXIS2_PLACEMENT_3D('',#1837,#1474,#1475);
#1265=AXIS2_PLACEMENT_3D('',#1843,#1479,#1480);
#1266=AXIS2_PLACEMENT_3D('',#1846,#1483,#1484);
#1267=AXIS2_PLACEMENT_3D('',#1847,#1485,#1486);
#1268=AXIS2_PLACEMENT_3D('',#1850,#1488,#1489);
#1269=AXIS2_PLACEMENT_3D('',#1851,#1490,#1491);
#1270=AXIS2_PLACEMENT_3D('',#1852,#1492,#1493);
#1271=AXIS2_PLACEMENT_3D('',#1853,#1494,#1495);
#1272=AXIS2_PLACEMENT_3D('',#1854,#1496,#1497);
#1273=AXIS2_PLACEMENT_3D('',#1855,#1498,#1499);
#1274=AXIS2_PLACEMENT_3D('',#1870,#1504,#1505);
#1275=AXIS2_PLACEMENT_3D('',#1874,#1507,#1508);
#1276=AXIS2_PLACEMENT_3D('',#1875,#1509,#1510);
#1277=AXIS2_PLACEMENT_3D('',#1876,#1511,#1512);
#1278=AXIS2_PLACEMENT_3D('',#1888,#1516,#1517);
#1279=AXIS2_PLACEMENT_3D('',#1894,#1521,#1522);
#1280=AXIS2_PLACEMENT_3D('',#1897,#1525,#1526);
#1281=AXIS2_PLACEMENT_3D('',#1898,#1527,#1528);
#1282=AXIS2_PLACEMENT_3D('',#1899,#1529,#1530);
#1283=AXIS2_PLACEMENT_3D('',#1900,#1531,#1532);
#1284=AXIS2_PLACEMENT_3D('',#1901,#1533,#1534);
#1285=AXIS2_PLACEMENT_3D('',#1902,#1535,#1536);
#1286=AXIS2_PLACEMENT_3D('',#1911,#1541,#1542);
#1287=AXIS2_PLACEMENT_3D('',#1920,#1547,#1548);
#1288=AXIS2_PLACEMENT_3D('',#1926,#1552,#1553);
#1289=AXIS2_PLACEMENT_3D('',#1927,#1554,#1555);
#1290=AXIS2_PLACEMENT_3D('',#1934,#1559,#1560);
#1291=AXIS2_PLACEMENT_3D('',#1940,#1564,#1565);
#1292=AXIS2_PLACEMENT_3D('',#1946,#1569,#1570);
#1293=AXIS2_PLACEMENT_3D('',#1953,#1574,#1575);
#1294=AXIS2_PLACEMENT_3D('',#1954,#1576,#1577);
#1295=AXIS2_PLACEMENT_3D('',#1963,#1582,#1583);
#1296=AXIS2_PLACEMENT_3D('',#1972,#1588,#1589);
#1297=AXIS2_PLACEMENT_3D('',#1973,#1590,#1591);
#1298=AXIS2_PLACEMENT_3D('',#1983,#1596,#1597);
#1299=AXIS2_PLACEMENT_3D('',#1992,#1602,#1603);
#1300=AXIS2_PLACEMENT_3D('',#2003,#1609,#1610);
#1301=AXIS2_PLACEMENT_3D('',#2004,#1611,#1612);
#1302=AXIS2_PLACEMENT_3D('',#2005,#1613,#1614);
#1303=AXIS2_PLACEMENT_3D('',#2006,#1615,#1616);
#1304=AXIS2_PLACEMENT_3D('',#2007,#1617,#1618);
#1305=AXIS2_PLACEMENT_3D('',#2008,#1619,#1620);
#1306=AXIS2_PLACEMENT_3D('',#2009,#1621,#1622);
#1307=AXIS2_PLACEMENT_3D('',#2010,#1623,#1624);
#1308=AXIS2_PLACEMENT_3D('',#2011,#1625,#1626);
#1309=AXIS2_PLACEMENT_3D('',#2012,#1627,#1628);
#1310=AXIS2_PLACEMENT_3D('',#2013,#1629,#1630);
#1311=AXIS2_PLACEMENT_3D('',#2014,#1631,#1632);
#1312=AXIS2_PLACEMENT_3D('',#2015,#1633,#1634);
#1313=AXIS2_PLACEMENT_3D('',#2016,#1635,#1636);
#1314=AXIS2_PLACEMENT_3D('',#2017,#1637,#1638);
#1315=AXIS2_PLACEMENT_3D('',#2018,#1639,#1640);
#1316=AXIS2_PLACEMENT_3D('',#2019,#1641,#1642);
#1317=AXIS2_PLACEMENT_3D('',#2020,#1643,#1644);
#1318=AXIS2_PLACEMENT_3D('',#2021,#1645,#1646);
#1319=AXIS2_PLACEMENT_3D('',#2022,#1647,#1648);
#1320=AXIS2_PLACEMENT_3D('',#2023,#1649,#1650);
#1321=AXIS2_PLACEMENT_3D('',#2024,#1651,#1652);
#1322=AXIS2_PLACEMENT_3D('',#2025,#1653,#1654);
#1323=AXIS2_PLACEMENT_3D('',#2026,#1655,#1656);
#1324=AXIS2_PLACEMENT_3D('',#2027,#1657,#1658);
#1325=AXIS2_PLACEMENT_3D('',#2028,#1659,#1660);
#1326=AXIS2_PLACEMENT_3D('',#2029,#1661,#1662);
#1327=AXIS2_PLACEMENT_3D('',#2030,#1663,#1664);
#1328=AXIS2_PLACEMENT_3D('',#2031,#1665,#1666);
#1329=AXIS2_PLACEMENT_3D('',#2032,#1667,#1668);
#1330=AXIS2_PLACEMENT_3D('',#2033,#1669,#1670);
#1331=AXIS2_PLACEMENT_3D('',#2034,#1671,#1672);
#1332=AXIS2_PLACEMENT_3D('',#2035,#1673,#1674);
#1333=AXIS2_PLACEMENT_3D('',#2036,#1675,#1676);
#1334=AXIS2_PLACEMENT_3D('',#2037,#1677,#1678);
#1335=AXIS2_PLACEMENT_3D('',#2038,#1679,#1680);
#1336=AXIS2_PLACEMENT_3D('',#2039,#1681,#1682);
#1337=AXIS2_PLACEMENT_3D('',#2040,#1683,#1684);
#1338=AXIS2_PLACEMENT_3D('',#2041,#1685,#1686);
#1339=AXIS2_PLACEMENT_3D('',#2042,#1687,#1688);
#1340=AXIS2_PLACEMENT_3D('',#2043,#1689,#1690);
#1341=AXIS2_PLACEMENT_3D('',#2044,#1691,#1692);
#1342=DIRECTION('',(0.,0.,1.));
#1343=DIRECTION('',(1.,0.,0.));
#1344=DIRECTION('',(1.47099505747349E-16,-1.,0.));
#1345=DIRECTION('',(1.,1.47099505747349E-16,0.));
#1346=DIRECTION('',(0.,0.,-1.));
#1347=DIRECTION('',(1.47099505747349E-16,-1.,0.));
#1348=DIRECTION('',(1.,1.47099505747349E-16,0.));
#1349=DIRECTION('',(-1.,-1.47099505747349E-16,0.));
#1350=DIRECTION('',(0.,0.,-1.));
#1351=DIRECTION('',(-1.,-1.47099505747349E-16,0.));
#1352=DIRECTION('',(1.,0.,0.));
#1353=DIRECTION('',(0.,0.,-1.));
#1354=DIRECTION('',(0.,0.,-1.));
#1355=DIRECTION('',(0.,-1.,0.));
#1356=DIRECTION('',(0.,-1.,0.));
#1357=DIRECTION('',(0.,0.,-1.));
#1358=DIRECTION('',(-1.,0.,0.));
#1359=DIRECTION('',(0.,0.,-1.));
#1360=DIRECTION('',(0.,0.,1.));
#1361=DIRECTION('',(1.,0.,0.));
#1362=DIRECTION('',(0.,0.,1.));
#1363=DIRECTION('',(1.,0.,0.));
#1364=DIRECTION('',(0.,-1.,0.));
#1365=DIRECTION('',(0.,0.,-1.));
#1366=DIRECTION('',(-1.,0.,0.));
#1367=DIRECTION('',(-1.,0.,0.));
#1368=DIRECTION('',(0.,0.,-1.));
#1369=DIRECTION('',(0.,-1.,0.));
#1370=DIRECTION('',(0.,0.,-1.));
#1371=DIRECTION('',(-1.,0.,0.));
#1372=DIRECTION('',(0.,0.,-1.));
#1373=DIRECTION('',(-1.,0.,0.));
#1374=DIRECTION('',(-1.,0.,0.));
#1375=DIRECTION('',(0.,0.,1.));
#1376=DIRECTION('',(0.,1.,0.));
#1377=DIRECTION('',(0.,0.,-1.));
#1378=DIRECTION('',(0.,1.,0.));
#1379=DIRECTION('',(-1.,0.,0.));
#1380=DIRECTION('',(0.,0.,1.));
#1381=DIRECTION('',(0.,1.,0.));
#1382=DIRECTION('',(0.,1.,0.));
#1383=DIRECTION('',(0.,0.,1.));
#1384=DIRECTION('',(1.,0.,0.));
#1385=DIRECTION('',(0.,-1.,0.));
#1386=DIRECTION('',(0.,0.,1.));
#1387=DIRECTION('',(1.,0.,0.));
#1388=DIRECTION('',(0.,0.,1.));
#1389=DIRECTION('',(1.,0.,0.));
#1390=DIRECTION('',(0.,-1.,0.));
#1391=DIRECTION('',(0.,0.,-1.));
#1392=DIRECTION('',(0.,1.,0.));
#1393=DIRECTION('',(0.,0.,1.));
#1394=DIRECTION('',(0.,0.,1.));
#1395=DIRECTION('',(1.,0.,0.));
#1396=DIRECTION('',(0.,0.,1.));
#1397=DIRECTION('',(1.,0.,0.));
#1398=DIRECTION('',(0.,1.,0.));
#1399=DIRECTION('',(0.,0.,1.));
#1400=DIRECTION('',(0.,0.,-1.));
#1401=DIRECTION('',(1.,0.,0.));
#1402=DIRECTION('',(0.,0.,-1.));
#1403=DIRECTION('',(1.,0.,0.));
#1404=DIRECTION('',(1.,0.,0.));
#1405=DIRECTION('',(0.,0.,-1.));
#1406=DIRECTION('',(0.,0.,-1.));
#1407=DIRECTION('',(0.,-1.,0.));
#1408=DIRECTION('',(0.,-1.,0.));
#1409=DIRECTION('',(0.,-1.,0.));
#1410=DIRECTION('',(0.,0.,-1.));
#1411=DIRECTION('',(0.,0.,-1.));
#1412=DIRECTION('',(-1.,0.,0.));
#1413=DIRECTION('',(-1.,0.,0.));
#1414=DIRECTION('',(-1.,-1.36592399683213E-16,0.));
#1415=DIRECTION('',(1.36592399683213E-16,-1.,0.));
#1416=DIRECTION('',(-1.36592399683213E-16,1.,0.));
#1417=DIRECTION('',(-1.36592399683213E-16,1.,0.));
#1418=DIRECTION('',(0.,0.,1.));
#1419=DIRECTION('',(1.,0.,0.));
#1420=DIRECTION('',(0.,-1.,0.));
#1421=DIRECTION('',(-1.,0.,0.));
#1422=DIRECTION('',(-1.36592399683213E-16,1.,0.));
#1423=DIRECTION('',(1.,0.,0.));
#1424=DIRECTION('',(0.,0.,1.));
#1425=DIRECTION('',(1.,0.,0.));
#1426=DIRECTION('',(0.,1.,0.));
#1427=DIRECTION('',(0.,0.,1.));
#1428=DIRECTION('',(0.707106781186548,0.707106781186548,0.));
#1429=DIRECTION('',(0.707106781186548,-0.707106781186548,0.));
#1430=DIRECTION('',(-0.707106781186548,0.707106781186548,0.));
#1431=DIRECTION('',(-0.707106781186548,-0.707106781186548,0.));
#1432=DIRECTION('',(-1.,0.,0.));
#1433=DIRECTION('',(0.,0.,1.));
#1434=DIRECTION('',(-0.707106781186548,-0.707106781186548,0.));
#1435=DIRECTION('',(-0.707106781186548,0.707106781186548,0.));
#1436=DIRECTION('',(1.,0.,0.));
#1437=DIRECTION('',(0.,0.,-1.));
#1438=DIRECTION('',(0.707106781186548,-0.707106781186548,0.));
#1439=DIRECTION('',(0.707106781186548,0.707106781186548,0.));
#1440=DIRECTION('',(1.36592399683213E-16,-1.,0.));
#1441=DIRECTION('',(1.,1.36592399683213E-16,0.));
#1442=DIRECTION('',(0.,0.,1.));
#1443=DIRECTION('',(1.,0.,0.));
#1444=DIRECTION('',(1.,0.,0.));
#1445=DIRECTION('',(0.,0.,-1.));
#1446=DIRECTION('',(0.,-1.,0.));
#1447=DIRECTION('',(0.,0.,-1.));
#1448=DIRECTION('',(0.,-1.,0.));
#1449=DIRECTION('',(0.,0.,-1.));
#1450=DIRECTION('',(1.,0.,0.));
#1451=DIRECTION('',(0.,0.,-1.));
#1452=DIRECTION('',(0.,0.,-1.));
#1453=DIRECTION('',(0.,-1.,0.));
#1454=DIRECTION('',(0.,-1.,0.));
#1455=DIRECTION('',(0.,0.,-1.));
#1456=DIRECTION('',(-1.,0.,0.));
#1457=DIRECTION('',(0.,0.,-1.));
#1458=DIRECTION('',(0.,0.,1.));
#1459=DIRECTION('',(1.,0.,0.));
#1460=DIRECTION('',(0.,0.,1.));
#1461=DIRECTION('',(1.,0.,0.));
#1462=DIRECTION('',(0.,-1.,0.));
#1463=DIRECTION('',(0.,0.,-1.));
#1464=DIRECTION('',(0.,0.,-1.));
#1465=DIRECTION('',(-1.,0.,0.));
#1466=DIRECTION('',(-1.,0.,0.));
#1467=DIRECTION('',(1.,0.,0.));
#1468=DIRECTION('',(0.,0.,-1.));
#1469=DIRECTION('',(0.,-1.,0.));
#1470=DIRECTION('',(1.,0.,0.));
#1471=DIRECTION('',(0.,0.,-1.));
#1472=DIRECTION('',(0.,-1.,0.));
#1473=DIRECTION('',(0.,0.,-1.));
#1474=DIRECTION('',(0.,1.,0.));
#1475=DIRECTION('',(0.,0.,1.));
#1476=DIRECTION('',(1.,0.,0.));
#1477=DIRECTION('',(0.,0.,-1.));
#1478=DIRECTION('',(1.,0.,0.));
#1479=DIRECTION('',(0.,1.,0.));
#1480=DIRECTION('',(0.,0.,1.));
#1481=DIRECTION('',(1.,0.,0.));
#1482=DIRECTION('',(1.,0.,0.));
#1483=DIRECTION('',(0.,0.,1.));
#1484=DIRECTION('',(1.,0.,0.));
#1485=DIRECTION('',(0.,0.,1.));
#1486=DIRECTION('',(1.,0.,0.));
#1487=DIRECTION('',(-1.,0.,0.));
#1488=DIRECTION('',(0.,0.,1.));
#1489=DIRECTION('',(1.,0.,0.));
#1490=DIRECTION('',(1.,0.,0.));
#1491=DIRECTION('',(0.,0.,-1.));
#1492=DIRECTION('',(1.,0.,2.12170283660032E-15));
#1493=DIRECTION('',(2.12170283660032E-15,0.,-1.));
#1494=DIRECTION('',(0.,0.,1.));
#1495=DIRECTION('',(1.,0.,0.));
#1496=DIRECTION('',(0.,0.,1.));
#1497=DIRECTION('',(1.,0.,0.));
#1498=DIRECTION('',(0.,-1.,0.));
#1499=DIRECTION('',(0.,0.,-1.));
#1500=DIRECTION('',(0.,0.,-1.));
#1501=DIRECTION('',(-1.,0.,0.));
#1502=DIRECTION('',(0.,0.,-1.));
#1503=DIRECTION('',(-1.,0.,0.));
#1504=DIRECTION('',(0.,0.,-1.));
#1505=DIRECTION('',(-1.,0.,0.));
#1506=DIRECTION('',(0.,0.,-1.));
#1507=DIRECTION('',(0.,0.,1.));
#1508=DIRECTION('',(1.,0.,0.));
#1509=DIRECTION('',(0.,0.,1.));
#1510=DIRECTION('',(1.,0.,0.));
#1511=DIRECTION('',(1.,0.,0.));
#1512=DIRECTION('',(0.,0.,-1.));
#1513=DIRECTION('',(0.,-1.,0.));
#1514=DIRECTION('',(0.,-1.,0.));
#1515=DIRECTION('',(0.,0.,-1.));
#1516=DIRECTION('',(0.,1.,0.));
#1517=DIRECTION('',(0.,0.,1.));
#1518=DIRECTION('',(1.,0.,0.));
#1519=DIRECTION('',(0.,0.,-1.));
#1520=DIRECTION('',(1.,0.,0.));
#1521=DIRECTION('',(-1.,-1.36592399683213E-16,0.));
#1522=DIRECTION('',(1.36592399683213E-16,-1.,0.));
#1523=DIRECTION('',(-1.36592399683213E-16,1.,0.));
#1524=DIRECTION('',(-1.36592399683213E-16,1.,0.));
#1525=DIRECTION('',(0.,0.,1.));
#1526=DIRECTION('',(1.,0.,0.));
#1527=DIRECTION('',(0.,0.,1.));
#1528=DIRECTION('',(1.,0.,0.));
#1529=DIRECTION('',(0.,0.,1.));
#1530=DIRECTION('',(1.,0.,0.));
#1531=DIRECTION('',(0.,0.,1.));
#1532=DIRECTION('',(1.,0.,0.));
#1533=DIRECTION('',(0.,0.,1.));
#1534=DIRECTION('',(1.,0.,0.));
#1535=DIRECTION('',(0.,-1.,0.));
#1536=DIRECTION('',(0.,0.,-1.));
#1537=DIRECTION('',(-1.,0.,0.));
#1538=DIRECTION('',(0.,0.,-1.));
#1539=DIRECTION('',(-1.,0.,0.));
#1540=DIRECTION('',(0.,0.,-1.));
#1541=DIRECTION('',(1.,0.,0.));
#1542=DIRECTION('',(0.,0.,-1.));
#1543=DIRECTION('',(0.,-1.,0.));
#1544=DIRECTION('',(0.,0.,-1.));
#1545=DIRECTION('',(0.,-1.,0.));
#1546=DIRECTION('',(0.,0.,-1.));
#1547=DIRECTION('',(1.47099505747349E-16,-1.,0.));
#1548=DIRECTION('',(1.,1.47099505747349E-16,0.));
#1549=DIRECTION('',(0.,0.,-1.));
#1550=DIRECTION('',(-1.,-1.47099505747349E-16,0.));
#1551=DIRECTION('',(-1.,-1.47099505747349E-16,0.));
#1552=DIRECTION('',(-1.,0.,0.));
#1553=DIRECTION('',(0.,0.,1.));
#1554=DIRECTION('',(1.,0.,0.));
#1555=DIRECTION('',(0.,0.,-1.));
#1556=DIRECTION('',(0.,0.,-1.));
#1557=DIRECTION('',(0.,1.,0.));
#1558=DIRECTION('',(0.,1.,0.));
#1559=DIRECTION('',(0.,1.,0.));
#1560=DIRECTION('',(0.,0.,1.));
#1561=DIRECTION('',(0.,0.,-1.));
#1562=DIRECTION('',(1.,0.,0.));
#1563=DIRECTION('',(1.,0.,0.));
#1564=DIRECTION('',(1.,0.,0.));
#1565=DIRECTION('',(0.,0.,-1.));
#1566=DIRECTION('',(0.,0.,-1.));
#1567=DIRECTION('',(0.,-1.,0.));
#1568=DIRECTION('',(0.,-1.,0.));
#1569=DIRECTION('',(0.,-1.,0.));
#1570=DIRECTION('',(0.,0.,-1.));
#1571=DIRECTION('',(-1.,0.,0.));
#1572=DIRECTION('',(0.,0.,-1.));
#1573=DIRECTION('',(-1.,0.,0.));
#1574=DIRECTION('',(0.,-1.,0.));
#1575=DIRECTION('',(0.,0.,-1.));
#1576=DIRECTION('',(1.,0.,0.));
#1577=DIRECTION('',(0.,0.,-1.));
#1578=DIRECTION('',(0.,-1.,0.));
#1579=DIRECTION('',(0.,0.,-1.));
#1580=DIRECTION('',(0.,-1.,0.));
#1581=DIRECTION('',(0.,0.,-1.));
#1582=DIRECTION('',(0.,1.,0.));
#1583=DIRECTION('',(0.,0.,1.));
#1584=DIRECTION('',(1.,0.,0.));
#1585=DIRECTION('',(0.,0.,-1.));
#1586=DIRECTION('',(1.,0.,0.));
#1587=DIRECTION('',(0.,0.,-1.));
#1588=DIRECTION('',(1.,0.,0.));
#1589=DIRECTION('',(0.,0.,-1.));
#1590=DIRECTION('',(1.,0.,0.));
#1591=DIRECTION('',(0.,0.,-1.));
#1592=DIRECTION('',(0.,-1.,0.));
#1593=DIRECTION('',(0.,0.,-1.));
#1594=DIRECTION('',(0.,-1.,0.));
#1595=DIRECTION('',(0.,0.,-1.));
#1596=DIRECTION('',(0.,0.,1.));
#1597=DIRECTION('',(1.,0.,0.));
#1598=DIRECTION('',(1.,0.,0.));
#1599=DIRECTION('',(0.,-1.,0.));
#1600=DIRECTION('',(0.,-1.,0.));
#1601=DIRECTION('',(1.,0.,0.));
#1602=DIRECTION('',(0.,0.,1.));
#1603=DIRECTION('',(1.,0.,0.));
#1604=DIRECTION('',(0.,-1.,0.));
#1605=DIRECTION('',(-1.,0.,0.));
#1606=DIRECTION('',(0.,-1.,0.));
#1607=DIRECTION('',(-1.,-1.47099505747349E-16,0.));
#1608=DIRECTION('',(0.,1.,0.));
#1609=DIRECTION('',(0.,0.,1.));
#1610=DIRECTION('',(1.,0.,0.));
#1611=DIRECTION('',(0.,0.,1.));
#1612=DIRECTION('',(1.,0.,0.));
#1613=DIRECTION('',(0.,0.,1.));
#1614=DIRECTION('',(1.,0.,0.));
#1615=DIRECTION('',(0.,0.,1.));
#1616=DIRECTION('',(1.,0.,0.));
#1617=DIRECTION('',(0.,0.,1.));
#1618=DIRECTION('',(1.,0.,0.));
#1619=DIRECTION('',(0.,0.,1.));
#1620=DIRECTION('',(1.,0.,0.));
#1621=DIRECTION('',(0.,-1.,0.));
#1622=DIRECTION('',(0.,0.,-1.));
#1623=DIRECTION('',(0.707106781186548,-0.707106781186548,0.));
#1624=DIRECTION('',(0.707106781186548,0.707106781186548,0.));
#1625=DIRECTION('',(1.,0.,0.));
#1626=DIRECTION('',(0.,0.,-1.));
#1627=DIRECTION('',(0.707106781186548,-0.707106781186548,0.));
#1628=DIRECTION('',(-0.707106781186548,-0.707106781186548,0.));
#1629=DIRECTION('',(0.,-1.,0.));
#1630=DIRECTION('',(0.,0.,-1.));
#1631=DIRECTION('',(0.707106781186548,-0.707106781186548,0.));
#1632=DIRECTION('',(0.707106781186548,0.707106781186548,0.));
#1633=DIRECTION('',(1.,1.47099505747349E-16,0.));
#1634=DIRECTION('',(-1.47099505747349E-16,1.,0.));
#1635=DIRECTION('',(0.707106781186548,-0.707106781186548,0.));
#1636=DIRECTION('',(0.707106781186548,0.707106781186548,0.));
#1637=DIRECTION('',(0.,-1.,0.));
#1638=DIRECTION('',(0.,0.,-1.));
#1639=DIRECTION('',(0.,-1.,0.));
#1640=DIRECTION('',(0.,0.,-1.));
#1641=DIRECTION('',(0.,0.,-1.));
#1642=DIRECTION('',(-1.,0.,0.));
#1643=DIRECTION('',(0.,0.,1.));
#1644=DIRECTION('',(1.,0.,0.));
#1645=DIRECTION('',(1.,0.,0.));
#1646=DIRECTION('',(0.,0.,-1.));
#1647=DIRECTION('',(1.,0.,0.));
#1648=DIRECTION('',(0.,0.,-1.));
#1649=DIRECTION('',(-1.,0.,0.));
#1650=DIRECTION('',(0.,0.,1.));
#1651=DIRECTION('',(-1.,0.,2.8289371154671E-15));
#1652=DIRECTION('',(2.8289371154671E-15,0.,1.));
#1653=DIRECTION('',(0.,0.,1.));
#1654=DIRECTION('',(1.,0.,0.));
#1655=DIRECTION('',(0.,0.,1.));
#1656=DIRECTION('',(1.,0.,0.));
#1657=DIRECTION('',(0.,-1.,0.));
#1658=DIRECTION('',(0.,0.,-1.));
#1659=DIRECTION('',(0.,-1.,0.));
#1660=DIRECTION('',(0.,0.,-1.));
#1661=DIRECTION('',(0.,1.,0.));
#1662=DIRECTION('',(0.,0.,1.));
#1663=DIRECTION('',(0.,1.,0.));
#1664=DIRECTION('',(0.,0.,1.));
#1665=DIRECTION('',(0.,0.,1.));
#1666=DIRECTION('',(1.,0.,0.));
#1667=DIRECTION('',(0.,0.,1.));
#1668=DIRECTION('',(1.,0.,0.));
#1669=DIRECTION('',(0.,0.,1.));
#1670=DIRECTION('',(1.,0.,0.));
#1671=DIRECTION('',(1.,0.,0.));
#1672=DIRECTION('',(0.,0.,-1.));
#1673=DIRECTION('',(-1.,0.,0.));
#1674=DIRECTION('',(0.,0.,1.));
#1675=DIRECTION('',(-1.,0.,0.));
#1676=DIRECTION('',(0.,0.,1.));
#1677=DIRECTION('',(0.,0.,-1.));
#1678=DIRECTION('',(-1.,0.,0.));
#1679=DIRECTION('',(0.,0.,1.));
#1680=DIRECTION('',(1.,0.,0.));
#1681=DIRECTION('',(0.,-1.,0.));
#1682=DIRECTION('',(0.,0.,-1.));
#1683=DIRECTION('',(2.8289371154671E-15,-1.,0.));
#1684=DIRECTION('',(1.,2.8289371154671E-15,0.));
#1685=DIRECTION('',(0.,1.,0.));
#1686=DIRECTION('',(0.,0.,1.));
#1687=DIRECTION('',(0.,0.707106781186548,-0.707106781186548));
#1688=DIRECTION('',(0.,0.707106781186548,0.707106781186548));
#1689=DIRECTION('',(0.,0.,-1.));
#1690=DIRECTION('',(-1.,0.,0.));
#1691=DIRECTION('',(1.,0.,0.));
#1692=DIRECTION('',(0.,0.,-1.));
#1693=CARTESIAN_POINT('',(0.,0.,0.));
#1694=CARTESIAN_POINT('',(0.0136071427285671,-0.0228600015623494,0.00254));
#1695=CARTESIAN_POINT('',(0.0254,-0.0228600015623494,0.00254));
#1696=CARTESIAN_POINT('',(0.0254,-0.0228600015623494,0.0013135864));
#1697=CARTESIAN_POINT('',(0.0254,-0.0228600015623494,0.));
#1698=CARTESIAN_POINT('',(0.0241735864,-0.0228600015623494,0.0013135864));
#1699=CARTESIAN_POINT('',(0.0241735864,-0.0228600015623494,0.00254));
#1700=CARTESIAN_POINT('',(0.0136071427285671,-0.0228600015623494,0.00254));
#1701=CARTESIAN_POINT('',(0.00181428545713423,-0.0228600015623494,0.00254));
#1702=CARTESIAN_POINT('',(0.00181428545713423,-0.0228600015623494,0.00254));
#1703=CARTESIAN_POINT('',(0.00181428545713423,-0.0228600015623494,0.));
#1704=CARTESIAN_POINT('',(0.0136071427285671,-0.0228600015623494,0.));
#1705=CARTESIAN_POINT('',(0.0254,-0.0128338356313836,0.00254));
#1706=CARTESIAN_POINT('',(0.0254,-0.00280766970041785,0.00254));
#1707=CARTESIAN_POINT('',(0.0254,-0.00280766970041785,0.0013135864));
#1708=CARTESIAN_POINT('',(0.0254,-0.00280766970041785,0.));
#1709=CARTESIAN_POINT('',(0.0254,-0.0128338356313836,0.0013135864));
#1710=CARTESIAN_POINT('',(0.0254,-0.0128338356313836,0.));
#1711=CARTESIAN_POINT('',(-0.00280767126276699,-0.00280766970041785,0.00254));
#1712=CARTESIAN_POINT('',(0.0248159164984204,0.00290285718142989,0.00254));
#1713=CARTESIAN_POINT('',(0.0248159164984204,0.00290285718142989,0.0013135864));
#1714=CARTESIAN_POINT('',(0.0248159164984204,0.00290285718142989,0.));
#1715=CARTESIAN_POINT('',(-0.00280767126276699,-0.00280766970041785,0.0013135864));
#1716=CARTESIAN_POINT('',(-0.00280767126276699,-0.00280766970041785,0.));
#1717=CARTESIAN_POINT('',(0.0196651009777773,0.00290285718142989,0.00254));
#1718=CARTESIAN_POINT('',(0.0196651009777773,0.00290285718142989,0.00254));
#1719=CARTESIAN_POINT('',(0.023562352396614,0.00290285718142989,0.00254));
#1720=CARTESIAN_POINT('',(0.0145142854571342,0.00290285718142989,0.00254));
#1721=CARTESIAN_POINT('',(0.023562352396614,0.00290285718142989,0.00254));
#1722=CARTESIAN_POINT('',(0.0238898385351031,0.00290285718142989,0.00254000000000001));
#1723=CARTESIAN_POINT('',(0.0245344790877272,0.00290285718142988,0.00228131889205394));
#1724=CARTESIAN_POINT('',(0.0248159164984204,0.00290285718142989,0.00164128525239174));
#1725=CARTESIAN_POINT('',(0.0248159164984204,0.00290285718142989,0.0013135864));
#1726=CARTESIAN_POINT('',(0.0196651009777773,0.00290285718142989,0.));
#1727=CARTESIAN_POINT('',(0.0145142854571342,0.00290285718142989,0.));
#1728=CARTESIAN_POINT('',(0.0145142854571342,0.00290285718142989,0.00254));
#1729=CARTESIAN_POINT('',(0.00816428545713422,0.00290285718142989,0.00254));
#1730=CARTESIAN_POINT('',(0.00816428545713422,0.00290285718142989,0.));
#1731=CARTESIAN_POINT('',(0.00181428545713424,0.00290285718142988,0.));
#1732=CARTESIAN_POINT('',(0.00181428545713424,0.00290285718142988,0.00254));
#1733=CARTESIAN_POINT('',(0.00181428545713424,0.00290285718142988,0.00254));
#1734=CARTESIAN_POINT('',(0.00816428545713422,0.00290285718142989,0.00254));
#1735=CARTESIAN_POINT('',(0.00181428545713423,0.000864231395442051,0.00254));
#1736=CARTESIAN_POINT('',(0.00181428545713423,0.000864231395442051,0.));
#1737=CARTESIAN_POINT('',(0.00181428545713423,-0.00117439439054579,0.));
#1738=CARTESIAN_POINT('',(0.00181428545713423,-0.00117439439054579,0.00254));
#1739=CARTESIAN_POINT('',(0.00181428545713423,-0.00117439439054579,0.00254));
#1740=CARTESIAN_POINT('',(0.00181428545713423,0.000864231395442051,0.00254));
#1741=CARTESIAN_POINT('',(0.00181428545713423,-0.0120171979764476,0.00254));
#1742=CARTESIAN_POINT('',(0.00181428545713423,-0.0120171979764476,0.));
#1743=CARTESIAN_POINT('',(0.00181428545713423,-0.0120171979764476,0.00254));
#1744=CARTESIAN_POINT('',(0.0517071427285671,0.0522514278095403,0.00254));
#1745=CARTESIAN_POINT('',(0.0241735864,0.0522514278095403,0.00254));
#1746=CARTESIAN_POINT('',(0.0241735864,-0.00280766970041785,0.00254));
#1747=CARTESIAN_POINT('',(-0.00280767126276699,-0.00280766970041785,0.00254));
#1748=CARTESIAN_POINT('',(0.0517071427285671,0.0522514278095403,0.));
#1749=CARTESIAN_POINT('',(0.0241735864,-0.0128338356313836,0.0013135864));
#1750=CARTESIAN_POINT('',(0.0241735864,-0.00280766970041785,0.0013135864));
#1751=CARTESIAN_POINT('',(-0.00280767126276699,-0.00280766970041785,0.0013135864));
#1752=CARTESIAN_POINT('',(0.,0.,0.));
#1753=CARTESIAN_POINT('',(0.00816428545713421,0.0156028571814299,0.0254));
#1754=CARTESIAN_POINT('',(0.00181428545713421,0.0156028571814299,0.0254));
#1755=CARTESIAN_POINT('',(0.00181428545713421,0.0156028571814299,0.0241735864));
#1756=CARTESIAN_POINT('',(0.00181428545713421,0.0156028571814299,0.));
#1757=CARTESIAN_POINT('',(0.00816428545713421,0.0156028571814299,0.0241735864));
#1758=CARTESIAN_POINT('',(0.0145142854571342,0.0156028571814299,0.0241735864));
#1759=CARTESIAN_POINT('',(0.0145142854571342,0.0156028571814299,0.0254));
#1760=CARTESIAN_POINT('',(0.0145142854571342,0.0156028571814299,0.));
#1761=CARTESIAN_POINT('',(0.00816428545713421,0.0156028571814299,0.));
#1762=CARTESIAN_POINT('',(0.00181428545713424,0.00925285718142988,0.0254));
#1763=CARTESIAN_POINT('',(0.00181428545713424,0.00290285718142988,0.0254));
#1764=CARTESIAN_POINT('',(0.00181428545713424,0.00290285718142988,0.0241735864));
#1765=CARTESIAN_POINT('',(0.00181428545713424,0.00290285718142988,0.));
#1766=CARTESIAN_POINT('',(0.00181428545713424,0.0156028571814299,0.0241735864));
#1767=CARTESIAN_POINT('',(0.00181428545713424,0.00925285718142988,0.));
#1768=CARTESIAN_POINT('',(0.00816428545713422,0.00290285718142989,0.0254));
#1769=CARTESIAN_POINT('',(0.0145142854571342,0.00290285718142989,0.0254));
#1770=CARTESIAN_POINT('',(0.0145142854571342,0.00290285718142989,0.0241735864));
#1771=CARTESIAN_POINT('',(0.0145142854571342,0.00290285718142989,0.));
#1772=CARTESIAN_POINT('',(0.00816428545713422,0.00290285718142989,0.0241735864));
#1773=CARTESIAN_POINT('',(0.00816428545713422,0.00290285718142989,0.));
#1774=CARTESIAN_POINT('',(0.0145142854571342,0.00925285718142989,0.0254));
#1775=CARTESIAN_POINT('',(0.0145142854571342,0.00290285718142989,0.0241735864));
#1776=CARTESIAN_POINT('',(0.0145142854571342,0.00925285718142989,0.));
#1777=CARTESIAN_POINT('',(0.0517071427285671,0.0522514278095403,0.0254));
#1778=CARTESIAN_POINT('',(0.00304069905713424,0.00290285718142988,0.0254));
#1779=CARTESIAN_POINT('',(0.00304069905713424,0.0143764435814299,0.0254));
#1780=CARTESIAN_POINT('',(0.00304069905713424,0.00412927078142989,0.0254));
#1781=CARTESIAN_POINT('',(0.0517071427285671,0.00412927078142989,0.0254));
#1782=CARTESIAN_POINT('',(0.0132878718571342,0.00412927078142989,0.0254));
#1783=CARTESIAN_POINT('',(0.0132878718571342,0.0156028571814299,0.0254));
#1784=CARTESIAN_POINT('',(0.0132878718571342,0.0143764435814299,0.0254));
#1785=CARTESIAN_POINT('',(0.0517071427285671,0.0143764435814299,0.0254));
#1786=CARTESIAN_POINT('',(0.0517071427285671,0.0522514278095403,0.));
#1787=CARTESIAN_POINT('',(0.00304069905713424,0.0522514278095403,0.0241735864));
#1788=CARTESIAN_POINT('',(0.00304069905713424,0.0143764435814299,0.0241735864));
#1789=CARTESIAN_POINT('',(0.00304069905713424,0.00412927078142989,0.0241735864));
#1790=CARTESIAN_POINT('',(0.00816428545713422,0.00412927078142989,0.0241735864));
#1791=CARTESIAN_POINT('',(0.0132878718571342,0.00412927078142989,0.0241735864));
#1792=CARTESIAN_POINT('',(0.00816428545713421,0.0143764435814299,0.0241735864));
#1793=CARTESIAN_POINT('',(0.0132878718571342,0.0143764435814299,0.0241735864));
#1794=CARTESIAN_POINT('',(0.0132878718571342,0.0522514278095403,0.0241735864));
#1795=CARTESIAN_POINT('',(0.,0.,0.));
#1796=CARTESIAN_POINT('',(0.00181428545713424,0.00925285718142988,0.00254));
#1797=CARTESIAN_POINT('',(0.00181428545713424,0.00925285718142988,0.));
#1798=CARTESIAN_POINT('',(0.00181428545713421,0.0156028571814299,0.));
#1799=CARTESIAN_POINT('',(0.00181428545713424,0.00290285718142988,0.));
#1800=CARTESIAN_POINT('',(0.00181428545713421,0.0156028571814299,0.00254));
#1801=CARTESIAN_POINT('',(0.00181428545713421,0.0156028571814299,0.00254));
#1802=CARTESIAN_POINT('',(0.00181428545713424,0.00925285718142988,0.00254));
#1803=CARTESIAN_POINT('',(0.00181428545713424,0.00290285718142988,0.00254));
#1804=CARTESIAN_POINT('',(0.00181428545713424,0.00290285718142988,0.00254));
#1805=CARTESIAN_POINT('',(0.00181428545713424,0.0203108089884969,0.00254));
#1806=CARTESIAN_POINT('',(0.00181428545713424,0.0250187607955639,0.00254));
#1807=CARTESIAN_POINT('',(0.00181428545713424,0.0250187607955639,0.0013135864));
#1808=CARTESIAN_POINT('',(0.00181428545713424,0.0250187607955639,0.));
#1809=CARTESIAN_POINT('',(0.00181428545713424,0.0250187607955639,0.0013135864));
#1810=CARTESIAN_POINT('',(0.00181428545713424,0.0250187607955639,0.00163986000930721));
#1811=CARTESIAN_POINT('',(0.00181428545713424,0.0247434757539617,0.00227737602004389));
#1812=CARTESIAN_POINT('',(0.00181428545713424,0.0241009087895187,0.00254));
#1813=CARTESIAN_POINT('',(0.00181428545713424,0.0237747639944867,0.00254));
#1814=CARTESIAN_POINT('',(0.00181428545713424,0.0237747639944867,0.00254));
#1815=CARTESIAN_POINT('',(0.00181428545713424,0.0203108089884969,0.00254));
#1816=CARTESIAN_POINT('',(0.00181428545713424,0.0203108089884969,0.));
#1817=CARTESIAN_POINT('',(-0.00280767126276732,-0.00280766970041814,0.00254));
#1818=CARTESIAN_POINT('',(-0.00280767126276726,0.0254000015623494,0.00254));
#1819=CARTESIAN_POINT('',(-0.00280767126276726,0.0254000015623494,0.0013135864));
#1820=CARTESIAN_POINT('',(-0.00280767126276726,0.0254000015623494,0.));
#1821=CARTESIAN_POINT('',(-0.00280767126276732,-0.00280766970041814,0.0013135864));
#1822=CARTESIAN_POINT('',(-0.00280767126276732,-0.00280766970041814,0.));
#1823=CARTESIAN_POINT('',(-0.0128338356313836,0.0254000015623494,0.00254));
#1824=CARTESIAN_POINT('',(-0.02286,0.0254000015623494,0.00254));
#1825=CARTESIAN_POINT('',(-0.02286,0.0254000015623494,0.0013135864));
#1826=CARTESIAN_POINT('',(-0.02286,0.0254000015623494,0.));
#1827=CARTESIAN_POINT('',(-0.00280767126276726,0.0254000015623494,0.0013135864));
#1828=CARTESIAN_POINT('',(-0.0128338356313836,0.0254000015623494,0.));
#1829=CARTESIAN_POINT('',(-0.02286,0.0141514293718896,0.00254));
#1830=CARTESIAN_POINT('',(-0.02286,0.0141514293718896,0.00254));
#1831=CARTESIAN_POINT('',(-0.02286,0.0241735879623494,0.00254));
#1832=CARTESIAN_POINT('',(-0.02286,0.00290285718142988,0.00254));
#1833=CARTESIAN_POINT('',(-0.02286,0.0241735879623494,0.0013135864));
#1834=CARTESIAN_POINT('',(-0.02286,0.0141514293718896,0.));
#1835=CARTESIAN_POINT('',(-0.02286,0.00290285718142988,0.));
#1836=CARTESIAN_POINT('',(-0.02286,0.00290285718142988,0.00254));
#1837=CARTESIAN_POINT('',(-0.0137438877004385,0.00290285718142988,0.00254));
#1838=CARTESIAN_POINT('',(-0.0137438877004385,0.00290285718142988,0.));
#1839=CARTESIAN_POINT('',(-0.004627775400877,0.00290285718142988,0.));
#1840=CARTESIAN_POINT('',(-0.004627775400877,0.00290285718142988,0.00254));
#1841=CARTESIAN_POINT('',(-0.004627775400877,0.00290285718142988,0.00254));
#1842=CARTESIAN_POINT('',(-0.0137438877004385,0.00290285718142988,0.00254));
#1843=CARTESIAN_POINT('',(-0.00140674497187138,0.00290285718142988,0.00254));
#1844=CARTESIAN_POINT('',(-0.00140674497187138,0.00290285718142988,0.));
#1845=CARTESIAN_POINT('',(-0.00140674497187138,0.00290285718142988,0.00254));
#1846=CARTESIAN_POINT('',(0.0517071427285671,0.0522514278095403,0.00254));
#1847=CARTESIAN_POINT('',(-0.00280767126276732,-0.00280766970041814,0.00254));
#1848=CARTESIAN_POINT('',(-0.00280767126276726,0.0241735879623494,0.00254));
#1849=CARTESIAN_POINT('',(-0.02286,0.0241735879623494,0.00254));
#1850=CARTESIAN_POINT('',(0.0517071427285671,0.0522514278095403,0.));
#1851=CARTESIAN_POINT('',(0.0517071427285671,0.0241735879623494,0.0013135864));
#1852=CARTESIAN_POINT('',(-0.00280767126276726,0.0241735879623494,0.0013135864));
#1853=CARTESIAN_POINT('',(-0.00280767126276732,-0.00280766970041814,0.0013135864));
#1854=CARTESIAN_POINT('',(0.,0.,0.));
#1855=CARTESIAN_POINT('',(0.0196651009777773,0.00290285718142989,0.00254));
#1856=CARTESIAN_POINT('',(0.0248159164984204,0.00290285718142989,0.00254));
#1857=CARTESIAN_POINT('',(0.0248159164984204,0.00290285718142989,0.0013135864));
#1858=CARTESIAN_POINT('',(0.0248159164984204,0.00290285718142989,0.));
#1859=CARTESIAN_POINT('',(0.0248159164984205,0.00290285718142989,0.0013135864));
#1860=CARTESIAN_POINT('',(0.0248159164984204,0.00290285718142989,0.00164115344045725));
#1861=CARTESIAN_POINT('',(0.0245358240351372,0.00290285718142989,0.002280139349058));
#1862=CARTESIAN_POINT('',(0.023889722512165,0.00290285718142989,0.00253999999999999));
#1863=CARTESIAN_POINT('',(0.0235623523966141,0.00290285718142989,0.00254));
#1864=CARTESIAN_POINT('',(0.0235623523966141,0.00290285718142989,0.00254));
#1865=CARTESIAN_POINT('',(0.0196651009777773,0.00290285718142989,0.00254));
#1866=CARTESIAN_POINT('',(0.0145142854571342,0.00290285718142989,0.00254));
#1867=CARTESIAN_POINT('',(0.0145142854571342,0.00290285718142989,0.00254));
#1868=CARTESIAN_POINT('',(0.0145142854571342,0.00290285718142989,0.));
#1869=CARTESIAN_POINT('',(0.0196651009777773,0.00290285718142989,0.));
#1870=CARTESIAN_POINT('',(-0.00280767126276725,-0.00280766970041785,0.00254));
#1871=CARTESIAN_POINT('',(0.00181428545713424,0.0250187607955639,0.00254));
#1872=CARTESIAN_POINT('',(0.00181428545713424,0.0250187607955639,0.0013135864));
#1873=CARTESIAN_POINT('',(0.00181428545713424,0.0250187607955639,0.));
#1874=CARTESIAN_POINT('',(-0.00280767126276725,-0.00280766970041785,0.0013135864));
#1875=CARTESIAN_POINT('',(-0.00280767126276725,-0.00280766970041785,0.));
#1876=CARTESIAN_POINT('',(0.00181428545713424,0.0203108089884969,0.00254));
#1877=CARTESIAN_POINT('',(0.00181428545713424,0.0203108089884969,0.00254));
#1878=CARTESIAN_POINT('',(0.00181428545713424,0.0237747639944867,0.00254));
#1879=CARTESIAN_POINT('',(0.00181428545713421,0.0156028571814299,0.00254));
#1880=CARTESIAN_POINT('',(0.00181428545713424,0.0237747639944867,0.00254));
#1881=CARTESIAN_POINT('',(0.00181428545713424,0.0241009850581789,0.00254));
#1882=CARTESIAN_POINT('',(0.00181428545713424,0.0247421669420205,0.00227857811503608));
#1883=CARTESIAN_POINT('',(0.00181428545713424,0.0250187607955639,0.00163994361913826));
#1884=CARTESIAN_POINT('',(0.00181428545713424,0.0250187607955639,0.0013135864));
#1885=CARTESIAN_POINT('',(0.00181428545713424,0.0203108089884969,0.));
#1886=CARTESIAN_POINT('',(0.00181428545713421,0.0156028571814299,0.));
#1887=CARTESIAN_POINT('',(0.00181428545713421,0.0156028571814299,0.00254));
#1888=CARTESIAN_POINT('',(0.00816428545713421,0.0156028571814299,0.00254));
#1889=CARTESIAN_POINT('',(0.00816428545713421,0.0156028571814299,0.));
#1890=CARTESIAN_POINT('',(0.0145142854571342,0.0156028571814299,0.));
#1891=CARTESIAN_POINT('',(0.0145142854571342,0.0156028571814299,0.00254));
#1892=CARTESIAN_POINT('',(0.0145142854571342,0.0156028571814299,0.00254));
#1893=CARTESIAN_POINT('',(0.00816428545713421,0.0156028571814299,0.00254));
#1894=CARTESIAN_POINT('',(0.0145142854571342,0.00925285718142989,0.00254));
#1895=CARTESIAN_POINT('',(0.0145142854571342,0.00925285718142989,0.));
#1896=CARTESIAN_POINT('',(0.0145142854571342,0.00925285718142989,0.00254));
#1897=CARTESIAN_POINT('',(0.0517071427285671,0.0522514278095403,0.00254));
#1898=CARTESIAN_POINT('',(-0.00280767126276725,-0.00280766970041785,0.00254));
#1899=CARTESIAN_POINT('',(0.0517071427285671,0.0522514278095403,0.));
#1900=CARTESIAN_POINT('',(-0.00280767126276725,-0.00280766970041785,0.0013135864));
#1901=CARTESIAN_POINT('',(0.,0.,0.));
#1902=CARTESIAN_POINT('',(-0.00140674497187138,-0.0254000015623494,0.028448));
#1903=CARTESIAN_POINT('',(-0.00140674497187138,-0.0254000015623494,0.));
#1904=CARTESIAN_POINT('',(0.0241735864,-0.0254000015623494,0.));
#1905=CARTESIAN_POINT('',(-0.003401361800877,-0.0254000015623494,0.));
#1906=CARTESIAN_POINT('',(0.0241735864,-0.0254000015623494,0.028448));
#1907=CARTESIAN_POINT('',(0.0241735864,-0.0254000015623494,0.0272215864));
#1908=CARTESIAN_POINT('',(-0.00140674497187138,-0.0254000015623494,0.0272215864));
#1909=CARTESIAN_POINT('',(-0.003401361800877,-0.0254000015623494,0.0272215864));
#1910=CARTESIAN_POINT('',(-0.003401361800877,-0.0254000015623494,0.));
#1911=CARTESIAN_POINT('',(0.0254,-0.0241300015623494,0.028448));
#1912=CARTESIAN_POINT('',(0.0254,-0.0241300015623494,0.0272215864));
#1913=CARTESIAN_POINT('',(0.0254,-0.0228600015623494,0.0272215864));
#1914=CARTESIAN_POINT('',(0.0254,-0.0241735879623494,0.0272215864));
#1915=CARTESIAN_POINT('',(0.0254,-0.0241735879623494,0.028448));
#1916=CARTESIAN_POINT('',(0.0254,-0.0241735879623494,0.));
#1917=CARTESIAN_POINT('',(0.0254,-0.0241300015623494,0.));
#1918=CARTESIAN_POINT('',(0.0254,-0.0228600015623494,0.));
#1919=CARTESIAN_POINT('',(0.0254,-0.0228600015623494,0.028448));
#1920=CARTESIAN_POINT('',(0.0136071427285671,-0.0228600015623494,0.028448));
#1921=CARTESIAN_POINT('',(0.00181428545713423,-0.0228600015623494,0.028448));
#1922=CARTESIAN_POINT('',(0.00181428545713423,-0.0228600015623494,0.0272215864));
#1923=CARTESIAN_POINT('',(0.00181428545713423,-0.0228600015623494,0.));
#1924=CARTESIAN_POINT('',(0.0254,-0.0228600015623494,0.0272215864));
#1925=CARTESIAN_POINT('',(0.0136071427285671,-0.0228600015623494,0.));
#1926=CARTESIAN_POINT('',(0.00181428545713423,-0.0120171979764476,0.028448));
#1927=CARTESIAN_POINT('',(0.00181428545713423,-0.00997857219045976,0.01524));
#1928=CARTESIAN_POINT('',(0.00181428545713423,-0.00997857219045976,0.01016));
#1929=CARTESIAN_POINT('',(0.00181428545713424,0.00290285718142988,0.028448));
#1930=CARTESIAN_POINT('',(0.00181428545713424,0.00290285718142988,0.0272215864));
#1931=CARTESIAN_POINT('',(0.00181428545713424,0.00290285718142988,0.));
#1932=CARTESIAN_POINT('',(0.00181428545713423,-0.0228600015623494,0.0272215864));
#1933=CARTESIAN_POINT('',(0.00181428545713423,-0.0120171979764476,0.));
#1934=CARTESIAN_POINT('',(-0.00140674497187138,0.00290285718142988,0.028448));
#1935=CARTESIAN_POINT('',(-0.02286,0.00290285718142988,0.028448));
#1936=CARTESIAN_POINT('',(-0.02286,0.00290285718142988,0.0272215864));
#1937=CARTESIAN_POINT('',(-0.02286,0.00290285718142988,0.));
#1938=CARTESIAN_POINT('',(-0.00140674497187138,0.00290285718142988,0.0272215864));
#1939=CARTESIAN_POINT('',(-0.00140674497187138,0.00290285718142988,0.));
#1940=CARTESIAN_POINT('',(-0.02286,0.0141514293718896,0.028448));
#1941=CARTESIAN_POINT('',(-0.02286,0.0254000015623494,0.028448));
#1942=CARTESIAN_POINT('',(-0.02286,0.0254000015623494,0.0272215864));
#1943=CARTESIAN_POINT('',(-0.02286,0.0254000015623494,0.));
#1944=CARTESIAN_POINT('',(-0.02286,0.0141514293718896,0.0272215864));
#1945=CARTESIAN_POINT('',(-0.02286,0.0141514293718896,0.));
#1946=CARTESIAN_POINT('',(-0.02413,0.0254000015623494,0.028448));
#1947=CARTESIAN_POINT('',(-0.02413,0.0254000015623494,0.));
#1948=CARTESIAN_POINT('',(-0.0241735864,0.0254000015623494,0.));
#1949=CARTESIAN_POINT('',(-0.0241735864,0.0254000015623494,0.028448));
#1950=CARTESIAN_POINT('',(-0.0241735864,0.0254000015623494,0.028448));
#1951=CARTESIAN_POINT('',(-0.02413,0.0254000015623494,0.028448));
#1952=CARTESIAN_POINT('',(-0.0240864136,0.0254000015623494,0.028448));
#1953=CARTESIAN_POINT('',(-0.0240864136,0.0254000015623494,0.0272215864));
#1954=CARTESIAN_POINT('',(-0.0254,0.0121128035859018,0.028448));
#1955=CARTESIAN_POINT('',(-0.0254,0.0254000015623494,0.0272215864));
#1956=CARTESIAN_POINT('',(-0.0254,5.20192094542148E-5,0.0272215864));
#1957=CARTESIAN_POINT('',(-0.0254,0.0241735879623494,0.0272215864));
#1958=CARTESIAN_POINT('',(-0.0254,0.0241735879623494,0.028448));
#1959=CARTESIAN_POINT('',(-0.0254,0.0241735879623494,0.));
#1960=CARTESIAN_POINT('',(-0.0254,0.0121128035859018,0.));
#1961=CARTESIAN_POINT('',(-0.0254,5.20192094542148E-5,0.));
#1962=CARTESIAN_POINT('',(-0.0254,5.20192094542148E-5,0.028448));
#1963=CARTESIAN_POINT('',(-0.0137438877004385,-0.00117439439054579,0.028448));
#1964=CARTESIAN_POINT('',(-0.0137438877004385,-0.00117439439054579,0.));
#1965=CARTESIAN_POINT('',(-0.0241735864,-0.00117439439054579,0.));
#1966=CARTESIAN_POINT('',(-0.005854189000877,-0.00117439439054579,0.));
#1967=CARTESIAN_POINT('',(-0.005854189000877,-0.00117439439054579,0.028448));
#1968=CARTESIAN_POINT('',(-0.005854189000877,-0.00117439439054579,0.0272215864));
#1969=CARTESIAN_POINT('',(-0.0254,-0.00117439439054579,0.0272215864));
#1970=CARTESIAN_POINT('',(-0.0241735864,-0.00117439439054579,0.0272215864));
#1971=CARTESIAN_POINT('',(-0.0241735864,-0.00117439439054579,0.028448));
#1972=CARTESIAN_POINT('',(-0.004627775400877,-0.0241300015623494,0.028448));
#1973=CARTESIAN_POINT('',(-0.004627775400877,-0.00997857219045976,0.01524));
#1974=CARTESIAN_POINT('',(-0.004627775400877,-0.00997857219045976,0.01016));
#1975=CARTESIAN_POINT('',(-0.004627775400877,-0.00117439439054579,0.0272215864));
#1976=CARTESIAN_POINT('',(-0.004627775400877,-0.0241735879623494,0.0272215864));
#1977=CARTESIAN_POINT('',(-0.004627775400877,-0.00240080799054579,0.0272215864));
#1978=CARTESIAN_POINT('',(-0.004627775400877,-0.00240080799054579,0.));
#1979=CARTESIAN_POINT('',(-0.004627775400877,-0.00240080799054579,0.));
#1980=CARTESIAN_POINT('',(-0.004627775400877,-0.0241300015623494,0.));
#1981=CARTESIAN_POINT('',(-0.004627775400877,-0.0241735879623494,0.));
#1982=CARTESIAN_POINT('',(-0.004627775400877,-0.0241735879623494,0.028448));
#1983=CARTESIAN_POINT('',(0.0517071427285671,0.0522514278095403,0.028448));
#1984=CARTESIAN_POINT('',(0.0517071427285671,0.00167644358142988,0.028448));
#1985=CARTESIAN_POINT('',(0.000587871857134228,0.00167644358142988,0.028448));
#1986=CARTESIAN_POINT('',(-0.0240864136,0.00167644358142988,0.028448));
#1987=CARTESIAN_POINT('',(-0.0240864136,0.0522514278095403,0.028448));
#1988=CARTESIAN_POINT('',(-0.0241735864,-0.00117439439054579,0.028448));
#1989=CARTESIAN_POINT('',(-0.0241735864,5.20192094542182E-5,0.028448));
#1990=CARTESIAN_POINT('',(-0.004627775400877,5.20192094542182E-5,0.028448));
#1991=CARTESIAN_POINT('',(-0.005854189000877,5.20192094542182E-5,0.028448));
#1992=CARTESIAN_POINT('',(-0.005854189000877,-0.00240080799054579,0.028448));
#1993=CARTESIAN_POINT('',(-0.003401361800877,-0.00240080799054579,0.028448));
#1994=CARTESIAN_POINT('',(-0.003401361800877,-0.0254000015623494,0.028448));
#1995=CARTESIAN_POINT('',(-0.003401361800877,-0.0241735879623494,0.028448));
#1996=CARTESIAN_POINT('',(0.0517071427285671,-0.0241735879623494,0.028448));
#1997=CARTESIAN_POINT('',(0.0241735864,-0.0241735879623494,0.028448));
#1998=CARTESIAN_POINT('',(0.0241735864,0.0522514278095403,0.028448));
#1999=CARTESIAN_POINT('',(0.0241735864,-0.0240864151623494,0.028448));
#2000=CARTESIAN_POINT('',(0.00181428545713423,-0.0240864151623494,0.028448));
#2001=CARTESIAN_POINT('',(0.000587871857134228,-0.0240864151623494,0.028448));
#2002=CARTESIAN_POINT('',(0.000587871857134228,0.00290285718142988,0.028448));
#2003=CARTESIAN_POINT('',(0.0517071427285671,0.0522514278095403,0.));
#2004=CARTESIAN_POINT('',(-0.0241735864,0.0241735879623494,0.));
#2005=CARTESIAN_POINT('',(0.0241735864,-0.0241735879623494,0.));
#2006=CARTESIAN_POINT('',(-0.003401361800877,-0.0241735879623494,0.));
#2007=CARTESIAN_POINT('',(-0.005854189000877,-0.00240080799054579,0.));
#2008=CARTESIAN_POINT('',(-0.0241735864,5.20192094542148E-5,0.));
#2009=CARTESIAN_POINT('',(-0.0240864136,0.0141514293718896,0.0272215864));
#2010=CARTESIAN_POINT('',(-0.0240864136,0.00167644358142988,0.0272215864));
#2011=CARTESIAN_POINT('',(-0.00140674497187138,0.00167644358142988,0.0272215864));
#2012=CARTESIAN_POINT('',(0.000587871857134228,0.00167644358142988,0.0272215864));
#2013=CARTESIAN_POINT('',(0.000587871857134228,0.0522514278095403,0.0272215864));
#2014=CARTESIAN_POINT('',(0.000587871857134228,-0.0240864151623494,0.0272215864));
#2015=CARTESIAN_POINT('',(0.0517071427285672,-0.0240864151623494,0.0272215864));
#2016=CARTESIAN_POINT('',(0.0241735864,-0.0240864151623494,0.0272215864));
#2017=CARTESIAN_POINT('',(0.0241735864,-0.0241300015623494,0.0272215864));
#2018=CARTESIAN_POINT('',(0.0241735864,-0.0241735879623494,0.0272215864));
#2019=CARTESIAN_POINT('',(0.0241735864,-0.0241735879623494,0.028448));
#2020=CARTESIAN_POINT('',(0.0241735864,-0.0241735879623494,0.0272215864));
#2021=CARTESIAN_POINT('',(0.0241735864,-0.0241735879623494,0.0272215864));
#2022=CARTESIAN_POINT('',(0.0241735864,-0.0241735879623494,0.0272215864));
#2023=CARTESIAN_POINT('',(-0.00140674497187138,-0.0241735879623494,0.0272215864));
#2024=CARTESIAN_POINT('',(-0.003401361800877,-0.0241735879623494,0.0272215864));
#2025=CARTESIAN_POINT('',(-0.003401361800877,-0.0241735879623494,0.028448));
#2026=CARTESIAN_POINT('',(-0.003401361800877,-0.0241735879623494,0.0272215864));
#2027=CARTESIAN_POINT('',(-0.003401361800877,-0.0241735879623494,0.0272215864));
#2028=CARTESIAN_POINT('',(-0.003401361800877,-0.0241735879623494,0.0272215864));
#2029=CARTESIAN_POINT('',(-0.003401361800877,0.0522514278095403,0.0272215864));
#2030=CARTESIAN_POINT('',(-0.003401361800877,-0.00240080799054579,0.0272215864));
#2031=CARTESIAN_POINT('',(-0.005854189000877,-0.00240080799054579,0.028448));
#2032=CARTESIAN_POINT('',(-0.005854189000877,-0.00240080799054579,0.0272215864));
#2033=CARTESIAN_POINT('',(-0.005854189000877,-0.00240080799054579,0.0272215864));
#2034=CARTESIAN_POINT('',(-0.005854189000877,5.20192094542182E-5,0.0272215864));
#2035=CARTESIAN_POINT('',(0.0517071427285671,5.20192094542182E-5,0.0272215864));
#2036=CARTESIAN_POINT('',(-0.0241735864,5.20192094542148E-5,0.0272215864));
#2037=CARTESIAN_POINT('',(-0.0241735864,5.20192094542148E-5,0.028448));
#2038=CARTESIAN_POINT('',(-0.0241735864,5.20192094542148E-5,0.0272215864));
#2039=CARTESIAN_POINT('',(-0.0241735864,5.20192094542148E-5,0.0272215864));
#2040=CARTESIAN_POINT('',(-0.0241735864,5.20192094542182E-5,0.0272215864));
#2041=CARTESIAN_POINT('',(-0.0241735864,0.0522514278095403,0.0272215864));
#2042=CARTESIAN_POINT('',(-0.0241735864,0.0241735879623494,0.0272215864));
#2043=CARTESIAN_POINT('',(-0.0241735864,0.0241735879623494,0.028448));
#2044=CARTESIAN_POINT('',(-0.0235857145428657,-0.00997857219045976,0.01524));
#2045=MECHANICAL_DESIGN_GEOMETRIC_PRESENTATION_REPRESENTATION('',(#1168),
#2050);
#2046=MECHANICAL_DESIGN_GEOMETRIC_PRESENTATION_REPRESENTATION('',(#1169),
#2051);
#2047=MECHANICAL_DESIGN_GEOMETRIC_PRESENTATION_REPRESENTATION('',(#1170),
#2052);
#2048=MECHANICAL_DESIGN_GEOMETRIC_PRESENTATION_REPRESENTATION('',(#1171),
#2053);
#2049=MECHANICAL_DESIGN_GEOMETRIC_PRESENTATION_REPRESENTATION('',(#1172),
#2054);
#2050=(
GEOMETRIC_REPRESENTATION_CONTEXT(3)
GLOBAL_UNCERTAINTY_ASSIGNED_CONTEXT((#2055))
GLOBAL_UNIT_ASSIGNED_CONTEXT((#2070,#2065,#2060))
REPRESENTATION_CONTEXT('Part 4','TOP_LEVEL_ASSEMBLY_PART')
);
#2051=(
GEOMETRIC_REPRESENTATION_CONTEXT(3)
GLOBAL_UNCERTAINTY_ASSIGNED_CONTEXT((#2056))
GLOBAL_UNIT_ASSIGNED_CONTEXT((#2071,#2066,#2061))
REPRESENTATION_CONTEXT('Part 2','TOP_LEVEL_ASSEMBLY_PART')
);
#2052=(
GEOMETRIC_REPRESENTATION_CONTEXT(3)
GLOBAL_UNCERTAINTY_ASSIGNED_CONTEXT((#2057))
GLOBAL_UNIT_ASSIGNED_CONTEXT((#2072,#2067,#2062))
REPRESENTATION_CONTEXT('Part 3','TOP_LEVEL_ASSEMBLY_PART')
);
#2053=(
GEOMETRIC_REPRESENTATION_CONTEXT(3)
GLOBAL_UNCERTAINTY_ASSIGNED_CONTEXT((#2058))
GLOBAL_UNIT_ASSIGNED_CONTEXT((#2073,#2068,#2063))
REPRESENTATION_CONTEXT('Part 5','TOP_LEVEL_ASSEMBLY_PART')
);
#2054=(
GEOMETRIC_REPRESENTATION_CONTEXT(3)
GLOBAL_UNCERTAINTY_ASSIGNED_CONTEXT((#2059))
GLOBAL_UNIT_ASSIGNED_CONTEXT((#2074,#2069,#2064))
REPRESENTATION_CONTEXT('Part 1','TOP_LEVEL_ASSEMBLY_PART')
);
#2055=UNCERTAINTY_MEASURE_WITH_UNIT(LENGTH_MEASURE(2.E-5),#2070,
'DISTANCE_ACCURACY_VALUE','Maximum Tolerance applied to model');
#2056=UNCERTAINTY_MEASURE_WITH_UNIT(LENGTH_MEASURE(1.E-8),#2071,
'DISTANCE_ACCURACY_VALUE','Maximum Tolerance applied to model');
#2057=UNCERTAINTY_MEASURE_WITH_UNIT(LENGTH_MEASURE(2.E-5),#2072,
'DISTANCE_ACCURACY_VALUE','Maximum Tolerance applied to model');
#2058=UNCERTAINTY_MEASURE_WITH_UNIT(LENGTH_MEASURE(2.E-5),#2073,
'DISTANCE_ACCURACY_VALUE','Maximum Tolerance applied to model');
#2059=UNCERTAINTY_MEASURE_WITH_UNIT(LENGTH_MEASURE(1.E-8),#2074,
'DISTANCE_ACCURACY_VALUE','Maximum Tolerance applied to model');
#2060=(
NAMED_UNIT(*)
SI_UNIT($,.STERADIAN.)
SOLID_ANGLE_UNIT()
);
#2061=(
NAMED_UNIT(*)
SI_UNIT($,.STERADIAN.)
SOLID_ANGLE_UNIT()
);
#2062=(
NAMED_UNIT(*)
SI_UNIT($,.STERADIAN.)
SOLID_ANGLE_UNIT()
);
#2063=(
NAMED_UNIT(*)
SI_UNIT($,.STERADIAN.)
SOLID_ANGLE_UNIT()
);
#2064=(
NAMED_UNIT(*)
SI_UNIT($,.STERADIAN.)
SOLID_ANGLE_UNIT()
);
#2065=(
NAMED_UNIT(*)
PLANE_ANGLE_UNIT()
SI_UNIT($,.RADIAN.)
);
#2066=(
NAMED_UNIT(*)
PLANE_ANGLE_UNIT()
SI_UNIT($,.RADIAN.)
);
#2067=(
NAMED_UNIT(*)
PLANE_ANGLE_UNIT()
SI_UNIT($,.RADIAN.)
);
#2068=(
NAMED_UNIT(*)
PLANE_ANGLE_UNIT()
SI_UNIT($,.RADIAN.)
);
#2069=(
NAMED_UNIT(*)
PLANE_ANGLE_UNIT()
SI_UNIT($,.RADIAN.)
);
#2070=(
LENGTH_UNIT()
NAMED_UNIT(*)
SI_UNIT($,.METRE.)
);
#2071=(
LENGTH_UNIT()
NAMED_UNIT(*)
SI_UNIT($,.METRE.)
);
#2072=(
LENGTH_UNIT()
NAMED_UNIT(*)
SI_UNIT($,.METRE.)
);
#2073=(
LENGTH_UNIT()
NAMED_UNIT(*)
SI_UNIT($,.METRE.)
);
#2074=(
LENGTH_UNIT()
NAMED_UNIT(*)
SI_UNIT($,.METRE.)
);
#2075=PRODUCT_DEFINITION_SHAPE('','',#2080);
#2076=PRODUCT_DEFINITION_SHAPE('','',#2081);
#2077=PRODUCT_DEFINITION_SHAPE('','',#2082);
#2078=PRODUCT_DEFINITION_SHAPE('','',#2083);
#2079=PRODUCT_DEFINITION_SHAPE('','',#2084);
#2080=PRODUCT_DEFINITION('','',#2090,#2085);
#2081=PRODUCT_DEFINITION('','',#2091,#2086);
#2082=PRODUCT_DEFINITION('','',#2092,#2087);
#2083=PRODUCT_DEFINITION('','',#2093,#2088);
#2084=PRODUCT_DEFINITION('','',#2094,#2089);
#2085=PRODUCT_DEFINITION_CONTEXT('',#2120,'design');
#2086=PRODUCT_DEFINITION_CONTEXT('',#2121,'design');
#2087=PRODUCT_DEFINITION_CONTEXT('',#2122,'design');
#2088=PRODUCT_DEFINITION_CONTEXT('',#2123,'design');
#2089=PRODUCT_DEFINITION_CONTEXT('',#2124,'design');
#2090=PRODUCT_DEFINITION_FORMATION_WITH_SPECIFIED_SOURCE('','',#2100,
 .NOT_KNOWN.);
#2091=PRODUCT_DEFINITION_FORMATION_WITH_SPECIFIED_SOURCE('','',#2101,
 .NOT_KNOWN.);
#2092=PRODUCT_DEFINITION_FORMATION_WITH_SPECIFIED_SOURCE('','',#2102,
 .NOT_KNOWN.);
#2093=PRODUCT_DEFINITION_FORMATION_WITH_SPECIFIED_SOURCE('','',#2103,
 .NOT_KNOWN.);
#2094=PRODUCT_DEFINITION_FORMATION_WITH_SPECIFIED_SOURCE('','',#2104,
 .NOT_KNOWN.);
#2095=PRODUCT_RELATED_PRODUCT_CATEGORY('','',(#2100));
#2096=PRODUCT_RELATED_PRODUCT_CATEGORY('','',(#2101));
#2097=PRODUCT_RELATED_PRODUCT_CATEGORY('','',(#2102));
#2098=PRODUCT_RELATED_PRODUCT_CATEGORY('','',(#2103));
#2099=PRODUCT_RELATED_PRODUCT_CATEGORY('','',(#2104));
#2100=PRODUCT('Part 4','Part 4','Part 4',(#2110));
#2101=PRODUCT('Part 2','Part 2','Part 2',(#2111));
#2102=PRODUCT('Part 3','Part 3','Part 3',(#2112));
#2103=PRODUCT('Part 5','Part 5','Part 5',(#2113));
#2104=PRODUCT('Part 1','Part 1','Part 1',(#2114));
#2105=PRODUCT_CATEGORY('','');
#2106=PRODUCT_CATEGORY('','');
#2107=PRODUCT_CATEGORY('','');
#2108=PRODUCT_CATEGORY('','');
#2109=PRODUCT_CATEGORY('','');
#2110=PRODUCT_CONTEXT('',#2120,'mechanical');
#2111=PRODUCT_CONTEXT('',#2121,'mechanical');
#2112=PRODUCT_CONTEXT('',#2122,'mechanical');
#2113=PRODUCT_CONTEXT('',#2123,'mechanical');
#2114=PRODUCT_CONTEXT('',#2124,'mechanical');
#2115=APPLICATION_PROTOCOL_DEFINITION('international standard',
'ap242_managed_model_based_3d_engineering',2020,#2120);
#2116=APPLICATION_PROTOCOL_DEFINITION('international standard',
'ap242_managed_model_based_3d_engineering',2020,#2121);
#2117=APPLICATION_PROTOCOL_DEFINITION('international standard',
'ap242_managed_model_based_3d_engineering',2020,#2122);
#2118=APPLICATION_PROTOCOL_DEFINITION('international standard',
'ap242_managed_model_based_3d_engineering',2020,#2123);
#2119=APPLICATION_PROTOCOL_DEFINITION('international standard',
'ap242_managed_model_based_3d_engineering',2020,#2124);
#2120=APPLICATION_CONTEXT('managed model based 3d engineering');
#2121=APPLICATION_CONTEXT('managed model based 3d engineering');
#2122=APPLICATION_CONTEXT('managed model based 3d engineering');
#2123=APPLICATION_CONTEXT('managed model based 3d engineering');
#2124=APPLICATION_CONTEXT('managed model based 3d engineering');
ENDSEC;
END-ISO-10303-21;
