ISO-10303-21;
HEADER;
/* Generated by software containing ST-Developer
 * from STEP Tools, Inc. (www.steptools.com) 
 */
/* OPTION: using custom renumber hook */

FILE_DESCRIPTION(
/* description */ ('STEP AP242 Edition 2',
'CAx-IF Rec.Pracs.---Representation and Presentation of Product Manufa
cturing Information (PMI)---4.0---2014-10-13',
'CAx-IF Rec.Pracs.---3D Tessellated Geometry---0.4---2014-09-14','2;1',
'CAx-IF Rec.Pracs.---User Defined Attributes---1.5---2016-08-15'),
/* implementation_level */ '2;1');

FILE_NAME(
/* name */ 'Part Studio 2 - rubber bump (made gold because hehheheh)',
/* time_stamp */ '2026-08-14T04:14:16Z',
/* author */ (''),
/* organization */ (''),
/* preprocessor_version */ 'ST-DEVELOPER v20',
/* originating_system */ 'ONSHAPE BY PTC INC, 1.219',
/* authorisation */ '  ');

FILE_SCHEMA (('AP242_MANAGED_MODEL_BASED_3D_ENGINEERING_MIM_LF { 1 0 10303 442 3 1 4 }'));
ENDSEC;

DATA;
#10=SHAPE_REPRESENTATION_RELATIONSHIP('','',#39,#11);
#11=ADVANCED_BREP_SHAPE_REPRESENTATION('',(#37),#131);
#12=VERTEX_LOOP('',#18);
#13=B_SPLINE_SURFACE_WITH_KNOTS('',3,3,((#53,#54,#55,#56,#57,#58,#59,#60,
#61,#62,#63,#64,#65,#66,#67,#68,#69,#70,#71),(#72,#73,#74,#75,#76,#77,#78,
#79,#80,#81,#82,#83,#84,#85,#86,#87,#88,#89,#90),(#91,#92,#93,#94,#95,#96,
#97,#98,#99,#100,#101,#102,#103,#104,#105,#106,#107,#108,#109),(#110,#111,
#112,#113,#114,#115,#116,#117,#118,#119,#120,#121,#122,#123,#124,#125,#126,
#127,#128)),.UNSPECIFIED.,.F.,.T.,.F.,(4,4),(1,1,1,1,1,1,1,1,1,1,1,1,1,
1,1,1,1,1,1,1,1,1,1),(0.,1.),(-1.17809724509617,-0.785398163397448,-0.392699081698725,
0.,0.392699081698724,0.785398163397448,1.17809724509617,1.5707963267949,
1.96349540849362,2.35619449019234,2.74889357189107,3.14159265358979,3.53429173528852,
3.92699081698724,4.31968989868597,4.71238898038469,5.10508806208341,5.49778714378214,
5.89048622548086,6.28318530717959,6.67588438887831,7.06858347057703,7.46128255227576),
 .UNSPECIFIED.);
#14=ORIENTED_EDGE('',*,*,#16,.T.);
#15=ORIENTED_EDGE('',*,*,#16,.F.);
#16=EDGE_CURVE('',#17,#17,#19,.T.);
#17=VERTEX_POINT('',#52);
#18=VERTEX_POINT('',#129);
#19=CIRCLE('',#42,0.00635);
#20=EDGE_LOOP('',(#14));
#21=EDGE_LOOP('',(#15));
#22=FACE_BOUND('',#20,.T.);
#23=FACE_BOUND('',#21,.T.);
#24=FACE_BOUND('',#12,.T.);
#25=PLANE('',#41);
#26=ADVANCED_FACE('',(#22),#25,.T.);
#27=ADVANCED_FACE('',(#23,#24),#13,.F.);
#28=CLOSED_SHELL('',(#26,#27));
#29=STYLED_ITEM('',(#30),#37);
#30=PRESENTATION_STYLE_ASSIGNMENT((#31));
#31=SURFACE_STYLE_USAGE(.BOTH.,#32);
#32=SURFACE_SIDE_STYLE('',(#33));
#33=SURFACE_STYLE_FILL_AREA(#34);
#34=FILL_AREA_STYLE('',(#35));
#35=FILL_AREA_STYLE_COLOUR('',#36);
#36=COLOUR_RGB('',0.886274509803922,0.737254901960784,0.125490196078431);
#37=MANIFOLD_SOLID_BREP('rubber bump (made gold because hehheheh)',#28);
#38=SHAPE_DEFINITION_REPRESENTATION(#136,#39);
#39=SHAPE_REPRESENTATION('rubber bump (made gold because hehheheh)',(#40),
#131);
#40=AXIS2_PLACEMENT_3D('',#49,#43,#44);
#41=AXIS2_PLACEMENT_3D('',#50,#45,#46);
#42=AXIS2_PLACEMENT_3D('',#51,#47,#48);
#43=DIRECTION('',(0.,0.,1.));
#44=DIRECTION('',(1.,0.,0.));
#45=DIRECTION('',(0.,0.,-1.));
#46=DIRECTION('',(-1.,0.,0.));
#47=DIRECTION('',(0.,0.,-1.));
#48=DIRECTION('',(-1.,0.,0.));
#49=CARTESIAN_POINT('',(0.,0.,0.));
#50=CARTESIAN_POINT('',(0.003175,0.,0.));
#51=CARTESIAN_POINT('',(0.,0.,0.));
#52=CARTESIAN_POINT('',(-0.00635,0.,0.));
#53=CARTESIAN_POINT('',(0.,0.,0.00464977649971843));
#54=CARTESIAN_POINT('',(0.,0.,0.00464977649971843));
#55=CARTESIAN_POINT('',(0.,0.,0.00464977649971843));
#56=CARTESIAN_POINT('',(0.,0.,0.00464977649971843));
#57=CARTESIAN_POINT('',(0.,0.,0.00464977649971843));
#58=CARTESIAN_POINT('',(0.,0.,0.00464977649971843));
#59=CARTESIAN_POINT('',(0.,0.,0.00464977649971843));
#60=CARTESIAN_POINT('',(0.,0.,0.00464977649971843));
#61=CARTESIAN_POINT('',(0.,0.,0.00464977649971843));
#62=CARTESIAN_POINT('',(0.,0.,0.00464977649971843));
#63=CARTESIAN_POINT('',(0.,0.,0.00464977649971843));
#64=CARTESIAN_POINT('',(0.,0.,0.00464977649971843));
#65=CARTESIAN_POINT('',(0.,0.,0.00464977649971843));
#66=CARTESIAN_POINT('',(0.,0.,0.00464977649971843));
#67=CARTESIAN_POINT('',(0.,0.,0.00464977649971843));
#68=CARTESIAN_POINT('',(0.,0.,0.00464977649971843));
#69=CARTESIAN_POINT('',(0.,0.,0.00464977649971843));
#70=CARTESIAN_POINT('',(0.,0.,0.00464977649971843));
#71=CARTESIAN_POINT('',(0.,0.,0.00464977649971843));
#72=CARTESIAN_POINT('',(0.00327167128738511,0.00135517061886155,0.00464977649971843));
#73=CARTESIAN_POINT('',(0.00354123148338622,2.7376104855259E-18,0.00464977649971843));
#74=CARTESIAN_POINT('',(0.00327167128738511,-0.00135517061886156,0.00464977649971843));
#75=CARTESIAN_POINT('',(0.00250402879565369,-0.00250402879565369,0.00464977649971843));
#76=CARTESIAN_POINT('',(0.00135517061886156,-0.00327167128738511,0.00464977649971843));
#77=CARTESIAN_POINT('',(-1.71947688292623E-19,-0.00354123148338622,0.00464977649971843));
#78=CARTESIAN_POINT('',(-0.00135517061886155,-0.00327167128738511,0.00464977649971843));
#79=CARTESIAN_POINT('',(-0.00250402879565369,-0.00250402879565369,0.00464977649971843));
#80=CARTESIAN_POINT('',(-0.0032716712873851,-0.00135517061886156,0.00464977649971843));
#81=CARTESIAN_POINT('',(-0.00354123148338622,-3.77970254738755E-19,0.00464977649971843));
#82=CARTESIAN_POINT('',(-0.00327167128738511,0.00135517061886155,0.00464977649971843));
#83=CARTESIAN_POINT('',(-0.00250402879565369,0.00250402879565369,0.00464977649971843));
#84=CARTESIAN_POINT('',(-0.00135517061886156,0.00327167128738511,0.00464977649971843));
#85=CARTESIAN_POINT('',(-1.92445885616177E-18,0.00354123148338622,0.00464977649971843));
#86=CARTESIAN_POINT('',(0.00135517061886156,0.00327167128738511,0.00464977649971843));
#87=CARTESIAN_POINT('',(0.00250402879565369,0.00250402879565369,0.00464977649971843));
#88=CARTESIAN_POINT('',(0.00327167128738511,0.00135517061886155,0.00464977649971843));
#89=CARTESIAN_POINT('',(0.00354123148338622,2.7376104855259E-18,0.00464977649971843));
#90=CARTESIAN_POINT('',(0.00327167128738511,-0.00135517061886156,0.00464977649971843));
#91=CARTESIAN_POINT('',(0.00527812708223377,0.00218627182138995,0.00309985099981229));
#92=CARTESIAN_POINT('',(0.00571300358596188,4.17417836406919E-18,0.00309985099981229));
#93=CARTESIAN_POINT('',(0.00527812708223377,-0.00218627182138996,0.00309985099981229));
#94=CARTESIAN_POINT('',(0.00403970357657671,-0.00403970357657671,0.00309985099981229));
#95=CARTESIAN_POINT('',(0.00218627182138996,-0.00527812708223377,0.00309985099981229));
#96=CARTESIAN_POINT('',(1.47383732822248E-18,-0.00571300358596188,0.00309985099981229));
#97=CARTESIAN_POINT('',(-0.00218627182138996,-0.00527812708223377,0.00309985099981229));
#98=CARTESIAN_POINT('',(-0.00403970357657671,-0.00403970357657671,0.00309985099981229));
#99=CARTESIAN_POINT('',(-0.00527812708223377,-0.00218627182138996,0.00309985099981229));
#100=CARTESIAN_POINT('',(-0.00571300358596188,-1.43486388648143E-18,0.00309985099981229));
#101=CARTESIAN_POINT('',(-0.00527812708223377,0.00218627182138996,0.00309985099981229));
#102=CARTESIAN_POINT('',(-0.00403970357657671,0.00403970357657671,0.00309985099981229));
#103=CARTESIAN_POINT('',(-0.00218627182138996,0.00527812708223377,0.00309985099981229));
#104=CARTESIAN_POINT('',(2.87991202066462E-19,0.00571300358596188,0.00309985099981229));
#105=CARTESIAN_POINT('',(0.00218627182138996,0.00527812708223377,0.00309985099981229));
#106=CARTESIAN_POINT('',(0.00403970357657671,0.00403970357657671,0.00309985099981229));
#107=CARTESIAN_POINT('',(0.00527812708223377,0.00218627182138995,0.00309985099981229));
#108=CARTESIAN_POINT('',(0.00571300358596188,4.17417836406919E-18,0.00309985099981229));
#109=CARTESIAN_POINT('',(0.00527812708223377,-0.00218627182138996,0.00309985099981229));
#110=CARTESIAN_POINT('',(0.006019367384546,0.0024933036075852,0.));
#111=CARTESIAN_POINT('',(0.006515316307727,4.98732999343332E-18,0.));
#112=CARTESIAN_POINT('',(0.00601936738454599,-0.00249330360758522,0.));
#113=CARTESIAN_POINT('',(0.00460702434276906,-0.00460702434276906,0.));
#114=CARTESIAN_POINT('',(0.00249330360758521,-0.00601936738454599,0.));
#115=CARTESIAN_POINT('',(1.1028368973251E-18,-0.00651531630772701,0.));
#116=CARTESIAN_POINT('',(-0.00249330360758521,-0.00601936738454599,0.));
#117=CARTESIAN_POINT('',(-0.00460702434276907,-0.00460702434276907,0.));
#118=CARTESIAN_POINT('',(-0.00601936738454599,-0.00249330360758521,0.));
#119=CARTESIAN_POINT('',(-0.006515316307727,-9.91845802732734E-19,0.));
#120=CARTESIAN_POINT('',(-0.00601936738454599,0.00249330360758521,0.));
#121=CARTESIAN_POINT('',(-0.00460702434276906,0.00460702434276906,0.));
#122=CARTESIAN_POINT('',(-0.00249330360758522,0.00601936738454599,0.));
#123=CARTESIAN_POINT('',(-2.29715335295366E-18,0.00651531630772701,0.));
#124=CARTESIAN_POINT('',(0.00249330360758521,0.00601936738454599,0.));
#125=CARTESIAN_POINT('',(0.00460702434276907,0.00460702434276906,0.));
#126=CARTESIAN_POINT('',(0.006019367384546,0.0024933036075852,0.));
#127=CARTESIAN_POINT('',(0.006515316307727,4.98732999343332E-18,0.));
#128=CARTESIAN_POINT('',(0.00601936738454599,-0.00249330360758522,0.));
#129=CARTESIAN_POINT('',(0.,0.,0.00464977649971843));
#130=MECHANICAL_DESIGN_GEOMETRIC_PRESENTATION_REPRESENTATION('',(#29),#131);
#131=(
GEOMETRIC_REPRESENTATION_CONTEXT(3)
GLOBAL_UNCERTAINTY_ASSIGNED_CONTEXT((#132))
GLOBAL_UNIT_ASSIGNED_CONTEXT((#135,#134,#133))
REPRESENTATION_CONTEXT('rubber bump (made gold because hehheheh)',
'TOP_LEVEL_ASSEMBLY_PART')
);
#132=UNCERTAINTY_MEASURE_WITH_UNIT(LENGTH_MEASURE(2.E-5),#135,
'DISTANCE_ACCURACY_VALUE','Maximum Tolerance applied to model');
#133=(
NAMED_UNIT(*)
SI_UNIT($,.STERADIAN.)
SOLID_ANGLE_UNIT()
);
#134=(
NAMED_UNIT(*)
PLANE_ANGLE_UNIT()
SI_UNIT($,.RADIAN.)
);
#135=(
LENGTH_UNIT()
NAMED_UNIT(*)
SI_UNIT($,.METRE.)
);
#136=PRODUCT_DEFINITION_SHAPE('','',#137);
#137=PRODUCT_DEFINITION('','',#139,#138);
#138=PRODUCT_DEFINITION_CONTEXT('',#145,'design');
#139=PRODUCT_DEFINITION_FORMATION_WITH_SPECIFIED_SOURCE('','',#141,
 .NOT_KNOWN.);
#140=PRODUCT_RELATED_PRODUCT_CATEGORY('','',(#141));
#141=PRODUCT('rubber bump (made gold because hehheheh)',
'rubber bump (made gold because hehheheh)',
'rubber bump (made gold because hehheheh)',(#143));
#142=PRODUCT_CATEGORY('','');
#143=PRODUCT_CONTEXT('',#145,'mechanical');
#144=APPLICATION_PROTOCOL_DEFINITION('international standard',
'ap242_managed_model_based_3d_engineering',2020,#145);
#145=APPLICATION_CONTEXT('managed model based 3d engineering');
ENDSEC;
END-ISO-10303-21;
