ISO-10303-21;
HEADER;
/* Generated by software containing ST-Developer
 * from STEP Tools, Inc. (www.steptools.com) 
 */
/* OPTION: using custom renumber hook */

FILE_DESCRIPTION(
/* description */ ('STEP AP242 Edition 2',
'CAx-IF Rec.Pracs.---Representation and Presentation of Product Manufa
cturing Information (PMI)---4.0---2014-10-13',
'CAx-IF Rec.Pracs.---3D Tessellated Geometry---0.4---2014-09-14','2;1',
'CAx-IF Rec.Pracs.---User Defined Attributes---1.5---2016-08-15'),
/* implementation_level */ '2;1');

FILE_NAME(
/* name */ 
'RATTMMOTOR 500W CNC Air Cooled Spindle Motor ER11 12000RPM + Input Vo
ltage AC110V-220V Speed',
/* time_stamp */ '2026-08-14T04:20:50Z',
/* author */ (''),
/* organization */ (''),
/* preprocessor_version */ 'ST-DEVELOPER v20',
/* originating_system */ 'ONSHAPE BY PTC INC, 1.219',
/* authorisation */ '  ');

FILE_SCHEMA (('AP242_MANAGED_MODEL_BASED_3D_ENGINEERING_MIM_LF { 1 0 10303 442 3 1 4 }'));
ENDSEC;

DATA;
#10=SHAPE_REPRESENTATION_RELATIONSHIP('','',#135,#11);
#11=ADVANCED_BREP_SHAPE_REPRESENTATION('',(#133),#235);
#12=PLANE('',#140);
#13=PLANE('',#144);
#14=PLANE('',#145);
#15=PLANE('',#149);
#16=PLANE('',#153);
#17=PLANE('',#157);
#18=ORIENTED_EDGE('',*,*,#38,.T.);
#19=ORIENTED_EDGE('',*,*,#39,.F.);
#20=ORIENTED_EDGE('',*,*,#39,.T.);
#21=ORIENTED_EDGE('',*,*,#40,.F.);
#22=ORIENTED_EDGE('',*,*,#41,.F.);
#23=ORIENTED_EDGE('',*,*,#40,.T.);
#24=ORIENTED_EDGE('',*,*,#41,.T.);
#25=ORIENTED_EDGE('',*,*,#42,.F.);
#26=ORIENTED_EDGE('',*,*,#42,.T.);
#27=ORIENTED_EDGE('',*,*,#43,.F.);
#28=ORIENTED_EDGE('',*,*,#43,.T.);
#29=ORIENTED_EDGE('',*,*,#44,.F.);
#30=ORIENTED_EDGE('',*,*,#44,.T.);
#31=ORIENTED_EDGE('',*,*,#45,.F.);
#32=ORIENTED_EDGE('',*,*,#45,.T.);
#33=ORIENTED_EDGE('',*,*,#46,.F.);
#34=ORIENTED_EDGE('',*,*,#46,.T.);
#35=ORIENTED_EDGE('',*,*,#47,.F.);
#36=ORIENTED_EDGE('',*,*,#38,.F.);
#37=ORIENTED_EDGE('',*,*,#47,.T.);
#38=EDGE_CURVE('',#48,#48,#58,.T.);
#39=EDGE_CURVE('',#49,#49,#59,.T.);
#40=EDGE_CURVE('',#50,#50,#60,.T.);
#41=EDGE_CURVE('',#51,#51,#61,.T.);
#42=EDGE_CURVE('',#52,#52,#62,.T.);
#43=EDGE_CURVE('',#53,#53,#63,.T.);
#44=EDGE_CURVE('',#54,#54,#64,.T.);
#45=EDGE_CURVE('',#55,#55,#65,.T.);
#46=EDGE_CURVE('',#56,#56,#66,.T.);
#47=EDGE_CURVE('',#57,#57,#67,.T.);
#48=VERTEX_POINT('',#205);
#49=VERTEX_POINT('',#207);
#50=VERTEX_POINT('',#210);
#51=VERTEX_POINT('',#213);
#52=VERTEX_POINT('',#217);
#53=VERTEX_POINT('',#220);
#54=VERTEX_POINT('',#223);
#55=VERTEX_POINT('',#226);
#56=VERTEX_POINT('',#229);
#57=VERTEX_POINT('',#232);
#58=CIRCLE('',#138,0.00762456956774073);
#59=CIRCLE('',#139,0.00762456956774073);
#60=CIRCLE('',#141,0.00447203358635306);
#61=CIRCLE('',#143,0.00447203358635306);
#62=CIRCLE('',#146,0.0261286422610283);
#63=CIRCLE('',#148,0.0261286422610283);
#64=CIRCLE('',#150,0.00368576357141136);
#65=CIRCLE('',#152,0.00368576357141136);
#66=CIRCLE('',#154,0.026);
#67=CIRCLE('',#156,0.026);
#68=EDGE_LOOP('',(#18));
#69=EDGE_LOOP('',(#19));
#70=EDGE_LOOP('',(#20));
#71=EDGE_LOOP('',(#21));
#72=EDGE_LOOP('',(#22));
#73=EDGE_LOOP('',(#23));
#74=EDGE_LOOP('',(#24));
#75=EDGE_LOOP('',(#25));
#76=EDGE_LOOP('',(#26));
#77=EDGE_LOOP('',(#27));
#78=EDGE_LOOP('',(#28));
#79=EDGE_LOOP('',(#29));
#80=EDGE_LOOP('',(#30));
#81=EDGE_LOOP('',(#31));
#82=EDGE_LOOP('',(#32));
#83=EDGE_LOOP('',(#33));
#84=EDGE_LOOP('',(#34));
#85=EDGE_LOOP('',(#35));
#86=EDGE_LOOP('',(#36));
#87=EDGE_LOOP('',(#37));
#88=FACE_BOUND('',#68,.T.);
#89=FACE_BOUND('',#69,.T.);
#90=FACE_BOUND('',#70,.T.);
#91=FACE_BOUND('',#71,.T.);
#92=FACE_BOUND('',#72,.T.);
#93=FACE_BOUND('',#73,.T.);
#94=FACE_BOUND('',#74,.T.);
#95=FACE_BOUND('',#75,.T.);
#96=FACE_BOUND('',#76,.T.);
#97=FACE_BOUND('',#77,.T.);
#98=FACE_BOUND('',#78,.T.);
#99=FACE_BOUND('',#79,.T.);
#100=FACE_BOUND('',#80,.T.);
#101=FACE_BOUND('',#81,.T.);
#102=FACE_BOUND('',#82,.T.);
#103=FACE_BOUND('',#83,.T.);
#104=FACE_BOUND('',#84,.T.);
#105=FACE_BOUND('',#85,.T.);
#106=FACE_BOUND('',#86,.T.);
#107=FACE_BOUND('',#87,.T.);
#108=CYLINDRICAL_SURFACE('',#137,0.00762456956774073);
#109=CYLINDRICAL_SURFACE('',#142,0.00447203358635306);
#110=CYLINDRICAL_SURFACE('',#147,0.0261286422610283);
#111=CYLINDRICAL_SURFACE('',#151,0.00368576357141136);
#112=CYLINDRICAL_SURFACE('',#155,0.026);
#113=ADVANCED_FACE('',(#88,#89),#108,.T.);
#114=ADVANCED_FACE('',(#90,#91),#12,.T.);
#115=ADVANCED_FACE('',(#92,#93),#109,.T.);
#116=ADVANCED_FACE('',(#94),#13,.F.);
#117=ADVANCED_FACE('',(#95),#14,.T.);
#118=ADVANCED_FACE('',(#96,#97),#110,.T.);
#119=ADVANCED_FACE('',(#98,#99),#15,.T.);
#120=ADVANCED_FACE('',(#100,#101),#111,.T.);
#121=ADVANCED_FACE('',(#102,#103),#16,.T.);
#122=ADVANCED_FACE('',(#104,#105),#112,.T.);
#123=ADVANCED_FACE('',(#106,#107),#17,.F.);
#124=CLOSED_SHELL('',(#113,#114,#115,#116,#117,#118,#119,#120,#121,#122,
#123));
#125=STYLED_ITEM('',(#126),#133);
#126=PRESENTATION_STYLE_ASSIGNMENT((#127));
#127=SURFACE_STYLE_USAGE(.BOTH.,#128);
#128=SURFACE_SIDE_STYLE('',(#129));
#129=SURFACE_STYLE_FILL_AREA(#130);
#130=FILL_AREA_STYLE('',(#131));
#131=FILL_AREA_STYLE_COLOUR('',#132);
#132=COLOUR_RGB('',0.274509803921568,0.0117647058823529,0.31764705882353);
#133=MANIFOLD_SOLID_BREP('spindle',#124);
#134=SHAPE_DEFINITION_REPRESENTATION(#240,#135);
#135=SHAPE_REPRESENTATION('spindle',(#136),#235);
#136=AXIS2_PLACEMENT_3D('',#202,#158,#159);
#137=AXIS2_PLACEMENT_3D('',#203,#160,#161);
#138=AXIS2_PLACEMENT_3D('',#204,#162,#163);
#139=AXIS2_PLACEMENT_3D('',#206,#164,#165);
#140=AXIS2_PLACEMENT_3D('',#208,#166,#167);
#141=AXIS2_PLACEMENT_3D('',#209,#168,#169);
#142=AXIS2_PLACEMENT_3D('',#211,#170,#171);
#143=AXIS2_PLACEMENT_3D('',#212,#172,#173);
#144=AXIS2_PLACEMENT_3D('',#214,#174,#175);
#145=AXIS2_PLACEMENT_3D('',#215,#176,#177);
#146=AXIS2_PLACEMENT_3D('',#216,#178,#179);
#147=AXIS2_PLACEMENT_3D('',#218,#180,#181);
#148=AXIS2_PLACEMENT_3D('',#219,#182,#183);
#149=AXIS2_PLACEMENT_3D('',#221,#184,#185);
#150=AXIS2_PLACEMENT_3D('',#222,#186,#187);
#151=AXIS2_PLACEMENT_3D('',#224,#188,#189);
#152=AXIS2_PLACEMENT_3D('',#225,#190,#191);
#153=AXIS2_PLACEMENT_3D('',#227,#192,#193);
#154=AXIS2_PLACEMENT_3D('',#228,#194,#195);
#155=AXIS2_PLACEMENT_3D('',#230,#196,#197);
#156=AXIS2_PLACEMENT_3D('',#231,#198,#199);
#157=AXIS2_PLACEMENT_3D('',#233,#200,#201);
#158=DIRECTION('',(0.,0.,1.));
#159=DIRECTION('',(1.,0.,0.));
#160=DIRECTION('',(-1.,-8.27913378709211E-17,0.));
#161=DIRECTION('',(8.27913378709211E-17,-1.,0.));
#162=DIRECTION('',(-1.,-8.27913378709211E-17,0.));
#163=DIRECTION('',(8.27913378709211E-17,-1.,0.));
#164=DIRECTION('',(-1.,-8.27913378709211E-17,0.));
#165=DIRECTION('',(8.27913378709211E-17,-1.,0.));
#166=DIRECTION('',(-1.,-8.27913378709211E-17,0.));
#167=DIRECTION('',(8.27913378709211E-17,-1.,0.));
#168=DIRECTION('',(-1.,-8.27913378709211E-17,0.));
#169=DIRECTION('',(8.27913378709211E-17,-1.,0.));
#170=DIRECTION('',(-1.,-8.27913378709211E-17,0.));
#171=DIRECTION('',(8.27913378709211E-17,-1.,0.));
#172=DIRECTION('',(-1.,-8.27913378709211E-17,0.));
#173=DIRECTION('',(8.27913378709211E-17,-1.,0.));
#174=DIRECTION('',(1.,8.27913378709211E-17,0.));
#175=DIRECTION('',(-8.27913378709211E-17,1.,0.));
#176=DIRECTION('',(1.,8.27913378709211E-17,0.));
#177=DIRECTION('',(-8.27913378709211E-17,1.,0.));
#178=DIRECTION('',(-1.,-8.27913378709211E-17,0.));
#179=DIRECTION('',(8.27913378709211E-17,-1.,0.));
#180=DIRECTION('',(-1.,-8.27913378709211E-17,0.));
#181=DIRECTION('',(8.27913378709211E-17,-1.,0.));
#182=DIRECTION('',(-1.,-8.27913378709211E-17,0.));
#183=DIRECTION('',(8.27913378709211E-17,-1.,0.));
#184=DIRECTION('',(-1.,-8.27913378709211E-17,0.));
#185=DIRECTION('',(8.27913378709211E-17,-1.,0.));
#186=DIRECTION('',(-1.,-8.27913378709211E-17,0.));
#187=DIRECTION('',(8.27913378709211E-17,-1.,0.));
#188=DIRECTION('',(-1.,-8.27913378709211E-17,0.));
#189=DIRECTION('',(8.27913378709211E-17,-1.,0.));
#190=DIRECTION('',(-1.,-8.27913378709211E-17,0.));
#191=DIRECTION('',(8.27913378709211E-17,-1.,0.));
#192=DIRECTION('',(1.,8.27913378709211E-17,0.));
#193=DIRECTION('',(-8.27913378709211E-17,1.,0.));
#194=DIRECTION('',(-1.,-8.27913378709211E-17,0.));
#195=DIRECTION('',(8.27913378709211E-17,-1.,0.));
#196=DIRECTION('',(-1.,-8.27913378709211E-17,0.));
#197=DIRECTION('',(8.27913378709211E-17,-1.,0.));
#198=DIRECTION('',(-1.,-8.27913378709211E-17,0.));
#199=DIRECTION('',(8.27913378709211E-17,-1.,0.));
#200=DIRECTION('',(1.,8.27913378709211E-17,0.));
#201=DIRECTION('',(-8.27913378709211E-17,1.,0.));
#202=CARTESIAN_POINT('',(0.,0.,0.));
#203=CARTESIAN_POINT('',(-0.0204920321702957,6.93889390390723E-18,0.));
#204=CARTESIAN_POINT('',(-0.0566801977157593,3.94282726330393E-18,0.));
#205=CARTESIAN_POINT('',(-0.0566801977157593,-0.00762456956774073,0.));
#206=CARTESIAN_POINT('',(-0.0631801977157593,3.40468356714294E-18,0.));
#207=CARTESIAN_POINT('',(-0.0631801977157593,-0.00762456956774073,0.));
#208=CARTESIAN_POINT('',(-0.0631801977157593,0.0060483015770469,0.));
#209=CARTESIAN_POINT('',(-0.0631801977157593,3.40468356714294E-18,0.));
#210=CARTESIAN_POINT('',(-0.0631801977157593,-0.00447203358635306,0.));
#211=CARTESIAN_POINT('',(-0.0204920321702957,6.93889390390723E-18,0.));
#212=CARTESIAN_POINT('',(-0.104303866624832,7.70371977754894E-34,0.));
#213=CARTESIAN_POINT('',(-0.104303866624832,-0.00447203358635306,0.));
#214=CARTESIAN_POINT('',(-0.104303866624832,0.00223601679317653,0.));
#215=CARTESIAN_POINT('',(0.0963198022842407,0.0130643211305142,0.));
#216=CARTESIAN_POINT('',(0.0963198022842407,1.66099019575548E-17,0.));
#217=CARTESIAN_POINT('',(0.0963198022842407,-0.0261286422610283,0.));
#218=CARTESIAN_POINT('',(-0.0204920321702957,6.93889390390723E-18,0.));
#219=CARTESIAN_POINT('',(0.068090017542243,1.42727203109567E-17,0.));
#220=CARTESIAN_POINT('',(0.068090017542243,-0.0261286422610283,0.));
#221=CARTESIAN_POINT('',(0.068090017542243,0.0149072029162198,0.));
#222=CARTESIAN_POINT('',(0.068090017542243,1.42727203109567E-17,0.));
#223=CARTESIAN_POINT('',(0.068090017542243,-0.00368576357141134,0.));
#224=CARTESIAN_POINT('',(-0.0204920321702957,6.93889390390723E-18,0.));
#225=CARTESIAN_POINT('',(0.0633198022842407,1.38777878078145E-17,0.));
#226=CARTESIAN_POINT('',(0.0633198022842407,-0.00368576357141135,0.));
#227=CARTESIAN_POINT('',(0.0633198022842407,0.0148428817857057,0.));
#228=CARTESIAN_POINT('',(0.0633198022842407,1.38777878078145E-17,0.));
#229=CARTESIAN_POINT('',(0.0633198022842407,-0.026,0.));
#230=CARTESIAN_POINT('',(-0.0204920321702957,6.93889390390723E-18,0.));
#231=CARTESIAN_POINT('',(-0.0566801977157593,3.94282726330393E-18,0.));
#232=CARTESIAN_POINT('',(-0.0566801977157593,-0.026,0.));
#233=CARTESIAN_POINT('',(-0.0566801977157593,0.0168122847838703,0.));
#234=MECHANICAL_DESIGN_GEOMETRIC_PRESENTATION_REPRESENTATION('',(#125),
#235);
#235=(
GEOMETRIC_REPRESENTATION_CONTEXT(3)
GLOBAL_UNCERTAINTY_ASSIGNED_CONTEXT((#236))
GLOBAL_UNIT_ASSIGNED_CONTEXT((#239,#238,#237))
REPRESENTATION_CONTEXT('spindle','TOP_LEVEL_ASSEMBLY_PART')
);
#236=UNCERTAINTY_MEASURE_WITH_UNIT(LENGTH_MEASURE(1.E-8),#239,
'DISTANCE_ACCURACY_VALUE','Maximum Tolerance applied to model');
#237=(
NAMED_UNIT(*)
SI_UNIT($,.STERADIAN.)
SOLID_ANGLE_UNIT()
);
#238=(
NAMED_UNIT(*)
PLANE_ANGLE_UNIT()
SI_UNIT($,.RADIAN.)
);
#239=(
LENGTH_UNIT()
NAMED_UNIT(*)
SI_UNIT($,.METRE.)
);
#240=PRODUCT_DEFINITION_SHAPE('','',#241);
#241=PRODUCT_DEFINITION('','',#243,#242);
#242=PRODUCT_DEFINITION_CONTEXT('',#249,'design');
#243=PRODUCT_DEFINITION_FORMATION_WITH_SPECIFIED_SOURCE('','',#245,
 .NOT_KNOWN.);
#244=PRODUCT_RELATED_PRODUCT_CATEGORY('','',(#245));
#245=PRODUCT('spindle','spindle','spindle',(#247));
#246=PRODUCT_CATEGORY('','');
#247=PRODUCT_CONTEXT('',#249,'mechanical');
#248=APPLICATION_PROTOCOL_DEFINITION('international standard',
'ap242_managed_model_based_3d_engineering',2020,#249);
#249=APPLICATION_CONTEXT('managed model based 3d engineering');
ENDSEC;
END-ISO-10303-21;
