ISO-10303-21;
HEADER;
/* Generated by software containing ST-Developer
 * from STEP Tools, Inc. (www.steptools.com) 
 */
/* OPTION: using custom renumber hook */

FILE_DESCRIPTION(
/* description */ ('STEP AP242 Edition 2',
'CAx-IF Rec.Pracs.---Representation and Presentation of Product Manufa
cturing Information (PMI)---4.0---2014-10-13',
'CAx-IF Rec.Pracs.---3D Tessellated Geometry---0.4---2014-09-14','2;1',
'CAx-IF Rec.Pracs.---User Defined Attributes---1.5---2016-08-15'),
/* implementation_level */ '2;1');

FILE_NAME(
/* name */ 'side plate',
/* time_stamp */ '2026-08-14T04:18:34Z',
/* author */ (''),
/* organization */ (''),
/* preprocessor_version */ 'ST-DEVELOPER v20',
/* originating_system */ 'ONSHAPE BY PTC INC, 1.219',
/* authorisation */ '  ');

FILE_SCHEMA (('AP242_MANAGED_MODEL_BASED_3D_ENGINEERING_MIM_LF { 1 0 10303 442 3 1 4 }'));
ENDSEC;

DATA;
#10=SHAPE_REPRESENTATION_RELATIONSHIP('','',#781,#11);
#11=ADVANCED_BREP_SHAPE_REPRESENTATION('',(#779),#1347);
#12=ELLIPSE('',#819,0.00251490276619317,0.0017783048);
#13=ELLIPSE('',#828,0.00251490276619317,0.0017783048);
#14=ELLIPSE('',#830,0.00251490276619317,0.0017783048);
#15=ELLIPSE('',#836,0.00251490276619317,0.0017783048);
#16=ELLIPSE('',#838,0.00251490276619317,0.0017783048);
#17=ELLIPSE('',#840,0.00251490276619317,0.0017783048);
#18=ELLIPSE('',#842,0.00251490276619317,0.0017783048);
#19=ELLIPSE('',#844,0.00251490276619317,0.0017783048);
#20=ELLIPSE('',#846,0.00251490276619317,0.0017783048);
#21=ELLIPSE('',#855,0.00251490276619317,0.0017783048);
#22=ELLIPSE('',#857,0.00251490276619317,0.0017783048);
#23=ELLIPSE('',#863,0.00251490276619317,0.0017783048);
#24=SPHERICAL_SURFACE('',#812,0.0017783048);
#25=SPHERICAL_SURFACE('',#815,0.0017783048);
#26=SPHERICAL_SURFACE('',#831,0.0017783048);
#27=SPHERICAL_SURFACE('',#833,0.0017783048);
#28=SPHERICAL_SURFACE('',#858,0.0017783048);
#29=SPHERICAL_SURFACE('',#860,0.0017783048);
#30=SPHERICAL_SURFACE('',#872,0.0017783048);
#31=SPHERICAL_SURFACE('',#874,0.0017783048);
#32=CYLINDRICAL_SURFACE('',#807,0.002159);
#33=CYLINDRICAL_SURFACE('',#808,0.002159);
#34=CYLINDRICAL_SURFACE('',#809,0.0017783048);
#35=CYLINDRICAL_SURFACE('',#818,0.0017783048);
#36=CYLINDRICAL_SURFACE('',#820,0.0017783048);
#37=CYLINDRICAL_SURFACE('',#822,0.0017783048);
#38=CYLINDRICAL_SURFACE('',#825,0.0017783048);
#39=CYLINDRICAL_SURFACE('',#827,0.0017783048);
#40=CYLINDRICAL_SURFACE('',#829,0.0017783048);
#41=CYLINDRICAL_SURFACE('',#835,0.0017783048);
#42=CYLINDRICAL_SURFACE('',#837,0.0017783048);
#43=CYLINDRICAL_SURFACE('',#839,0.0017783048);
#44=CYLINDRICAL_SURFACE('',#841,0.0017783048);
#45=CYLINDRICAL_SURFACE('',#843,0.0017783048);
#46=CYLINDRICAL_SURFACE('',#845,0.0017783048);
#47=CYLINDRICAL_SURFACE('',#847,0.0017783048);
#48=CYLINDRICAL_SURFACE('',#849,0.0017783048);
#49=CYLINDRICAL_SURFACE('',#852,0.0017783048);
#50=CYLINDRICAL_SURFACE('',#854,0.0017783048);
#51=CYLINDRICAL_SURFACE('',#856,0.0017783048);
#52=CYLINDRICAL_SURFACE('',#862,0.0017783048);
#53=CYLINDRICAL_SURFACE('',#864,0.0017783048);
#54=CYLINDRICAL_SURFACE('',#866,0.0017783048);
#55=CYLINDRICAL_SURFACE('',#868,0.0017783048);
#56=CYLINDRICAL_SURFACE('',#870,0.0017783048);
#57=CYLINDRICAL_SURFACE('',#876,0.0017783048);
#58=CYLINDRICAL_SURFACE('',#877,0.00127);
#59=CYLINDRICAL_SURFACE('',#878,0.007493);
#60=CYLINDRICAL_SURFACE('',#879,0.00254);
#61=CYLINDRICAL_SURFACE('',#880,0.00254);
#62=CIRCLE('',#785,0.00127);
#63=CIRCLE('',#786,0.002159);
#64=CIRCLE('',#787,0.002159);
#65=CIRCLE('',#792,0.00254);
#66=CIRCLE('',#793,0.00254);
#67=CIRCLE('',#794,0.007493);
#68=CIRCLE('',#797,0.00254);
#69=CIRCLE('',#798,0.00254);
#70=CIRCLE('',#799,0.007493);
#71=CIRCLE('',#802,0.00127);
#72=CIRCLE('',#803,0.002159);
#73=CIRCLE('',#804,0.002159);
#74=CIRCLE('',#810,0.0017783048);
#75=CIRCLE('',#811,0.0017783048);
#76=CIRCLE('',#813,0.0017783048);
#77=CIRCLE('',#814,0.0017783048);
#78=CIRCLE('',#816,0.0017783048);
#79=CIRCLE('',#817,0.0017783048);
#80=CIRCLE('',#821,0.0017783048);
#81=CIRCLE('',#823,0.0017783048);
#82=CIRCLE('',#824,0.0017783048);
#83=CIRCLE('',#826,0.0017783048);
#84=CIRCLE('',#832,0.0017783048);
#85=CIRCLE('',#834,0.0017783048);
#86=CIRCLE('',#848,0.0017783048);
#87=CIRCLE('',#850,0.0017783048);
#88=CIRCLE('',#851,0.0017783048);
#89=CIRCLE('',#853,0.0017783048);
#90=CIRCLE('',#859,0.0017783048);
#91=CIRCLE('',#861,0.0017783048);
#92=CIRCLE('',#865,0.0017783048);
#93=CIRCLE('',#867,0.0017783048);
#94=CIRCLE('',#869,0.0017783048);
#95=CIRCLE('',#871,0.0017783048);
#96=CIRCLE('',#873,0.0017783048);
#97=CIRCLE('',#875,0.0017783048);
#98=ORIENTED_EDGE('',*,*,#302,.T.);
#99=ORIENTED_EDGE('',*,*,#303,.T.);
#100=ORIENTED_EDGE('',*,*,#304,.T.);
#101=ORIENTED_EDGE('',*,*,#305,.T.);
#102=ORIENTED_EDGE('',*,*,#306,.F.);
#103=ORIENTED_EDGE('',*,*,#307,.F.);
#104=ORIENTED_EDGE('',*,*,#308,.F.);
#105=ORIENTED_EDGE('',*,*,#309,.T.);
#106=ORIENTED_EDGE('',*,*,#310,.T.);
#107=ORIENTED_EDGE('',*,*,#311,.F.);
#108=ORIENTED_EDGE('',*,*,#312,.T.);
#109=ORIENTED_EDGE('',*,*,#311,.T.);
#110=ORIENTED_EDGE('',*,*,#313,.T.);
#111=ORIENTED_EDGE('',*,*,#314,.F.);
#112=ORIENTED_EDGE('',*,*,#315,.T.);
#113=ORIENTED_EDGE('',*,*,#314,.T.);
#114=ORIENTED_EDGE('',*,*,#316,.T.);
#115=ORIENTED_EDGE('',*,*,#317,.F.);
#116=ORIENTED_EDGE('',*,*,#318,.T.);
#117=ORIENTED_EDGE('',*,*,#317,.T.);
#118=ORIENTED_EDGE('',*,*,#319,.T.);
#119=ORIENTED_EDGE('',*,*,#320,.F.);
#120=ORIENTED_EDGE('',*,*,#321,.T.);
#121=ORIENTED_EDGE('',*,*,#322,.F.);
#122=ORIENTED_EDGE('',*,*,#323,.F.);
#123=ORIENTED_EDGE('',*,*,#324,.F.);
#124=ORIENTED_EDGE('',*,*,#320,.T.);
#125=ORIENTED_EDGE('',*,*,#325,.T.);
#126=ORIENTED_EDGE('',*,*,#326,.F.);
#127=ORIENTED_EDGE('',*,*,#327,.T.);
#128=ORIENTED_EDGE('',*,*,#326,.T.);
#129=ORIENTED_EDGE('',*,*,#328,.T.);
#130=ORIENTED_EDGE('',*,*,#329,.T.);
#131=ORIENTED_EDGE('',*,*,#330,.T.);
#132=ORIENTED_EDGE('',*,*,#331,.F.);
#133=ORIENTED_EDGE('',*,*,#332,.F.);
#134=ORIENTED_EDGE('',*,*,#333,.F.);
#135=ORIENTED_EDGE('',*,*,#334,.T.);
#136=ORIENTED_EDGE('',*,*,#335,.T.);
#137=ORIENTED_EDGE('',*,*,#336,.T.);
#138=ORIENTED_EDGE('',*,*,#337,.T.);
#139=ORIENTED_EDGE('',*,*,#338,.T.);
#140=ORIENTED_EDGE('',*,*,#339,.T.);
#141=ORIENTED_EDGE('',*,*,#340,.F.);
#142=ORIENTED_EDGE('',*,*,#341,.T.);
#143=ORIENTED_EDGE('',*,*,#342,.F.);
#144=ORIENTED_EDGE('',*,*,#340,.T.);
#145=ORIENTED_EDGE('',*,*,#343,.T.);
#146=ORIENTED_EDGE('',*,*,#344,.T.);
#147=ORIENTED_EDGE('',*,*,#345,.T.);
#148=ORIENTED_EDGE('',*,*,#346,.F.);
#149=ORIENTED_EDGE('',*,*,#347,.F.);
#150=ORIENTED_EDGE('',*,*,#348,.T.);
#151=ORIENTED_EDGE('',*,*,#349,.T.);
#152=ORIENTED_EDGE('',*,*,#350,.T.);
#153=ORIENTED_EDGE('',*,*,#351,.T.);
#154=ORIENTED_EDGE('',*,*,#352,.T.);
#155=ORIENTED_EDGE('',*,*,#353,.T.);
#156=ORIENTED_EDGE('',*,*,#354,.T.);
#157=ORIENTED_EDGE('',*,*,#355,.T.);
#158=ORIENTED_EDGE('',*,*,#356,.T.);
#159=ORIENTED_EDGE('',*,*,#357,.T.);
#160=ORIENTED_EDGE('',*,*,#358,.T.);
#161=ORIENTED_EDGE('',*,*,#359,.T.);
#162=ORIENTED_EDGE('',*,*,#360,.T.);
#163=ORIENTED_EDGE('',*,*,#361,.T.);
#164=ORIENTED_EDGE('',*,*,#362,.T.);
#165=ORIENTED_EDGE('',*,*,#363,.T.);
#166=ORIENTED_EDGE('',*,*,#364,.T.);
#167=ORIENTED_EDGE('',*,*,#365,.T.);
#168=ORIENTED_EDGE('',*,*,#366,.T.);
#169=ORIENTED_EDGE('',*,*,#367,.T.);
#170=ORIENTED_EDGE('',*,*,#308,.T.);
#171=ORIENTED_EDGE('',*,*,#347,.T.);
#172=ORIENTED_EDGE('',*,*,#307,.T.);
#173=ORIENTED_EDGE('',*,*,#346,.T.);
#174=ORIENTED_EDGE('',*,*,#368,.F.);
#175=ORIENTED_EDGE('',*,*,#303,.F.);
#176=ORIENTED_EDGE('',*,*,#369,.F.);
#177=ORIENTED_EDGE('',*,*,#309,.F.);
#178=ORIENTED_EDGE('',*,*,#370,.F.);
#179=ORIENTED_EDGE('',*,*,#368,.T.);
#180=ORIENTED_EDGE('',*,*,#371,.F.);
#181=ORIENTED_EDGE('',*,*,#372,.F.);
#182=ORIENTED_EDGE('',*,*,#369,.T.);
#183=ORIENTED_EDGE('',*,*,#373,.F.);
#184=ORIENTED_EDGE('',*,*,#371,.T.);
#185=ORIENTED_EDGE('',*,*,#312,.F.);
#186=ORIENTED_EDGE('',*,*,#374,.F.);
#187=ORIENTED_EDGE('',*,*,#357,.F.);
#188=ORIENTED_EDGE('',*,*,#370,.T.);
#189=ORIENTED_EDGE('',*,*,#356,.F.);
#190=ORIENTED_EDGE('',*,*,#375,.F.);
#191=ORIENTED_EDGE('',*,*,#304,.F.);
#192=ORIENTED_EDGE('',*,*,#376,.F.);
#193=ORIENTED_EDGE('',*,*,#305,.F.);
#194=ORIENTED_EDGE('',*,*,#377,.F.);
#195=ORIENTED_EDGE('',*,*,#344,.F.);
#196=ORIENTED_EDGE('',*,*,#373,.T.);
#197=ORIENTED_EDGE('',*,*,#302,.F.);
#198=ORIENTED_EDGE('',*,*,#378,.F.);
#199=ORIENTED_EDGE('',*,*,#362,.F.);
#200=ORIENTED_EDGE('',*,*,#372,.T.);
#201=ORIENTED_EDGE('',*,*,#361,.F.);
#202=ORIENTED_EDGE('',*,*,#379,.F.);
#203=ORIENTED_EDGE('',*,*,#310,.F.);
#204=ORIENTED_EDGE('',*,*,#374,.T.);
#205=ORIENTED_EDGE('',*,*,#315,.F.);
#206=ORIENTED_EDGE('',*,*,#380,.F.);
#207=ORIENTED_EDGE('',*,*,#348,.F.);
#208=ORIENTED_EDGE('',*,*,#377,.T.);
#209=ORIENTED_EDGE('',*,*,#375,.T.);
#210=ORIENTED_EDGE('',*,*,#381,.F.);
#211=ORIENTED_EDGE('',*,*,#378,.T.);
#212=ORIENTED_EDGE('',*,*,#376,.T.);
#213=ORIENTED_EDGE('',*,*,#382,.F.);
#214=ORIENTED_EDGE('',*,*,#379,.T.);
#215=ORIENTED_EDGE('',*,*,#360,.F.);
#216=ORIENTED_EDGE('',*,*,#383,.F.);
#217=ORIENTED_EDGE('',*,*,#313,.F.);
#218=ORIENTED_EDGE('',*,*,#380,.T.);
#219=ORIENTED_EDGE('',*,*,#318,.F.);
#220=ORIENTED_EDGE('',*,*,#384,.F.);
#221=ORIENTED_EDGE('',*,*,#349,.F.);
#222=ORIENTED_EDGE('',*,*,#381,.T.);
#223=ORIENTED_EDGE('',*,*,#355,.F.);
#224=ORIENTED_EDGE('',*,*,#385,.F.);
#225=ORIENTED_EDGE('',*,*,#345,.F.);
#226=ORIENTED_EDGE('',*,*,#382,.T.);
#227=ORIENTED_EDGE('',*,*,#343,.F.);
#228=ORIENTED_EDGE('',*,*,#386,.F.);
#229=ORIENTED_EDGE('',*,*,#363,.F.);
#230=ORIENTED_EDGE('',*,*,#383,.T.);
#231=ORIENTED_EDGE('',*,*,#359,.F.);
#232=ORIENTED_EDGE('',*,*,#387,.F.);
#233=ORIENTED_EDGE('',*,*,#316,.F.);
#234=ORIENTED_EDGE('',*,*,#384,.T.);
#235=ORIENTED_EDGE('',*,*,#321,.F.);
#236=ORIENTED_EDGE('',*,*,#388,.F.);
#237=ORIENTED_EDGE('',*,*,#350,.F.);
#238=ORIENTED_EDGE('',*,*,#385,.T.);
#239=ORIENTED_EDGE('',*,*,#354,.F.);
#240=ORIENTED_EDGE('',*,*,#389,.F.);
#241=ORIENTED_EDGE('',*,*,#341,.F.);
#242=ORIENTED_EDGE('',*,*,#390,.F.);
#243=ORIENTED_EDGE('',*,*,#338,.F.);
#244=ORIENTED_EDGE('',*,*,#391,.F.);
#245=ORIENTED_EDGE('',*,*,#336,.F.);
#246=ORIENTED_EDGE('',*,*,#386,.T.);
#247=ORIENTED_EDGE('',*,*,#339,.F.);
#248=ORIENTED_EDGE('',*,*,#392,.F.);
#249=ORIENTED_EDGE('',*,*,#364,.F.);
#250=ORIENTED_EDGE('',*,*,#387,.T.);
#251=ORIENTED_EDGE('',*,*,#358,.F.);
#252=ORIENTED_EDGE('',*,*,#393,.F.);
#253=ORIENTED_EDGE('',*,*,#319,.F.);
#254=ORIENTED_EDGE('',*,*,#388,.T.);
#255=ORIENTED_EDGE('',*,*,#327,.F.);
#256=ORIENTED_EDGE('',*,*,#394,.F.);
#257=ORIENTED_EDGE('',*,*,#351,.F.);
#258=ORIENTED_EDGE('',*,*,#391,.T.);
#259=ORIENTED_EDGE('',*,*,#389,.T.);
#260=ORIENTED_EDGE('',*,*,#395,.F.);
#261=ORIENTED_EDGE('',*,*,#392,.T.);
#262=ORIENTED_EDGE('',*,*,#390,.T.);
#263=ORIENTED_EDGE('',*,*,#396,.F.);
#264=ORIENTED_EDGE('',*,*,#393,.T.);
#265=ORIENTED_EDGE('',*,*,#367,.F.);
#266=ORIENTED_EDGE('',*,*,#397,.F.);
#267=ORIENTED_EDGE('',*,*,#325,.F.);
#268=ORIENTED_EDGE('',*,*,#394,.T.);
#269=ORIENTED_EDGE('',*,*,#330,.F.);
#270=ORIENTED_EDGE('',*,*,#398,.F.);
#271=ORIENTED_EDGE('',*,*,#352,.F.);
#272=ORIENTED_EDGE('',*,*,#395,.T.);
#273=ORIENTED_EDGE('',*,*,#353,.F.);
#274=ORIENTED_EDGE('',*,*,#399,.F.);
#275=ORIENTED_EDGE('',*,*,#337,.F.);
#276=ORIENTED_EDGE('',*,*,#396,.T.);
#277=ORIENTED_EDGE('',*,*,#335,.F.);
#278=ORIENTED_EDGE('',*,*,#400,.F.);
#279=ORIENTED_EDGE('',*,*,#365,.F.);
#280=ORIENTED_EDGE('',*,*,#397,.T.);
#281=ORIENTED_EDGE('',*,*,#366,.F.);
#282=ORIENTED_EDGE('',*,*,#401,.F.);
#283=ORIENTED_EDGE('',*,*,#328,.F.);
#284=ORIENTED_EDGE('',*,*,#399,.T.);
#285=ORIENTED_EDGE('',*,*,#398,.T.);
#286=ORIENTED_EDGE('',*,*,#402,.F.);
#287=ORIENTED_EDGE('',*,*,#401,.T.);
#288=ORIENTED_EDGE('',*,*,#400,.T.);
#289=ORIENTED_EDGE('',*,*,#403,.F.);
#290=ORIENTED_EDGE('',*,*,#402,.T.);
#291=ORIENTED_EDGE('',*,*,#329,.F.);
#292=ORIENTED_EDGE('',*,*,#403,.T.);
#293=ORIENTED_EDGE('',*,*,#334,.F.);
#294=ORIENTED_EDGE('',*,*,#306,.T.);
#295=ORIENTED_EDGE('',*,*,#342,.T.);
#296=ORIENTED_EDGE('',*,*,#324,.T.);
#297=ORIENTED_EDGE('',*,*,#333,.T.);
#298=ORIENTED_EDGE('',*,*,#323,.T.);
#299=ORIENTED_EDGE('',*,*,#332,.T.);
#300=ORIENTED_EDGE('',*,*,#322,.T.);
#301=ORIENTED_EDGE('',*,*,#331,.T.);
#302=EDGE_CURVE('',#404,#405,#464,.F.);
#303=EDGE_CURVE('',#405,#406,#465,.F.);
#304=EDGE_CURVE('',#406,#407,#466,.T.);
#305=EDGE_CURVE('',#407,#404,#467,.T.);
#306=EDGE_CURVE('',#408,#408,#62,.T.);
#307=EDGE_CURVE('',#409,#409,#63,.T.);
#308=EDGE_CURVE('',#410,#410,#64,.T.);
#309=EDGE_CURVE('',#411,#412,#468,.T.);
#310=EDGE_CURVE('',#412,#413,#469,.F.);
#311=EDGE_CURVE('',#414,#413,#470,.T.);
#312=EDGE_CURVE('',#414,#411,#471,.T.);
#313=EDGE_CURVE('',#413,#415,#472,.T.);
#314=EDGE_CURVE('',#416,#415,#473,.T.);
#315=EDGE_CURVE('',#416,#414,#474,.F.);
#316=EDGE_CURVE('',#415,#417,#475,.T.);
#317=EDGE_CURVE('',#418,#417,#476,.T.);
#318=EDGE_CURVE('',#418,#416,#477,.F.);
#319=EDGE_CURVE('',#417,#419,#478,.F.);
#320=EDGE_CURVE('',#420,#419,#479,.T.);
#321=EDGE_CURVE('',#420,#418,#480,.T.);
#322=EDGE_CURVE('',#421,#421,#65,.T.);
#323=EDGE_CURVE('',#422,#422,#66,.T.);
#324=EDGE_CURVE('',#423,#423,#67,.T.);
#325=EDGE_CURVE('',#419,#424,#481,.F.);
#326=EDGE_CURVE('',#425,#424,#482,.T.);
#327=EDGE_CURVE('',#425,#420,#483,.T.);
#328=EDGE_CURVE('',#424,#426,#484,.F.);
#329=EDGE_CURVE('',#426,#427,#485,.F.);
#330=EDGE_CURVE('',#427,#425,#486,.T.);
#331=EDGE_CURVE('',#428,#428,#68,.T.);
#332=EDGE_CURVE('',#429,#429,#69,.T.);
#333=EDGE_CURVE('',#430,#430,#70,.T.);
#334=EDGE_CURVE('',#431,#432,#487,.T.);
#335=EDGE_CURVE('',#432,#433,#488,.F.);
#336=EDGE_CURVE('',#433,#434,#489,.F.);
#337=EDGE_CURVE('',#434,#431,#490,.T.);
#338=EDGE_CURVE('',#435,#436,#491,.T.);
#339=EDGE_CURVE('',#436,#437,#492,.F.);
#340=EDGE_CURVE('',#438,#437,#493,.T.);
#341=EDGE_CURVE('',#438,#435,#494,.T.);
#342=EDGE_CURVE('',#439,#439,#71,.T.);
#343=EDGE_CURVE('',#437,#440,#495,.F.);
#344=EDGE_CURVE('',#440,#441,#496,.F.);
#345=EDGE_CURVE('',#441,#438,#497,.T.);
#346=EDGE_CURVE('',#442,#442,#72,.T.);
#347=EDGE_CURVE('',#443,#443,#73,.T.);
#348=EDGE_CURVE('',#444,#445,#498,.T.);
#349=EDGE_CURVE('',#445,#446,#499,.T.);
#350=EDGE_CURVE('',#446,#447,#500,.F.);
#351=EDGE_CURVE('',#447,#448,#501,.F.);
#352=EDGE_CURVE('',#448,#449,#502,.F.);
#353=EDGE_CURVE('',#449,#450,#503,.F.);
#354=EDGE_CURVE('',#450,#451,#504,.F.);
#355=EDGE_CURVE('',#451,#452,#505,.F.);
#356=EDGE_CURVE('',#452,#453,#506,.F.);
#357=EDGE_CURVE('',#453,#444,#507,.F.);
#358=EDGE_CURVE('',#454,#455,#508,.T.);
#359=EDGE_CURVE('',#455,#456,#509,.F.);
#360=EDGE_CURVE('',#456,#457,#510,.F.);
#361=EDGE_CURVE('',#457,#458,#511,.T.);
#362=EDGE_CURVE('',#458,#459,#512,.T.);
#363=EDGE_CURVE('',#459,#460,#513,.T.);
#364=EDGE_CURVE('',#460,#461,#514,.T.);
#365=EDGE_CURVE('',#461,#462,#515,.T.);
#366=EDGE_CURVE('',#462,#463,#516,.T.);
#367=EDGE_CURVE('',#463,#454,#517,.T.);
#368=EDGE_CURVE('',#406,#411,#74,.T.);
#369=EDGE_CURVE('',#412,#405,#75,.T.);
#370=EDGE_CURVE('',#406,#453,#76,.F.);
#371=EDGE_CURVE('',#453,#411,#77,.F.);
#372=EDGE_CURVE('',#412,#458,#78,.F.);
#373=EDGE_CURVE('',#458,#405,#79,.F.);
#374=EDGE_CURVE('',#444,#414,#12,.F.);
#375=EDGE_CURVE('',#407,#452,#80,.T.);
#376=EDGE_CURVE('',#404,#440,#81,.T.);
#377=EDGE_CURVE('',#441,#407,#82,.T.);
#378=EDGE_CURVE('',#459,#404,#83,.T.);
#379=EDGE_CURVE('',#413,#457,#13,.T.);
#380=EDGE_CURVE('',#445,#416,#14,.F.);
#381=EDGE_CURVE('',#441,#452,#84,.F.);
#382=EDGE_CURVE('',#459,#440,#85,.F.);
#383=EDGE_CURVE('',#415,#456,#15,.T.);
#384=EDGE_CURVE('',#446,#418,#16,.F.);
#385=EDGE_CURVE('',#438,#451,#17,.T.);
#386=EDGE_CURVE('',#460,#437,#18,.F.);
#387=EDGE_CURVE('',#417,#455,#19,.T.);
#388=EDGE_CURVE('',#447,#420,#20,.F.);
#389=EDGE_CURVE('',#435,#450,#86,.T.);
#390=EDGE_CURVE('',#436,#433,#87,.T.);
#391=EDGE_CURVE('',#434,#435,#88,.T.);
#392=EDGE_CURVE('',#461,#436,#89,.T.);
#393=EDGE_CURVE('',#419,#454,#21,.T.);
#394=EDGE_CURVE('',#448,#425,#22,.F.);
#395=EDGE_CURVE('',#434,#450,#90,.F.);
#396=EDGE_CURVE('',#461,#433,#91,.F.);
#397=EDGE_CURVE('',#424,#463,#23,.T.);
#398=EDGE_CURVE('',#449,#427,#92,.T.);
#399=EDGE_CURVE('',#431,#449,#93,.T.);
#400=EDGE_CURVE('',#462,#432,#94,.T.);
#401=EDGE_CURVE('',#426,#462,#95,.T.);
#402=EDGE_CURVE('',#431,#427,#96,.F.);
#403=EDGE_CURVE('',#426,#432,#97,.F.);
#404=VERTEX_POINT('',#1136);
#405=VERTEX_POINT('',#1137);
#406=VERTEX_POINT('',#1139);
#407=VERTEX_POINT('',#1141);
#408=VERTEX_POINT('',#1145);
#409=VERTEX_POINT('',#1147);
#410=VERTEX_POINT('',#1149);
#411=VERTEX_POINT('',#1151);
#412=VERTEX_POINT('',#1152);
#413=VERTEX_POINT('',#1154);
#414=VERTEX_POINT('',#1156);
#415=VERTEX_POINT('',#1160);
#416=VERTEX_POINT('',#1162);
#417=VERTEX_POINT('',#1166);
#418=VERTEX_POINT('',#1168);
#419=VERTEX_POINT('',#1172);
#420=VERTEX_POINT('',#1174);
#421=VERTEX_POINT('',#1178);
#422=VERTEX_POINT('',#1180);
#423=VERTEX_POINT('',#1182);
#424=VERTEX_POINT('',#1184);
#425=VERTEX_POINT('',#1186);
#426=VERTEX_POINT('',#1190);
#427=VERTEX_POINT('',#1192);
#428=VERTEX_POINT('',#1196);
#429=VERTEX_POINT('',#1198);
#430=VERTEX_POINT('',#1200);
#431=VERTEX_POINT('',#1202);
#432=VERTEX_POINT('',#1203);
#433=VERTEX_POINT('',#1205);
#434=VERTEX_POINT('',#1207);
#435=VERTEX_POINT('',#1211);
#436=VERTEX_POINT('',#1212);
#437=VERTEX_POINT('',#1214);
#438=VERTEX_POINT('',#1216);
#439=VERTEX_POINT('',#1220);
#440=VERTEX_POINT('',#1222);
#441=VERTEX_POINT('',#1224);
#442=VERTEX_POINT('',#1227);
#443=VERTEX_POINT('',#1229);
#444=VERTEX_POINT('',#1232);
#445=VERTEX_POINT('',#1233);
#446=VERTEX_POINT('',#1235);
#447=VERTEX_POINT('',#1237);
#448=VERTEX_POINT('',#1239);
#449=VERTEX_POINT('',#1241);
#450=VERTEX_POINT('',#1243);
#451=VERTEX_POINT('',#1245);
#452=VERTEX_POINT('',#1247);
#453=VERTEX_POINT('',#1249);
#454=VERTEX_POINT('',#1253);
#455=VERTEX_POINT('',#1254);
#456=VERTEX_POINT('',#1256);
#457=VERTEX_POINT('',#1258);
#458=VERTEX_POINT('',#1260);
#459=VERTEX_POINT('',#1262);
#460=VERTEX_POINT('',#1264);
#461=VERTEX_POINT('',#1266);
#462=VERTEX_POINT('',#1268);
#463=VERTEX_POINT('',#1270);
#464=LINE('',#1135,#518);
#465=LINE('',#1138,#519);
#466=LINE('',#1140,#520);
#467=LINE('',#1142,#521);
#468=LINE('',#1150,#522);
#469=LINE('',#1153,#523);
#470=LINE('',#1155,#524);
#471=LINE('',#1157,#525);
#472=LINE('',#1159,#526);
#473=LINE('',#1161,#527);
#474=LINE('',#1163,#528);
#475=LINE('',#1165,#529);
#476=LINE('',#1167,#530);
#477=LINE('',#1169,#531);
#478=LINE('',#1171,#532);
#479=LINE('',#1173,#533);
#480=LINE('',#1175,#534);
#481=LINE('',#1183,#535);
#482=LINE('',#1185,#536);
#483=LINE('',#1187,#537);
#484=LINE('',#1189,#538);
#485=LINE('',#1191,#539);
#486=LINE('',#1193,#540);
#487=LINE('',#1201,#541);
#488=LINE('',#1204,#542);
#489=LINE('',#1206,#543);
#490=LINE('',#1208,#544);
#491=LINE('',#1210,#545);
#492=LINE('',#1213,#546);
#493=LINE('',#1215,#547);
#494=LINE('',#1217,#548);
#495=LINE('',#1221,#549);
#496=LINE('',#1223,#550);
#497=LINE('',#1225,#551);
#498=LINE('',#1231,#552);
#499=LINE('',#1234,#553);
#500=LINE('',#1236,#554);
#501=LINE('',#1238,#555);
#502=LINE('',#1240,#556);
#503=LINE('',#1242,#557);
#504=LINE('',#1244,#558);
#505=LINE('',#1246,#559);
#506=LINE('',#1248,#560);
#507=LINE('',#1250,#561);
#508=LINE('',#1252,#562);
#509=LINE('',#1255,#563);
#510=LINE('',#1257,#564);
#511=LINE('',#1259,#565);
#512=LINE('',#1261,#566);
#513=LINE('',#1263,#567);
#514=LINE('',#1265,#568);
#515=LINE('',#1267,#569);
#516=LINE('',#1269,#570);
#517=LINE('',#1271,#571);
#518=VECTOR('',#885,1.);
#519=VECTOR('',#886,1.);
#520=VECTOR('',#887,1.);
#521=VECTOR('',#888,1.);
#522=VECTOR('',#897,1.);
#523=VECTOR('',#898,1.);
#524=VECTOR('',#899,1.);
#525=VECTOR('',#900,1.);
#526=VECTOR('',#903,1.);
#527=VECTOR('',#904,1.);
#528=VECTOR('',#905,1.);
#529=VECTOR('',#908,1.);
#530=VECTOR('',#909,1.);
#531=VECTOR('',#910,1.);
#532=VECTOR('',#913,1.);
#533=VECTOR('',#914,1.);
#534=VECTOR('',#915,1.);
#535=VECTOR('',#924,1.);
#536=VECTOR('',#925,1.);
#537=VECTOR('',#926,1.);
#538=VECTOR('',#929,1.);
#539=VECTOR('',#930,1.);
#540=VECTOR('',#931,1.);
#541=VECTOR('',#940,1.);
#542=VECTOR('',#941,1.);
#543=VECTOR('',#942,1.);
#544=VECTOR('',#943,1.);
#545=VECTOR('',#946,1.);
#546=VECTOR('',#947,1.);
#547=VECTOR('',#948,1.);
#548=VECTOR('',#949,1.);
#549=VECTOR('',#954,1.);
#550=VECTOR('',#955,1.);
#551=VECTOR('',#956,1.);
#552=VECTOR('',#963,1.);
#553=VECTOR('',#964,1.);
#554=VECTOR('',#965,1.);
#555=VECTOR('',#966,1.);
#556=VECTOR('',#967,1.);
#557=VECTOR('',#968,1.);
#558=VECTOR('',#969,1.);
#559=VECTOR('',#970,1.);
#560=VECTOR('',#971,1.);
#561=VECTOR('',#972,1.);
#562=VECTOR('',#975,1.);
#563=VECTOR('',#976,1.);
#564=VECTOR('',#977,1.);
#565=VECTOR('',#978,1.);
#566=VECTOR('',#979,1.);
#567=VECTOR('',#980,1.);
#568=VECTOR('',#981,1.);
#569=VECTOR('',#982,1.);
#570=VECTOR('',#983,1.);
#571=VECTOR('',#984,1.);
#572=EDGE_LOOP('',(#98,#99,#100,#101));
#573=EDGE_LOOP('',(#102));
#574=EDGE_LOOP('',(#103));
#575=EDGE_LOOP('',(#104));
#576=EDGE_LOOP('',(#105,#106,#107,#108));
#577=EDGE_LOOP('',(#109,#110,#111,#112));
#578=EDGE_LOOP('',(#113,#114,#115,#116));
#579=EDGE_LOOP('',(#117,#118,#119,#120));
#580=EDGE_LOOP('',(#121));
#581=EDGE_LOOP('',(#122));
#582=EDGE_LOOP('',(#123));
#583=EDGE_LOOP('',(#124,#125,#126,#127));
#584=EDGE_LOOP('',(#128,#129,#130,#131));
#585=EDGE_LOOP('',(#132));
#586=EDGE_LOOP('',(#133));
#587=EDGE_LOOP('',(#134));
#588=EDGE_LOOP('',(#135,#136,#137,#138));
#589=EDGE_LOOP('',(#139,#140,#141,#142));
#590=EDGE_LOOP('',(#143));
#591=EDGE_LOOP('',(#144,#145,#146,#147));
#592=EDGE_LOOP('',(#148));
#593=EDGE_LOOP('',(#149));
#594=EDGE_LOOP('',(#150,#151,#152,#153,#154,#155,#156,#157,#158,#159));
#595=EDGE_LOOP('',(#160,#161,#162,#163,#164,#165,#166,#167,#168,#169));
#596=EDGE_LOOP('',(#170));
#597=EDGE_LOOP('',(#171));
#598=EDGE_LOOP('',(#172));
#599=EDGE_LOOP('',(#173));
#600=EDGE_LOOP('',(#174,#175,#176,#177));
#601=EDGE_LOOP('',(#178,#179,#180));
#602=EDGE_LOOP('',(#181,#182,#183));
#603=EDGE_LOOP('',(#184,#185,#186,#187));
#604=EDGE_LOOP('',(#188,#189,#190,#191));
#605=EDGE_LOOP('',(#192,#193,#194,#195));
#606=EDGE_LOOP('',(#196,#197,#198,#199));
#607=EDGE_LOOP('',(#200,#201,#202,#203));
#608=EDGE_LOOP('',(#204,#205,#206,#207));
#609=EDGE_LOOP('',(#208,#209,#210));
#610=EDGE_LOOP('',(#211,#212,#213));
#611=EDGE_LOOP('',(#214,#215,#216,#217));
#612=EDGE_LOOP('',(#218,#219,#220,#221));
#613=EDGE_LOOP('',(#222,#223,#224,#225));
#614=EDGE_LOOP('',(#226,#227,#228,#229));
#615=EDGE_LOOP('',(#230,#231,#232,#233));
#616=EDGE_LOOP('',(#234,#235,#236,#237));
#617=EDGE_LOOP('',(#238,#239,#240,#241));
#618=EDGE_LOOP('',(#242,#243,#244,#245));
#619=EDGE_LOOP('',(#246,#247,#248,#249));
#620=EDGE_LOOP('',(#250,#251,#252,#253));
#621=EDGE_LOOP('',(#254,#255,#256,#257));
#622=EDGE_LOOP('',(#258,#259,#260));
#623=EDGE_LOOP('',(#261,#262,#263));
#624=EDGE_LOOP('',(#264,#265,#266,#267));
#625=EDGE_LOOP('',(#268,#269,#270,#271));
#626=EDGE_LOOP('',(#272,#273,#274,#275));
#627=EDGE_LOOP('',(#276,#277,#278,#279));
#628=EDGE_LOOP('',(#280,#281,#282,#283));
#629=EDGE_LOOP('',(#284,#285,#286));
#630=EDGE_LOOP('',(#287,#288,#289));
#631=EDGE_LOOP('',(#290,#291,#292,#293));
#632=EDGE_LOOP('',(#294));
#633=EDGE_LOOP('',(#295));
#634=EDGE_LOOP('',(#296));
#635=EDGE_LOOP('',(#297));
#636=EDGE_LOOP('',(#298));
#637=EDGE_LOOP('',(#299));
#638=EDGE_LOOP('',(#300));
#639=EDGE_LOOP('',(#301));
#640=FACE_BOUND('',#572,.T.);
#641=FACE_BOUND('',#573,.T.);
#642=FACE_BOUND('',#574,.T.);
#643=FACE_BOUND('',#575,.T.);
#644=FACE_BOUND('',#576,.T.);
#645=FACE_BOUND('',#577,.T.);
#646=FACE_BOUND('',#578,.T.);
#647=FACE_BOUND('',#579,.T.);
#648=FACE_BOUND('',#580,.T.);
#649=FACE_BOUND('',#581,.T.);
#650=FACE_BOUND('',#582,.T.);
#651=FACE_BOUND('',#583,.T.);
#652=FACE_BOUND('',#584,.T.);
#653=FACE_BOUND('',#585,.T.);
#654=FACE_BOUND('',#586,.T.);
#655=FACE_BOUND('',#587,.T.);
#656=FACE_BOUND('',#588,.T.);
#657=FACE_BOUND('',#589,.T.);
#658=FACE_BOUND('',#590,.T.);
#659=FACE_BOUND('',#591,.T.);
#660=FACE_BOUND('',#592,.T.);
#661=FACE_BOUND('',#593,.T.);
#662=FACE_BOUND('',#594,.T.);
#663=FACE_BOUND('',#595,.T.);
#664=FACE_BOUND('',#596,.T.);
#665=FACE_BOUND('',#597,.T.);
#666=FACE_BOUND('',#598,.T.);
#667=FACE_BOUND('',#599,.T.);
#668=FACE_BOUND('',#600,.T.);
#669=FACE_BOUND('',#601,.T.);
#670=FACE_BOUND('',#602,.T.);
#671=FACE_BOUND('',#603,.T.);
#672=FACE_BOUND('',#604,.T.);
#673=FACE_BOUND('',#605,.T.);
#674=FACE_BOUND('',#606,.T.);
#675=FACE_BOUND('',#607,.T.);
#676=FACE_BOUND('',#608,.T.);
#677=FACE_BOUND('',#609,.T.);
#678=FACE_BOUND('',#610,.T.);
#679=FACE_BOUND('',#611,.T.);
#680=FACE_BOUND('',#612,.T.);
#681=FACE_BOUND('',#613,.T.);
#682=FACE_BOUND('',#614,.T.);
#683=FACE_BOUND('',#615,.T.);
#684=FACE_BOUND('',#616,.T.);
#685=FACE_BOUND('',#617,.T.);
#686=FACE_BOUND('',#618,.T.);
#687=FACE_BOUND('',#619,.T.);
#688=FACE_BOUND('',#620,.T.);
#689=FACE_BOUND('',#621,.T.);
#690=FACE_BOUND('',#622,.T.);
#691=FACE_BOUND('',#623,.T.);
#692=FACE_BOUND('',#624,.T.);
#693=FACE_BOUND('',#625,.T.);
#694=FACE_BOUND('',#626,.T.);
#695=FACE_BOUND('',#627,.T.);
#696=FACE_BOUND('',#628,.T.);
#697=FACE_BOUND('',#629,.T.);
#698=FACE_BOUND('',#630,.T.);
#699=FACE_BOUND('',#631,.T.);
#700=FACE_BOUND('',#632,.T.);
#701=FACE_BOUND('',#633,.T.);
#702=FACE_BOUND('',#634,.T.);
#703=FACE_BOUND('',#635,.T.);
#704=FACE_BOUND('',#636,.T.);
#705=FACE_BOUND('',#637,.T.);
#706=FACE_BOUND('',#638,.T.);
#707=FACE_BOUND('',#639,.T.);
#708=PLANE('',#783);
#709=PLANE('',#784);
#710=PLANE('',#788);
#711=PLANE('',#789);
#712=PLANE('',#790);
#713=PLANE('',#791);
#714=PLANE('',#795);
#715=PLANE('',#796);
#716=PLANE('',#800);
#717=PLANE('',#801);
#718=PLANE('',#805);
#719=PLANE('',#806);
#720=ADVANCED_FACE('',(#640),#708,.T.);
#721=ADVANCED_FACE('',(#641,#642,#643,#644),#709,.T.);
#722=ADVANCED_FACE('',(#645),#710,.F.);
#723=ADVANCED_FACE('',(#646),#711,.F.);
#724=ADVANCED_FACE('',(#647),#712,.T.);
#725=ADVANCED_FACE('',(#648,#649,#650,#651),#713,.T.);
#726=ADVANCED_FACE('',(#652),#714,.T.);
#727=ADVANCED_FACE('',(#653,#654,#655,#656),#715,.T.);
#728=ADVANCED_FACE('',(#657),#716,.T.);
#729=ADVANCED_FACE('',(#658,#659,#660,#661),#717,.T.);
#730=ADVANCED_FACE('',(#662),#718,.T.);
#731=ADVANCED_FACE('',(#663),#719,.F.);
#732=ADVANCED_FACE('',(#664,#665),#32,.F.);
#733=ADVANCED_FACE('',(#666,#667),#33,.F.);
#734=ADVANCED_FACE('',(#668),#34,.T.);
#735=ADVANCED_FACE('',(#669),#24,.T.);
#736=ADVANCED_FACE('',(#670),#25,.T.);
#737=ADVANCED_FACE('',(#671),#35,.T.);
#738=ADVANCED_FACE('',(#672),#36,.T.);
#739=ADVANCED_FACE('',(#673),#37,.T.);
#740=ADVANCED_FACE('',(#674),#38,.T.);
#741=ADVANCED_FACE('',(#675),#39,.T.);
#742=ADVANCED_FACE('',(#676),#40,.T.);
#743=ADVANCED_FACE('',(#677),#26,.T.);
#744=ADVANCED_FACE('',(#678),#27,.T.);
#745=ADVANCED_FACE('',(#679),#41,.T.);
#746=ADVANCED_FACE('',(#680),#42,.T.);
#747=ADVANCED_FACE('',(#681),#43,.T.);
#748=ADVANCED_FACE('',(#682),#44,.T.);
#749=ADVANCED_FACE('',(#683),#45,.T.);
#750=ADVANCED_FACE('',(#684),#46,.T.);
#751=ADVANCED_FACE('',(#685),#47,.T.);
#752=ADVANCED_FACE('',(#686),#48,.T.);
#753=ADVANCED_FACE('',(#687),#49,.T.);
#754=ADVANCED_FACE('',(#688),#50,.T.);
#755=ADVANCED_FACE('',(#689),#51,.T.);
#756=ADVANCED_FACE('',(#690),#28,.T.);
#757=ADVANCED_FACE('',(#691),#29,.T.);
#758=ADVANCED_FACE('',(#692),#52,.T.);
#759=ADVANCED_FACE('',(#693),#53,.T.);
#760=ADVANCED_FACE('',(#694),#54,.T.);
#761=ADVANCED_FACE('',(#695),#55,.T.);
#762=ADVANCED_FACE('',(#696),#56,.T.);
#763=ADVANCED_FACE('',(#697),#30,.T.);
#764=ADVANCED_FACE('',(#698),#31,.T.);
#765=ADVANCED_FACE('',(#699),#57,.T.);
#766=ADVANCED_FACE('',(#700,#701),#58,.F.);
#767=ADVANCED_FACE('',(#702,#703),#59,.F.);
#768=ADVANCED_FACE('',(#704,#705),#60,.F.);
#769=ADVANCED_FACE('',(#706,#707),#61,.F.);
#770=CLOSED_SHELL('',(#720,#721,#722,#723,#724,#725,#726,#727,#728,#729,
#730,#731,#732,#733,#734,#735,#736,#737,#738,#739,#740,#741,#742,#743,#744,
#745,#746,#747,#748,#749,#750,#751,#752,#753,#754,#755,#756,#757,#758,#759,
#760,#761,#762,#763,#764,#765,#766,#767,#768,#769));
#771=STYLED_ITEM('',(#772),#779);
#772=PRESENTATION_STYLE_ASSIGNMENT((#773));
#773=SURFACE_STYLE_USAGE(.BOTH.,#774);
#774=SURFACE_SIDE_STYLE('',(#775));
#775=SURFACE_STYLE_FILL_AREA(#776);
#776=FILL_AREA_STYLE('',(#777));
#777=FILL_AREA_STYLE_COLOUR('',#778);
#778=COLOUR_RGB('',0.615686274509804,0.811764705882353,0.929411764705882);
#779=MANIFOLD_SOLID_BREP('perpduclar holding bracket',#770);
#780=SHAPE_DEFINITION_REPRESENTATION(#1352,#781);
#781=SHAPE_REPRESENTATION('perpduclar holding bracket',(#782),#1347);
#782=AXIS2_PLACEMENT_3D('',#1133,#881,#882);
#783=AXIS2_PLACEMENT_3D('',#1134,#883,#884);
#784=AXIS2_PLACEMENT_3D('',#1143,#889,#890);
#785=AXIS2_PLACEMENT_3D('',#1144,#891,#892);
#786=AXIS2_PLACEMENT_3D('',#1146,#893,#894);
#787=AXIS2_PLACEMENT_3D('',#1148,#895,#896);
#788=AXIS2_PLACEMENT_3D('',#1158,#901,#902);
#789=AXIS2_PLACEMENT_3D('',#1164,#906,#907);
#790=AXIS2_PLACEMENT_3D('',#1170,#911,#912);
#791=AXIS2_PLACEMENT_3D('',#1176,#916,#917);
#792=AXIS2_PLACEMENT_3D('',#1177,#918,#919);
#793=AXIS2_PLACEMENT_3D('',#1179,#920,#921);
#794=AXIS2_PLACEMENT_3D('',#1181,#922,#923);
#795=AXIS2_PLACEMENT_3D('',#1188,#927,#928);
#796=AXIS2_PLACEMENT_3D('',#1194,#932,#933);
#797=AXIS2_PLACEMENT_3D('',#1195,#934,#935);
#798=AXIS2_PLACEMENT_3D('',#1197,#936,#937);
#799=AXIS2_PLACEMENT_3D('',#1199,#938,#939);
#800=AXIS2_PLACEMENT_3D('',#1209,#944,#945);
#801=AXIS2_PLACEMENT_3D('',#1218,#950,#951);
#802=AXIS2_PLACEMENT_3D('',#1219,#952,#953);
#803=AXIS2_PLACEMENT_3D('',#1226,#957,#958);
#804=AXIS2_PLACEMENT_3D('',#1228,#959,#960);
#805=AXIS2_PLACEMENT_3D('',#1230,#961,#962);
#806=AXIS2_PLACEMENT_3D('',#1251,#973,#974);
#807=AXIS2_PLACEMENT_3D('',#1272,#985,#986);
#808=AXIS2_PLACEMENT_3D('',#1273,#987,#988);
#809=AXIS2_PLACEMENT_3D('',#1274,#989,#990);
#810=AXIS2_PLACEMENT_3D('',#1275,#991,#992);
#811=AXIS2_PLACEMENT_3D('',#1276,#993,#994);
#812=AXIS2_PLACEMENT_3D('',#1277,#995,#996);
#813=AXIS2_PLACEMENT_3D('',#1278,#997,#998);
#814=AXIS2_PLACEMENT_3D('',#1279,#999,#1000);
#815=AXIS2_PLACEMENT_3D('',#1280,#1001,#1002);
#816=AXIS2_PLACEMENT_3D('',#1281,#1003,#1004);
#817=AXIS2_PLACEMENT_3D('',#1282,#1005,#1006);
#818=AXIS2_PLACEMENT_3D('',#1283,#1007,#1008);
#819=AXIS2_PLACEMENT_3D('',#1284,#1009,#1010);
#820=AXIS2_PLACEMENT_3D('',#1285,#1011,#1012);
#821=AXIS2_PLACEMENT_3D('',#1286,#1013,#1014);
#822=AXIS2_PLACEMENT_3D('',#1287,#1015,#1016);
#823=AXIS2_PLACEMENT_3D('',#1288,#1017,#1018);
#824=AXIS2_PLACEMENT_3D('',#1289,#1019,#1020);
#825=AXIS2_PLACEMENT_3D('',#1290,#1021,#1022);
#826=AXIS2_PLACEMENT_3D('',#1291,#1023,#1024);
#827=AXIS2_PLACEMENT_3D('',#1292,#1025,#1026);
#828=AXIS2_PLACEMENT_3D('',#1293,#1027,#1028);
#829=AXIS2_PLACEMENT_3D('',#1294,#1029,#1030);
#830=AXIS2_PLACEMENT_3D('',#1295,#1031,#1032);
#831=AXIS2_PLACEMENT_3D('',#1296,#1033,#1034);
#832=AXIS2_PLACEMENT_3D('',#1297,#1035,#1036);
#833=AXIS2_PLACEMENT_3D('',#1298,#1037,#1038);
#834=AXIS2_PLACEMENT_3D('',#1299,#1039,#1040);
#835=AXIS2_PLACEMENT_3D('',#1300,#1041,#1042);
#836=AXIS2_PLACEMENT_3D('',#1301,#1043,#1044);
#837=AXIS2_PLACEMENT_3D('',#1302,#1045,#1046);
#838=AXIS2_PLACEMENT_3D('',#1303,#1047,#1048);
#839=AXIS2_PLACEMENT_3D('',#1304,#1049,#1050);
#840=AXIS2_PLACEMENT_3D('',#1305,#1051,#1052);
#841=AXIS2_PLACEMENT_3D('',#1306,#1053,#1054);
#842=AXIS2_PLACEMENT_3D('',#1307,#1055,#1056);
#843=AXIS2_PLACEMENT_3D('',#1308,#1057,#1058);
#844=AXIS2_PLACEMENT_3D('',#1309,#1059,#1060);
#845=AXIS2_PLACEMENT_3D('',#1310,#1061,#1062);
#846=AXIS2_PLACEMENT_3D('',#1311,#1063,#1064);
#847=AXIS2_PLACEMENT_3D('',#1312,#1065,#1066);
#848=AXIS2_PLACEMENT_3D('',#1313,#1067,#1068);
#849=AXIS2_PLACEMENT_3D('',#1314,#1069,#1070);
#850=AXIS2_PLACEMENT_3D('',#1315,#1071,#1072);
#851=AXIS2_PLACEMENT_3D('',#1316,#1073,#1074);
#852=AXIS2_PLACEMENT_3D('',#1317,#1075,#1076);
#853=AXIS2_PLACEMENT_3D('',#1318,#1077,#1078);
#854=AXIS2_PLACEMENT_3D('',#1319,#1079,#1080);
#855=AXIS2_PLACEMENT_3D('',#1320,#1081,#1082);
#856=AXIS2_PLACEMENT_3D('',#1321,#1083,#1084);
#857=AXIS2_PLACEMENT_3D('',#1322,#1085,#1086);
#858=AXIS2_PLACEMENT_3D('',#1323,#1087,#1088);
#859=AXIS2_PLACEMENT_3D('',#1324,#1089,#1090);
#860=AXIS2_PLACEMENT_3D('',#1325,#1091,#1092);
#861=AXIS2_PLACEMENT_3D('',#1326,#1093,#1094);
#862=AXIS2_PLACEMENT_3D('',#1327,#1095,#1096);
#863=AXIS2_PLACEMENT_3D('',#1328,#1097,#1098);
#864=AXIS2_PLACEMENT_3D('',#1329,#1099,#1100);
#865=AXIS2_PLACEMENT_3D('',#1330,#1101,#1102);
#866=AXIS2_PLACEMENT_3D('',#1331,#1103,#1104);
#867=AXIS2_PLACEMENT_3D('',#1332,#1105,#1106);
#868=AXIS2_PLACEMENT_3D('',#1333,#1107,#1108);
#869=AXIS2_PLACEMENT_3D('',#1334,#1109,#1110);
#870=AXIS2_PLACEMENT_3D('',#1335,#1111,#1112);
#871=AXIS2_PLACEMENT_3D('',#1336,#1113,#1114);
#872=AXIS2_PLACEMENT_3D('',#1337,#1115,#1116);
#873=AXIS2_PLACEMENT_3D('',#1338,#1117,#1118);
#874=AXIS2_PLACEMENT_3D('',#1339,#1119,#1120);
#875=AXIS2_PLACEMENT_3D('',#1340,#1121,#1122);
#876=AXIS2_PLACEMENT_3D('',#1341,#1123,#1124);
#877=AXIS2_PLACEMENT_3D('',#1342,#1125,#1126);
#878=AXIS2_PLACEMENT_3D('',#1343,#1127,#1128);
#879=AXIS2_PLACEMENT_3D('',#1344,#1129,#1130);
#880=AXIS2_PLACEMENT_3D('',#1345,#1131,#1132);
#881=DIRECTION('',(0.,0.,1.));
#882=DIRECTION('',(1.,0.,0.));
#883=DIRECTION('',(0.,0.,-1.));
#884=DIRECTION('',(-1.,0.,0.));
#885=DIRECTION('',(0.,-1.,0.));
#886=DIRECTION('',(-1.,0.,0.));
#887=DIRECTION('',(0.,-1.,0.));
#888=DIRECTION('',(-1.,0.,0.));
#889=DIRECTION('',(0.,1.,0.));
#890=DIRECTION('',(0.,0.,1.));
#891=DIRECTION('',(0.,1.,0.));
#892=DIRECTION('',(0.,0.,1.));
#893=DIRECTION('',(0.,1.,0.));
#894=DIRECTION('',(0.,0.,1.));
#895=DIRECTION('',(0.,1.,0.));
#896=DIRECTION('',(0.,0.,1.));
#897=DIRECTION('',(-1.,0.,0.));
#898=DIRECTION('',(0.,0.,-1.));
#899=DIRECTION('',(-1.,0.,0.));
#900=DIRECTION('',(0.,0.,-1.));
#901=DIRECTION('',(0.,0.,1.));
#902=DIRECTION('',(1.,0.,0.));
#903=DIRECTION('',(0.,1.,0.));
#904=DIRECTION('',(-1.,0.,0.));
#905=DIRECTION('',(0.,1.,0.));
#906=DIRECTION('',(0.,-1.,0.));
#907=DIRECTION('',(0.,0.,-1.));
#908=DIRECTION('',(0.,0.,1.));
#909=DIRECTION('',(-1.,0.,0.));
#910=DIRECTION('',(0.,0.,1.));
#911=DIRECTION('',(0.,0.,1.));
#912=DIRECTION('',(1.,0.,0.));
#913=DIRECTION('',(0.,1.,0.));
#914=DIRECTION('',(-1.,0.,0.));
#915=DIRECTION('',(0.,1.,0.));
#916=DIRECTION('',(0.,1.,0.));
#917=DIRECTION('',(0.,0.,1.));
#918=DIRECTION('',(0.,1.,0.));
#919=DIRECTION('',(0.,0.,1.));
#920=DIRECTION('',(0.,1.,0.));
#921=DIRECTION('',(0.,0.,1.));
#922=DIRECTION('',(0.,1.,0.));
#923=DIRECTION('',(0.,0.,1.));
#924=DIRECTION('',(0.,0.,-1.));
#925=DIRECTION('',(-1.,0.,0.));
#926=DIRECTION('',(0.,0.,-1.));
#927=DIRECTION('',(0.,0.,1.));
#928=DIRECTION('',(1.,0.,0.));
#929=DIRECTION('',(0.,1.,0.));
#930=DIRECTION('',(-1.,0.,0.));
#931=DIRECTION('',(0.,1.,0.));
#932=DIRECTION('',(0.,-1.,0.));
#933=DIRECTION('',(0.,0.,-1.));
#934=DIRECTION('',(0.,-1.,0.));
#935=DIRECTION('',(0.,0.,-1.));
#936=DIRECTION('',(0.,-1.,0.));
#937=DIRECTION('',(0.,0.,-1.));
#938=DIRECTION('',(0.,-1.,0.));
#939=DIRECTION('',(0.,0.,-1.));
#940=DIRECTION('',(-1.,0.,0.));
#941=DIRECTION('',(0.,0.,1.));
#942=DIRECTION('',(-1.,0.,0.));
#943=DIRECTION('',(0.,0.,1.));
#944=DIRECTION('',(0.,0.,-1.));
#945=DIRECTION('',(-1.,0.,0.));
#946=DIRECTION('',(-1.,0.,0.));
#947=DIRECTION('',(0.,-1.,0.));
#948=DIRECTION('',(-1.,0.,0.));
#949=DIRECTION('',(0.,-1.,0.));
#950=DIRECTION('',(0.,-1.,0.));
#951=DIRECTION('',(0.,0.,-1.));
#952=DIRECTION('',(0.,-1.,0.));
#953=DIRECTION('',(0.,0.,-1.));
#954=DIRECTION('',(0.,0.,1.));
#955=DIRECTION('',(-1.,0.,0.));
#956=DIRECTION('',(0.,0.,1.));
#957=DIRECTION('',(0.,-1.,0.));
#958=DIRECTION('',(0.,0.,-1.));
#959=DIRECTION('',(0.,-1.,0.));
#960=DIRECTION('',(0.,0.,-1.));
#961=DIRECTION('',(1.,0.,0.));
#962=DIRECTION('',(0.,1.,0.));
#963=DIRECTION('',(0.,1.,0.));
#964=DIRECTION('',(0.,0.,1.));
#965=DIRECTION('',(0.,1.,0.));
#966=DIRECTION('',(0.,0.,-1.));
#967=DIRECTION('',(0.,1.,0.));
#968=DIRECTION('',(0.,0.,1.));
#969=DIRECTION('',(0.,-1.,0.));
#970=DIRECTION('',(0.,0.,1.));
#971=DIRECTION('',(0.,-1.,0.));
#972=DIRECTION('',(0.,0.,-1.));
#973=DIRECTION('',(1.,0.,0.));
#974=DIRECTION('',(0.,1.,0.));
#975=DIRECTION('',(0.,1.,0.));
#976=DIRECTION('',(0.,0.,1.));
#977=DIRECTION('',(0.,1.,0.));
#978=DIRECTION('',(0.,0.,-1.));
#979=DIRECTION('',(0.,-1.,0.));
#980=DIRECTION('',(0.,0.,1.));
#981=DIRECTION('',(0.,-1.,0.));
#982=DIRECTION('',(0.,0.,1.));
#983=DIRECTION('',(0.,1.,0.));
#984=DIRECTION('',(0.,0.,-1.));
#985=DIRECTION('',(0.,-1.,0.));
#986=DIRECTION('',(0.,0.,-1.));
#987=DIRECTION('',(0.,-1.,0.));
#988=DIRECTION('',(0.,0.,-1.));
#989=DIRECTION('',(-1.,0.,0.));
#990=DIRECTION('',(0.,0.,1.));
#991=DIRECTION('',(1.,0.,0.));
#992=DIRECTION('',(0.,0.,-1.));
#993=DIRECTION('',(-1.,0.,0.));
#994=DIRECTION('',(0.,0.,1.));
#995=DIRECTION('',(0.,1.,8.53556174104522E-16));
#996=DIRECTION('',(0.,-8.53556174104522E-16,1.));
#997=DIRECTION('',(0.,1.,0.));
#998=DIRECTION('',(0.,0.,1.));
#999=DIRECTION('',(-8.53556174104521E-16,0.,-1.));
#1000=DIRECTION('',(-1.,0.,8.53556174104521E-16));
#1001=DIRECTION('',(0.,0.,-1.));
#1002=DIRECTION('',(-1.,0.,0.));
#1003=DIRECTION('',(0.,0.,-1.));
#1004=DIRECTION('',(-1.,0.,0.));
#1005=DIRECTION('',(0.,1.,0.));
#1006=DIRECTION('',(0.,0.,1.));
#1007=DIRECTION('',(0.,0.,-1.));
#1008=DIRECTION('',(-1.,0.,0.));
#1009=DIRECTION('',(0.,-0.707106781186548,-0.707106781186548));
#1010=DIRECTION('',(0.,-0.707106781186548,0.707106781186548));
#1011=DIRECTION('',(0.,-1.,0.));
#1012=DIRECTION('',(0.,0.,-1.));
#1013=DIRECTION('',(0.,-1.,0.));
#1014=DIRECTION('',(0.,0.,-1.));
#1015=DIRECTION('',(-1.,0.,0.));
#1016=DIRECTION('',(0.,0.,1.));
#1017=DIRECTION('',(-1.,0.,0.));
#1018=DIRECTION('',(0.,0.,1.));
#1019=DIRECTION('',(1.,0.,0.));
#1020=DIRECTION('',(0.,0.,-1.));
#1021=DIRECTION('',(0.,1.,0.));
#1022=DIRECTION('',(0.,0.,1.));
#1023=DIRECTION('',(0.,-1.,0.));
#1024=DIRECTION('',(0.,0.,-1.));
#1025=DIRECTION('',(0.,0.,1.));
#1026=DIRECTION('',(1.,0.,0.));
#1027=DIRECTION('',(0.,0.707106781186548,0.707106781186548));
#1028=DIRECTION('',(0.,0.707106781186548,-0.707106781186548));
#1029=DIRECTION('',(0.,-1.,0.));
#1030=DIRECTION('',(0.,0.,-1.));
#1031=DIRECTION('',(0.,-0.707106781186548,-0.707106781186548));
#1032=DIRECTION('',(0.,-0.707106781186548,0.707106781186548));
#1033=DIRECTION('',(0.,0.,-1.));
#1034=DIRECTION('',(-1.,0.,0.));
#1035=DIRECTION('',(0.,0.,-1.));
#1036=DIRECTION('',(-1.,0.,0.));
#1037=DIRECTION('',(0.,0.,-1.));
#1038=DIRECTION('',(-1.,0.,0.));
#1039=DIRECTION('',(-8.53556174104521E-16,0.,-1.));
#1040=DIRECTION('',(-1.,0.,8.53556174104521E-16));
#1041=DIRECTION('',(0.,1.,0.));
#1042=DIRECTION('',(0.,0.,1.));
#1043=DIRECTION('',(0.,0.707106781186548,0.707106781186548));
#1044=DIRECTION('',(0.,0.707106781186548,-0.707106781186548));
#1045=DIRECTION('',(0.,0.,-1.));
#1046=DIRECTION('',(-1.,0.,0.));
#1047=DIRECTION('',(0.,0.707106781186548,-0.707106781186548));
#1048=DIRECTION('',(0.,0.707106781186548,0.707106781186548));
#1049=DIRECTION('',(0.,0.,1.));
#1050=DIRECTION('',(1.,0.,0.));
#1051=DIRECTION('',(0.,-0.707106781186548,0.707106781186548));
#1052=DIRECTION('',(0.,-0.707106781186548,-0.707106781186548));
#1053=DIRECTION('',(0.,0.,-1.));
#1054=DIRECTION('',(-1.,0.,0.));
#1055=DIRECTION('',(0.,0.707106781186548,-0.707106781186548));
#1056=DIRECTION('',(0.,0.707106781186548,0.707106781186548));
#1057=DIRECTION('',(0.,0.,1.));
#1058=DIRECTION('',(1.,0.,0.));
#1059=DIRECTION('',(0.,-0.707106781186548,0.707106781186548));
#1060=DIRECTION('',(0.,-0.707106781186548,-0.707106781186548));
#1061=DIRECTION('',(0.,1.,0.));
#1062=DIRECTION('',(0.,0.,1.));
#1063=DIRECTION('',(0.,0.707106781186548,-0.707106781186548));
#1064=DIRECTION('',(0.,0.707106781186548,0.707106781186548));
#1065=DIRECTION('',(0.,-1.,0.));
#1066=DIRECTION('',(0.,0.,-1.));
#1067=DIRECTION('',(0.,-1.,0.));
#1068=DIRECTION('',(0.,0.,-1.));
#1069=DIRECTION('',(-1.,0.,0.));
#1070=DIRECTION('',(0.,0.,1.));
#1071=DIRECTION('',(-1.,0.,0.));
#1072=DIRECTION('',(0.,0.,1.));
#1073=DIRECTION('',(1.,0.,0.));
#1074=DIRECTION('',(0.,0.,-1.));
#1075=DIRECTION('',(0.,1.,0.));
#1076=DIRECTION('',(0.,0.,1.));
#1077=DIRECTION('',(0.,-1.,-9.75492770405166E-16));
#1078=DIRECTION('',(0.,9.75492770405167E-16,-1.));
#1079=DIRECTION('',(0.,-1.,0.));
#1080=DIRECTION('',(0.,0.,-1.));
#1081=DIRECTION('',(0.,-0.707106781186548,0.707106781186548));
#1082=DIRECTION('',(0.,-0.707106781186548,-0.707106781186548));
#1083=DIRECTION('',(0.,0.,-1.));
#1084=DIRECTION('',(-1.,0.,0.));
#1085=DIRECTION('',(0.,0.707106781186548,-0.707106781186548));
#1086=DIRECTION('',(0.,0.707106781186548,0.707106781186548));
#1087=DIRECTION('',(0.,0.,-1.));
#1088=DIRECTION('',(-1.,0.,0.));
#1089=DIRECTION('',(0.,0.,-1.));
#1090=DIRECTION('',(-1.,0.,0.));
#1091=DIRECTION('',(0.,0.,-1.));
#1092=DIRECTION('',(-1.,0.,0.));
#1093=DIRECTION('',(0.,0.,-1.));
#1094=DIRECTION('',(-1.,0.,0.));
#1095=DIRECTION('',(0.,0.,1.));
#1096=DIRECTION('',(1.,0.,0.));
#1097=DIRECTION('',(0.,-0.707106781186548,0.707106781186548));
#1098=DIRECTION('',(0.,-0.707106781186548,-0.707106781186548));
#1099=DIRECTION('',(0.,1.,0.));
#1100=DIRECTION('',(0.,0.,1.));
#1101=DIRECTION('',(0.,-1.,0.));
#1102=DIRECTION('',(0.,0.,-1.));
#1103=DIRECTION('',(0.,0.,1.));
#1104=DIRECTION('',(1.,0.,0.));
#1105=DIRECTION('',(-3.90197108162067E-15,0.,1.));
#1106=DIRECTION('',(1.,0.,3.90197108162067E-15));
#1107=DIRECTION('',(0.,0.,-1.));
#1108=DIRECTION('',(-1.,0.,0.));
#1109=DIRECTION('',(0.,-3.90197108162068E-15,1.));
#1110=DIRECTION('',(0.,-1.,-3.90197108162068E-15));
#1111=DIRECTION('',(0.,-1.,0.));
#1112=DIRECTION('',(0.,0.,-1.));
#1113=DIRECTION('',(9.75492770405167E-16,-1.,0.));
#1114=DIRECTION('',(1.,9.75492770405167E-16,0.));
#1115=DIRECTION('',(1.,0.,0.));
#1116=DIRECTION('',(0.,0.,-1.));
#1117=DIRECTION('',(1.,0.,0.));
#1118=DIRECTION('',(0.,0.,-1.));
#1119=DIRECTION('',(-1.,-9.75492770405167E-16,0.));
#1120=DIRECTION('',(9.75492770405167E-16,-1.,0.));
#1121=DIRECTION('',(-1.,0.,0.));
#1122=DIRECTION('',(0.,0.,1.));
#1123=DIRECTION('',(-1.,0.,0.));
#1124=DIRECTION('',(0.,0.,1.));
#1125=DIRECTION('',(0.,-1.,0.));
#1126=DIRECTION('',(0.,0.,-1.));
#1127=DIRECTION('',(0.,-1.,0.));
#1128=DIRECTION('',(0.,0.,-1.));
#1129=DIRECTION('',(0.,-1.,0.));
#1130=DIRECTION('',(0.,0.,-1.));
#1131=DIRECTION('',(0.,-1.,0.));
#1132=DIRECTION('',(0.,0.,-1.));
#1133=CARTESIAN_POINT('',(0.,0.,0.));
#1134=CARTESIAN_POINT('',(0.0254,0.00267194793559611,0.));
#1135=CARTESIAN_POINT('',(-0.0236216952,0.00534389587119222,0.));
#1136=CARTESIAN_POINT('',(-0.0236216952,0.0017783048,0.));
#1137=CARTESIAN_POINT('',(-0.0236216952,0.00356559107119222,0.));
#1138=CARTESIAN_POINT('',(0.0254,0.00356559107119222,0.));
#1139=CARTESIAN_POINT('',(0.0236216952,0.00356559107119222,0.));
#1140=CARTESIAN_POINT('',(0.0236216952,0.00267194793559611,0.));
#1141=CARTESIAN_POINT('',(0.0236216952,0.0017783048,0.));
#1142=CARTESIAN_POINT('',(0.0254,0.0017783048,0.));
#1143=CARTESIAN_POINT('',(0.0254,0.00534389587119222,0.0106229316443205));
#1144=CARTESIAN_POINT('',(4.33680868994202E-18,0.00534389587119222,0.00837870206236839));
#1145=CARTESIAN_POINT('',(4.33680868994202E-18,0.00534389587119222,0.00964870206236839));
#1146=CARTESIAN_POINT('',(-0.0127,0.00534389587119222,0.00837870206236839));
#1147=CARTESIAN_POINT('',(-0.0127,0.00534389587119222,0.0105377020623684));
#1148=CARTESIAN_POINT('',(0.0127,0.00534389587119222,0.00837870206236839));
#1149=CARTESIAN_POINT('',(0.0127,0.00534389587119222,0.0105377020623684));
#1150=CARTESIAN_POINT('',(0.0254,0.00534389587119222,0.0017783048));
#1151=CARTESIAN_POINT('',(0.0236216952,0.00534389587119222,0.0017783048));
#1152=CARTESIAN_POINT('',(-0.0236216952,0.00534389587119222,0.0017783048));
#1153=CARTESIAN_POINT('',(-0.0236216952,0.00534389587119222,0.021245863288641));
#1154=CARTESIAN_POINT('',(-0.0236216952,0.00534389587119222,0.021245863288641));
#1155=CARTESIAN_POINT('',(0.0254,0.00534389587119222,0.021245863288641));
#1156=CARTESIAN_POINT('',(0.0236216952,0.00534389587119222,0.021245863288641));
#1157=CARTESIAN_POINT('',(0.0236216952,0.00534389587119222,0.0106229316443205));
#1158=CARTESIAN_POINT('',(0.0254,0.0125638593453914,0.021245863288641));
#1159=CARTESIAN_POINT('',(-0.0236216952,0.0125638593453914,0.021245863288641));
#1160=CARTESIAN_POINT('',(-0.0236216952,0.0197838228195906,0.021245863288641));
#1161=CARTESIAN_POINT('',(0.0254,0.0197838228195906,0.021245863288641));
#1162=CARTESIAN_POINT('',(0.0236216952,0.0197838228195906,0.021245863288641));
#1163=CARTESIAN_POINT('',(0.0236216952,0.00534389587119222,0.021245863288641));
#1164=CARTESIAN_POINT('',(0.0254,0.0197838228195906,0.0230920221656561));
#1165=CARTESIAN_POINT('',(-0.0236216952,0.0197838228195906,0.0230920221656561));
#1166=CARTESIAN_POINT('',(-0.0236216952,0.0197838228195906,0.0249381810426712));
#1167=CARTESIAN_POINT('',(0.0254,0.0197838228195906,0.0249381810426712));
#1168=CARTESIAN_POINT('',(0.0236216952,0.0197838228195906,0.0249381810426712));
#1169=CARTESIAN_POINT('',(0.0236216952,0.0197838228195906,0.021245863288641));
#1170=CARTESIAN_POINT('',(0.0254,-0.00326571497134865,0.0249381810426712));
#1171=CARTESIAN_POINT('',(-0.0236216952,-0.0118753258138895,0.0249381810426712));
#1172=CARTESIAN_POINT('',(-0.0236216952,-0.0118753258138895,0.0249381810426712));
#1173=CARTESIAN_POINT('',(0.0254,-0.0118753258138895,0.0249381810426712));
#1174=CARTESIAN_POINT('',(0.0236216952,-0.0118753258138895,0.0249381810426712));
#1175=CARTESIAN_POINT('',(0.0236216952,-0.00326571497134865,0.0249381810426712));
#1176=CARTESIAN_POINT('',(0.0254,-0.0118753258138895,0.0417366595781501));
#1177=CARTESIAN_POINT('',(-0.015494,-0.0118753258138895,0.0307310068623684));
#1178=CARTESIAN_POINT('',(-0.015494,-0.0118753258138895,0.0332710068623684));
#1179=CARTESIAN_POINT('',(0.015494,-0.0118753258138895,0.0307310068623684));
#1180=CARTESIAN_POINT('',(0.015494,-0.0118753258138895,0.0332710068623684));
#1181=CARTESIAN_POINT('',(0.,-0.0118753258138895,0.0462250068623684));
#1182=CARTESIAN_POINT('',(0.,-0.0118753258138895,0.0537180068623684));
#1183=CARTESIAN_POINT('',(-0.0236216952,-0.0118753258138895,0.0585351381136289));
#1184=CARTESIAN_POINT('',(-0.0236216952,-0.0118753258138895,0.0585351381136289));
#1185=CARTESIAN_POINT('',(0.0254,-0.0118753258138895,0.0585351381136289));
#1186=CARTESIAN_POINT('',(0.0236216952,-0.0118753258138895,0.0585351381136289));
#1187=CARTESIAN_POINT('',(0.0236216952,-0.0118753258138895,0.0417366595781501));
#1188=CARTESIAN_POINT('',(0.0254,-0.0139535078778863,0.0585351381136289));
#1189=CARTESIAN_POINT('',(-0.0236216952,-0.0160316899418831,0.0585351381136289));
#1190=CARTESIAN_POINT('',(-0.0236216952,-0.0142533851418831,0.0585351381136289));
#1191=CARTESIAN_POINT('',(0.0254,-0.0142533851418831,0.0585351381136289));
#1192=CARTESIAN_POINT('',(0.0236216952,-0.0142533851418831,0.0585351381136289));
#1193=CARTESIAN_POINT('',(0.0236216952,-0.0139535078778863,0.0585351381136289));
#1194=CARTESIAN_POINT('',(0.0254,-0.0160316899418831,0.0398069200879987));
#1195=CARTESIAN_POINT('',(-0.015494,-0.0160316899418831,0.0307310068623684));
#1196=CARTESIAN_POINT('',(-0.015494,-0.0160316899418831,0.0281910068623684));
#1197=CARTESIAN_POINT('',(0.015494,-0.0160316899418831,0.0307310068623684));
#1198=CARTESIAN_POINT('',(0.015494,-0.0160316899418831,0.0281910068623684));
#1199=CARTESIAN_POINT('',(0.,-0.0160316899418831,0.0462250068623684));
#1200=CARTESIAN_POINT('',(0.,-0.0160316899418831,0.0387320068623684));
#1201=CARTESIAN_POINT('',(0.0254,-0.0160316899418831,0.0567568333136289));
#1202=CARTESIAN_POINT('',(0.0236216952,-0.0160316899418831,0.0567568333136289));
#1203=CARTESIAN_POINT('',(-0.0236216952,-0.0160316899418831,0.0567568333136289));
#1204=CARTESIAN_POINT('',(-0.0236216952,-0.0160316899418831,0.0210787020623684));
#1205=CARTESIAN_POINT('',(-0.0236216952,-0.0160316899418831,0.0228570068623684));
#1206=CARTESIAN_POINT('',(0.0254,-0.0160316899418831,0.0228570068623684));
#1207=CARTESIAN_POINT('',(0.0236216952,-0.0160316899418831,0.0228570068623684));
#1208=CARTESIAN_POINT('',(0.0236216952,-0.0160316899418831,0.0398069200879987));
#1209=CARTESIAN_POINT('',(0.0254,-0.00801584497094154,0.0210787020623684));
#1210=CARTESIAN_POINT('',(0.0254,-0.0142533851418831,0.0210787020623684));
#1211=CARTESIAN_POINT('',(0.0236216952,-0.0142533851418831,0.0210787020623684));
#1212=CARTESIAN_POINT('',(-0.0236216952,-0.0142533851418831,0.0210787020623684));
#1213=CARTESIAN_POINT('',(-0.0236216952,0.,0.0210787020623684));
#1214=CARTESIAN_POINT('',(-0.0236216952,0.,0.0210787020623684));
#1215=CARTESIAN_POINT('',(0.0254,0.,0.0210787020623684));
#1216=CARTESIAN_POINT('',(0.0236216952,0.,0.0210787020623684));
#1217=CARTESIAN_POINT('',(0.0236216952,-0.00801584497094154,0.0210787020623684));
#1218=CARTESIAN_POINT('',(0.0254,0.,0.0105393510311842));
#1219=CARTESIAN_POINT('',(4.33680868994202E-18,0.,0.00837870206236839));
#1220=CARTESIAN_POINT('',(4.33680868994202E-18,0.,0.00710870206236839));
#1221=CARTESIAN_POINT('',(-0.0236216952,0.,0.));
#1222=CARTESIAN_POINT('',(-0.0236216952,0.,0.0017783048));
#1223=CARTESIAN_POINT('',(0.0254,0.,0.0017783048));
#1224=CARTESIAN_POINT('',(0.0236216952,0.,0.0017783048));
#1225=CARTESIAN_POINT('',(0.0236216952,0.,0.0105393510311842));
#1226=CARTESIAN_POINT('',(-0.0127,0.,0.00837870206236839));
#1227=CARTESIAN_POINT('',(-0.0127,0.,0.00621970206236839));
#1228=CARTESIAN_POINT('',(0.0127,0.,0.00837870206236839));
#1229=CARTESIAN_POINT('',(0.0127,0.,0.00621970206236839));
#1230=CARTESIAN_POINT('',(0.0254,0.00187606643885374,0.0292675690568144));
#1231=CARTESIAN_POINT('',(0.0254,0.0197838228195906,0.023024168088641));
#1232=CARTESIAN_POINT('',(0.0254,0.00356559107119222,0.023024168088641));
#1233=CARTESIAN_POINT('',(0.0254,0.0180055180195905,0.023024168088641));
#1234=CARTESIAN_POINT('',(0.0254,0.0180055180195905,0.0249381810426712));
#1235=CARTESIAN_POINT('',(0.0254,0.0180055180195905,0.0231598762426712));
#1236=CARTESIAN_POINT('',(0.0254,0.00187606643885374,0.0231598762426712));
#1237=CARTESIAN_POINT('',(0.0254,-0.0136536306138895,0.0231598762426712));
#1238=CARTESIAN_POINT('',(0.0254,-0.0136536306138895,0.0292675690568144));
#1239=CARTESIAN_POINT('',(0.0254,-0.0136536306138895,0.0567568333136289));
#1240=CARTESIAN_POINT('',(0.0254,0.00187606643885374,0.0567568333136289));
#1241=CARTESIAN_POINT('',(0.0254,-0.0142533851418831,0.0567568333136289));
#1242=CARTESIAN_POINT('',(0.0254,-0.0142533851418831,0.0292675690568144));
#1243=CARTESIAN_POINT('',(0.0254,-0.0142533851418831,0.0228570068623684));
#1244=CARTESIAN_POINT('',(0.0254,0.00187606643885374,0.0228570068623684));
#1245=CARTESIAN_POINT('',(0.0254,0.0017783048,0.0228570068623684));
#1246=CARTESIAN_POINT('',(0.0254,0.0017783048,0.0292675690568144));
#1247=CARTESIAN_POINT('',(0.0254,0.0017783048,0.0017783048));
#1248=CARTESIAN_POINT('',(0.0254,0.00187606643885374,0.0017783048));
#1249=CARTESIAN_POINT('',(0.0254,0.00356559107119222,0.0017783048));
#1250=CARTESIAN_POINT('',(0.0254,0.00356559107119222,0.0292675690568144));
#1251=CARTESIAN_POINT('',(-0.0254,0.00187606643885374,0.0292675690568144));
#1252=CARTESIAN_POINT('',(-0.0254,0.0197838228195906,0.0231598762426712));
#1253=CARTESIAN_POINT('',(-0.0254,-0.0136536306138895,0.0231598762426712));
#1254=CARTESIAN_POINT('',(-0.0254,0.0180055180195905,0.0231598762426712));
#1255=CARTESIAN_POINT('',(-0.0254,0.0180055180195905,0.0292675690568144));
#1256=CARTESIAN_POINT('',(-0.0254,0.0180055180195905,0.023024168088641));
#1257=CARTESIAN_POINT('',(-0.0254,0.00187606643885374,0.023024168088641));
#1258=CARTESIAN_POINT('',(-0.0254,0.00356559107119222,0.023024168088641));
#1259=CARTESIAN_POINT('',(-0.0254,0.00356559107119222,0.));
#1260=CARTESIAN_POINT('',(-0.0254,0.00356559107119222,0.0017783048));
#1261=CARTESIAN_POINT('',(-0.0254,0.,0.0017783048));
#1262=CARTESIAN_POINT('',(-0.0254,0.0017783048,0.0017783048));
#1263=CARTESIAN_POINT('',(-0.0254,0.0017783048,0.0210787020623684));
#1264=CARTESIAN_POINT('',(-0.0254,0.0017783048,0.0228570068623684));
#1265=CARTESIAN_POINT('',(-0.0254,-0.0160316899418831,0.0228570068623684));
#1266=CARTESIAN_POINT('',(-0.0254,-0.0142533851418831,0.0228570068623684));
#1267=CARTESIAN_POINT('',(-0.0254,-0.0142533851418831,0.0585351381136289));
#1268=CARTESIAN_POINT('',(-0.0254,-0.0142533851418831,0.0567568333136289));
#1269=CARTESIAN_POINT('',(-0.0254,-0.0118753258138895,0.0567568333136289));
#1270=CARTESIAN_POINT('',(-0.0254,-0.0136536306138895,0.0567568333136289));
#1271=CARTESIAN_POINT('',(-0.0254,-0.0136536306138895,0.0249381810426712));
#1272=CARTESIAN_POINT('',(0.0127,0.0254,0.00837870206236839));
#1273=CARTESIAN_POINT('',(-0.0127,0.0254,0.00837870206236839));
#1274=CARTESIAN_POINT('',(0.0254,0.00356559107119222,0.0017783048));
#1275=CARTESIAN_POINT('',(0.0236216952,0.00356559107119222,0.0017783048));
#1276=CARTESIAN_POINT('',(-0.0236216952,0.00356559107119222,0.0017783048));
#1277=CARTESIAN_POINT('',(0.0236216952,0.00356559107119222,0.0017783048));
#1278=CARTESIAN_POINT('',(0.0236216952,0.00356559107119222,0.0017783048));
#1279=CARTESIAN_POINT('',(0.0236216952,0.00356559107119222,0.0017783048));
#1280=CARTESIAN_POINT('',(-0.0236216952,0.00356559107119222,0.0017783048));
#1281=CARTESIAN_POINT('',(-0.0236216952,0.00356559107119222,0.0017783048));
#1282=CARTESIAN_POINT('',(-0.0236216952,0.00356559107119222,0.0017783048));
#1283=CARTESIAN_POINT('',(0.0236216952,0.00356559107119222,0.0106229316443205));
#1284=CARTESIAN_POINT('',(0.0236216952,0.00356559107119222,0.023024168088641));
#1285=CARTESIAN_POINT('',(0.0236216952,0.00267194793559611,0.0017783048));
#1286=CARTESIAN_POINT('',(0.0236216952,0.0017783048,0.0017783048));
#1287=CARTESIAN_POINT('',(0.0254,0.0017783048,0.0017783048));
#1288=CARTESIAN_POINT('',(-0.0236216952,0.0017783048,0.0017783048));
#1289=CARTESIAN_POINT('',(0.0236216952,0.0017783048,0.0017783048));
#1290=CARTESIAN_POINT('',(-0.0236216952,0.00187606643885374,0.0017783048));
#1291=CARTESIAN_POINT('',(-0.0236216952,0.0017783048,0.0017783048));
#1292=CARTESIAN_POINT('',(-0.0236216952,0.00356559107119222,0.0292675690568144));
#1293=CARTESIAN_POINT('',(-0.0236216952,0.00356559107119222,0.023024168088641));
#1294=CARTESIAN_POINT('',(0.0236216952,0.00187606643885374,0.023024168088641));
#1295=CARTESIAN_POINT('',(0.0236216952,0.0180055180195905,0.023024168088641));
#1296=CARTESIAN_POINT('',(0.0236216952,0.0017783048,0.0017783048));
#1297=CARTESIAN_POINT('',(0.0236216952,0.0017783048,0.0017783048));
#1298=CARTESIAN_POINT('',(-0.0236216952,0.0017783048,0.0017783048));
#1299=CARTESIAN_POINT('',(-0.0236216952,0.0017783048,0.0017783048));
#1300=CARTESIAN_POINT('',(-0.0236216952,0.0125638593453914,0.023024168088641));
#1301=CARTESIAN_POINT('',(-0.0236216952,0.0180055180195905,0.023024168088641));
#1302=CARTESIAN_POINT('',(0.0236216952,0.0180055180195905,0.0292675690568144));
#1303=CARTESIAN_POINT('',(0.0236216952,0.0180055180195905,0.0231598762426712));
#1304=CARTESIAN_POINT('',(0.0236216952,0.0017783048,0.0105393510311842));
#1305=CARTESIAN_POINT('',(0.0236216952,0.0017783048,0.0228570068623684));
#1306=CARTESIAN_POINT('',(-0.0236216952,0.0017783048,0.0292675690568144));
#1307=CARTESIAN_POINT('',(-0.0236216952,0.0017783048,0.0228570068623684));
#1308=CARTESIAN_POINT('',(-0.0236216952,0.0180055180195905,0.0230920221656561));
#1309=CARTESIAN_POINT('',(-0.0236216952,0.0180055180195905,0.0231598762426712));
#1310=CARTESIAN_POINT('',(0.0236216952,-0.00326571497134865,0.0231598762426712));
#1311=CARTESIAN_POINT('',(0.0236216952,-0.0136536306138895,0.0231598762426712));
#1312=CARTESIAN_POINT('',(0.0236216952,-0.00801584497094154,0.0228570068623684));
#1313=CARTESIAN_POINT('',(0.0236216952,-0.0142533851418831,0.0228570068623684));
#1314=CARTESIAN_POINT('',(0.0254,-0.0142533851418831,0.0228570068623684));
#1315=CARTESIAN_POINT('',(-0.0236216952,-0.0142533851418831,0.0228570068623684));
#1316=CARTESIAN_POINT('',(0.0236216952,-0.0142533851418831,0.0228570068623684));
#1317=CARTESIAN_POINT('',(-0.0236216952,0.00187606643885374,0.0228570068623684));
#1318=CARTESIAN_POINT('',(-0.0236216952,-0.0142533851418831,0.0228570068623684));
#1319=CARTESIAN_POINT('',(-0.0236216952,0.00187606643885374,0.0231598762426712));
#1320=CARTESIAN_POINT('',(-0.0236216952,-0.0136536306138895,0.0231598762426712));
#1321=CARTESIAN_POINT('',(0.0236216952,-0.0136536306138895,0.0417366595781501));
#1322=CARTESIAN_POINT('',(0.0236216952,-0.0136536306138895,0.0567568333136289));
#1323=CARTESIAN_POINT('',(0.0236216952,-0.0142533851418831,0.0228570068623684));
#1324=CARTESIAN_POINT('',(0.0236216952,-0.0142533851418831,0.0228570068623684));
#1325=CARTESIAN_POINT('',(-0.0236216952,-0.0142533851418831,0.0228570068623684));
#1326=CARTESIAN_POINT('',(-0.0236216952,-0.0142533851418831,0.0228570068623684));
#1327=CARTESIAN_POINT('',(-0.0236216952,-0.0136536306138895,0.0292675690568144));
#1328=CARTESIAN_POINT('',(-0.0236216952,-0.0136536306138895,0.0567568333136289));
#1329=CARTESIAN_POINT('',(0.0236216952,-0.0139535078778863,0.0567568333136289));
#1330=CARTESIAN_POINT('',(0.0236216952,-0.0142533851418831,0.0567568333136289));
#1331=CARTESIAN_POINT('',(0.0236216952,-0.0142533851418831,0.0398069200879987));
#1332=CARTESIAN_POINT('',(0.0236216952,-0.0142533851418831,0.0567568333136289));
#1333=CARTESIAN_POINT('',(-0.0236216952,-0.0142533851418831,0.0292675690568144));
#1334=CARTESIAN_POINT('',(-0.0236216952,-0.0142533851418831,0.0567568333136289));
#1335=CARTESIAN_POINT('',(-0.0236216952,0.00187606643885374,0.0567568333136289));
#1336=CARTESIAN_POINT('',(-0.0236216952,-0.0142533851418831,0.0567568333136289));
#1337=CARTESIAN_POINT('',(0.0236216952,-0.0142533851418831,0.0567568333136289));
#1338=CARTESIAN_POINT('',(0.0236216952,-0.0142533851418831,0.0567568333136289));
#1339=CARTESIAN_POINT('',(-0.0236216952,-0.0142533851418831,0.0567568333136289));
#1340=CARTESIAN_POINT('',(-0.0236216952,-0.0142533851418831,0.0567568333136289));
#1341=CARTESIAN_POINT('',(0.0254,-0.0142533851418831,0.0567568333136289));
#1342=CARTESIAN_POINT('',(4.33680868994202E-18,0.0254,0.00837870206236839));
#1343=CARTESIAN_POINT('',(0.,0.00936831005811692,0.0462250068623684));
#1344=CARTESIAN_POINT('',(0.015494,0.00936831005811692,0.0307310068623684));
#1345=CARTESIAN_POINT('',(-0.015494,0.00936831005811692,0.0307310068623684));
#1346=MECHANICAL_DESIGN_GEOMETRIC_PRESENTATION_REPRESENTATION('',(#771),
#1347);
#1347=(
GEOMETRIC_REPRESENTATION_CONTEXT(3)
GLOBAL_UNCERTAINTY_ASSIGNED_CONTEXT((#1348))
GLOBAL_UNIT_ASSIGNED_CONTEXT((#1351,#1350,#1349))
REPRESENTATION_CONTEXT('perpduclar holding bracket',
'TOP_LEVEL_ASSEMBLY_PART')
);
#1348=UNCERTAINTY_MEASURE_WITH_UNIT(LENGTH_MEASURE(1.E-8),#1351,
'DISTANCE_ACCURACY_VALUE','Maximum Tolerance applied to model');
#1349=(
NAMED_UNIT(*)
SI_UNIT($,.STERADIAN.)
SOLID_ANGLE_UNIT()
);
#1350=(
NAMED_UNIT(*)
PLANE_ANGLE_UNIT()
SI_UNIT($,.RADIAN.)
);
#1351=(
LENGTH_UNIT()
NAMED_UNIT(*)
SI_UNIT($,.METRE.)
);
#1352=PRODUCT_DEFINITION_SHAPE('','',#1353);
#1353=PRODUCT_DEFINITION('','',#1355,#1354);
#1354=PRODUCT_DEFINITION_CONTEXT('',#1361,'design');
#1355=PRODUCT_DEFINITION_FORMATION_WITH_SPECIFIED_SOURCE('','',#1357,
 .NOT_KNOWN.);
#1356=PRODUCT_RELATED_PRODUCT_CATEGORY('','',(#1357));
#1357=PRODUCT('perpduclar holding bracket','perpduclar holding bracket',
'perpduclar holding bracket',(#1359));
#1358=PRODUCT_CATEGORY('','');
#1359=PRODUCT_CONTEXT('',#1361,'mechanical');
#1360=APPLICATION_PROTOCOL_DEFINITION('international standard',
'ap242_managed_model_based_3d_engineering',2020,#1361);
#1361=APPLICATION_CONTEXT('managed model based 3d engineering');
ENDSEC;
END-ISO-10303-21;
