ISO-10303-21;
HEADER;
/* Generated by software containing ST-Developer
 * from STEP Tools, Inc. (www.steptools.com) 
 */
/* OPTION: using custom renumber hook */

FILE_DESCRIPTION(
/* description */ ('STEP AP242 Edition 2',
'CAx-IF Rec.Pracs.---Representation and Presentation of Product Manufa
cturing Information (PMI)---4.0---2014-10-13',
'CAx-IF Rec.Pracs.---3D Tessellated Geometry---0.4---2014-09-14','2;1',
'CAx-IF Rec.Pracs.---User Defined Attributes---1.5---2016-08-15'),
/* implementation_level */ '2;1');

FILE_NAME(
/* name */ 'used side holder',
/* time_stamp */ '2026-08-14T04:18:40Z',
/* author */ (''),
/* organization */ (''),
/* preprocessor_version */ 'ST-DEVELOPER v20',
/* originating_system */ 'ONSHAPE BY PTC INC, 1.219',
/* authorisation */ '  ');

FILE_SCHEMA (('AP242_MANAGED_MODEL_BASED_3D_ENGINEERING_MIM_LF { 1 0 10303 442 3 1 4 }'));
ENDSEC;

DATA;
#10=SHAPE_REPRESENTATION_RELATIONSHIP('','',#657,#11);
#11=ADVANCED_BREP_SHAPE_REPRESENTATION('',(#655),#1101);
#12=(
BOUNDED_SURFACE()
B_SPLINE_SURFACE(3,2,((#1068,#1069,#1070),(#1071,#1072,#1073),(#1074,#1075,
#1076),(#1077,#1078,#1079),(#1080,#1081,#1082),(#1083,#1084,#1085),(#1086,
#1087,#1088)),.UNSPECIFIED.,.F.,.F.,.F.)
B_SPLINE_SURFACE_WITH_KNOTS((4,1,1,1,4),(3,3),(6.28318530717959,6.67588438887831,
7.06858347057703,7.46128255227576,7.85398163397448),(0.,1.),
 .UNSPECIFIED.)
GEOMETRIC_REPRESENTATION_ITEM()
RATIONAL_B_SPLINE_SURFACE(((1.,0.707106781186548,1.),(1.,0.707106786806203,
1.),(1.,0.746571858238963,1.),(1.,0.86902903504594,1.),(1.,0.973464424283904,
1.),(1.,0.999999999498225,1.),(1.,1.,1.)))
REPRESENTATION_ITEM('')
SURFACE()
);
#13=ELLIPSE('',#687,0.0029485148324654,0.0020849148324654);
#14=ELLIPSE('',#688,0.0029485148324654,0.0020849148324654);
#15=ELLIPSE('',#690,0.0029485148324654,0.0020849148324654);
#16=ELLIPSE('',#692,0.00210733873872457,0.0020849148324654);
#17=ELLIPSE('',#694,0.0029485148324654,0.0020849148324654);
#18=ELLIPSE('',#696,0.00210733873872457,0.0020849148324654);
#19=ELLIPSE('',#697,0.0029485148324654,0.0020849148324654);
#20=ELLIPSE('',#699,0.0029485148324654,0.0020849148324654);
#21=ELLIPSE('',#701,0.0029485148324654,0.0020849148324654);
#22=ELLIPSE('',#704,0.00251490971004402,0.00177830971004402);
#23=ELLIPSE('',#707,0.00251490971004402,0.00177830971004402);
#24=ELLIPSE('',#709,0.00251490971004402,0.00177830971004402);
#25=ELLIPSE('',#712,0.00251490971004402,0.00177830971004402);
#26=CYLINDRICAL_SURFACE('',#686,0.0020849148324654);
#27=CYLINDRICAL_SURFACE('',#689,0.0020849148324654);
#28=CYLINDRICAL_SURFACE('',#691,0.0020849148324654);
#29=CYLINDRICAL_SURFACE('',#693,0.0020849148324654);
#30=CYLINDRICAL_SURFACE('',#695,0.0020849148324654);
#31=CYLINDRICAL_SURFACE('',#698,0.0020849148324654);
#32=CYLINDRICAL_SURFACE('',#700,0.0020849148324654);
#33=CYLINDRICAL_SURFACE('',#702,0.0020849148324654);
#34=CYLINDRICAL_SURFACE('',#703,0.00177830971004402);
#35=CYLINDRICAL_SURFACE('',#706,0.00177830971004402);
#36=CYLINDRICAL_SURFACE('',#708,0.00177830971004402);
#37=CYLINDRICAL_SURFACE('',#710,0.00177830971004402);
#38=CYLINDRICAL_SURFACE('',#711,0.00177830971004402);
#39=CYLINDRICAL_SURFACE('',#713,0.00177830971004402);
#40=CYLINDRICAL_SURFACE('',#714,0.002032);
#41=CYLINDRICAL_SURFACE('',#715,0.002032);
#42=CIRCLE('',#660,0.00177830971004402);
#43=CIRCLE('',#663,0.002032);
#44=CIRCLE('',#667,0.002032);
#45=CIRCLE('',#670,0.002032);
#46=CIRCLE('',#672,0.00177830971004402);
#47=CIRCLE('',#676,0.00177830971004402);
#48=CIRCLE('',#682,0.002032);
#49=CIRCLE('',#705,0.00177830971004402);
#50=ORIENTED_EDGE('',*,*,#226,.T.);
#51=ORIENTED_EDGE('',*,*,#227,.T.);
#52=ORIENTED_EDGE('',*,*,#228,.T.);
#53=ORIENTED_EDGE('',*,*,#229,.F.);
#54=ORIENTED_EDGE('',*,*,#230,.T.);
#55=ORIENTED_EDGE('',*,*,#231,.T.);
#56=ORIENTED_EDGE('',*,*,#232,.F.);
#57=ORIENTED_EDGE('',*,*,#233,.T.);
#58=ORIENTED_EDGE('',*,*,#234,.T.);
#59=ORIENTED_EDGE('',*,*,#235,.T.);
#60=ORIENTED_EDGE('',*,*,#236,.T.);
#61=ORIENTED_EDGE('',*,*,#237,.T.);
#62=ORIENTED_EDGE('',*,*,#238,.T.);
#63=ORIENTED_EDGE('',*,*,#239,.T.);
#64=ORIENTED_EDGE('',*,*,#240,.T.);
#65=ORIENTED_EDGE('',*,*,#241,.F.);
#66=ORIENTED_EDGE('',*,*,#232,.T.);
#67=ORIENTED_EDGE('',*,*,#242,.T.);
#68=ORIENTED_EDGE('',*,*,#243,.F.);
#69=ORIENTED_EDGE('',*,*,#244,.T.);
#70=ORIENTED_EDGE('',*,*,#245,.F.);
#71=ORIENTED_EDGE('',*,*,#246,.T.);
#72=ORIENTED_EDGE('',*,*,#245,.T.);
#73=ORIENTED_EDGE('',*,*,#247,.T.);
#74=ORIENTED_EDGE('',*,*,#248,.F.);
#75=ORIENTED_EDGE('',*,*,#249,.F.);
#76=ORIENTED_EDGE('',*,*,#250,.F.);
#77=ORIENTED_EDGE('',*,*,#251,.F.);
#78=ORIENTED_EDGE('',*,*,#252,.T.);
#79=ORIENTED_EDGE('',*,*,#248,.T.);
#80=ORIENTED_EDGE('',*,*,#253,.T.);
#81=ORIENTED_EDGE('',*,*,#243,.T.);
#82=ORIENTED_EDGE('',*,*,#254,.T.);
#83=ORIENTED_EDGE('',*,*,#255,.F.);
#84=ORIENTED_EDGE('',*,*,#256,.F.);
#85=ORIENTED_EDGE('',*,*,#251,.T.);
#86=ORIENTED_EDGE('',*,*,#257,.F.);
#87=ORIENTED_EDGE('',*,*,#255,.T.);
#88=ORIENTED_EDGE('',*,*,#258,.T.);
#89=ORIENTED_EDGE('',*,*,#259,.F.);
#90=ORIENTED_EDGE('',*,*,#260,.F.);
#91=ORIENTED_EDGE('',*,*,#261,.F.);
#92=ORIENTED_EDGE('',*,*,#262,.T.);
#93=ORIENTED_EDGE('',*,*,#263,.T.);
#94=ORIENTED_EDGE('',*,*,#264,.T.);
#95=ORIENTED_EDGE('',*,*,#265,.T.);
#96=ORIENTED_EDGE('',*,*,#266,.F.);
#97=ORIENTED_EDGE('',*,*,#267,.T.);
#98=ORIENTED_EDGE('',*,*,#259,.T.);
#99=ORIENTED_EDGE('',*,*,#268,.T.);
#100=ORIENTED_EDGE('',*,*,#269,.F.);
#101=ORIENTED_EDGE('',*,*,#270,.T.);
#102=ORIENTED_EDGE('',*,*,#271,.F.);
#103=ORIENTED_EDGE('',*,*,#266,.T.);
#104=ORIENTED_EDGE('',*,*,#272,.T.);
#105=ORIENTED_EDGE('',*,*,#273,.F.);
#106=ORIENTED_EDGE('',*,*,#274,.T.);
#107=ORIENTED_EDGE('',*,*,#269,.T.);
#108=ORIENTED_EDGE('',*,*,#275,.F.);
#109=ORIENTED_EDGE('',*,*,#264,.F.);
#110=ORIENTED_EDGE('',*,*,#276,.T.);
#111=ORIENTED_EDGE('',*,*,#273,.T.);
#112=ORIENTED_EDGE('',*,*,#277,.F.);
#113=ORIENTED_EDGE('',*,*,#278,.T.);
#114=ORIENTED_EDGE('',*,*,#279,.T.);
#115=ORIENTED_EDGE('',*,*,#280,.T.);
#116=ORIENTED_EDGE('',*,*,#281,.F.);
#117=ORIENTED_EDGE('',*,*,#282,.F.);
#118=ORIENTED_EDGE('',*,*,#283,.T.);
#119=ORIENTED_EDGE('',*,*,#284,.F.);
#120=ORIENTED_EDGE('',*,*,#285,.T.);
#121=ORIENTED_EDGE('',*,*,#282,.T.);
#122=ORIENTED_EDGE('',*,*,#286,.T.);
#123=ORIENTED_EDGE('',*,*,#228,.F.);
#124=ORIENTED_EDGE('',*,*,#287,.T.);
#125=ORIENTED_EDGE('',*,*,#284,.T.);
#126=ORIENTED_EDGE('',*,*,#288,.F.);
#127=ORIENTED_EDGE('',*,*,#289,.T.);
#128=ORIENTED_EDGE('',*,*,#290,.T.);
#129=ORIENTED_EDGE('',*,*,#278,.F.);
#130=ORIENTED_EDGE('',*,*,#291,.T.);
#131=ORIENTED_EDGE('',*,*,#292,.T.);
#132=ORIENTED_EDGE('',*,*,#226,.F.);
#133=ORIENTED_EDGE('',*,*,#246,.F.);
#134=ORIENTED_EDGE('',*,*,#249,.T.);
#135=ORIENTED_EDGE('',*,*,#252,.F.);
#136=ORIENTED_EDGE('',*,*,#256,.T.);
#137=ORIENTED_EDGE('',*,*,#260,.T.);
#138=ORIENTED_EDGE('',*,*,#267,.F.);
#139=ORIENTED_EDGE('',*,*,#271,.T.);
#140=ORIENTED_EDGE('',*,*,#293,.T.);
#141=ORIENTED_EDGE('',*,*,#281,.T.);
#142=ORIENTED_EDGE('',*,*,#294,.T.);
#143=ORIENTED_EDGE('',*,*,#295,.F.);
#144=ORIENTED_EDGE('',*,*,#296,.T.);
#145=ORIENTED_EDGE('',*,*,#297,.F.);
#146=ORIENTED_EDGE('',*,*,#295,.T.);
#147=ORIENTED_EDGE('',*,*,#298,.T.);
#148=ORIENTED_EDGE('',*,*,#230,.F.);
#149=ORIENTED_EDGE('',*,*,#299,.F.);
#150=ORIENTED_EDGE('',*,*,#299,.T.);
#151=ORIENTED_EDGE('',*,*,#229,.T.);
#152=ORIENTED_EDGE('',*,*,#288,.T.);
#153=ORIENTED_EDGE('',*,*,#286,.F.);
#154=ORIENTED_EDGE('',*,*,#296,.F.);
#155=ORIENTED_EDGE('',*,*,#277,.T.);
#156=ORIENTED_EDGE('',*,*,#275,.T.);
#157=ORIENTED_EDGE('',*,*,#272,.F.);
#158=ORIENTED_EDGE('',*,*,#265,.F.);
#159=ORIENTED_EDGE('',*,*,#250,.T.);
#160=ORIENTED_EDGE('',*,*,#247,.F.);
#161=ORIENTED_EDGE('',*,*,#244,.F.);
#162=ORIENTED_EDGE('',*,*,#257,.T.);
#163=ORIENTED_EDGE('',*,*,#300,.F.);
#164=ORIENTED_EDGE('',*,*,#236,.F.);
#165=ORIENTED_EDGE('',*,*,#301,.F.);
#166=ORIENTED_EDGE('',*,*,#294,.F.);
#167=ORIENTED_EDGE('',*,*,#301,.T.);
#168=ORIENTED_EDGE('',*,*,#235,.F.);
#169=ORIENTED_EDGE('',*,*,#302,.F.);
#170=ORIENTED_EDGE('',*,*,#298,.F.);
#171=ORIENTED_EDGE('',*,*,#280,.F.);
#172=ORIENTED_EDGE('',*,*,#303,.T.);
#173=ORIENTED_EDGE('',*,*,#237,.F.);
#174=ORIENTED_EDGE('',*,*,#300,.T.);
#175=ORIENTED_EDGE('',*,*,#302,.T.);
#176=ORIENTED_EDGE('',*,*,#234,.F.);
#177=ORIENTED_EDGE('',*,*,#304,.F.);
#178=ORIENTED_EDGE('',*,*,#231,.F.);
#179=ORIENTED_EDGE('',*,*,#238,.F.);
#180=ORIENTED_EDGE('',*,*,#305,.T.);
#181=ORIENTED_EDGE('',*,*,#268,.F.);
#182=ORIENTED_EDGE('',*,*,#306,.F.);
#183=ORIENTED_EDGE('',*,*,#304,.T.);
#184=ORIENTED_EDGE('',*,*,#233,.F.);
#185=ORIENTED_EDGE('',*,*,#307,.F.);
#186=ORIENTED_EDGE('',*,*,#242,.F.);
#187=ORIENTED_EDGE('',*,*,#306,.T.);
#188=ORIENTED_EDGE('',*,*,#258,.F.);
#189=ORIENTED_EDGE('',*,*,#308,.F.);
#190=ORIENTED_EDGE('',*,*,#239,.F.);
#191=ORIENTED_EDGE('',*,*,#307,.T.);
#192=ORIENTED_EDGE('',*,*,#240,.F.);
#193=ORIENTED_EDGE('',*,*,#308,.T.);
#194=ORIENTED_EDGE('',*,*,#254,.F.);
#195=ORIENTED_EDGE('',*,*,#270,.F.);
#196=ORIENTED_EDGE('',*,*,#274,.F.);
#197=ORIENTED_EDGE('',*,*,#309,.F.);
#198=ORIENTED_EDGE('',*,*,#293,.F.);
#199=ORIENTED_EDGE('',*,*,#305,.F.);
#200=ORIENTED_EDGE('',*,*,#303,.F.);
#201=ORIENTED_EDGE('',*,*,#310,.F.);
#202=ORIENTED_EDGE('',*,*,#309,.T.);
#203=ORIENTED_EDGE('',*,*,#276,.F.);
#204=ORIENTED_EDGE('',*,*,#311,.F.);
#205=ORIENTED_EDGE('',*,*,#289,.F.);
#206=ORIENTED_EDGE('',*,*,#310,.T.);
#207=ORIENTED_EDGE('',*,*,#279,.F.);
#208=ORIENTED_EDGE('',*,*,#312,.F.);
#209=ORIENTED_EDGE('',*,*,#262,.F.);
#210=ORIENTED_EDGE('',*,*,#311,.T.);
#211=ORIENTED_EDGE('',*,*,#263,.F.);
#212=ORIENTED_EDGE('',*,*,#312,.T.);
#213=ORIENTED_EDGE('',*,*,#290,.F.);
#214=ORIENTED_EDGE('',*,*,#227,.F.);
#215=ORIENTED_EDGE('',*,*,#292,.F.);
#216=ORIENTED_EDGE('',*,*,#313,.F.);
#217=ORIENTED_EDGE('',*,*,#287,.F.);
#218=ORIENTED_EDGE('',*,*,#283,.F.);
#219=ORIENTED_EDGE('',*,*,#285,.F.);
#220=ORIENTED_EDGE('',*,*,#313,.T.);
#221=ORIENTED_EDGE('',*,*,#291,.F.);
#222=ORIENTED_EDGE('',*,*,#261,.T.);
#223=ORIENTED_EDGE('',*,*,#253,.F.);
#224=ORIENTED_EDGE('',*,*,#241,.T.);
#225=ORIENTED_EDGE('',*,*,#297,.T.);
#226=EDGE_CURVE('',#314,#315,#369,.T.);
#227=EDGE_CURVE('',#315,#316,#42,.T.);
#228=EDGE_CURVE('',#316,#317,#370,.T.);
#229=EDGE_CURVE('',#318,#317,#371,.T.);
#230=EDGE_CURVE('',#318,#319,#372,.T.);
#231=EDGE_CURVE('',#319,#320,#373,.F.);
#232=EDGE_CURVE('',#314,#320,#374,.T.);
#233=EDGE_CURVE('',#321,#322,#375,.T.);
#234=EDGE_CURVE('',#322,#323,#376,.T.);
#235=EDGE_CURVE('',#323,#324,#377,.F.);
#236=EDGE_CURVE('',#324,#325,#378,.T.);
#237=EDGE_CURVE('',#325,#326,#379,.T.);
#238=EDGE_CURVE('',#326,#327,#380,.T.);
#239=EDGE_CURVE('',#327,#328,#381,.F.);
#240=EDGE_CURVE('',#328,#321,#382,.F.);
#241=EDGE_CURVE('',#329,#329,#43,.T.);
#242=EDGE_CURVE('',#320,#330,#383,.F.);
#243=EDGE_CURVE('',#331,#330,#384,.T.);
#244=EDGE_CURVE('',#331,#332,#385,.T.);
#245=EDGE_CURVE('',#333,#332,#386,.T.);
#246=EDGE_CURVE('',#333,#314,#387,.T.);
#247=EDGE_CURVE('',#332,#334,#388,.T.);
#248=EDGE_CURVE('',#335,#334,#389,.T.);
#249=EDGE_CURVE('',#333,#335,#390,.T.);
#250=EDGE_CURVE('',#336,#334,#391,.T.);
#251=EDGE_CURVE('',#337,#336,#392,.T.);
#252=EDGE_CURVE('',#337,#335,#393,.T.);
#253=EDGE_CURVE('',#338,#338,#44,.T.);
#254=EDGE_CURVE('',#330,#339,#394,.T.);
#255=EDGE_CURVE('',#340,#339,#395,.T.);
#256=EDGE_CURVE('',#337,#340,#396,.T.);
#257=EDGE_CURVE('',#331,#336,#397,.T.);
#258=EDGE_CURVE('',#339,#341,#398,.T.);
#259=EDGE_CURVE('',#342,#341,#399,.T.);
#260=EDGE_CURVE('',#340,#342,#400,.T.);
#261=EDGE_CURVE('',#343,#343,#45,.T.);
#262=EDGE_CURVE('',#344,#345,#401,.F.);
#263=EDGE_CURVE('',#345,#346,#402,.F.);
#264=EDGE_CURVE('',#346,#347,#403,.T.);
#265=EDGE_CURVE('',#347,#348,#404,.T.);
#266=EDGE_CURVE('',#349,#348,#405,.T.);
#267=EDGE_CURVE('',#349,#342,#406,.T.);
#268=EDGE_CURVE('',#341,#344,#407,.F.);
#269=EDGE_CURVE('',#350,#351,#408,.T.);
#270=EDGE_CURVE('',#350,#352,#46,.F.);
#271=EDGE_CURVE('',#349,#352,#409,.T.);
#272=EDGE_CURVE('',#348,#351,#410,.T.);
#273=EDGE_CURVE('',#353,#354,#411,.T.);
#274=EDGE_CURVE('',#353,#350,#412,.T.);
#275=EDGE_CURVE('',#354,#351,#413,.T.);
#276=EDGE_CURVE('',#346,#353,#414,.T.);
#277=EDGE_CURVE('',#347,#354,#415,.T.);
#278=EDGE_CURVE('',#355,#356,#416,.T.);
#279=EDGE_CURVE('',#356,#357,#417,.T.);
#280=EDGE_CURVE('',#357,#358,#418,.F.);
#281=EDGE_CURVE('',#359,#358,#419,.T.);
#282=EDGE_CURVE('',#360,#359,#420,.T.);
#283=EDGE_CURVE('',#360,#355,#47,.F.);
#284=EDGE_CURVE('',#361,#362,#421,.T.);
#285=EDGE_CURVE('',#361,#360,#422,.F.);
#286=EDGE_CURVE('',#359,#362,#423,.T.);
#287=EDGE_CURVE('',#316,#361,#424,.T.);
#288=EDGE_CURVE('',#317,#362,#425,.T.);
#289=EDGE_CURVE('',#363,#364,#426,.F.);
#290=EDGE_CURVE('',#364,#356,#427,.T.);
#291=EDGE_CURVE('',#355,#365,#428,.T.);
#292=EDGE_CURVE('',#365,#315,#429,.F.);
#293=EDGE_CURVE('',#352,#363,#430,.F.);
#294=EDGE_CURVE('',#358,#366,#431,.F.);
#295=EDGE_CURVE('',#367,#366,#432,.T.);
#296=EDGE_CURVE('',#367,#359,#433,.T.);
#297=EDGE_CURVE('',#368,#368,#48,.T.);
#298=EDGE_CURVE('',#366,#319,#434,.T.);
#299=EDGE_CURVE('',#367,#318,#435,.T.);
#300=EDGE_CURVE('',#325,#358,#13,.F.);
#301=EDGE_CURVE('',#366,#324,#14,.T.);
#302=EDGE_CURVE('',#319,#323,#15,.T.);
#303=EDGE_CURVE('',#357,#326,#16,.F.);
#304=EDGE_CURVE('',#320,#322,#17,.T.);
#305=EDGE_CURVE('',#326,#344,#18,.T.);
#306=EDGE_CURVE('',#327,#341,#19,.F.);
#307=EDGE_CURVE('',#330,#321,#20,.T.);
#308=EDGE_CURVE('',#328,#339,#21,.F.);
#309=EDGE_CURVE('',#363,#353,#22,.F.);
#310=EDGE_CURVE('',#344,#357,#49,.T.);
#311=EDGE_CURVE('',#364,#346,#23,.T.);
#312=EDGE_CURVE('',#345,#356,#24,.F.);
#313=EDGE_CURVE('',#361,#365,#25,.T.);
#314=VERTEX_POINT('',#902);
#315=VERTEX_POINT('',#903);
#316=VERTEX_POINT('',#905);
#317=VERTEX_POINT('',#907);
#318=VERTEX_POINT('',#909);
#319=VERTEX_POINT('',#911);
#320=VERTEX_POINT('',#913);
#321=VERTEX_POINT('',#917);
#322=VERTEX_POINT('',#918);
#323=VERTEX_POINT('',#920);
#324=VERTEX_POINT('',#922);
#325=VERTEX_POINT('',#924);
#326=VERTEX_POINT('',#926);
#327=VERTEX_POINT('',#928);
#328=VERTEX_POINT('',#930);
#329=VERTEX_POINT('',#934);
#330=VERTEX_POINT('',#936);
#331=VERTEX_POINT('',#938);
#332=VERTEX_POINT('',#940);
#333=VERTEX_POINT('',#942);
#334=VERTEX_POINT('',#946);
#335=VERTEX_POINT('',#948);
#336=VERTEX_POINT('',#952);
#337=VERTEX_POINT('',#954);
#338=VERTEX_POINT('',#958);
#339=VERTEX_POINT('',#960);
#340=VERTEX_POINT('',#962);
#341=VERTEX_POINT('',#967);
#342=VERTEX_POINT('',#969);
#343=VERTEX_POINT('',#973);
#344=VERTEX_POINT('',#975);
#345=VERTEX_POINT('',#976);
#346=VERTEX_POINT('',#978);
#347=VERTEX_POINT('',#980);
#348=VERTEX_POINT('',#982);
#349=VERTEX_POINT('',#984);
#350=VERTEX_POINT('',#989);
#351=VERTEX_POINT('',#990);
#352=VERTEX_POINT('',#992);
#353=VERTEX_POINT('',#997);
#354=VERTEX_POINT('',#998);
#355=VERTEX_POINT('',#1006);
#356=VERTEX_POINT('',#1007);
#357=VERTEX_POINT('',#1009);
#358=VERTEX_POINT('',#1011);
#359=VERTEX_POINT('',#1013);
#360=VERTEX_POINT('',#1015);
#361=VERTEX_POINT('',#1019);
#362=VERTEX_POINT('',#1020);
#363=VERTEX_POINT('',#1028);
#364=VERTEX_POINT('',#1029);
#365=VERTEX_POINT('',#1032);
#366=VERTEX_POINT('',#1037);
#367=VERTEX_POINT('',#1039);
#368=VERTEX_POINT('',#1043);
#369=LINE('',#901,#436);
#370=LINE('',#906,#437);
#371=LINE('',#908,#438);
#372=LINE('',#910,#439);
#373=LINE('',#912,#440);
#374=LINE('',#914,#441);
#375=LINE('',#916,#442);
#376=LINE('',#919,#443);
#377=LINE('',#921,#444);
#378=LINE('',#923,#445);
#379=LINE('',#925,#446);
#380=LINE('',#927,#447);
#381=LINE('',#929,#448);
#382=LINE('',#931,#449);
#383=LINE('',#935,#450);
#384=LINE('',#937,#451);
#385=LINE('',#939,#452);
#386=LINE('',#941,#453);
#387=LINE('',#943,#454);
#388=LINE('',#945,#455);
#389=LINE('',#947,#456);
#390=LINE('',#949,#457);
#391=LINE('',#951,#458);
#392=LINE('',#953,#459);
#393=LINE('',#955,#460);
#394=LINE('',#959,#461);
#395=LINE('',#961,#462);
#396=LINE('',#963,#463);
#397=LINE('',#964,#464);
#398=LINE('',#966,#465);
#399=LINE('',#968,#466);
#400=LINE('',#970,#467);
#401=LINE('',#974,#468);
#402=LINE('',#977,#469);
#403=LINE('',#979,#470);
#404=LINE('',#981,#471);
#405=LINE('',#983,#472);
#406=LINE('',#985,#473);
#407=LINE('',#986,#474);
#408=LINE('',#988,#475);
#409=LINE('',#993,#476);
#410=LINE('',#994,#477);
#411=LINE('',#996,#478);
#412=LINE('',#999,#479);
#413=LINE('',#1000,#480);
#414=LINE('',#1002,#481);
#415=LINE('',#1003,#482);
#416=LINE('',#1005,#483);
#417=LINE('',#1008,#484);
#418=LINE('',#1010,#485);
#419=LINE('',#1012,#486);
#420=LINE('',#1014,#487);
#421=LINE('',#1018,#488);
#422=LINE('',#1021,#489);
#423=LINE('',#1022,#490);
#424=LINE('',#1024,#491);
#425=LINE('',#1025,#492);
#426=LINE('',#1027,#493);
#427=LINE('',#1030,#494);
#428=LINE('',#1031,#495);
#429=LINE('',#1033,#496);
#430=LINE('',#1034,#497);
#431=LINE('',#1036,#498);
#432=LINE('',#1038,#499);
#433=LINE('',#1040,#500);
#434=LINE('',#1044,#501);
#435=LINE('',#1045,#502);
#436=VECTOR('',#720,1.);
#437=VECTOR('',#723,1.);
#438=VECTOR('',#724,1.);
#439=VECTOR('',#725,1.);
#440=VECTOR('',#726,1.);
#441=VECTOR('',#727,1.);
#442=VECTOR('',#730,1.);
#443=VECTOR('',#731,1.);
#444=VECTOR('',#732,1.);
#445=VECTOR('',#733,1.);
#446=VECTOR('',#734,1.);
#447=VECTOR('',#735,1.);
#448=VECTOR('',#736,1.);
#449=VECTOR('',#737,1.);
#450=VECTOR('',#742,1.);
#451=VECTOR('',#743,1.);
#452=VECTOR('',#744,1.);
#453=VECTOR('',#745,1.);
#454=VECTOR('',#746,1.);
#455=VECTOR('',#749,1.);
#456=VECTOR('',#750,1.);
#457=VECTOR('',#751,1.);
#458=VECTOR('',#754,1.);
#459=VECTOR('',#755,1.);
#460=VECTOR('',#756,1.);
#461=VECTOR('',#761,1.);
#462=VECTOR('',#762,1.);
#463=VECTOR('',#763,1.);
#464=VECTOR('',#764,1.);
#465=VECTOR('',#767,1.);
#466=VECTOR('',#768,1.);
#467=VECTOR('',#769,1.);
#468=VECTOR('',#774,1.);
#469=VECTOR('',#775,1.);
#470=VECTOR('',#776,1.);
#471=VECTOR('',#777,1.);
#472=VECTOR('',#778,1.);
#473=VECTOR('',#779,1.);
#474=VECTOR('',#780,1.);
#475=VECTOR('',#783,1.);
#476=VECTOR('',#786,1.);
#477=VECTOR('',#787,1.);
#478=VECTOR('',#790,1.);
#479=VECTOR('',#791,1.);
#480=VECTOR('',#792,1.);
#481=VECTOR('',#795,1.);
#482=VECTOR('',#796,1.);
#483=VECTOR('',#799,1.);
#484=VECTOR('',#800,1.);
#485=VECTOR('',#801,1.);
#486=VECTOR('',#802,1.);
#487=VECTOR('',#803,1.);
#488=VECTOR('',#808,1.);
#489=VECTOR('',#809,1.);
#490=VECTOR('',#810,1.);
#491=VECTOR('',#813,1.);
#492=VECTOR('',#814,1.);
#493=VECTOR('',#817,1.);
#494=VECTOR('',#818,1.);
#495=VECTOR('',#819,1.);
#496=VECTOR('',#820,1.);
#497=VECTOR('',#821,1.);
#498=VECTOR('',#824,1.);
#499=VECTOR('',#825,1.);
#500=VECTOR('',#826,1.);
#501=VECTOR('',#831,1.);
#502=VECTOR('',#832,1.);
#503=EDGE_LOOP('',(#50,#51,#52,#53,#54,#55,#56));
#504=EDGE_LOOP('',(#57,#58,#59,#60,#61,#62,#63,#64));
#505=EDGE_LOOP('',(#65));
#506=EDGE_LOOP('',(#66,#67,#68,#69,#70,#71));
#507=EDGE_LOOP('',(#72,#73,#74,#75));
#508=EDGE_LOOP('',(#76,#77,#78,#79));
#509=EDGE_LOOP('',(#80));
#510=EDGE_LOOP('',(#81,#82,#83,#84,#85,#86));
#511=EDGE_LOOP('',(#87,#88,#89,#90));
#512=EDGE_LOOP('',(#91));
#513=EDGE_LOOP('',(#92,#93,#94,#95,#96,#97,#98,#99));
#514=EDGE_LOOP('',(#100,#101,#102,#103,#104));
#515=EDGE_LOOP('',(#105,#106,#107,#108));
#516=EDGE_LOOP('',(#109,#110,#111,#112));
#517=EDGE_LOOP('',(#113,#114,#115,#116,#117,#118));
#518=EDGE_LOOP('',(#119,#120,#121,#122));
#519=EDGE_LOOP('',(#123,#124,#125,#126));
#520=EDGE_LOOP('',(#127,#128,#129,#130,#131,#132,#133,#134,#135,#136,#137,
#138,#139,#140));
#521=EDGE_LOOP('',(#141,#142,#143,#144));
#522=EDGE_LOOP('',(#145));
#523=EDGE_LOOP('',(#146,#147,#148,#149));
#524=EDGE_LOOP('',(#150,#151,#152,#153,#154));
#525=EDGE_LOOP('',(#155,#156,#157,#158));
#526=EDGE_LOOP('',(#159,#160,#161,#162));
#527=EDGE_LOOP('',(#163,#164,#165,#166));
#528=EDGE_LOOP('',(#167,#168,#169,#170));
#529=EDGE_LOOP('',(#171,#172,#173,#174));
#530=EDGE_LOOP('',(#175,#176,#177,#178));
#531=EDGE_LOOP('',(#179,#180,#181,#182));
#532=EDGE_LOOP('',(#183,#184,#185,#186));
#533=EDGE_LOOP('',(#187,#188,#189,#190));
#534=EDGE_LOOP('',(#191,#192,#193,#194));
#535=EDGE_LOOP('',(#195,#196,#197,#198));
#536=EDGE_LOOP('',(#199,#200,#201));
#537=EDGE_LOOP('',(#202,#203,#204,#205));
#538=EDGE_LOOP('',(#206,#207,#208,#209));
#539=EDGE_LOOP('',(#210,#211,#212,#213));
#540=EDGE_LOOP('',(#214,#215,#216,#217));
#541=EDGE_LOOP('',(#218,#219,#220,#221));
#542=EDGE_LOOP('',(#222));
#543=EDGE_LOOP('',(#223));
#544=EDGE_LOOP('',(#224));
#545=EDGE_LOOP('',(#225));
#546=FACE_BOUND('',#503,.T.);
#547=FACE_BOUND('',#504,.T.);
#548=FACE_BOUND('',#505,.T.);
#549=FACE_BOUND('',#506,.T.);
#550=FACE_BOUND('',#507,.T.);
#551=FACE_BOUND('',#508,.T.);
#552=FACE_BOUND('',#509,.T.);
#553=FACE_BOUND('',#510,.T.);
#554=FACE_BOUND('',#511,.T.);
#555=FACE_BOUND('',#512,.T.);
#556=FACE_BOUND('',#513,.T.);
#557=FACE_BOUND('',#514,.T.);
#558=FACE_BOUND('',#515,.T.);
#559=FACE_BOUND('',#516,.T.);
#560=FACE_BOUND('',#517,.T.);
#561=FACE_BOUND('',#518,.T.);
#562=FACE_BOUND('',#519,.T.);
#563=FACE_BOUND('',#520,.T.);
#564=FACE_BOUND('',#521,.T.);
#565=FACE_BOUND('',#522,.T.);
#566=FACE_BOUND('',#523,.T.);
#567=FACE_BOUND('',#524,.T.);
#568=FACE_BOUND('',#525,.T.);
#569=FACE_BOUND('',#526,.T.);
#570=FACE_BOUND('',#527,.T.);
#571=FACE_BOUND('',#528,.T.);
#572=FACE_BOUND('',#529,.T.);
#573=FACE_BOUND('',#530,.T.);
#574=FACE_BOUND('',#531,.T.);
#575=FACE_BOUND('',#532,.T.);
#576=FACE_BOUND('',#533,.T.);
#577=FACE_BOUND('',#534,.T.);
#578=FACE_BOUND('',#535,.T.);
#579=FACE_BOUND('',#536,.T.);
#580=FACE_BOUND('',#537,.T.);
#581=FACE_BOUND('',#538,.T.);
#582=FACE_BOUND('',#539,.T.);
#583=FACE_BOUND('',#540,.T.);
#584=FACE_BOUND('',#541,.T.);
#585=FACE_BOUND('',#542,.T.);
#586=FACE_BOUND('',#543,.T.);
#587=FACE_BOUND('',#544,.T.);
#588=FACE_BOUND('',#545,.T.);
#589=PLANE('',#659);
#590=PLANE('',#661);
#591=PLANE('',#662);
#592=PLANE('',#664);
#593=PLANE('',#665);
#594=PLANE('',#666);
#595=PLANE('',#668);
#596=PLANE('',#669);
#597=PLANE('',#671);
#598=PLANE('',#673);
#599=PLANE('',#674);
#600=PLANE('',#675);
#601=PLANE('',#677);
#602=PLANE('',#678);
#603=PLANE('',#679);
#604=PLANE('',#680);
#605=PLANE('',#681);
#606=PLANE('',#683);
#607=PLANE('',#684);
#608=PLANE('',#685);
#609=ADVANCED_FACE('',(#546),#589,.T.);
#610=ADVANCED_FACE('',(#547),#590,.F.);
#611=ADVANCED_FACE('',(#548,#549),#591,.T.);
#612=ADVANCED_FACE('',(#550),#592,.F.);
#613=ADVANCED_FACE('',(#551),#593,.T.);
#614=ADVANCED_FACE('',(#552,#553),#594,.F.);
#615=ADVANCED_FACE('',(#554),#595,.F.);
#616=ADVANCED_FACE('',(#555,#556),#596,.T.);
#617=ADVANCED_FACE('',(#557),#597,.F.);
#618=ADVANCED_FACE('',(#558),#598,.T.);
#619=ADVANCED_FACE('',(#559),#599,.T.);
#620=ADVANCED_FACE('',(#560),#600,.T.);
#621=ADVANCED_FACE('',(#561),#601,.F.);
#622=ADVANCED_FACE('',(#562),#602,.T.);
#623=ADVANCED_FACE('',(#563),#603,.T.);
#624=ADVANCED_FACE('',(#564),#604,.T.);
#625=ADVANCED_FACE('',(#565,#566),#605,.F.);
#626=ADVANCED_FACE('',(#567),#606,.F.);
#627=ADVANCED_FACE('',(#568),#607,.F.);
#628=ADVANCED_FACE('',(#569),#608,.F.);
#629=ADVANCED_FACE('',(#570),#26,.T.);
#630=ADVANCED_FACE('',(#571),#27,.T.);
#631=ADVANCED_FACE('',(#572),#28,.T.);
#632=ADVANCED_FACE('',(#573),#29,.T.);
#633=ADVANCED_FACE('',(#574),#30,.T.);
#634=ADVANCED_FACE('',(#575),#31,.T.);
#635=ADVANCED_FACE('',(#576),#32,.T.);
#636=ADVANCED_FACE('',(#577),#33,.T.);
#637=ADVANCED_FACE('',(#578),#34,.T.);
#638=ADVANCED_FACE('',(#579),#12,.T.);
#639=ADVANCED_FACE('',(#580),#35,.T.);
#640=ADVANCED_FACE('',(#581),#36,.T.);
#641=ADVANCED_FACE('',(#582),#37,.T.);
#642=ADVANCED_FACE('',(#583),#38,.T.);
#643=ADVANCED_FACE('',(#584),#39,.T.);
#644=ADVANCED_FACE('',(#585,#586),#40,.F.);
#645=ADVANCED_FACE('',(#587,#588),#41,.F.);
#646=CLOSED_SHELL('',(#609,#610,#611,#612,#613,#614,#615,#616,#617,#618,
#619,#620,#621,#622,#623,#624,#625,#626,#627,#628,#629,#630,#631,#632,#633,
#634,#635,#636,#637,#638,#639,#640,#641,#642,#643,#644,#645));
#647=STYLED_ITEM('',(#648),#655);
#648=PRESENTATION_STYLE_ASSIGNMENT((#649));
#649=SURFACE_STYLE_USAGE(.BOTH.,#650);
#650=SURFACE_SIDE_STYLE('',(#651));
#651=SURFACE_STYLE_FILL_AREA(#652);
#652=FILL_AREA_STYLE('',(#653));
#653=FILL_AREA_STYLE_COLOUR('',#654);
#654=COLOUR_RGB('',0.615686274509804,0.811764705882353,0.929411764705882);
#655=MANIFOLD_SOLID_BREP('side bracket',#646);
#656=SHAPE_DEFINITION_REPRESENTATION(#1106,#657);
#657=SHAPE_REPRESENTATION('side bracket',(#658),#1101);
#658=AXIS2_PLACEMENT_3D('',#899,#716,#717);
#659=AXIS2_PLACEMENT_3D('',#900,#718,#719);
#660=AXIS2_PLACEMENT_3D('',#904,#721,#722);
#661=AXIS2_PLACEMENT_3D('',#915,#728,#729);
#662=AXIS2_PLACEMENT_3D('',#932,#738,#739);
#663=AXIS2_PLACEMENT_3D('',#933,#740,#741);
#664=AXIS2_PLACEMENT_3D('',#944,#747,#748);
#665=AXIS2_PLACEMENT_3D('',#950,#752,#753);
#666=AXIS2_PLACEMENT_3D('',#956,#757,#758);
#667=AXIS2_PLACEMENT_3D('',#957,#759,#760);
#668=AXIS2_PLACEMENT_3D('',#965,#765,#766);
#669=AXIS2_PLACEMENT_3D('',#971,#770,#771);
#670=AXIS2_PLACEMENT_3D('',#972,#772,#773);
#671=AXIS2_PLACEMENT_3D('',#987,#781,#782);
#672=AXIS2_PLACEMENT_3D('',#991,#784,#785);
#673=AXIS2_PLACEMENT_3D('',#995,#788,#789);
#674=AXIS2_PLACEMENT_3D('',#1001,#793,#794);
#675=AXIS2_PLACEMENT_3D('',#1004,#797,#798);
#676=AXIS2_PLACEMENT_3D('',#1016,#804,#805);
#677=AXIS2_PLACEMENT_3D('',#1017,#806,#807);
#678=AXIS2_PLACEMENT_3D('',#1023,#811,#812);
#679=AXIS2_PLACEMENT_3D('',#1026,#815,#816);
#680=AXIS2_PLACEMENT_3D('',#1035,#822,#823);
#681=AXIS2_PLACEMENT_3D('',#1041,#827,#828);
#682=AXIS2_PLACEMENT_3D('',#1042,#829,#830);
#683=AXIS2_PLACEMENT_3D('',#1046,#833,#834);
#684=AXIS2_PLACEMENT_3D('',#1047,#835,#836);
#685=AXIS2_PLACEMENT_3D('',#1048,#837,#838);
#686=AXIS2_PLACEMENT_3D('',#1049,#839,#840);
#687=AXIS2_PLACEMENT_3D('',#1050,#841,#842);
#688=AXIS2_PLACEMENT_3D('',#1051,#843,#844);
#689=AXIS2_PLACEMENT_3D('',#1052,#845,#846);
#690=AXIS2_PLACEMENT_3D('',#1053,#847,#848);
#691=AXIS2_PLACEMENT_3D('',#1054,#849,#850);
#692=AXIS2_PLACEMENT_3D('',#1055,#851,#852);
#693=AXIS2_PLACEMENT_3D('',#1056,#853,#854);
#694=AXIS2_PLACEMENT_3D('',#1057,#855,#856);
#695=AXIS2_PLACEMENT_3D('',#1058,#857,#858);
#696=AXIS2_PLACEMENT_3D('',#1059,#859,#860);
#697=AXIS2_PLACEMENT_3D('',#1060,#861,#862);
#698=AXIS2_PLACEMENT_3D('',#1061,#863,#864);
#699=AXIS2_PLACEMENT_3D('',#1062,#865,#866);
#700=AXIS2_PLACEMENT_3D('',#1063,#867,#868);
#701=AXIS2_PLACEMENT_3D('',#1064,#869,#870);
#702=AXIS2_PLACEMENT_3D('',#1065,#871,#872);
#703=AXIS2_PLACEMENT_3D('',#1066,#873,#874);
#704=AXIS2_PLACEMENT_3D('',#1067,#875,#876);
#705=AXIS2_PLACEMENT_3D('',#1089,#877,#878);
#706=AXIS2_PLACEMENT_3D('',#1090,#879,#880);
#707=AXIS2_PLACEMENT_3D('',#1091,#881,#882);
#708=AXIS2_PLACEMENT_3D('',#1092,#883,#884);
#709=AXIS2_PLACEMENT_3D('',#1093,#885,#886);
#710=AXIS2_PLACEMENT_3D('',#1094,#887,#888);
#711=AXIS2_PLACEMENT_3D('',#1095,#889,#890);
#712=AXIS2_PLACEMENT_3D('',#1096,#891,#892);
#713=AXIS2_PLACEMENT_3D('',#1097,#893,#894);
#714=AXIS2_PLACEMENT_3D('',#1098,#895,#896);
#715=AXIS2_PLACEMENT_3D('',#1099,#897,#898);
#716=DIRECTION('',(0.,0.,1.));
#717=DIRECTION('',(1.,0.,0.));
#718=DIRECTION('',(-1.,0.,0.));
#719=DIRECTION('',(0.,0.,1.));
#720=DIRECTION('',(0.,1.,0.));
#721=DIRECTION('',(-1.,0.,0.));
#722=DIRECTION('',(0.,0.,1.));
#723=DIRECTION('',(0.,0.,-1.));
#724=DIRECTION('',(0.,1.,0.));
#725=DIRECTION('',(0.,0.,-1.));
#726=DIRECTION('',(0.,1.,0.));
#727=DIRECTION('',(0.,0.,-1.));
#728=DIRECTION('',(0.,0.,1.));
#729=DIRECTION('',(1.,0.,0.));
#730=DIRECTION('',(-1.,0.,0.));
#731=DIRECTION('',(0.,1.,0.));
#732=DIRECTION('',(-1.,-1.36592399683213E-16,0.));
#733=DIRECTION('',(0.,1.,0.));
#734=DIRECTION('',(1.,0.,0.));
#735=DIRECTION('',(0.,-1.,0.));
#736=DIRECTION('',(1.,0.,0.));
#737=DIRECTION('',(0.,-1.,0.));
#738=DIRECTION('',(0.,-1.,0.));
#739=DIRECTION('',(0.,0.,-1.));
#740=DIRECTION('',(0.,-1.,0.));
#741=DIRECTION('',(0.,0.,-1.));
#742=DIRECTION('',(-1.,0.,0.));
#743=DIRECTION('',(0.,0.,-1.));
#744=DIRECTION('',(-1.,0.,0.));
#745=DIRECTION('',(0.,0.,-1.));
#746=DIRECTION('',(-1.,0.,0.));
#747=DIRECTION('',(1.,2.73184799366426E-16,0.));
#748=DIRECTION('',(-2.73184799366426E-16,1.,0.));
#749=DIRECTION('',(2.73184799366426E-16,-1.,0.));
#750=DIRECTION('',(0.,0.,-1.));
#751=DIRECTION('',(2.73184799366426E-16,-1.,0.));
#752=DIRECTION('',(1.36592399683213E-16,-1.,0.));
#753=DIRECTION('',(1.,1.36592399683213E-16,0.));
#754=DIRECTION('',(-1.,-1.36592399683213E-16,0.));
#755=DIRECTION('',(0.,0.,-1.));
#756=DIRECTION('',(-1.,-1.36592399683213E-16,0.));
#757=DIRECTION('',(1.,0.,0.));
#758=DIRECTION('',(0.,0.,-1.));
#759=DIRECTION('',(1.,0.,0.));
#760=DIRECTION('',(0.,0.,-1.));
#761=DIRECTION('',(0.,-1.,0.));
#762=DIRECTION('',(0.,0.,-1.));
#763=DIRECTION('',(0.,-1.,0.));
#764=DIRECTION('',(0.,-1.,0.));
#765=DIRECTION('',(0.,1.,0.));
#766=DIRECTION('',(0.,0.,1.));
#767=DIRECTION('',(1.,0.,0.));
#768=DIRECTION('',(0.,0.,-1.));
#769=DIRECTION('',(1.,0.,0.));
#770=DIRECTION('',(1.,0.,0.));
#771=DIRECTION('',(0.,0.,-1.));
#772=DIRECTION('',(1.,0.,0.));
#773=DIRECTION('',(0.,0.,-1.));
#774=DIRECTION('',(0.,0.,-1.));
#775=DIRECTION('',(0.,1.,0.));
#776=DIRECTION('',(0.,0.,-1.));
#777=DIRECTION('',(6.84396083259385E-17,-1.,0.));
#778=DIRECTION('',(0.,0.,-1.));
#779=DIRECTION('',(0.,-1.,0.));
#780=DIRECTION('',(0.,-1.,0.));
#781=DIRECTION('',(0.,1.,0.));
#782=DIRECTION('',(0.,0.,1.));
#783=DIRECTION('',(0.,0.,-1.));
#784=DIRECTION('',(0.,1.,0.));
#785=DIRECTION('',(0.,0.,1.));
#786=DIRECTION('',(1.,0.,0.));
#787=DIRECTION('',(1.,0.,0.));
#788=DIRECTION('',(1.,0.,0.));
#789=DIRECTION('',(0.,0.,-1.));
#790=DIRECTION('',(0.,0.,-1.));
#791=DIRECTION('',(0.,-1.,0.));
#792=DIRECTION('',(0.,-1.,0.));
#793=DIRECTION('',(0.,1.,0.));
#794=DIRECTION('',(0.,0.,1.));
#795=DIRECTION('',(1.,0.,0.));
#796=DIRECTION('',(1.,0.,0.));
#797=DIRECTION('',(0.,1.,0.));
#798=DIRECTION('',(0.,0.,1.));
#799=DIRECTION('',(1.,0.,0.));
#800=DIRECTION('',(0.,0.,-1.));
#801=DIRECTION('',(1.,0.,0.));
#802=DIRECTION('',(0.,0.,-1.));
#803=DIRECTION('',(0.,0.,-1.));
#804=DIRECTION('',(0.,1.,0.));
#805=DIRECTION('',(0.,0.,1.));
#806=DIRECTION('',(-1.,0.,0.));
#807=DIRECTION('',(0.,0.,1.));
#808=DIRECTION('',(0.,0.,-1.));
#809=DIRECTION('',(0.,1.,0.));
#810=DIRECTION('',(0.,1.,0.));
#811=DIRECTION('',(0.,1.,0.));
#812=DIRECTION('',(0.,0.,1.));
#813=DIRECTION('',(1.,0.,0.));
#814=DIRECTION('',(1.,0.,0.));
#815=DIRECTION('',(0.,0.,1.));
#816=DIRECTION('',(1.,0.,0.));
#817=DIRECTION('',(1.,0.,0.));
#818=DIRECTION('',(0.,1.,0.));
#819=DIRECTION('',(0.,1.,0.));
#820=DIRECTION('',(1.,0.,0.));
#821=DIRECTION('',(0.,-1.,0.));
#822=DIRECTION('',(-1.,0.,0.));
#823=DIRECTION('',(0.,0.,1.));
#824=DIRECTION('',(0.,1.,0.));
#825=DIRECTION('',(0.,0.,-1.));
#826=DIRECTION('',(0.,1.,0.));
#827=DIRECTION('',(1.36592399683213E-16,-1.,0.));
#828=DIRECTION('',(1.,1.36592399683213E-16,0.));
#829=DIRECTION('',(-1.36592399683213E-16,1.,0.));
#830=DIRECTION('',(-1.,-1.36592399683213E-16,0.));
#831=DIRECTION('',(-1.,-1.36592399683213E-16,0.));
#832=DIRECTION('',(-1.,-1.36592399683213E-16,0.));
#833=DIRECTION('',(0.,0.,1.));
#834=DIRECTION('',(1.,0.,0.));
#835=DIRECTION('',(0.,0.,1.));
#836=DIRECTION('',(1.,0.,0.));
#837=DIRECTION('',(0.,0.,1.));
#838=DIRECTION('',(1.,0.,0.));
#839=DIRECTION('',(0.,-1.,0.));
#840=DIRECTION('',(0.,0.,-1.));
#841=DIRECTION('',(-0.707106781186548,-0.707106781186548,0.));
#842=DIRECTION('',(-0.707106781186548,0.707106781186548,0.));
#843=DIRECTION('',(-0.707106781186548,-0.707106781186548,0.));
#844=DIRECTION('',(0.707106781186548,-0.707106781186548,0.));
#845=DIRECTION('',(-1.,-1.36592399683213E-16,0.));
#846=DIRECTION('',(1.36592399683213E-16,-1.,0.));
#847=DIRECTION('',(-0.707106781186548,-0.707106781186548,0.));
#848=DIRECTION('',(-0.707106781186548,0.707106781186548,0.));
#849=DIRECTION('',(-1.,0.,0.));
#850=DIRECTION('',(0.,0.,1.));
#851=DIRECTION('',(0.989359135364853,-0.145493990494833,0.));
#852=DIRECTION('',(0.145493990494833,0.989359135364853,0.));
#853=DIRECTION('',(0.,-1.,0.));
#854=DIRECTION('',(0.,0.,-1.));
#855=DIRECTION('',(0.707106781186548,-0.707106781186548,0.));
#856=DIRECTION('',(-0.707106781186548,-0.707106781186548,0.));
#857=DIRECTION('',(0.,1.,0.));
#858=DIRECTION('',(0.,0.,1.));
#859=DIRECTION('',(0.145493990494829,-0.989359135364854,0.));
#860=DIRECTION('',(0.989359135364854,0.145493990494829,0.));
#861=DIRECTION('',(0.707106781186548,0.707106781186548,0.));
#862=DIRECTION('',(0.707106781186548,-0.707106781186548,0.));
#863=DIRECTION('',(1.,0.,0.));
#864=DIRECTION('',(0.,0.,-1.));
#865=DIRECTION('',(0.707106781186548,-0.707106781186548,0.));
#866=DIRECTION('',(-0.707106781186548,-0.707106781186548,0.));
#867=DIRECTION('',(1.,0.,0.));
#868=DIRECTION('',(0.,0.,-1.));
#869=DIRECTION('',(0.707106781186548,-0.707106781186548,0.));
#870=DIRECTION('',(0.707106781186548,0.707106781186548,0.));
#871=DIRECTION('',(0.,-1.,0.));
#872=DIRECTION('',(0.,0.,-1.));
#873=DIRECTION('',(0.,-1.,0.));
#874=DIRECTION('',(0.,0.,-1.));
#875=DIRECTION('',(0.707106781186548,-0.707106781186548,0.));
#876=DIRECTION('',(0.707106781186548,0.707106781186548,0.));
#877=DIRECTION('',(0.,0.,1.));
#878=DIRECTION('',(1.,0.,0.));
#879=DIRECTION('',(1.,0.,0.));
#880=DIRECTION('',(0.,0.,-1.));
#881=DIRECTION('',(-0.707106781186548,0.707106781186548,0.));
#882=DIRECTION('',(0.707106781186548,0.707106781186548,0.));
#883=DIRECTION('',(0.,0.,-1.));
#884=DIRECTION('',(-1.,0.,0.));
#885=DIRECTION('',(0.,0.707106781186548,-0.707106781186548));
#886=DIRECTION('',(0.,-0.707106781186548,-0.707106781186548));
#887=DIRECTION('',(0.,1.,0.));
#888=DIRECTION('',(0.,0.,1.));
#889=DIRECTION('',(1.,0.,0.));
#890=DIRECTION('',(0.,0.,-1.));
#891=DIRECTION('',(0.707106781186548,-0.707106781186548,0.));
#892=DIRECTION('',(0.707106781186548,0.707106781186548,0.));
#893=DIRECTION('',(0.,-1.,0.));
#894=DIRECTION('',(0.,0.,-1.));
#895=DIRECTION('',(1.,0.,0.));
#896=DIRECTION('',(0.,0.,-1.));
#897=DIRECTION('',(-1.36592399683213E-16,1.,0.));
#898=DIRECTION('',(-1.,-1.36592399683213E-16,0.));
#899=CARTESIAN_POINT('',(0.,0.,0.));
#900=CARTESIAN_POINT('',(-0.0254,0.00762,0.03048));
#901=CARTESIAN_POINT('',(-0.0254,0.00762,0.03048));
#902=CARTESIAN_POINT('',(-0.0254,0.,0.03048));
#903=CARTESIAN_POINT('',(-0.0254,0.00838169028995598,0.03048));
#904=CARTESIAN_POINT('',(-0.0254,0.00838169028995598,0.028701690289956));
#905=CARTESIAN_POINT('',(-0.0254,0.01016,0.028701690289956));
#906=CARTESIAN_POINT('',(-0.0254,0.01016,0.03048));
#907=CARTESIAN_POINT('',(-0.0254,0.01016,0.0254));
#908=CARTESIAN_POINT('',(-0.0254,0.00762,0.0254));
#909=CARTESIAN_POINT('',(-0.0254,0.00508,0.0254));
#910=CARTESIAN_POINT('',(-0.0254,0.00508,0.0254));
#911=CARTESIAN_POINT('',(-0.0254,0.00508,0.00208491483246541));
#912=CARTESIAN_POINT('',(-0.0254,0.,0.0020849148324654));
#913=CARTESIAN_POINT('',(-0.0254,0.,0.0020849148324654));
#914=CARTESIAN_POINT('',(-0.0254,0.,0.03048));
#915=CARTESIAN_POINT('',(-0.00762,-0.00762,0.));
#916=CARTESIAN_POINT('',(-0.0254,0.0020849148324654,0.));
#917=CARTESIAN_POINT('',(0.0020849148324654,0.0020849148324654,0.));
#918=CARTESIAN_POINT('',(-0.0233150851675346,0.0020849148324654,0.));
#919=CARTESIAN_POINT('',(-0.0233150851675346,0.00508,0.));
#920=CARTESIAN_POINT('',(-0.0233150851675346,0.00299508516753459,0.));
#921=CARTESIAN_POINT('',(-0.00762,0.00299508516753459,0.));
#922=CARTESIAN_POINT('',(0.0020849148324654,0.0029950851675346,0.));
#923=CARTESIAN_POINT('',(0.0020849148324654,0.00516955880448222,0.));
#924=CARTESIAN_POINT('',(0.0020849148324654,0.00308464397201681,0.));
#925=CARTESIAN_POINT('',(0.00508,0.00308464397201681,0.));
#926=CARTESIAN_POINT('',(0.00299508516753459,0.00308464397201681,0.));
#927=CARTESIAN_POINT('',(0.00299508516753459,-0.0254,0.));
#928=CARTESIAN_POINT('',(0.00299508516753459,-0.0233150851675346,0.));
#929=CARTESIAN_POINT('',(-0.00762,-0.0233150851675346,0.));
#930=CARTESIAN_POINT('',(0.0020849148324654,-0.0233150851675346,0.));
#931=CARTESIAN_POINT('',(0.0020849148324654,-0.00762,0.));
#932=CARTESIAN_POINT('',(-0.01905,0.,0.03048));
#933=CARTESIAN_POINT('',(-0.0127,0.,0.0127));
#934=CARTESIAN_POINT('',(-0.0127,0.,0.010668));
#935=CARTESIAN_POINT('',(0.,0.,0.0020849148324654));
#936=CARTESIAN_POINT('',(0.,0.,0.00208491483246541));
#937=CARTESIAN_POINT('',(0.,0.,0.0254));
#938=CARTESIAN_POINT('',(0.,0.,0.0254));
#939=CARTESIAN_POINT('',(-0.00635,0.,0.0254));
#940=CARTESIAN_POINT('',(-0.0127,0.,0.0254));
#941=CARTESIAN_POINT('',(-0.0127,0.,0.03048));
#942=CARTESIAN_POINT('',(-0.0127,0.,0.03048));
#943=CARTESIAN_POINT('',(-0.01905,0.,0.03048));
#944=CARTESIAN_POINT('',(-0.0127,-0.00635,0.03048));
#945=CARTESIAN_POINT('',(-0.0127,-0.00635,0.0254));
#946=CARTESIAN_POINT('',(-0.0127,-0.0127,0.0254));
#947=CARTESIAN_POINT('',(-0.0127,-0.0127,0.03048));
#948=CARTESIAN_POINT('',(-0.0127,-0.0127,0.03048));
#949=CARTESIAN_POINT('',(-0.0127,-0.00635,0.03048));
#950=CARTESIAN_POINT('',(-0.00635,-0.0127,0.03048));
#951=CARTESIAN_POINT('',(-0.00635,-0.0127,0.0254));
#952=CARTESIAN_POINT('',(0.,-0.0127,0.0254));
#953=CARTESIAN_POINT('',(0.,-0.0127,0.03048));
#954=CARTESIAN_POINT('',(0.,-0.0127,0.03048));
#955=CARTESIAN_POINT('',(-0.00635,-0.0127,0.03048));
#956=CARTESIAN_POINT('',(0.,-0.01905,0.03048));
#957=CARTESIAN_POINT('',(0.,-0.0126733883960536,0.0127));
#958=CARTESIAN_POINT('',(0.,-0.0126733883960536,0.010668));
#959=CARTESIAN_POINT('',(0.,-0.01905,0.0020849148324654));
#960=CARTESIAN_POINT('',(0.,-0.0254,0.0020849148324654));
#961=CARTESIAN_POINT('',(0.,-0.0254,0.03048));
#962=CARTESIAN_POINT('',(0.,-0.0254,0.03048));
#963=CARTESIAN_POINT('',(0.,-0.01905,0.03048));
#964=CARTESIAN_POINT('',(0.,-0.00635,0.0254));
#965=CARTESIAN_POINT('',(0.00254,-0.0254,0.03048));
#966=CARTESIAN_POINT('',(0.00254,-0.0254,0.0020849148324654));
#967=CARTESIAN_POINT('',(0.00508,-0.0254,0.0020849148324654));
#968=CARTESIAN_POINT('',(0.00508,-0.0254,0.03048));
#969=CARTESIAN_POINT('',(0.00508,-0.0254,0.03048));
#970=CARTESIAN_POINT('',(0.00254,-0.0254,0.03048));
#971=CARTESIAN_POINT('',(0.00508,-0.0253733883960537,0.03048));
#972=CARTESIAN_POINT('',(0.00508,-0.0126733883960536,0.0127));
#973=CARTESIAN_POINT('',(0.00508,-0.0126733883960536,0.010668));
#974=CARTESIAN_POINT('',(0.00508,0.0033912490944382,0.03048));
#975=CARTESIAN_POINT('',(0.00508,0.0033912490944382,0.0020849148324654));
#976=CARTESIAN_POINT('',(0.00508,0.0033912490944382,0.028701690289956));
#977=CARTESIAN_POINT('',(0.00508,-0.0253733883960537,0.028701690289956));
#978=CARTESIAN_POINT('',(0.00508,0.,0.028701690289956));
#979=CARTESIAN_POINT('',(0.00508,0.,0.03048));
#980=CARTESIAN_POINT('',(0.00508,0.,0.0254));
#981=CARTESIAN_POINT('',(0.00508,-0.0126733883960536,0.0254));
#982=CARTESIAN_POINT('',(0.00508,-0.0253467767921072,0.0254));
#983=CARTESIAN_POINT('',(0.00508,-0.0253467767921072,0.03048));
#984=CARTESIAN_POINT('',(0.00508,-0.0253467767921072,0.03048));
#985=CARTESIAN_POINT('',(0.00508,-0.0253733883960537,0.03048));
#986=CARTESIAN_POINT('',(0.00508,0.00516955880448222,0.0020849148324654));
#987=CARTESIAN_POINT('',(0.00762,-0.0253467767921072,0.03048));
#988=CARTESIAN_POINT('',(0.01016,-0.0253467767921072,0.03048));
#989=CARTESIAN_POINT('',(0.01016,-0.0253467767921072,0.028701690289956));
#990=CARTESIAN_POINT('',(0.01016,-0.0253467767921072,0.0254));
#991=CARTESIAN_POINT('',(0.00838169028995598,-0.0253467767921072,0.028701690289956));
#992=CARTESIAN_POINT('',(0.00838169028995598,-0.0253467767921072,0.03048));
#993=CARTESIAN_POINT('',(0.00762,-0.0253467767921072,0.03048));
#994=CARTESIAN_POINT('',(0.00762,-0.0253467767921072,0.0254));
#995=CARTESIAN_POINT('',(0.01016,-0.0126733883960536,0.03048));
#996=CARTESIAN_POINT('',(0.01016,0.,0.03048));
#997=CARTESIAN_POINT('',(0.01016,0.,0.028701690289956));
#998=CARTESIAN_POINT('',(0.01016,0.,0.0254));
#999=CARTESIAN_POINT('',(0.01016,-0.0126733883960536,0.028701690289956));
#1000=CARTESIAN_POINT('',(0.01016,-0.0126733883960536,0.0254));
#1001=CARTESIAN_POINT('',(0.00762,0.,0.03048));
#1002=CARTESIAN_POINT('',(0.00762,0.,0.028701690289956));
#1003=CARTESIAN_POINT('',(0.00762,0.,0.0254));
#1004=CARTESIAN_POINT('',(0.00254,0.00516955880448222,0.03048));
#1005=CARTESIAN_POINT('',(0.00254,0.00516955880448222,0.03048));
#1006=CARTESIAN_POINT('',(-0.00177830971004402,0.00516955880448222,0.03048));
#1007=CARTESIAN_POINT('',(0.00330169028995598,0.00516955880448222,0.03048));
#1008=CARTESIAN_POINT('',(0.00330169028995598,0.00516955880448222,0.03048));
#1009=CARTESIAN_POINT('',(0.00330169028995598,0.00516955880448222,0.0020849148324654));
#1010=CARTESIAN_POINT('',(0.,0.00516955880448222,0.0020849148324654));
#1011=CARTESIAN_POINT('',(0.,0.00516955880448222,0.0020849148324654));
#1012=CARTESIAN_POINT('',(0.,0.00516955880448222,0.03048));
#1013=CARTESIAN_POINT('',(0.,0.00516955880448222,0.0254));
#1014=CARTESIAN_POINT('',(0.,0.00516955880448222,0.03048));
#1015=CARTESIAN_POINT('',(0.,0.00516955880448222,0.028701690289956));
#1016=CARTESIAN_POINT('',(-0.00177830971004402,0.00516955880448222,0.028701690289956));
#1017=CARTESIAN_POINT('',(0.,0.00766477940224111,0.03048));
#1018=CARTESIAN_POINT('',(0.,0.01016,0.03048));
#1019=CARTESIAN_POINT('',(0.,0.01016,0.028701690289956));
#1020=CARTESIAN_POINT('',(0.,0.01016,0.0254));
#1021=CARTESIAN_POINT('',(0.,0.00516955880448222,0.028701690289956));
#1022=CARTESIAN_POINT('',(0.,0.00512477940224111,0.0254));
#1023=CARTESIAN_POINT('',(-0.0127,0.01016,0.03048));
#1024=CARTESIAN_POINT('',(-0.0127,0.01016,0.028701690289956));
#1025=CARTESIAN_POINT('',(-0.0127,0.01016,0.0254));
#1026=CARTESIAN_POINT('',(-0.00762,-0.00762,0.03048));
#1027=CARTESIAN_POINT('',(-0.00762,-0.00177830971004402,0.03048));
#1028=CARTESIAN_POINT('',(0.00838169028995598,-0.00177830971004402,0.03048));
#1029=CARTESIAN_POINT('',(0.00330169028995598,-0.00177830971004402,0.03048));
#1030=CARTESIAN_POINT('',(0.00330169028995598,-0.00762,0.03048));
#1031=CARTESIAN_POINT('',(-0.00177830971004402,0.01016,0.03048));
#1032=CARTESIAN_POINT('',(-0.00177830971004402,0.00838169028995598,0.03048));
#1033=CARTESIAN_POINT('',(-0.00762,0.00838169028995598,0.03048));
#1034=CARTESIAN_POINT('',(0.00838169028995598,-0.00762,0.03048));
#1035=CARTESIAN_POINT('',(0.,0.00512477940224111,0.0254));
#1036=CARTESIAN_POINT('',(0.,0.00508,0.0020849148324654));
#1037=CARTESIAN_POINT('',(0.,0.00508,0.00208491483246541));
#1038=CARTESIAN_POINT('',(0.,0.00508,0.0254));
#1039=CARTESIAN_POINT('',(0.,0.00508,0.0254));
#1040=CARTESIAN_POINT('',(0.,0.00512477940224111,0.0254));
#1041=CARTESIAN_POINT('',(-0.0127,0.00508,0.0254));
#1042=CARTESIAN_POINT('',(-0.0127,0.00508,0.0127));
#1043=CARTESIAN_POINT('',(-0.014732,0.00508,0.0127));
#1044=CARTESIAN_POINT('',(-0.0127,0.00508,0.0020849148324654));
#1045=CARTESIAN_POINT('',(-0.0127,0.00508,0.0254));
#1046=CARTESIAN_POINT('',(-0.00762,-0.00762,0.0254));
#1047=CARTESIAN_POINT('',(-0.00762,-0.00762,0.0254));
#1048=CARTESIAN_POINT('',(-0.00762,-0.00762,0.0254));
#1049=CARTESIAN_POINT('',(0.0020849148324654,-0.00762,0.0020849148324654));
#1050=CARTESIAN_POINT('',(0.0020849148324654,0.00308464397201681,0.0020849148324654));
#1051=CARTESIAN_POINT('',(0.0020849148324654,0.0029950851675346,0.0020849148324654));
#1052=CARTESIAN_POINT('',(-0.0127,0.0029950851675346,0.0020849148324654));
#1053=CARTESIAN_POINT('',(-0.0233150851675346,0.00299508516753459,0.0020849148324654));
#1054=CARTESIAN_POINT('',(-0.00762,0.00308464397201681,0.0020849148324654));
#1055=CARTESIAN_POINT('',(0.00299508516753459,0.00308464397201681,0.0020849148324654));
#1056=CARTESIAN_POINT('',(-0.0233150851675346,-0.00762,0.0020849148324654));
#1057=CARTESIAN_POINT('',(-0.0233150851675346,0.0020849148324654,0.0020849148324654));
#1058=CARTESIAN_POINT('',(0.00299508516753459,-0.00762,0.0020849148324654));
#1059=CARTESIAN_POINT('',(0.00299508516753459,0.00308464397201681,0.0020849148324654));
#1060=CARTESIAN_POINT('',(0.00299508516753459,-0.0233150851675346,0.0020849148324654));
#1061=CARTESIAN_POINT('',(-0.00762,0.0020849148324654,0.0020849148324654));
#1062=CARTESIAN_POINT('',(0.0020849148324654,0.0020849148324654,0.0020849148324654));
#1063=CARTESIAN_POINT('',(0.00254,-0.0233150851675346,0.0020849148324654));
#1064=CARTESIAN_POINT('',(0.0020849148324654,-0.0233150851675346,0.0020849148324654));
#1065=CARTESIAN_POINT('',(0.0020849148324654,-0.01905,0.0020849148324654));
#1066=CARTESIAN_POINT('',(0.00838169028995598,-0.0126733883960536,0.028701690289956));
#1067=CARTESIAN_POINT('',(0.00838169028995598,-0.00177830971004402,0.028701690289956));
#1068=CARTESIAN_POINT('',(0.00508,0.0033912490944382,0.00208491483246541));
#1069=CARTESIAN_POINT('',(0.00508,0.00516955880448222,0.0020849148324654));
#1070=CARTESIAN_POINT('',(0.00330169028995598,0.00516955880448222,0.00208491483246541));
#1071=CARTESIAN_POINT('',(0.00508,0.0033912490940901,0.00181199915137904));
#1072=CARTESIAN_POINT('',(0.00507999994722877,0.005169558751711,0.00157921360824748));
#1073=CARTESIAN_POINT('',(0.00330169028960788,0.00516955880448222,0.00181199915137904));
#1074=CARTESIAN_POINT('',(0.0049714410578651,0.00337528454428586,0.00126629836848252));
#1075=CARTESIAN_POINT('',(0.00478056087613217,0.00487011968061439,0.000669553583360317));
#1076=CARTESIAN_POINT('',(0.00328572573980364,0.00506099986234732,0.00126629836848252));
#1077=CARTESIAN_POINT('',(0.00450772814714367,0.00330709146897464,0.000572271792374576));
#1078=CARTESIAN_POINT('',(0.00405370377389164,0.00414326257837387,0.000138648334346444));
#1079=CARTESIAN_POINT('',(0.00321753266449242,0.00459728695162589,0.000572271792374576));
#1080=CARTESIAN_POINT('',(0.00381370185616403,0.00320502877918064,0.000108558959415407));
#1081=CARTESIAN_POINT('',(0.00347750999452218,0.00356706879900439,1.36273494921656E-5));
#1082=CARTESIAN_POINT('',(0.00311546997469842,0.00390326066064625,0.000108558959415407));
#1083=CARTESIAN_POINT('',(0.00326800036476685,0.00312477855984509,-3.85547474875455E-18));
#1084=CARTESIAN_POINT('',(0.0031516098573534,0.00324116866183562,-4.35033592373639E-12));
#1085=CARTESIAN_POINT('',(0.00303521975536287,0.00335755916924907,-3.85547474875455E-18));
#1086=CARTESIAN_POINT('',(0.00299508516753459,0.00308464397201681,-3.46944695195361E-18));
#1087=CARTESIAN_POINT('',(0.00299508516753459,0.00308464397201681,-3.46944695195361E-18));
#1088=CARTESIAN_POINT('',(0.00299508516753459,0.00308464397201681,-3.46944695195361E-18));
#1089=CARTESIAN_POINT('',(0.00330169028995598,0.0033912490944382,0.0020849148324654));
#1090=CARTESIAN_POINT('',(0.00762,-0.00177830971004402,0.028701690289956));
#1091=CARTESIAN_POINT('',(0.00330169028995598,-0.00177830971004402,0.028701690289956));
#1092=CARTESIAN_POINT('',(0.00330169028995598,0.0033912490944382,0.03048));
#1093=CARTESIAN_POINT('',(0.00330169028995598,0.0033912490944382,0.028701690289956));
#1094=CARTESIAN_POINT('',(0.00330169028995598,-0.00762,0.028701690289956));
#1095=CARTESIAN_POINT('',(-0.0127,0.00838169028995598,0.028701690289956));
#1096=CARTESIAN_POINT('',(-0.00177830971004402,0.00838169028995598,0.028701690289956));
#1097=CARTESIAN_POINT('',(-0.00177830971004402,-0.00762,0.028701690289956));
#1098=CARTESIAN_POINT('',(-0.02032,-0.0126733883960536,0.0127));
#1099=CARTESIAN_POINT('',(-0.0127,-0.02032,0.0127));
#1100=MECHANICAL_DESIGN_GEOMETRIC_PRESENTATION_REPRESENTATION('',(#647),
#1101);
#1101=(
GEOMETRIC_REPRESENTATION_CONTEXT(3)
GLOBAL_UNCERTAINTY_ASSIGNED_CONTEXT((#1102))
GLOBAL_UNIT_ASSIGNED_CONTEXT((#1105,#1104,#1103))
REPRESENTATION_CONTEXT('side bracket','TOP_LEVEL_ASSEMBLY_PART')
);
#1102=UNCERTAINTY_MEASURE_WITH_UNIT(LENGTH_MEASURE(2.E-5),#1105,
'DISTANCE_ACCURACY_VALUE','Maximum Tolerance applied to model');
#1103=(
NAMED_UNIT(*)
SI_UNIT($,.STERADIAN.)
SOLID_ANGLE_UNIT()
);
#1104=(
NAMED_UNIT(*)
PLANE_ANGLE_UNIT()
SI_UNIT($,.RADIAN.)
);
#1105=(
LENGTH_UNIT()
NAMED_UNIT(*)
SI_UNIT($,.METRE.)
);
#1106=PRODUCT_DEFINITION_SHAPE('','',#1107);
#1107=PRODUCT_DEFINITION('','',#1109,#1108);
#1108=PRODUCT_DEFINITION_CONTEXT('',#1115,'design');
#1109=PRODUCT_DEFINITION_FORMATION_WITH_SPECIFIED_SOURCE('','',#1111,
 .NOT_KNOWN.);
#1110=PRODUCT_RELATED_PRODUCT_CATEGORY('','',(#1111));
#1111=PRODUCT('side bracket','side bracket','side bracket',(#1113));
#1112=PRODUCT_CATEGORY('','');
#1113=PRODUCT_CONTEXT('',#1115,'mechanical');
#1114=APPLICATION_PROTOCOL_DEFINITION('international standard',
'ap242_managed_model_based_3d_engineering',2020,#1115);
#1115=APPLICATION_CONTEXT('managed model based 3d engineering');
ENDSEC;
END-ISO-10303-21;
